<?xml version="1.0" encoding="utf-8"?>
<!-- Generator: Adobe Illustrator 16.0.0, SVG Export Plug-In . SVG Version: 6.00 Build 0)  -->
<!DOCTYPE svg PUBLIC "-//W3C//DTD SVG 1.1//EN" "http://www.w3.org/Graphics/SVG/1.1/DTD/svg11.dtd">
<svg version="1.1" id="Calque_1" xmlns="http://www.w3.org/2000/svg" xmlns:xlink="http://www.w3.org/1999/xlink" x="0px" y="0px"
	 width="1376px" height="314px" viewBox="0 0 1376 314" style="enable-background:new 0 0 1376 314;" xml:space="preserve">
<style type="text/css">
<![CDATA[
	.st0{opacity:0.4;fill:#FFFFFF;}
]]>
</style>
<path class="st0" d="M374.3,256.2l217.5,0.5v-0.5h86.3h75.2v0.5l147.3-0.5h70.2h33.9h113.3h42.4h175.2V64.3
	c-6.9-4.5-15.6-7.9-26.3-9c-47.2-4.9-66.9,39.4-66.9,39.4s-28.2-10.2-45.1,9c-3.5,4-6.2,8.3-8.1,12.6c-7.7-6.8-18.3-12.2-32.5-13.7
	c-36-3.8-56,21.1-63.4,33.2c-3-12.1-14.4-44.2-52.6-48.2c-38.9-4.1-59.1,25.3-65,35.8c-7.8-11.5-20.8-22.8-42.4-25.1
	c-47.2-4.9-66.9,39.4-66.9,39.4s1.3-0.3-0.1-0.7c-1.9-4-6.6-8-9.9-11.8c-16.9-19.2-45.1-9-45.1-9s-19.7-44.3-66.9-39.4
	c-47.2,4.9-53.5,52.8-53.5,52.8s-22.9-8.9-32.4,9.9c-0.5,0.9-1.4,1.4-2.1,2.2c-1.9-3.8-4.3-7.5-7.4-11.1c-16.9-19.2-45.1-9-45.1-9
	s-19.7-44.3-66.9-39.4c-26.5,2.8-44.4,20.1-51.2,33.9l-0.1,0.2c0,0-19.7-44.3-66.9-39.4c-47.2,4.9-54.6,52.8-54.6,52.8
	s0.6-0.1-0.2-0.2c-5-14.4-18-38.5-50.7-41.9c-47.2-4.9-66.9,39.4-66.9,39.4s-28.2-10.2-45.1,9c-1.6,1.8-3,3.7-4.3,5.6
	c0.3-2.1,2.7-21.7-10.6-34.3c-14.1-13.4-32.4-9.9-32.4-9.9s-6.3-47.9-53.5-52.8c-19-2-45.5,7-56.1,14.9v85.3h1c-0.3,0-0.7,0.1-1,0.1
	v114.3l170.9-3h150.4l8,0.5 M80.4,144.1c0,0-16.7,1.3-23.5,0.6l24.7-3C80.8,143.2,80.4,144.1,80.4,144.1 M196.6,143
	c-0.2-0.4-0.3-0.8-0.5-1.3h1.3C197.1,142.1,196.9,142.6,196.6,143"/>
</svg>
