<?xml version="1.0" encoding="utf-8"?>
<!-- Generator: Adobe Illustrator 17.0.0, SVG Export Plug-In . SVG Version: 6.00 Build 0)  -->
<!DOCTYPE svg PUBLIC "-//W3C//DTD SVG 1.1//EN" "http://www.w3.org/Graphics/SVG/1.1/DTD/svg11.dtd">
<svg version="1.1" id="Calque_1" xmlns="http://www.w3.org/2000/svg" xmlns:xlink="http://www.w3.org/1999/xlink" x="0px" y="0px"
	 width="1280px" height="600px" viewBox="0 0 1280 600" style="enable-background:new 0 0 1280 600;" xml:space="preserve">
<style type="text/css">
	.st0{fill:url(#SVGID_1_);}
	.st1{opacity:0.3;}
	.st2{fill:#FFFFFF;}
	.st3{opacity:0.7;}
	.st4{fill:none;stroke:#FFFFFF;stroke-miterlimit:10;}
	.st5{fill:none;stroke:#000000;stroke-miterlimit:10;}
	.st6{fill:#14130B;}
	.st7{fill:none;stroke:#13130A;stroke-width:0.75;stroke-miterlimit:10;}
	.st8{fill:#13130A;}
	.st9{fill:#FFF0BC;}
	.st10{fill:none;stroke:#FFF0BC;stroke-width:2;stroke-miterlimit:10;}
	.st11{fill:url(#SVGID_2_);}
	.st12{fill:url(#SVGID_3_);}
	.st13{opacity:0.3;fill:url(#SVGID_4_);}
	.st14{opacity:0.3;fill:url(#SVGID_5_);}
	.st15{opacity:0.3;fill:url(#SVGID_6_);}
	.st16{opacity:0.4;fill:url(#SVGID_7_);}
	.st17{opacity:0.4;fill:url(#SVGID_8_);}
	.st18{opacity:0.3;fill:url(#SVGID_9_);}
	.st19{opacity:0.73;fill:url(#SVGID_10_);}
	.st20{opacity:0.85;fill:url(#SVGID_11_);}
	.st21{opacity:0.98;fill:url(#SVGID_12_);}
</style>
<linearGradient id="SVGID_1_" gradientUnits="userSpaceOnUse" x1="3599.0979" y1="-2304.3638" x2="4440.9878" y2="-2304.3638" gradientTransform="matrix(4.489700e-11 -1 1 4.489700e-11 2899.6387 -1619.0887)">
	<stop  offset="0" style="stop-color:#C8C7C6"/>
	<stop  offset="0.3296" style="stop-color:#DBD8C4"/>
	<stop  offset="0.7286" style="stop-color:#EDE8C2"/>
	<stop  offset="1" style="stop-color:#F3EEC1"/>
</linearGradient>
<rect x="0" y="-6043.6" class="st0" width="1190.5" height="841.9"/>
<g class="st1">
	<path class="st2" d="M21.8-5317.4c0,0,0.4-0.8,1.1-2.3H11.1C17.3-5319,21.8-5317.4,21.8-5317.4z"/>
	<path class="st2" d="M130-5318.5c0.2-0.4,0.5-0.8,0.7-1.2h-1.2C129.7-5319.3,129.8-5318.9,130-5318.5z"/>
	<path class="st2" d="M932-5265.7h-2.2c0.4,0.5,0.8,1.1,1.2,1.6C931.3-5264.6,931.6-5265.1,932-5265.7z"/>
	<path class="st2" d="M0-5319.7v0.1c0.3,0,0.6-0.1,0.9-0.1H0z"/>
	<path class="st2" d="M295.4-5192.2l202.5,0.5l0-0.5h80.4h70l0,0.5l137.1-0.5h65.4h31.6h105.5h39.5l0,0h163.1v-199.5
		c-6.4-4.2-14.5-7.4-24.5-8.4c-43.9-4.6-62.3,36.7-62.3,36.7s-26.2-9.5-41.9,8.3c-3.3,3.8-5.8,7.7-7.6,11.7
		c-7.2-6.3-17-11.4-30.2-12.8c-33.5-3.5-52.1,19.7-59.1,30.9c-2.8-11.3-13.4-41.2-48.9-44.9c-36.2-3.8-55,23.6-60.5,33.3
		c-7.2-10.7-19.4-21.2-39.5-23.3c-43.9-4.6-62.3,36.7-62.3,36.7s1.2-0.3-0.1-0.7c-1.8-3.7-6.1-7.5-9.2-11
		c-15.7-17.9-41.9-8.3-41.9-8.3s-18.4-41.3-62.3-36.7c-43.9,4.6-49.8,49.2-49.8,49.2s-21.3-8.3-30.1,9.2c-0.4,0.9-1.3,1.3-1.9,2
		c-1.7-3.5-4-7-6.9-10.3c-15.7-17.9-41.9-8.3-41.9-8.3s-18.4-41.3-62.3-36.7c-24.6,2.6-41.3,18.7-47.7,31.6l-0.1,0.1
		c0,0-18.4-41.3-62.3-36.7c-43.9,4.6-50.8,49.2-50.8,49.2s0.6-0.1-0.2-0.2c-4.6-13.4-16.8-35.8-47.2-39
		c-43.9-4.6-62.3,36.7-62.3,36.7s-26.2-9.5-41.9,8.3c-1.5,1.7-2.8,3.4-4,5.2c0.3-2,2.5-20.2-9.9-31.9c-13.1-12.5-30.1-9.2-30.1-9.2
		s-5.9-44.6-49.8-49.2c-17.6-1.8-31.2,3.7-41,11v79.4h0.9c-0.3,0-0.6,0.1-0.9,0.1v127.4h147.9h0h140l7.5,0.5 M21.8-5317.4
		c0,0-4.4-1.6-10.7-2.3h11.8C22.1-5318.3,21.8-5317.4,21.8-5317.4z M130-5318.5c-0.2-0.4-0.3-0.8-0.5-1.2h1.2
		C130.5-5319.3,130.2-5318.9,130-5318.5z"/>
</g>
<g class="st3">
	<polyline class="st4" points="51.9,-5445.8 41.7,-5330.4 91.4,-5424.8 	"/>
	<polyline class="st4" points="-8.6,-5266.9 14.7,-5238.9 -8.6,-5203.4 	"/>
	<polyline class="st4" points="136.4,-5365.7 168.5,-5294.7 140.1,-5278.5 109.7,-5288.6 133,-5346.4 140.1,-5278.5 182.1,-5251.1 
		201.5,-5294.7 168.5,-5358.6 	"/>
	<polyline class="st4" points="200,-5391.1 201.5,-5294.7 168.5,-5294.7 	"/>
	<polyline class="st4" points="219.2,-5204.9 201.5,-5294.7 243.6,-5397.9 254.8,-5294.7 219.2,-5204.9 182.1,-5251.1 
		140.1,-5227.8 140.1,-5278.5 78.3,-5203.4 14.7,-5238.9 	"/>
	<polyline class="st4" points="182.1,-5251.1 185,-5203.4 140.1,-5227.8 78.3,-5203.4 	"/>
	<polyline class="st4" points="254.8,-5294.7 292.8,-5314.8 338.9,-5314.8 	"/>
	<polyline class="st4" points="286.2,-5356.1 292.8,-5314.8 309,-5251.1 338.9,-5314.8 286.2,-5356.1 254.8,-5294.7 278.1,-5204.9 
		309,-5251.1 254.8,-5294.7 227.4,-5286.1 201.5,-5294.7 	"/>
	<polyline class="st4" points="304.4,-5397.9 338.9,-5314.8 356.2,-5397.9 	"/>
	<polyline class="st4" points="309,-5251.1 338.9,-5204.9 382,-5221.1 396.9,-5270.9 338.9,-5314.8 396.9,-5372.8 396.9,-5270.9 
		346,-5243 307.8,-5249.2 	"/>
	<path class="st4" d="M396.9-5372.8"/>
	<line class="st4" x1="346" y1="-5243" x2="338.9" y2="-5314.8"/>
	<polyline class="st4" points="-8.6,-5312.5 41.7,-5330.4 54.9,-5284.6 	"/>
	<polyline class="st4" points="421.8,-5243 382,-5221.1 390.7,-5203.4 	"/>
	<path class="st4" d="M417-5334.6"/>
	<polyline class="st4" points="451.5,-5397.9 451.5,-5370.1 424.1,-5346.1 396.9,-5372.8 	"/>
	<polyline class="st4" points="553.5,-5339.8 535,-5300.6 502.9,-5285.2 479.2,-5322.4 	"/>
	<polyline class="st4" points="503.2,-5387 489.4,-5356.3 451.5,-5370.1 479.2,-5322.4 449.5,-5246 502.9,-5285.2 558.4,-5255.1 
		535,-5300.6 544.8,-5365.7 479.2,-5322.4 489.4,-5356.3 514.4,-5360.6 	"/>
	<polyline class="st4" points="338.9,-5204.9 346,-5243 382,-5221.1 428.9,-5203.4 449.5,-5246 421.8,-5243 396.9,-5270.9 
		412.3,-5285.2 424.1,-5346.1 479.2,-5322.4 412.3,-5285.2 421.8,-5243 	"/>
	<polyline class="st4" points="568.7,-5355.6 568.7,-5316.5 535,-5300.6 	"/>
	<polyline class="st4" points="502.9,-5243 449.5,-5246 412.3,-5285.2 	"/>
	<polyline class="st4" points="449.5,-5246 472.5,-5203.4 503.9,-5243 	"/>
	<polygon class="st4" points="503.9,-5243 543.5,-5218.1 524.2,-5203.4 	"/>
	<polyline class="st4" points="568.7,-5316.5 595.2,-5283.9 558.4,-5255.1 503.9,-5243 502.9,-5285.2 	"/>
	<polygon class="st4" points="543.5,-5218.1 558.4,-5255.1 562.8,-5203.4 	"/>
	<path class="st2" d="M595.2-5283.9"/>
	<polyline class="st4" points="636.1,-5355.6 678.7,-5346.1 710.2,-5351.5 710.2,-5360.6 	"/>
	<polyline class="st4" points="683.8,-5399.2 678.7,-5346.1 672.3,-5274.7 699,-5234.5 772,-5203.4 728.8,-5285.2 752.8,-5360.6 
		787.2,-5328.1 822.7,-5403.2 844.4,-5321.1 	"/>
	<polyline class="st4" points="586.4,-5382.9 636.1,-5355.6 630,-5397.1 	"/>
	<polyline class="st4" points="710.2,-5350.5 728.8,-5285.2 678.7,-5346.1 	"/>
	<line class="st4" x1="636.1" y1="-5355.6" x2="602" y2="-5246"/>
	<polyline class="st4" points="616.7,-5293.4 672.3,-5274.7 637.6,-5355.2 	"/>
	<polyline class="st4" points="672.3,-5274.7 670.3,-5203.4 699,-5234.5 728.8,-5285.2 672.3,-5274.7 602,-5246 595.2,-5283.9 
		586.4,-5355.6 616.7,-5293.4 	"/>
	<polyline class="st4" points="602,-5246 621.6,-5212.2 670.3,-5203.4 	"/>
	<polyline class="st4" points="670.3,-5273.9 621.6,-5212.2 562.8,-5203.4 602,-5246 558.4,-5255.1 	"/>
	<polyline class="st4" points="787.2,-5328.1 819.7,-5274.7 844.4,-5321.1 900.2,-5287.9 859.3,-5340.7 857.2,-5365.7 
		910.7,-5346.1 941.1,-5366.7 970.5,-5360.6 1020.9,-5374.8 1071.6,-5351.2 1084.4,-5384.6 1064.1,-5398.2 	"/>
	<polyline class="st4" points="819.7,-5274.7 788.7,-5283.4 728.8,-5285.2 787.2,-5328.1 844.4,-5321.1 859.3,-5340.7 
		910.7,-5346.1 901.9,-5401.2 	"/>
	<path class="st2" d="M819.7-5274.7"/>
	<polyline class="st4" points="802.8,-5222.7 819.7,-5274.7 846.4,-5203.4 861.6,-5264.8 918.1,-5203.4 900.2,-5286.6 
		862.3,-5264.6 819.7,-5274.7 772,-5203.4 788.7,-5283.4 787.2,-5328.1 	"/>
	<line class="st4" x1="878.5" y1="-5224.7" x2="862.3" y2="-5264.6"/>
	<line class="st4" x1="941.6" y1="-5401.2" x2="941.1" y2="-5366.7"/>
	<polyline class="st4" points="951.3,-5274.8 983.3,-5246.8 995.9,-5302.5 951.3,-5274.8 900.2,-5286.6 910.7,-5346.1 
		946.7,-5333.8 970.5,-5360.6 995.9,-5302.5 946.7,-5333.8 951.3,-5274.8 918.1,-5203.4 878.5,-5224.7 846.4,-5203.4 802.8,-5222.7 
		772,-5203.4 	"/>
	<polyline class="st4" points="983.3,-5246.8 1019.8,-5232.3 987.3,-5203.4 983.3,-5246.8 918.1,-5203.4 	"/>
	<polyline class="st4" points="995.9,-5303.6 1020.9,-5374.8 1017.5,-5399.2 	"/>
	<line class="st4" x1="971.8" y1="-5372.8" x2="970.5" y2="-5360.6"/>
	<polyline class="st4" points="1084.4,-5384.6 1116.4,-5378.4 1109.8,-5398.2 	"/>
	<polyline class="st4" points="54.9,-5284.6 78.3,-5203.4 109.7,-5288.6 54.9,-5284.6 14.7,-5238.9 41.7,-5330.4 91.4,-5382.9 
		109.7,-5288.6 41.7,-5330.4 -8.6,-5424.8 51.9,-5445.8 91.4,-5424.8 91.4,-5382.9 122.8,-5379.9 133,-5346.4 136.4,-5365.7 
		168.5,-5358.6 200,-5391.1 243.6,-5397.9 286.2,-5356.1 304.4,-5397.9 356.2,-5397.9 396.9,-5372.8 451.5,-5397.9 503.2,-5387 
		514.4,-5360.6 544.8,-5365.7 553.5,-5339.8 568.7,-5355.6 586.4,-5355.6 586.4,-5382.9 630,-5397.1 683.8,-5399.2 710.2,-5360.6 
		729.4,-5380.9 752.8,-5360.6 822.7,-5403.2 857.2,-5365.7 901.9,-5401.2 941.6,-5401.2 971.8,-5372.8 1017.5,-5399.2 
		1064.1,-5372.8 1064.1,-5398.2 1109.8,-5398.2 1135.1,-5456 1199,-5424.8 1156.4,-5425.5 1199,-5388.3 1172.2,-5319.3 
		1116.4,-5378.4 1156.4,-5425.5 1135.1,-5456 	"/>
	<polyline class="st4" points="1199,-5388.3 1160.5,-5366.7 1116.4,-5378.4 1071.6,-5351.2 1064.1,-5374.8 	"/>
	<polyline class="st4" points="1156.4,-5425.5 1160.5,-5366.7 1172.2,-5319.3 1206.4,-5339.3 	"/>
	<polyline class="st4" points="1116.4,-5378.4 1111.8,-5351.4 1134.6,-5284.6 1172.4,-5228 1203.6,-5203.4 	"/>
	<polyline class="st4" points="1111.8,-5351.4 1097.4,-5307.9 1134.6,-5284.6 1097.4,-5246.8 1124.1,-5203.4 	"/>
	<polyline class="st4" points="1019.8,-5232.3 1046.6,-5269.3 1097.4,-5246.8 1097.4,-5307.9 1071.6,-5351.2 1047.4,-5305.4 
		995.9,-5302.5 1046.6,-5269.3 1047.4,-5305.4 	"/>
	<polyline class="st4" points="1097.4,-5307.9 1047.4,-5305.4 1097.4,-5246.8 1092.5,-5200.9 1046.6,-5269.3 1039,-5203.4 
		1019.8,-5232.3 995.9,-5302.5 1071.6,-5351.2 1111.8,-5351.4 1172.2,-5319.3 1199,-5294.2 1172.4,-5228 1172.2,-5319.3 
		1134.6,-5284.6 1124,-5202.8 1172.4,-5228 	"/>
</g>
<g>
	<line class="st5" x1="147.1" y1="-5267.3" x2="1207.8" y2="-5267.3"/>
	<circle class="st5" cx="147.1" cy="-5267.3" r="10.1"/>
	<circle cx="147.1" cy="-5267.3" r="5.7"/>
	<polygon points="300.2,-5258.8 295.5,-5267.3 300.2,-5275.9 304.9,-5267.3 	"/>
	<polygon points="452.7,-5258.8 448,-5267.3 452.7,-5275.9 457.5,-5267.3 	"/>
	<polygon points="616.2,-5258.8 611.5,-5267.3 616.2,-5275.9 620.9,-5267.3 	"/>
	<polygon points="779.6,-5258.8 774.9,-5267.3 779.6,-5275.9 784.3,-5267.3 	"/>
	<polygon points="943,-5258.8 938.3,-5267.3 943,-5275.9 947.8,-5267.3 	"/>
	<polygon points="1106.5,-5258.8 1101.8,-5267.3 1106.5,-5275.9 1111.2,-5267.3 	"/>
	<rect x="404.6" y="-5247.2" style="fill:none;" width="95.9" height="18"/>
	<text transform="matrix(1 0 0 1 418.3132 -5237.9375)" style="font-family:'MyriadPro-Regular'; font-size:13.0748;">LUMINOSITÉ</text>
	<rect x="252" y="-5247.2" style="fill:none;" width="95.9" height="18"/>
	<text transform="matrix(1 0 0 1 259.8186 -5237.9375)" style="font-family:'MyriadPro-Regular'; font-size:13.0748;">TEMPÉRATURE</text>
	<rect x="1058.3" y="-5247.2" style="fill:none;" width="95.9" height="18"/>
	<text transform="matrix(1 0 0 1 1072.053 -5237.9375)" style="font-family:'MyriadPro-Regular'; font-size:13.0748;">LUMINOSITÉ</text>
	<rect x="894.9" y="-5247.2" style="fill:none;" width="95.9" height="18"/>
	<text transform="matrix(1 0 0 1 908.6179 -5237.9375)" style="font-family:'MyriadPro-Regular'; font-size:13.0748;">LUMINOSITÉ</text>
	<rect x="731.4" y="-5247.2" style="fill:none;" width="95.9" height="18"/>
	<text transform="matrix(1 0 0 1 751.6814 -5237.9375)" style="font-family:'MyriadPro-Regular'; font-size:13.0748;">HUMIDITÉ</text>
	<rect x="568" y="-5247.2" style="fill:none;" width="95.9" height="18"/>
	<text transform="matrix(1 0 0 1 577.6038 -5237.9375)" style="font-family:'MyriadPro-Regular'; font-size:13.0748;">TEMPORALITÉ</text>
	<g>
		<g>
			<g>
				<path class="st6" d="M457.6-5296.6c-0.3,6.4-9.6,6.4-10,0c-0.2-2.8,2.4-4.9,5-5C455.4-5301.8,457.4-5299.2,457.6-5296.6
					c0,0.6,1,0.6,1,0c-0.2-3.4-2.6-5.8-6-6c-3.4-0.2-5.8,2.9-6,6c-0.2,3.4,2.9,5.8,6,6c3.4,0.2,5.8-2.9,6-6
					C458.6-5297.3,457.6-5297.3,457.6-5296.6z"/>
			</g>
		</g>
		<g>
			<g>
				<g>
					<path class="st6" d="M452.2-5287.9c0,1.4,0,2.9,0,4.3c0,0.5,0.8,0.5,0.8,0c0-1.4,0-2.9,0-4.3
						C453-5288.3,452.2-5288.3,452.2-5287.9L452.2-5287.9z"/>
				</g>
			</g>
			<g>
				<g>
					<path class="st6" d="M452.2-5309.6c0,1.4,0,2.9,0,4.3c0,0.5,0.8,0.5,0.8,0c0-1.4,0-2.9,0-4.3
						C453-5310.1,452.2-5310.1,452.2-5309.6L452.2-5309.6z"/>
				</g>
			</g>
		</g>
		<g>
			<g>
				<g>
					<path class="st6" d="M443.9-5296.9c-1.4,0-2.9,0-4.3,0c-0.5,0-0.5,0.8,0,0.8c1.4,0,2.9,0,4.3,0
						C444.4-5296.2,444.4-5296.9,443.9-5296.9L443.9-5296.9z"/>
				</g>
			</g>
			<g>
				<g>
					<path class="st6" d="M465.6-5296.9c-1.4,0-2.9,0-4.3,0c-0.5,0-0.5,0.8,0,0.8c1.4,0,2.9,0,4.3,0
						C466.1-5296.2,466.1-5296.9,465.6-5296.9L465.6-5296.9z"/>
				</g>
			</g>
		</g>
		<g>
			<g>
				<g>
					<path class="st6" d="M446.7-5303c-1-1-2-2-3.1-3.1c-0.3-0.3-0.9,0.2-0.5,0.5c1,1,2,2,3.1,3.1
						C446.5-5302.1,447-5302.6,446.7-5303L446.7-5303z"/>
				</g>
			</g>
			<g>
				<g>
					<path class="st6" d="M462.1-5287.6c-1-1-2-2-3.1-3.1c-0.3-0.3-0.9,0.2-0.5,0.5c1,1,2,2,3.1,3.1
						C461.9-5286.7,462.4-5287.3,462.1-5287.6L462.1-5287.6z"/>
				</g>
			</g>
		</g>
		<g>
			<g>
				<g>
					<path class="st6" d="M446.2-5290.7c-1,1-2,2-3.1,3.1c-0.3,0.3,0.2,0.9,0.5,0.5c1-1,2-2,3.1-3.1
						C447-5290.5,446.5-5291,446.2-5290.7L446.2-5290.7z"/>
				</g>
			</g>
			<g>
				<g>
					<path class="st6" d="M461.5-5306c-1,1-2,2-3.1,3.1c-0.3,0.3,0.2,0.9,0.5,0.5c1-1,2-2,3.1-3.1
						C462.4-5305.8,461.9-5306.4,461.5-5306L461.5-5306z"/>
				</g>
			</g>
		</g>
	</g>
	<g>
		<g>
			<path class="st7" d="M296.4-5293c-1.4,0.9-2.4,2.4-2.4,4.2c0,2.7,2.2,5,5,5c2.7,0,5-2.2,5-5c0-1.8-1-3.4-2.4-4.2v-13.9
				c0-1.4-1.2-2.6-2.6-2.6c-1.4,0-2.6,1.2-2.6,2.6V-5293z"/>
		</g>
		<g>
			<circle class="st8" cx="298.9" cy="-5288.9" r="3.1"/>
			<rect x="297.9" y="-5294.7" class="st8" width="2" height="4.3"/>
		</g>
		<line class="st7" x1="293.2" y1="-5303" x2="288.1" y2="-5303"/>
		<line class="st7" x1="293.2" y1="-5299.6" x2="289.8" y2="-5299.6"/>
		<line class="st7" x1="293.2" y1="-5296.2" x2="288.1" y2="-5296.2"/>
	</g>
	<g>
		<g>
			<g>
				<path class="st6" d="M1110.6-5296.6c-0.3,6.4-9.6,6.4-10,0c-0.2-2.8,2.4-4.9,5-5C1108.4-5301.8,1110.4-5299.2,1110.6-5296.6
					c0,0.6,1,0.6,1,0c-0.2-3.4-2.6-5.8-6-6c-3.4-0.2-5.8,2.9-6,6c-0.2,3.4,2.9,5.8,6,6c3.4,0.2,5.8-2.9,6-6
					C1111.6-5297.3,1110.6-5297.3,1110.6-5296.6z"/>
			</g>
		</g>
		<g>
			<g>
				<g>
					<path class="st6" d="M1105.2-5287.9c0,1.4,0,2.9,0,4.3c0,0.5,0.8,0.5,0.8,0c0-1.4,0-2.9,0-4.3
						C1106-5288.3,1105.2-5288.3,1105.2-5287.9L1105.2-5287.9z"/>
				</g>
			</g>
			<g>
				<g>
					<path class="st6" d="M1105.2-5309.6c0,1.4,0,2.9,0,4.3c0,0.5,0.8,0.5,0.8,0c0-1.4,0-2.9,0-4.3
						C1106-5310.1,1105.2-5310.1,1105.2-5309.6L1105.2-5309.6z"/>
				</g>
			</g>
		</g>
		<g>
			<g>
				<g>
					<path class="st6" d="M1096.9-5296.9c-1.4,0-2.9,0-4.3,0c-0.5,0-0.5,0.8,0,0.8c1.4,0,2.9,0,4.3,0
						C1097.4-5296.2,1097.4-5296.9,1096.9-5296.9L1096.9-5296.9z"/>
				</g>
			</g>
			<g>
				<g>
					<path class="st6" d="M1118.6-5296.9c-1.4,0-2.9,0-4.3,0c-0.5,0-0.5,0.8,0,0.8c1.4,0,2.9,0,4.3,0
						C1119.1-5296.2,1119.1-5296.9,1118.6-5296.9L1118.6-5296.9z"/>
				</g>
			</g>
		</g>
		<g>
			<g>
				<g>
					<path class="st6" d="M1099.7-5303c-1-1-2-2-3.1-3.1c-0.3-0.3-0.9,0.2-0.5,0.5c1,1,2,2,3.1,3.1
						C1099.5-5302.1,1100-5302.6,1099.7-5303L1099.7-5303z"/>
				</g>
			</g>
			<g>
				<g>
					<path class="st6" d="M1115.1-5287.6c-1-1-2-2-3.1-3.1c-0.3-0.3-0.9,0.2-0.5,0.5c1,1,2,2,3.1,3.1
						C1114.9-5286.7,1115.4-5287.3,1115.1-5287.6L1115.1-5287.6z"/>
				</g>
			</g>
		</g>
		<g>
			<g>
				<g>
					<path class="st6" d="M1099.2-5290.7c-1,1-2,2-3.1,3.1c-0.3,0.3,0.2,0.9,0.5,0.5c1-1,2-2,3.1-3.1
						C1100-5290.5,1099.5-5291,1099.2-5290.7L1099.2-5290.7z"/>
				</g>
			</g>
			<g>
				<g>
					<path class="st6" d="M1114.5-5306c-1,1-2,2-3.1,3.1c-0.3,0.3,0.2,0.9,0.5,0.5c1-1,2-2,3.1-3.1
						C1115.4-5305.8,1114.9-5306.4,1114.5-5306L1114.5-5306z"/>
				</g>
			</g>
		</g>
	</g>
	<g>
		<g>
			<path class="st7" d="M939.4-5293c-1.4,0.9-2.4,2.4-2.4,4.2c0,2.7,2.2,5,5,5c2.7,0,5-2.2,5-5c0-1.8-1-3.4-2.4-4.2v-13.9
				c0-1.4-1.2-2.6-2.6-2.6c-1.4,0-2.6,1.2-2.6,2.6V-5293z"/>
		</g>
		<g>
			<circle class="st8" cx="941.9" cy="-5288.9" r="3.1"/>
			<rect x="940.9" y="-5294.7" class="st8" width="2" height="4.3"/>
		</g>
		<line class="st7" x1="936.2" y1="-5303" x2="931.1" y2="-5303"/>
		<line class="st7" x1="936.2" y1="-5299.6" x2="932.8" y2="-5299.6"/>
		<line class="st7" x1="936.2" y1="-5296.2" x2="931.1" y2="-5296.2"/>
	</g>
	<g>
		<path class="st7" d="M621.9-5300.9c3.5,3.1,3.8,8.5,0.7,12s-8.5,3.8-12,0.7c-3.5-3.1-3.8-8.5-0.7-12"/>
		<polyline class="st7" points="616.3,-5300 616.3,-5293.5 612.1,-5289.1 		"/>
		<line class="st7" x1="616.3" y1="-5289.1" x2="616.3" y2="-5287.1"/>
		<line class="st7" x1="621.3" y1="-5293.5" x2="623.4" y2="-5293.5"/>
		<line class="st7" x1="609.2" y1="-5293.5" x2="611.2" y2="-5293.5"/>
		<line class="st7" x1="619.6" y1="-5290.1" x2="621.1" y2="-5288.7"/>
		<line class="st7" x1="620.3" y1="-5297.5" x2="621.8" y2="-5299"/>
		<g>
			<g>
				<path class="st8" d="M606.6-5299.7c1.2-0.2,2.4-0.3,3.6-0.5c-0.1-0.1-0.2-0.2-0.4-0.4c0.1,1.3,0.2,2.6,0.2,3.9
					c0,0.5,0.8,0.5,0.8,0c-0.1-1.3-0.2-2.6-0.2-3.9c0-0.2-0.2-0.4-0.4-0.4c-1.2,0.2-2.4,0.3-3.6,0.5
					C606.1-5300.4,606.1-5299.7,606.6-5299.7L606.6-5299.7z"/>
			</g>
		</g>
	</g>
	<g>
		<path class="st7" d="M781.1-5291.4c0.1,0.6,0,1.2-0.1,1.7c-0.3,1.1-1.1,2.1-2.1,2.7c-1.8,1-4.1,0.7-5.5-0.7
			c-1.4-1.4-1.7-3.7-0.7-5.4c0,0,0,0,0,0l3.6-6.3c0.1-0.1,0.3-0.2,0.4-0.2c0,0,0,0,0,0c0.1,0,0.1,0.1,0.1,0.1l3.6,6.3
			C780.8-5292.5,781-5292,781.1-5291.4z"/>
		<path class="st7" d="M782.7-5294.7c-1.8-0.9-2.4-3.3-1.3-5l2.6-4.6c0.1-0.2,0.5-0.2,0.6,0l2.6,4.6c0.4,0.5,0.5,1.2,0.5,1.9
			c0,0.6-0.2,1.2-0.5,1.7C786.5-5294.4,784.4-5293.8,782.7-5294.7z"/>
		<path class="st7" d="M774.8-5292c0,0-1,2.5,1.2,3.3"/>
		<path class="st7" d="M782.9-5298.8c0,0-0.8,2.1,1,2.7"/>
	</g>
</g>
<g>
	<circle class="st9" cx="150.2" cy="-5688.5" r="28.3"/>
	<line class="st10" x1="150.2" y1="-5744.5" x2="150.2" y2="-5632.6"/>
	<line class="st10" x1="94.2" y1="-5688.6" x2="206.2" y2="-5688.6"/>
	<line class="st10" x1="110.6" y1="-5728.1" x2="189.8" y2="-5649"/>
	<line class="st10" x1="110.6" y1="-5649" x2="189.8" y2="-5728.1"/>
</g>
<linearGradient id="SVGID_2_" gradientUnits="userSpaceOnUse" x1="1504.0469" y1="-2259.6387" x2="2104.0471" y2="-2259.6387" gradientTransform="matrix(4.489700e-11 -1 1 4.489700e-11 2899.6387 -1619.0887)">
	<stop  offset="0" style="stop-color:#C8C7C6"/>
	<stop  offset="0.3296" style="stop-color:#DBD8C4"/>
	<stop  offset="0.7286" style="stop-color:#EDE8C2"/>
	<stop  offset="1" style="stop-color:#F3EEC1"/>
</linearGradient>
<rect x="0" y="-3711.4" class="st11" width="1280" height="600"/>
<linearGradient id="SVGID_3_" gradientUnits="userSpaceOnUse" x1="877.2209" y1="-2259.6387" x2="1477.2211" y2="-2259.6387" gradientTransform="matrix(4.489700e-11 -1 1 4.489700e-11 2899.6387 -1619.0887)">
	<stop  offset="0" style="stop-color:#E2D0CA"/>
	<stop  offset="1" style="stop-color:#98D3DD"/>
</linearGradient>
<rect x="0" y="-3096.3" class="st12" width="1280" height="600"/>
<linearGradient id="SVGID_4_" gradientUnits="userSpaceOnUse" x1="265.5739" y1="-2259.6387" x2="865.574" y2="-2259.6387" gradientTransform="matrix(4.489700e-11 -1 1 4.489700e-11 2899.6387 -1619.0887)">
	<stop  offset="0" style="stop-color:#F4B59C"/>
	<stop  offset="0.1437" style="stop-color:#D6B8A7"/>
	<stop  offset="0.3445" style="stop-color:#ADB7B2"/>
	<stop  offset="0.5367" style="stop-color:#87B3BA"/>
	<stop  offset="0.7152" style="stop-color:#65AEBE"/>
	<stop  offset="0.8749" style="stop-color:#49AAC0"/>
	<stop  offset="1" style="stop-color:#3DA9C0"/>
</linearGradient>
<rect y="-2478.2" class="st13" width="1280" height="600"/>
<linearGradient id="SVGID_5_" gradientUnits="userSpaceOnUse" x1="265.5739" y1="-2259.6387" x2="865.574" y2="-2259.6387" gradientTransform="matrix(4.489700e-11 -1 1 4.489700e-11 2899.6387 -1619.0887)">
	<stop  offset="0" style="stop-color:#869498"/>
	<stop  offset="8.478856e-02" style="stop-color:#6B99A3"/>
	<stop  offset="0.196" style="stop-color:#489CAE"/>
	<stop  offset="0.3213" style="stop-color:#179CB5"/>
	<stop  offset="0.4667" style="stop-color:#009CB9"/>
	<stop  offset="0.6507" style="stop-color:#009CBB"/>
	<stop  offset="1" style="stop-color:#009BBC"/>
</linearGradient>
<rect x="0" y="-2478.2" class="st14" width="1280" height="600"/>
<linearGradient id="SVGID_6_" gradientUnits="userSpaceOnUse" x1="-358.4885" y1="-2259.6387" x2="241.5116" y2="-2259.6387" gradientTransform="matrix(4.489700e-11 -1 1 4.489700e-11 2899.6387 -1619.0887)">
	<stop  offset="0" style="stop-color:#F4B59C"/>
	<stop  offset="0.1437" style="stop-color:#D6B8A7"/>
	<stop  offset="0.3445" style="stop-color:#ADB7B2"/>
	<stop  offset="0.5367" style="stop-color:#87B3BA"/>
	<stop  offset="0.7152" style="stop-color:#65AEBE"/>
	<stop  offset="0.8749" style="stop-color:#49AAC0"/>
	<stop  offset="1" style="stop-color:#3DA9C0"/>
</linearGradient>
<rect y="-1854.2" class="st15" width="1280" height="600"/>
<linearGradient id="SVGID_7_" gradientUnits="userSpaceOnUse" x1="-358.4885" y1="-2259.6389" x2="241.5118" y2="-2259.6389" gradientTransform="matrix(4.489700e-11 -1 1 4.489700e-11 2899.6387 -1619.0887)">
	<stop  offset="0" style="stop-color:#F7AE81"/>
	<stop  offset="0.2374" style="stop-color:#D9907D"/>
	<stop  offset="0.5303" style="stop-color:#BE7576"/>
	<stop  offset="0.7936" style="stop-color:#AF6672"/>
	<stop  offset="1" style="stop-color:#A96170"/>
</linearGradient>
<rect x="0" y="-1854.2" class="st16" width="1280" height="600"/>
<linearGradient id="SVGID_8_" gradientUnits="userSpaceOnUse" x1="-358.4885" y1="-2259.6389" x2="241.5118" y2="-2259.6389" gradientTransform="matrix(4.489700e-11 -1 1 4.489700e-11 2899.6387 -1619.0887)">
	<stop  offset="0" style="stop-color:#F7AE81"/>
	<stop  offset="0.2374" style="stop-color:#D9907D"/>
	<stop  offset="0.5303" style="stop-color:#BE7576"/>
	<stop  offset="0.7936" style="stop-color:#AF6672"/>
	<stop  offset="1" style="stop-color:#A96170"/>
</linearGradient>
<rect x="0" y="-1854.2" class="st17" width="1280" height="600"/>
<linearGradient id="SVGID_9_" gradientUnits="userSpaceOnUse" x1="-970.5497" y1="-2259.6387" x2="-370.5496" y2="-2259.6387" gradientTransform="matrix(4.489700e-11 -1 1 4.489700e-11 2899.6387 -1619.0887)">
	<stop  offset="0" style="stop-color:#F4B59C"/>
	<stop  offset="0.1437" style="stop-color:#D6B8A7"/>
	<stop  offset="0.3445" style="stop-color:#ADB7B2"/>
	<stop  offset="0.5367" style="stop-color:#87B3BA"/>
	<stop  offset="0.7152" style="stop-color:#65AEBE"/>
	<stop  offset="0.8749" style="stop-color:#49AAC0"/>
	<stop  offset="1" style="stop-color:#3DA9C0"/>
</linearGradient>
<rect y="-1242.1" class="st18" width="1280" height="600"/>
<linearGradient id="SVGID_10_" gradientUnits="userSpaceOnUse" x1="-970.4208" y1="-2259.6389" x2="-358.3594" y2="-2259.6389" gradientTransform="matrix(4.489700e-11 -1 1 4.489700e-11 2899.6387 -1619.0887)">
	<stop  offset="0" style="stop-color:#E1AEA8"/>
	<stop  offset="5.368674e-02" style="stop-color:#D6A5A3"/>
	<stop  offset="0.2758" style="stop-color:#AC858F"/>
	<stop  offset="0.4881" style="stop-color:#8C6E80"/>
	<stop  offset="0.6853" style="stop-color:#756077"/>
	<stop  offset="0.8617" style="stop-color:#675872"/>
	<stop  offset="1" style="stop-color:#625570"/>
</linearGradient>
<rect x="0" y="-1254.2" class="st19" width="1280" height="612.1"/>
<linearGradient id="SVGID_11_" gradientUnits="userSpaceOnUse" x1="-1591.6118" y1="-2259.6389" x2="-991.6117" y2="-2259.6389" gradientTransform="matrix(4.489700e-11 -1 1 4.489700e-11 2899.6387 -1619.0887)">
	<stop  offset="0" style="stop-color:#553D69"/>
	<stop  offset="0.1392" style="stop-color:#47305B"/>
	<stop  offset="0.3902" style="stop-color:#322047"/>
	<stop  offset="0.6251" style="stop-color:#25183B"/>
	<stop  offset="0.8353" style="stop-color:#1D1535"/>
	<stop  offset="1" style="stop-color:#1A1333"/>
</linearGradient>
<rect x="0" y="-621.1" class="st20" width="1280" height="600"/>
<linearGradient id="SVGID_12_" gradientUnits="userSpaceOnUse" x1="-2212.6741" y1="-2259.6392" x2="-1612.6738" y2="-2259.6392" gradientTransform="matrix(4.489700e-11 -1 1 4.489700e-11 2899.6387 -1619.0887)">
	<stop  offset="0" style="stop-color:#2F3668"/>
	<stop  offset="9.947407e-02" style="stop-color:#2C2F5E"/>
	<stop  offset="0.3621" style="stop-color:#242149"/>
	<stop  offset="0.6078" style="stop-color:#1F193C"/>
	<stop  offset="0.8277" style="stop-color:#1C1535"/>
	<stop  offset="1" style="stop-color:#1A1333"/>
</linearGradient>
<rect x="0" y="0" class="st21" width="1280" height="600"/>
</svg>
