<?xml version="1.0" encoding="utf-8"?>
<!-- Generator: Adobe Illustrator 17.0.0, SVG Export Plug-In . SVG Version: 6.00 Build 0)  -->
<!DOCTYPE svg PUBLIC "-//W3C//DTD SVG 1.1//EN" "http://www.w3.org/Graphics/SVG/1.1/DTD/svg11.dtd">
<svg version="1.1" id="Calque_1" xmlns="http://www.w3.org/2000/svg" xmlns:xlink="http://www.w3.org/1999/xlink" x="0px" y="0px"
	 width="1280px" height="600px" viewBox="0 0 1280 600" style="enable-background:new 0 0 1280 600;" xml:space="preserve">
<style type="text/css">
	.st0{fill:url(#SVGID_1_);}
	.st1{opacity:0.3;}
	.st2{fill:#FFFFFF;}
	.st3{opacity:0.7;}
	.st4{fill:none;stroke:#FFFFFF;stroke-miterlimit:10;}
	.st5{fill:none;stroke:#000000;stroke-miterlimit:10;}
	.st6{fill:#14130B;}
	.st7{fill:none;stroke:#13130A;stroke-width:0.75;stroke-miterlimit:10;}
	.st8{fill:#13130A;}
	.st9{fill:#FFF0BC;}
	.st10{fill:none;stroke:#FFF0BC;stroke-width:2;stroke-miterlimit:10;}
	.st11{fill:url(#SVGID_2_);}
	.st12{fill:url(#SVGID_3_);}
	.st13{opacity:0.3;fill:url(#SVGID_4_);}
	.st14{opacity:0.3;fill:url(#SVGID_5_);}
	.st15{opacity:0.3;fill:url(#SVGID_6_);}
	.st16{opacity:0.4;fill:url(#SVGID_7_);}
	.st17{opacity:0.4;fill:url(#SVGID_8_);}
	.st18{opacity:0.3;fill:url(#SVGID_9_);}
	.st19{opacity:0.73;fill:url(#SVGID_10_);}
	.st20{opacity:0.85;fill:url(#SVGID_11_);}
	.st21{opacity:0.98;fill:url(#SVGID_12_);}
</style>
<linearGradient id="SVGID_1_" gradientUnits="userSpaceOnUse" x1="3599.0979" y1="-1683.3018" x2="4440.9878" y2="-1683.3018" gradientTransform="matrix(4.489700e-11 -1 1 4.489700e-11 2278.5767 -998.0266)">
	<stop  offset="0" style="stop-color:#C8C7C6"/>
	<stop  offset="0.3296" style="stop-color:#DBD8C4"/>
	<stop  offset="0.7286" style="stop-color:#EDE8C2"/>
	<stop  offset="1" style="stop-color:#F3EEC1"/>
</linearGradient>
<rect x="0" y="-5422.5" class="st0" width="1190.5" height="841.9"/>
<g class="st1">
	<path class="st2" d="M21.8-4696.4c0,0,0.4-0.8,1.1-2.3H11.1C17.3-4698,21.8-4696.4,21.8-4696.4z"/>
	<path class="st2" d="M130-4697.4c0.2-0.4,0.5-0.8,0.7-1.2h-1.2C129.7-4698.2,129.8-4697.8,130-4697.4z"/>
	<path class="st2" d="M932-4644.6h-2.2c0.4,0.5,0.8,1.1,1.2,1.6C931.3-4643.5,931.6-4644.1,932-4644.6z"/>
	<path class="st2" d="M0-4698.6v0.1c0.3,0,0.6-0.1,0.9-0.1H0z"/>
	<path class="st2" d="M295.4-4571.1l202.5,0.5l0-0.5h80.4h70l0,0.5l137.1-0.5h65.4h31.6h105.5h39.5l0,0h163.1v-199.5
		c-6.4-4.2-14.5-7.4-24.5-8.4c-43.9-4.6-62.3,36.7-62.3,36.7s-26.2-9.5-41.9,8.3c-3.3,3.8-5.8,7.7-7.6,11.7
		c-7.2-6.3-17-11.4-30.2-12.8c-33.5-3.5-52.1,19.7-59.1,30.9c-2.8-11.3-13.4-41.2-48.9-44.9c-36.2-3.8-55,23.6-60.5,33.3
		c-7.2-10.7-19.4-21.2-39.5-23.3c-43.9-4.6-62.3,36.7-62.3,36.7s1.2-0.3-0.1-0.7c-1.8-3.7-6.1-7.5-9.2-11
		c-15.7-17.9-41.9-8.3-41.9-8.3s-18.4-41.3-62.3-36.7c-43.9,4.6-49.8,49.2-49.8,49.2s-21.3-8.3-30.1,9.2c-0.4,0.9-1.3,1.3-1.9,2
		c-1.7-3.5-4-7-6.9-10.3c-15.7-17.9-41.9-8.3-41.9-8.3s-18.4-41.3-62.3-36.7c-24.6,2.6-41.3,18.7-47.7,31.6l-0.1,0.1
		c0,0-18.4-41.3-62.3-36.7c-43.9,4.6-50.8,49.2-50.8,49.2s0.6-0.1-0.2-0.2c-4.6-13.4-16.8-35.8-47.2-39
		c-43.9-4.6-62.3,36.7-62.3,36.7s-26.2-9.5-41.9,8.3c-1.5,1.7-2.8,3.4-4,5.2c0.3-2,2.5-20.2-9.9-31.9c-13.1-12.5-30.1-9.2-30.1-9.2
		s-5.9-44.6-49.8-49.2c-17.6-1.8-31.2,3.7-41,11v79.4h0.9c-0.3,0-0.6,0.1-0.9,0.1v127.4h147.9h0h140l7.5,0.5 M21.8-4696.4
		c0,0-4.4-1.6-10.7-2.3h11.8C22.1-4697.2,21.8-4696.4,21.8-4696.4z M130-4697.4c-0.2-0.4-0.3-0.8-0.5-1.2h1.2
		C130.5-4698.2,130.2-4697.8,130-4697.4z"/>
</g>
<g class="st3">
	<polyline class="st4" points="51.9,-4824.8 41.7,-4709.3 91.4,-4803.7 	"/>
	<polyline class="st4" points="-8.6,-4645.8 14.7,-4617.9 -8.6,-4582.3 	"/>
	<polyline class="st4" points="136.4,-4744.6 168.5,-4673.6 140.1,-4657.4 109.7,-4667.6 133,-4725.4 140.1,-4657.4 182.1,-4630 
		201.5,-4673.6 168.5,-4737.5 	"/>
	<polyline class="st4" points="200,-4770 201.5,-4673.6 168.5,-4673.6 	"/>
	<polyline class="st4" points="219.2,-4583.8 201.5,-4673.6 243.6,-4776.8 254.8,-4673.6 219.2,-4583.8 182.1,-4630 140.1,-4606.7 
		140.1,-4657.4 78.3,-4582.3 14.7,-4617.9 	"/>
	<polyline class="st4" points="182.1,-4630 185,-4582.3 140.1,-4606.7 78.3,-4582.3 	"/>
	<polyline class="st4" points="254.8,-4673.6 292.8,-4693.8 338.9,-4693.8 	"/>
	<polyline class="st4" points="286.2,-4735.1 292.8,-4693.8 309,-4630 338.9,-4693.8 286.2,-4735.1 254.8,-4673.6 278.1,-4583.8 
		309,-4630 254.8,-4673.6 227.4,-4665 201.5,-4673.6 	"/>
	<polyline class="st4" points="304.4,-4776.8 338.9,-4693.8 356.2,-4776.8 	"/>
	<polyline class="st4" points="309,-4630 338.9,-4583.8 382,-4600 396.9,-4649.8 338.9,-4693.8 396.9,-4751.7 396.9,-4649.8 
		346,-4621.9 307.8,-4628.2 	"/>
	<path class="st4" d="M396.9-4751.7"/>
	<line class="st4" x1="346" y1="-4621.9" x2="338.9" y2="-4693.8"/>
	<polyline class="st4" points="-8.6,-4691.4 41.7,-4709.3 54.9,-4663.6 	"/>
	<polyline class="st4" points="421.8,-4621.9 382,-4600 390.7,-4582.3 	"/>
	<path class="st4" d="M417-4713.5"/>
	<polyline class="st4" points="451.5,-4776.8 451.5,-4749 424.1,-4725 396.9,-4751.7 	"/>
	<polyline class="st4" points="553.5,-4718.7 535,-4679.6 502.9,-4664.2 479.2,-4701.4 	"/>
	<polyline class="st4" points="503.2,-4765.9 489.4,-4735.3 451.5,-4749 479.2,-4701.4 449.5,-4625 502.9,-4664.2 558.4,-4634.1 
		535,-4679.6 544.8,-4744.6 479.2,-4701.4 489.4,-4735.3 514.4,-4739.6 	"/>
	<polyline class="st4" points="338.9,-4583.8 346,-4621.9 382,-4600 428.9,-4582.3 449.5,-4625 421.8,-4621.9 396.9,-4649.8 
		412.3,-4664.2 424.1,-4725 479.2,-4701.4 412.3,-4664.2 421.8,-4621.9 	"/>
	<polyline class="st4" points="568.7,-4734.5 568.7,-4695.4 535,-4679.6 	"/>
	<polyline class="st4" points="502.9,-4621.9 449.5,-4625 412.3,-4664.2 	"/>
	<polyline class="st4" points="449.5,-4625 472.5,-4582.3 503.9,-4621.9 	"/>
	<polygon class="st4" points="503.9,-4621.9 543.5,-4597 524.2,-4582.3 	"/>
	<polyline class="st4" points="568.7,-4695.4 595.2,-4662.8 558.4,-4634.1 503.9,-4621.9 502.9,-4664.2 	"/>
	<polygon class="st4" points="543.5,-4597 558.4,-4634.1 562.8,-4582.3 	"/>
	<path class="st2" d="M595.2-4662.8"/>
	<polyline class="st4" points="636.1,-4734.5 678.7,-4725 710.2,-4730.4 710.2,-4739.6 	"/>
	<polyline class="st4" points="683.8,-4778.1 678.7,-4725 672.3,-4653.7 699,-4613.5 772,-4582.3 728.8,-4664.2 752.8,-4739.6 
		787.2,-4707 822.7,-4782.2 844.4,-4700 	"/>
	<polyline class="st4" points="586.4,-4761.9 636.1,-4734.5 630,-4776.1 	"/>
	<polyline class="st4" points="710.2,-4729.4 728.8,-4664.2 678.7,-4725 	"/>
	<line class="st4" x1="636.1" y1="-4734.5" x2="602" y2="-4625"/>
	<polyline class="st4" points="616.7,-4672.3 672.3,-4653.7 637.6,-4734.2 	"/>
	<polyline class="st4" points="672.3,-4653.7 670.3,-4582.3 699,-4613.5 728.8,-4664.2 672.3,-4653.7 602,-4625 595.2,-4662.8 
		586.4,-4734.5 616.7,-4672.3 	"/>
	<polyline class="st4" points="602,-4625 621.6,-4591.2 670.3,-4582.3 	"/>
	<polyline class="st4" points="670.3,-4652.8 621.6,-4591.2 562.8,-4582.3 602,-4625 558.4,-4634.1 	"/>
	<polyline class="st4" points="787.2,-4707 819.7,-4653.7 844.4,-4700 900.2,-4666.9 859.3,-4719.6 857.2,-4744.6 910.7,-4725 
		941.1,-4745.7 970.5,-4739.6 1020.9,-4753.8 1071.6,-4730.1 1084.4,-4763.6 1064.1,-4777.1 	"/>
	<polyline class="st4" points="819.7,-4653.7 788.7,-4662.3 728.8,-4664.2 787.2,-4707 844.4,-4700 859.3,-4719.6 910.7,-4725 
		901.9,-4780.1 	"/>
	<path class="st2" d="M819.7-4653.7"/>
	<polyline class="st4" points="802.8,-4601.6 819.7,-4653.7 846.4,-4582.3 861.6,-4643.7 918.1,-4582.3 900.2,-4665.5 
		862.3,-4643.6 819.7,-4653.7 772,-4582.3 788.7,-4662.3 787.2,-4707 	"/>
	<line class="st4" x1="878.5" y1="-4603.7" x2="862.3" y2="-4643.6"/>
	<line class="st4" x1="941.6" y1="-4780.1" x2="941.1" y2="-4745.7"/>
	<polyline class="st4" points="951.3,-4653.7 983.3,-4625.7 995.9,-4681.4 951.3,-4653.7 900.2,-4665.5 910.7,-4725 946.7,-4712.7 
		970.5,-4739.6 995.9,-4681.4 946.7,-4712.7 951.3,-4653.7 918.1,-4582.3 878.5,-4603.7 846.4,-4582.3 802.8,-4601.6 772,-4582.3 	
		"/>
	<polyline class="st4" points="983.3,-4625.7 1019.8,-4611.3 987.3,-4582.3 983.3,-4625.7 918.1,-4582.3 	"/>
	<polyline class="st4" points="995.9,-4682.5 1020.9,-4753.8 1017.5,-4778.1 	"/>
	<line class="st4" x1="971.8" y1="-4751.7" x2="970.5" y2="-4739.6"/>
	<polyline class="st4" points="1084.4,-4763.6 1116.4,-4757.3 1109.8,-4777.1 	"/>
	<polyline class="st4" points="54.9,-4663.6 78.3,-4582.3 109.7,-4667.6 54.9,-4663.6 14.7,-4617.9 41.7,-4709.3 91.4,-4761.9 
		109.7,-4667.6 41.7,-4709.3 -8.6,-4803.7 51.9,-4824.8 91.4,-4803.7 91.4,-4761.9 122.8,-4758.8 133,-4725.4 136.4,-4744.6 
		168.5,-4737.5 200,-4770 243.6,-4776.8 286.2,-4735.1 304.4,-4776.8 356.2,-4776.8 396.9,-4751.7 451.5,-4776.8 503.2,-4765.9 
		514.4,-4739.6 544.8,-4744.6 553.5,-4718.7 568.7,-4734.5 586.4,-4734.5 586.4,-4761.9 630,-4776.1 683.8,-4778.1 710.2,-4739.6 
		729.4,-4759.9 752.8,-4739.6 822.7,-4782.2 857.2,-4744.6 901.9,-4780.1 941.6,-4780.1 971.8,-4751.7 1017.5,-4778.1 
		1064.1,-4751.7 1064.1,-4777.1 1109.8,-4777.1 1135.1,-4834.9 1199,-4803.7 1156.4,-4804.5 1199,-4767.2 1172.2,-4698.2 
		1116.4,-4757.3 1156.4,-4804.5 1135.1,-4834.9 	"/>
	<polyline class="st4" points="1199,-4767.2 1160.5,-4745.7 1116.4,-4757.3 1071.6,-4730.1 1064.1,-4753.8 	"/>
	<polyline class="st4" points="1156.4,-4804.5 1160.5,-4745.7 1172.2,-4698.2 1206.4,-4718.3 	"/>
	<polyline class="st4" points="1116.4,-4757.3 1111.8,-4730.3 1134.6,-4663.5 1172.4,-4607 1203.6,-4582.3 	"/>
	<polyline class="st4" points="1111.8,-4730.3 1097.4,-4686.8 1134.6,-4663.5 1097.4,-4625.7 1124.1,-4582.3 	"/>
	<polyline class="st4" points="1019.8,-4611.3 1046.6,-4648.3 1097.4,-4625.7 1097.4,-4686.8 1071.6,-4730.1 1047.4,-4684.3 
		995.9,-4681.4 1046.6,-4648.3 1047.4,-4684.3 	"/>
	<polyline class="st4" points="1097.4,-4686.8 1047.4,-4684.3 1097.4,-4625.7 1092.5,-4579.8 1046.6,-4648.3 1039,-4582.3 
		1019.8,-4611.3 995.9,-4681.4 1071.6,-4730.1 1111.8,-4730.3 1172.2,-4698.2 1199,-4673.1 1172.4,-4607 1172.2,-4698.2 
		1134.6,-4663.5 1124,-4581.8 1172.4,-4607 	"/>
</g>
<g>
	<line class="st5" x1="147.1" y1="-4646.3" x2="1207.8" y2="-4646.3"/>
	<circle class="st5" cx="147.1" cy="-4646.3" r="10.1"/>
	<circle cx="147.1" cy="-4646.3" r="5.7"/>
	<polygon points="300.2,-4637.7 295.5,-4646.3 300.2,-4654.8 304.9,-4646.3 	"/>
	<polygon points="452.7,-4637.7 448,-4646.3 452.7,-4654.8 457.5,-4646.3 	"/>
	<polygon points="616.2,-4637.7 611.5,-4646.3 616.2,-4654.8 620.9,-4646.3 	"/>
	<polygon points="779.6,-4637.7 774.9,-4646.3 779.6,-4654.8 784.3,-4646.3 	"/>
	<polygon points="943,-4637.7 938.3,-4646.3 943,-4654.8 947.8,-4646.3 	"/>
	<polygon points="1106.5,-4637.7 1101.8,-4646.3 1106.5,-4654.8 1111.2,-4646.3 	"/>
	<rect x="404.6" y="-4626.2" style="fill:none;" width="95.9" height="18"/>
	<text transform="matrix(1 0 0 1 418.3132 -4616.8755)" style="font-family:'MyriadPro-Regular'; font-size:13.0748;">LUMINOSITÉ</text>
	<rect x="252" y="-4626.2" style="fill:none;" width="95.9" height="18"/>
	<text transform="matrix(1 0 0 1 259.8186 -4616.8755)" style="font-family:'MyriadPro-Regular'; font-size:13.0748;">TEMPÉRATURE</text>
	<rect x="1058.3" y="-4626.2" style="fill:none;" width="95.9" height="18"/>
	<text transform="matrix(1 0 0 1 1072.053 -4616.8755)" style="font-family:'MyriadPro-Regular'; font-size:13.0748;">LUMINOSITÉ</text>
	<rect x="894.9" y="-4626.2" style="fill:none;" width="95.9" height="18"/>
	<text transform="matrix(1 0 0 1 908.6179 -4616.8755)" style="font-family:'MyriadPro-Regular'; font-size:13.0748;">LUMINOSITÉ</text>
	<rect x="731.4" y="-4626.2" style="fill:none;" width="95.9" height="18"/>
	<text transform="matrix(1 0 0 1 751.6814 -4616.8755)" style="font-family:'MyriadPro-Regular'; font-size:13.0748;">HUMIDITÉ</text>
	<rect x="568" y="-4626.2" style="fill:none;" width="95.9" height="18"/>
	<text transform="matrix(1 0 0 1 577.6038 -4616.8755)" style="font-family:'MyriadPro-Regular'; font-size:13.0748;">TEMPORALITÉ</text>
	<g>
		<g>
			<g>
				<path class="st6" d="M457.6-4675.6c-0.3,6.4-9.6,6.4-10,0c-0.2-2.8,2.4-4.9,5-5C455.4-4680.7,457.4-4678.2,457.6-4675.6
					c0,0.6,1,0.6,1,0c-0.2-3.4-2.6-5.8-6-6c-3.4-0.2-5.8,2.9-6,6c-0.2,3.4,2.9,5.8,6,6c3.4,0.2,5.8-2.9,6-6
					C458.6-4676.2,457.6-4676.2,457.6-4675.6z"/>
			</g>
		</g>
		<g>
			<g>
				<g>
					<path class="st6" d="M452.2-4666.8c0,1.4,0,2.9,0,4.3c0,0.5,0.8,0.5,0.8,0c0-1.4,0-2.9,0-4.3
						C453-4667.3,452.2-4667.3,452.2-4666.8L452.2-4666.8z"/>
				</g>
			</g>
			<g>
				<g>
					<path class="st6" d="M452.2-4688.5c0,1.4,0,2.9,0,4.3c0,0.5,0.8,0.5,0.8,0c0-1.4,0-2.9,0-4.3C453-4689,452.2-4689,452.2-4688.5
						L452.2-4688.5z"/>
				</g>
			</g>
		</g>
		<g>
			<g>
				<g>
					<path class="st6" d="M443.9-4675.9c-1.4,0-2.9,0-4.3,0c-0.5,0-0.5,0.8,0,0.8c1.4,0,2.9,0,4.3,0
						C444.4-4675.1,444.4-4675.9,443.9-4675.9L443.9-4675.9z"/>
				</g>
			</g>
			<g>
				<g>
					<path class="st6" d="M465.6-4675.9c-1.4,0-2.9,0-4.3,0c-0.5,0-0.5,0.8,0,0.8c1.4,0,2.9,0,4.3,0
						C466.1-4675.1,466.1-4675.9,465.6-4675.9L465.6-4675.9z"/>
				</g>
			</g>
		</g>
		<g>
			<g>
				<g>
					<path class="st6" d="M446.7-4681.9c-1-1-2-2-3.1-3.1c-0.3-0.3-0.9,0.2-0.5,0.5c1,1,2,2,3.1,3.1
						C446.5-4681,447-4681.6,446.7-4681.9L446.7-4681.9z"/>
				</g>
			</g>
			<g>
				<g>
					<path class="st6" d="M462.1-4666.5c-1-1-2-2-3.1-3.1c-0.3-0.3-0.9,0.2-0.5,0.5c1,1,2,2,3.1,3.1
						C461.9-4665.7,462.4-4666.2,462.1-4666.5L462.1-4666.5z"/>
				</g>
			</g>
		</g>
		<g>
			<g>
				<g>
					<path class="st6" d="M446.2-4669.6c-1,1-2,2-3.1,3.1c-0.3,0.3,0.2,0.9,0.5,0.5c1-1,2-2,3.1-3.1
						C447-4669.4,446.5-4670,446.2-4669.6L446.2-4669.6z"/>
				</g>
			</g>
			<g>
				<g>
					<path class="st6" d="M461.5-4685c-1,1-2,2-3.1,3.1c-0.3,0.3,0.2,0.9,0.5,0.5c1-1,2-2,3.1-3.1
						C462.4-4684.8,461.9-4685.3,461.5-4685L461.5-4685z"/>
				</g>
			</g>
		</g>
	</g>
	<g>
		<g>
			<path class="st7" d="M296.4-4672c-1.4,0.9-2.4,2.4-2.4,4.2c0,2.7,2.2,5,5,5c2.7,0,5-2.2,5-5c0-1.8-1-3.4-2.4-4.2v-13.9
				c0-1.4-1.2-2.6-2.6-2.6c-1.4,0-2.6,1.2-2.6,2.6V-4672z"/>
		</g>
		<g>
			<circle class="st8" cx="298.9" cy="-4667.8" r="3.1"/>
			<rect x="297.9" y="-4673.6" class="st8" width="2" height="4.3"/>
		</g>
		<line class="st7" x1="293.2" y1="-4682" x2="288.1" y2="-4682"/>
		<line class="st7" x1="293.2" y1="-4678.6" x2="289.8" y2="-4678.6"/>
		<line class="st7" x1="293.2" y1="-4675.2" x2="288.1" y2="-4675.2"/>
	</g>
	<g>
		<g>
			<g>
				<path class="st6" d="M1110.6-4675.6c-0.3,6.4-9.6,6.4-10,0c-0.2-2.8,2.4-4.9,5-5C1108.4-4680.7,1110.4-4678.2,1110.6-4675.6
					c0,0.6,1,0.6,1,0c-0.2-3.4-2.6-5.8-6-6c-3.4-0.2-5.8,2.9-6,6c-0.2,3.4,2.9,5.8,6,6c3.4,0.2,5.8-2.9,6-6
					C1111.6-4676.2,1110.6-4676.2,1110.6-4675.6z"/>
			</g>
		</g>
		<g>
			<g>
				<g>
					<path class="st6" d="M1105.2-4666.8c0,1.4,0,2.9,0,4.3c0,0.5,0.8,0.5,0.8,0c0-1.4,0-2.9,0-4.3
						C1106-4667.3,1105.2-4667.3,1105.2-4666.8L1105.2-4666.8z"/>
				</g>
			</g>
			<g>
				<g>
					<path class="st6" d="M1105.2-4688.5c0,1.4,0,2.9,0,4.3c0,0.5,0.8,0.5,0.8,0c0-1.4,0-2.9,0-4.3
						C1106-4689,1105.2-4689,1105.2-4688.5L1105.2-4688.5z"/>
				</g>
			</g>
		</g>
		<g>
			<g>
				<g>
					<path class="st6" d="M1096.9-4675.9c-1.4,0-2.9,0-4.3,0c-0.5,0-0.5,0.8,0,0.8c1.4,0,2.9,0,4.3,0
						C1097.4-4675.1,1097.4-4675.9,1096.9-4675.9L1096.9-4675.9z"/>
				</g>
			</g>
			<g>
				<g>
					<path class="st6" d="M1118.6-4675.9c-1.4,0-2.9,0-4.3,0c-0.5,0-0.5,0.8,0,0.8c1.4,0,2.9,0,4.3,0
						C1119.1-4675.1,1119.1-4675.9,1118.6-4675.9L1118.6-4675.9z"/>
				</g>
			</g>
		</g>
		<g>
			<g>
				<g>
					<path class="st6" d="M1099.7-4681.9c-1-1-2-2-3.1-3.1c-0.3-0.3-0.9,0.2-0.5,0.5c1,1,2,2,3.1,3.1
						C1099.5-4681,1100-4681.6,1099.7-4681.9L1099.7-4681.9z"/>
				</g>
			</g>
			<g>
				<g>
					<path class="st6" d="M1115.1-4666.5c-1-1-2-2-3.1-3.1c-0.3-0.3-0.9,0.2-0.5,0.5c1,1,2,2,3.1,3.1
						C1114.9-4665.7,1115.4-4666.2,1115.1-4666.5L1115.1-4666.5z"/>
				</g>
			</g>
		</g>
		<g>
			<g>
				<g>
					<path class="st6" d="M1099.2-4669.6c-1,1-2,2-3.1,3.1c-0.3,0.3,0.2,0.9,0.5,0.5c1-1,2-2,3.1-3.1
						C1100-4669.4,1099.5-4670,1099.2-4669.6L1099.2-4669.6z"/>
				</g>
			</g>
			<g>
				<g>
					<path class="st6" d="M1114.5-4685c-1,1-2,2-3.1,3.1c-0.3,0.3,0.2,0.9,0.5,0.5c1-1,2-2,3.1-3.1
						C1115.4-4684.8,1114.9-4685.3,1114.5-4685L1114.5-4685z"/>
				</g>
			</g>
		</g>
	</g>
	<g>
		<g>
			<path class="st7" d="M939.4-4672c-1.4,0.9-2.4,2.4-2.4,4.2c0,2.7,2.2,5,5,5c2.7,0,5-2.2,5-5c0-1.8-1-3.4-2.4-4.2v-13.9
				c0-1.4-1.2-2.6-2.6-2.6c-1.4,0-2.6,1.2-2.6,2.6V-4672z"/>
		</g>
		<g>
			<circle class="st8" cx="941.9" cy="-4667.8" r="3.1"/>
			<rect x="940.9" y="-4673.6" class="st8" width="2" height="4.3"/>
		</g>
		<line class="st7" x1="936.2" y1="-4682" x2="931.1" y2="-4682"/>
		<line class="st7" x1="936.2" y1="-4678.6" x2="932.8" y2="-4678.6"/>
		<line class="st7" x1="936.2" y1="-4675.2" x2="931.1" y2="-4675.2"/>
	</g>
	<g>
		<path class="st7" d="M621.9-4679.8c3.5,3.1,3.8,8.5,0.7,12s-8.5,3.8-12,0.7c-3.5-3.1-3.8-8.5-0.7-12"/>
		<polyline class="st7" points="616.3,-4679 616.3,-4672.4 612.1,-4668.1 		"/>
		<line class="st7" x1="616.3" y1="-4668.1" x2="616.3" y2="-4666"/>
		<line class="st7" x1="621.3" y1="-4672.4" x2="623.4" y2="-4672.4"/>
		<line class="st7" x1="609.2" y1="-4672.4" x2="611.2" y2="-4672.4"/>
		<line class="st7" x1="619.6" y1="-4669.1" x2="621.1" y2="-4667.6"/>
		<line class="st7" x1="620.3" y1="-4676.5" x2="621.8" y2="-4677.9"/>
		<g>
			<g>
				<path class="st8" d="M606.6-4678.7c1.2-0.2,2.4-0.3,3.6-0.5c-0.1-0.1-0.2-0.2-0.4-0.4c0.1,1.3,0.2,2.6,0.2,3.9
					c0,0.5,0.8,0.5,0.8,0c-0.1-1.3-0.2-2.6-0.2-3.9c0-0.2-0.2-0.4-0.4-0.4c-1.2,0.2-2.4,0.3-3.6,0.5
					C606.1-4679.4,606.1-4678.6,606.6-4678.7L606.6-4678.7z"/>
			</g>
		</g>
	</g>
	<g>
		<path class="st7" d="M781.1-4670.3c0.1,0.6,0,1.2-0.1,1.7c-0.3,1.1-1.1,2.1-2.1,2.7c-1.8,1-4.1,0.7-5.5-0.7
			c-1.4-1.4-1.7-3.7-0.7-5.4c0,0,0,0,0,0l3.6-6.3c0.1-0.1,0.3-0.2,0.4-0.2c0,0,0,0,0,0c0.1,0,0.1,0.1,0.1,0.1l3.6,6.3
			C780.8-4671.4,781-4670.9,781.1-4670.3z"/>
		<path class="st7" d="M782.7-4673.6c-1.8-0.9-2.4-3.3-1.3-5l2.6-4.6c0.1-0.2,0.5-0.2,0.6,0l2.6,4.6c0.4,0.5,0.5,1.2,0.5,1.9
			c0,0.6-0.2,1.2-0.5,1.7C786.5-4673.4,784.4-4672.8,782.7-4673.6z"/>
		<path class="st7" d="M774.8-4670.9c0,0-1,2.5,1.2,3.3"/>
		<path class="st7" d="M782.9-4677.7c0,0-0.8,2.1,1,2.7"/>
	</g>
</g>
<g>
	<circle class="st9" cx="150.2" cy="-5067.5" r="28.3"/>
	<line class="st10" x1="150.2" y1="-5123.5" x2="150.2" y2="-5011.5"/>
	<line class="st10" x1="94.2" y1="-5067.5" x2="206.2" y2="-5067.5"/>
	<line class="st10" x1="110.6" y1="-5107.1" x2="189.8" y2="-5027.9"/>
	<line class="st10" x1="110.6" y1="-5027.9" x2="189.8" y2="-5107.1"/>
</g>
<linearGradient id="SVGID_2_" gradientUnits="userSpaceOnUse" x1="1504.0469" y1="-1638.5765" x2="2104.0471" y2="-1638.5765" gradientTransform="matrix(4.489700e-11 -1 1 4.489700e-11 2278.5767 -998.0266)">
	<stop  offset="0" style="stop-color:#C8C7C6"/>
	<stop  offset="0.3296" style="stop-color:#DBD8C4"/>
	<stop  offset="0.7286" style="stop-color:#EDE8C2"/>
	<stop  offset="1" style="stop-color:#F3EEC1"/>
</linearGradient>
<rect x="0" y="-3090.3" class="st11" width="1280" height="600"/>
<linearGradient id="SVGID_3_" gradientUnits="userSpaceOnUse" x1="877.2209" y1="-1638.5765" x2="1477.2211" y2="-1638.5765" gradientTransform="matrix(4.489700e-11 -1 1 4.489700e-11 2278.5767 -998.0266)">
	<stop  offset="0" style="stop-color:#E2D0CA"/>
	<stop  offset="1" style="stop-color:#98D3DD"/>
</linearGradient>
<rect x="0" y="-2475.2" class="st12" width="1280" height="600"/>
<linearGradient id="SVGID_4_" gradientUnits="userSpaceOnUse" x1="265.5739" y1="-1638.5765" x2="865.574" y2="-1638.5765" gradientTransform="matrix(4.489700e-11 -1 1 4.489700e-11 2278.5767 -998.0266)">
	<stop  offset="0" style="stop-color:#F4B59C"/>
	<stop  offset="0.1437" style="stop-color:#D6B8A7"/>
	<stop  offset="0.3445" style="stop-color:#ADB7B2"/>
	<stop  offset="0.5367" style="stop-color:#87B3BA"/>
	<stop  offset="0.7152" style="stop-color:#65AEBE"/>
	<stop  offset="0.8749" style="stop-color:#49AAC0"/>
	<stop  offset="1" style="stop-color:#3DA9C0"/>
</linearGradient>
<rect y="-1857.2" class="st13" width="1280" height="600"/>
<linearGradient id="SVGID_5_" gradientUnits="userSpaceOnUse" x1="265.5739" y1="-1638.5767" x2="865.574" y2="-1638.5767" gradientTransform="matrix(4.489700e-11 -1 1 4.489700e-11 2278.5767 -998.0266)">
	<stop  offset="0" style="stop-color:#869498"/>
	<stop  offset="8.478856e-02" style="stop-color:#6B99A3"/>
	<stop  offset="0.196" style="stop-color:#489CAE"/>
	<stop  offset="0.3213" style="stop-color:#179CB5"/>
	<stop  offset="0.4667" style="stop-color:#009CB9"/>
	<stop  offset="0.6507" style="stop-color:#009CBB"/>
	<stop  offset="1" style="stop-color:#009BBC"/>
</linearGradient>
<rect x="0" y="-1857.2" class="st14" width="1280" height="600"/>
<linearGradient id="SVGID_6_" gradientUnits="userSpaceOnUse" x1="-358.4885" y1="-1638.5765" x2="241.5116" y2="-1638.5765" gradientTransform="matrix(4.489700e-11 -1 1 4.489700e-11 2278.5767 -998.0266)">
	<stop  offset="0" style="stop-color:#F4B59C"/>
	<stop  offset="0.1437" style="stop-color:#D6B8A7"/>
	<stop  offset="0.3445" style="stop-color:#ADB7B2"/>
	<stop  offset="0.5367" style="stop-color:#87B3BA"/>
	<stop  offset="0.7152" style="stop-color:#65AEBE"/>
	<stop  offset="0.8749" style="stop-color:#49AAC0"/>
	<stop  offset="1" style="stop-color:#3DA9C0"/>
</linearGradient>
<rect y="-1233.1" class="st15" width="1280" height="600"/>
<linearGradient id="SVGID_7_" gradientUnits="userSpaceOnUse" x1="-358.4885" y1="-1638.5767" x2="241.5118" y2="-1638.5767" gradientTransform="matrix(4.489700e-11 -1 1 4.489700e-11 2278.5767 -998.0266)">
	<stop  offset="0" style="stop-color:#F7AE81"/>
	<stop  offset="0.2374" style="stop-color:#D9907D"/>
	<stop  offset="0.5303" style="stop-color:#BE7576"/>
	<stop  offset="0.7936" style="stop-color:#AF6672"/>
	<stop  offset="1" style="stop-color:#A96170"/>
</linearGradient>
<rect x="0" y="-1233.1" class="st16" width="1280" height="600"/>
<linearGradient id="SVGID_8_" gradientUnits="userSpaceOnUse" x1="-358.4885" y1="-1638.5767" x2="241.5118" y2="-1638.5767" gradientTransform="matrix(4.489700e-11 -1 1 4.489700e-11 2278.5767 -998.0266)">
	<stop  offset="0" style="stop-color:#F7AE81"/>
	<stop  offset="0.2374" style="stop-color:#D9907D"/>
	<stop  offset="0.5303" style="stop-color:#BE7576"/>
	<stop  offset="0.7936" style="stop-color:#AF6672"/>
	<stop  offset="1" style="stop-color:#A96170"/>
</linearGradient>
<rect x="0" y="-1233.1" class="st17" width="1280" height="600"/>
<linearGradient id="SVGID_9_" gradientUnits="userSpaceOnUse" x1="-970.5497" y1="-1638.5765" x2="-370.5496" y2="-1638.5765" gradientTransform="matrix(4.489700e-11 -1 1 4.489700e-11 2278.5767 -998.0266)">
	<stop  offset="0" style="stop-color:#F4B59C"/>
	<stop  offset="0.1437" style="stop-color:#D6B8A7"/>
	<stop  offset="0.3445" style="stop-color:#ADB7B2"/>
	<stop  offset="0.5367" style="stop-color:#87B3BA"/>
	<stop  offset="0.7152" style="stop-color:#65AEBE"/>
	<stop  offset="0.8749" style="stop-color:#49AAC0"/>
	<stop  offset="1" style="stop-color:#3DA9C0"/>
</linearGradient>
<rect y="-621.1" class="st18" width="1280" height="600"/>
<linearGradient id="SVGID_10_" gradientUnits="userSpaceOnUse" x1="-970.4208" y1="-1638.5768" x2="-358.3594" y2="-1638.5768" gradientTransform="matrix(4.489700e-11 -1 1 4.489700e-11 2278.5767 -998.0266)">
	<stop  offset="0" style="stop-color:#E1AEA8"/>
	<stop  offset="5.368674e-02" style="stop-color:#D6A5A3"/>
	<stop  offset="0.2758" style="stop-color:#AC858F"/>
	<stop  offset="0.4881" style="stop-color:#8C6E80"/>
	<stop  offset="0.6853" style="stop-color:#756077"/>
	<stop  offset="0.8617" style="stop-color:#675872"/>
	<stop  offset="1" style="stop-color:#625570"/>
</linearGradient>
<rect x="0" y="-633.1" class="st19" width="1280" height="612.1"/>
<linearGradient id="SVGID_11_" gradientUnits="userSpaceOnUse" x1="-1591.6118" y1="-1638.5769" x2="-991.6117" y2="-1638.5769" gradientTransform="matrix(4.489700e-11 -1 1 4.489700e-11 2278.5767 -998.0266)">
	<stop  offset="0" style="stop-color:#553D69"/>
	<stop  offset="0.1392" style="stop-color:#47305B"/>
	<stop  offset="0.3902" style="stop-color:#322047"/>
	<stop  offset="0.6251" style="stop-color:#25183B"/>
	<stop  offset="0.8353" style="stop-color:#1D1535"/>
	<stop  offset="1" style="stop-color:#1A1333"/>
</linearGradient>
<rect x="0" y="0" class="st20" width="1280" height="600"/>
<linearGradient id="SVGID_12_" gradientUnits="userSpaceOnUse" x1="-2212.6741" y1="-1638.577" x2="-1612.6738" y2="-1638.577" gradientTransform="matrix(4.489700e-11 -1 1 4.489700e-11 2278.5767 -998.0266)">
	<stop  offset="0" style="stop-color:#2F3668"/>
	<stop  offset="9.947407e-02" style="stop-color:#2C2F5E"/>
	<stop  offset="0.3621" style="stop-color:#242149"/>
	<stop  offset="0.6078" style="stop-color:#1F193C"/>
	<stop  offset="0.8277" style="stop-color:#1C1535"/>
	<stop  offset="1" style="stop-color:#1A1333"/>
</linearGradient>
<rect x="0" y="621.1" class="st21" width="1280" height="600"/>
</svg>
