<?xml version="1.0" encoding="utf-8"?>
<!-- Generator: Adobe Illustrator 17.0.0, SVG Export Plug-In . SVG Version: 6.00 Build 0)  -->
<!DOCTYPE svg PUBLIC "-//W3C//DTD SVG 1.1//EN" "http://www.w3.org/Graphics/SVG/1.1/DTD/svg11.dtd">
<svg version="1.1" id="Calque_1" xmlns="http://www.w3.org/2000/svg" xmlns:xlink="http://www.w3.org/1999/xlink" x="0px" y="0px"
	 width="1280px" height="600px" viewBox="0 0 1280 600" style="enable-background:new 0 0 1280 600;" xml:space="preserve">
<style type="text/css">
	.st0{fill:#FFFFFF;}
</style>
<path class="st0" d="M949.8,395.6H845.9c0,0-1.3-9.3,5.3-15.6c6.6-6.3,15.6-6,15.6-6s2.7-22.2,25.6-24.6s31.2,19.2,31.2,19.2
	s11.6-5.5,20.6,3.7S949.8,395.6,949.8,395.6z"/>
<path class="st0" d="M75.6,372.5h85.8c0,0,1.1-7.7-4.4-12.9c-5.5-5.2-12.9-4.9-12.9-4.9s-2.2-18.4-21.1-20.3s-25.8,15.9-25.8,15.9
	s-9.6-4.5-17,3.1C72.9,360.9,75.6,372.5,75.6,372.5z"/>
<path class="st0" d="M322.6,200.6h155.7c0,0,2-13.9-8-23.4s-23.4-9-23.4-9s-4-33.3-38.3-36.8s-46.8,28.8-46.8,28.8
	s-17.4-8.2-30.8,5.6C317.7,179.7,322.6,200.6,322.6,200.6z"/>
</svg>
