<svg xmlns="http://www.w3.org/2000/svg" xmlns:xlink="http://www.w3.org/1999/xlink" version="1.1" id="Calque_1" x="0" y="0" width="1280" height="600" viewBox="0 0 1280 600" xml:space="preserve" enable-background="new 0 0 1280 600">
  <style type="text/css">
    
	.st0{fill:url(#SVGID_1_);}
	.st1{opacity:0.3;}
	.st2{fill:#FFFFFF;}
	.st3{opacity:0.7;}
	.st4{fill:none;stroke:#FFFFFF;stroke-miterlimit:10;}
	.st5{fill:none;stroke:#000000;stroke-miterlimit:10;}
	.st6{fill:#14130B;}
	.st7{fill:none;stroke:#13130A;stroke-width:0.75;stroke-miterlimit:10;}
	.st8{fill:#13130A;}
	.st9{fill:#FFF0BC;}
	.st10{fill:none;stroke:#FFF0BC;stroke-width:2;stroke-miterlimit:10;}
	.st11{fill:url(#SVGID_2_);}
	.st12{fill:url(#SVGID_3_);}
	.st13{opacity:0.3;fill:url(#SVGID_4_);}
	.st14{opacity:0.3;fill:url(#SVGID_5_);}
	.st15{opacity:0.3;fill:url(#SVGID_6_);}
	.st16{opacity:0.4;fill:url(#SVGID_7_);}
	.st17{opacity:0.4;fill:url(#SVGID_8_);}
	.st18{opacity:0.3;fill:url(#SVGID_9_);}
	.st19{opacity:0.73;fill:url(#SVGID_10_);}
	.st20{opacity:0.85;fill:url(#SVGID_11_);}
	.st21{opacity:0.98;fill:url(#SVGID_12_);}

  </style>
  <linearGradient id="SVGID_1_" gradientUnits="userSpaceOnUse" x1="3599.1" y1="791.95" x2="4440.99" y2="791.95" gradientTransform="matrix(4.489700e-11 -1 1 4.489700e-11 -196.6709 1477.2209)">
    <stop offset="0" stop-color="#C8C7C6"/>
    <stop offset="0.33" stop-color="#DBD8C4"/>
    <stop offset="0.73" stop-color="#EDE8C2"/>
    <stop offset="1" stop-color="#F3EEC1"/>
  </linearGradient>
  <rect x="0" y="-2947.3" class="st0" width="1190.5" height="841.9"/>
  <g class="st1">
    <path class="st2" d="M21.8-2221.1c0 0 0.4-0.8 1.1-2.3H11.1C17.3-2222.7 21.8-2221.1 21.8-2221.1z"/>
    <path class="st2" d="M130-2222.2c0.2-0.4 0.5-0.8 0.7-1.2h-1.2C129.7-2223 129.8-2222.6 130-2222.2z"/>
    <path class="st2" d="M932-2169.4h-2.2c0.4 0.5 0.8 1.1 1.2 1.6C931.3-2168.3 931.6-2168.8 932-2169.4z"/>
    <path class="st2" d="M0-2223.4v0.1c0.3 0 0.6-0.1 0.9-0.1H0z"/>
    <path class="st2" d="M295.4-2095.9l202.5 0.5 0-0.5h80.4 70l0 0.5 137.1-0.5h65.4 31.6 105.5 39.5l0 0h163.1v-199.5c-6.4-4.2-14.5-7.4-24.5-8.4 -43.9-4.6-62.3 36.7-62.3 36.7s-26.2-9.5-41.9 8.3c-3.3 3.8-5.8 7.7-7.6 11.7 -7.2-6.3-17-11.4-30.2-12.8 -33.5-3.5-52.1 19.7-59.1 30.9 -2.8-11.3-13.4-41.2-48.9-44.9 -36.2-3.8-55 23.6-60.5 33.3 -7.2-10.7-19.4-21.2-39.5-23.3 -43.9-4.6-62.3 36.7-62.3 36.7s1.2-0.3-0.1-0.7c-1.8-3.7-6.1-7.5-9.2-11 -15.7-17.9-41.9-8.3-41.9-8.3s-18.4-41.3-62.3-36.7c-43.9 4.6-49.8 49.2-49.8 49.2s-21.3-8.3-30.1 9.2c-0.4 0.9-1.3 1.3-1.9 2 -1.7-3.5-4-7-6.9-10.3 -15.7-17.9-41.9-8.3-41.9-8.3s-18.4-41.3-62.3-36.7c-24.6 2.6-41.3 18.7-47.7 31.6l-0.1 0.1c0 0-18.4-41.3-62.3-36.7 -43.9 4.6-50.8 49.2-50.8 49.2s0.6-0.1-0.2-0.2c-4.6-13.4-16.8-35.8-47.2-39 -43.9-4.6-62.3 36.7-62.3 36.7s-26.2-9.5-41.9 8.3c-1.5 1.7-2.8 3.4-4 5.2 0.3-2 2.5-20.2-9.9-31.9 -13.1-12.5-30.1-9.2-30.1-9.2s-5.9-44.6-49.8-49.2c-17.6-1.8-31.2 3.7-41 11v79.4h0.9c-0.3 0-0.6 0.1-0.9 0.1v127.4h147.9 0 140l7.5 0.5M21.8-2221.1c0 0-4.4-1.6-10.7-2.3h11.8C22.1-2221.9 21.8-2221.1 21.8-2221.1zM130-2222.2c-0.2-0.4-0.3-0.8-0.5-1.2h1.2C130.5-2223 130.2-2222.6 130-2222.2z"/>
  </g>
  <g class="st3">
    <polyline class="st4" points="51.9 -2349.5 41.7 -2234.1 91.4 -2328.5 "/>
    <polyline class="st4" points="-8.6 -2170.6 14.7 -2142.6 -8.6 -2107 "/>
    <polyline class="st4" points="136.4 -2269.4 168.5 -2198.4 140.1 -2182.2 109.7 -2192.3 133 -2250.1 140.1 -2182.2 182.1 -2154.8 201.5 -2198.4 168.5 -2262.3 "/>
    <polyline class="st4" points="200 -2294.8 201.5 -2198.4 168.5 -2198.4 "/>
    <polyline class="st4" points="219.2 -2108.6 201.5 -2198.4 243.6 -2301.6 254.8 -2198.4 219.2 -2108.6 182.1 -2154.8 140.1 -2131.5 140.1 -2182.2 78.3 -2107 14.7 -2142.6 "/>
    <polyline class="st4" points="182.1 -2154.8 185 -2107 140.1 -2131.5 78.3 -2107 "/>
    <polyline class="st4" points="254.8 -2198.4 292.8 -2218.5 338.9 -2218.5 "/>
    <polyline class="st4" points="286.2 -2259.8 292.8 -2218.5 309 -2154.8 338.9 -2218.5 286.2 -2259.8 254.8 -2198.4 278.1 -2108.6 309 -2154.8 254.8 -2198.4 227.4 -2189.8 201.5 -2198.4 "/>
    <polyline class="st4" points="304.4 -2301.6 338.9 -2218.5 356.2 -2301.6 "/>
    <polyline class="st4" points="309 -2154.8 338.9 -2108.6 382 -2124.8 396.9 -2174.6 338.9 -2218.5 396.9 -2276.5 396.9 -2174.6 346 -2146.7 307.8 -2152.9 "/>
    <path class="st4" d="M396.9-2276.5"/>
    <line class="st4" x1="346" y1="-2146.7" x2="338.9" y2="-2218.5"/>
    <polyline class="st4" points="-8.6 -2216.1 41.7 -2234.1 54.9 -2188.3 "/>
    <polyline class="st4" points="421.8 -2146.7 382 -2124.8 390.7 -2107 "/>
    <path class="st4" d="M417-2238.3"/>
    <polyline class="st4" points="451.5 -2301.6 451.5 -2273.8 424.1 -2249.8 396.9 -2276.5 "/>
    <polyline class="st4" points="553.5 -2243.5 535 -2204.3 502.9 -2188.9 479.2 -2226.1 "/>
    <polyline class="st4" points="503.2 -2290.7 489.4 -2260 451.5 -2273.8 479.2 -2226.1 449.5 -2149.7 502.9 -2188.9 558.4 -2158.8 535 -2204.3 544.8 -2269.4 479.2 -2226.1 489.4 -2260 514.4 -2264.3 "/>
    <polyline class="st4" points="338.9 -2108.6 346 -2146.7 382 -2124.8 428.9 -2107 449.5 -2149.7 421.8 -2146.7 396.9 -2174.6 412.3 -2188.9 424.1 -2249.8 479.2 -2226.1 412.3 -2188.9 421.8 -2146.7 "/>
    <polyline class="st4" points="568.7 -2259.3 568.7 -2220.2 535 -2204.3 "/>
    <polyline class="st4" points="502.9 -2146.7 449.5 -2149.7 412.3 -2188.9 "/>
    <polyline class="st4" points="449.5 -2149.7 472.5 -2107 503.9 -2146.7 "/>
    <polygon class="st4" points="503.9 -2146.7 543.5 -2121.8 524.2 -2107 "/>
    <polyline class="st4" points="568.7 -2220.2 595.2 -2187.6 558.4 -2158.8 503.9 -2146.7 502.9 -2188.9 "/>
    <polygon class="st4" points="543.5 -2121.8 558.4 -2158.8 562.8 -2107 "/>
    <path class="st2" d="M595.2-2187.6"/>
    <polyline class="st4" points="636.1 -2259.3 678.7 -2249.8 710.2 -2255.2 710.2 -2264.3 "/>
    <polyline class="st4" points="683.8 -2302.9 678.7 -2249.8 672.3 -2178.4 699 -2138.2 772 -2107 728.8 -2188.9 752.8 -2264.3 787.2 -2231.8 822.7 -2306.9 844.4 -2224.8 "/>
    <polyline class="st4" points="586.4 -2286.6 636.1 -2259.3 630 -2300.8 "/>
    <polyline class="st4" points="710.2 -2254.2 728.8 -2188.9 678.7 -2249.8 "/>
    <line class="st4" x1="636.1" y1="-2259.3" x2="602" y2="-2149.7"/>
    <polyline class="st4" points="616.7 -2197.1 672.3 -2178.4 637.6 -2258.9 "/>
    <polyline class="st4" points="672.3 -2178.4 670.3 -2107 699 -2138.2 728.8 -2188.9 672.3 -2178.4 602 -2149.7 595.2 -2187.6 586.4 -2259.3 616.7 -2197.1 "/>
    <polyline class="st4" points="602 -2149.7 621.6 -2115.9 670.3 -2107 "/>
    <polyline class="st4" points="670.3 -2177.6 621.6 -2115.9 562.8 -2107 602 -2149.7 558.4 -2158.8 "/>
    <polyline class="st4" points="787.2 -2231.8 819.7 -2178.4 844.4 -2224.8 900.2 -2191.6 859.3 -2244.4 857.2 -2269.4 910.7 -2249.8 941.1 -2270.4 970.5 -2264.3 1020.9 -2278.5 1071.6 -2254.9 1084.4 -2288.3 1064.1 -2301.9 "/>
    <polyline class="st4" points="819.7 -2178.4 788.7 -2187.1 728.8 -2188.9 787.2 -2231.8 844.4 -2224.8 859.3 -2244.4 910.7 -2249.8 901.9 -2304.9 "/>
    <path class="st2" d="M819.7-2178.4"/>
    <polyline class="st4" points="802.8 -2126.4 819.7 -2178.4 846.4 -2107 861.6 -2168.5 918.1 -2107 900.2 -2190.3 862.3 -2168.3 819.7 -2178.4 772 -2107 788.7 -2187.1 787.2 -2231.8 "/>
    <line class="st4" x1="878.5" y1="-2128.4" x2="862.3" y2="-2168.3"/>
    <line class="st4" x1="941.6" y1="-2304.9" x2="941.1" y2="-2270.4"/>
    <polyline class="st4" points="951.3 -2178.5 983.3 -2150.5 995.9 -2206.2 951.3 -2178.5 900.2 -2190.3 910.7 -2249.8 946.7 -2237.4 970.5 -2264.3 995.9 -2206.2 946.7 -2237.4 951.3 -2178.5 918.1 -2107 878.5 -2128.4 846.4 -2107 802.8 -2126.4 772 -2107 "/>
    <polyline class="st4" points="983.3 -2150.5 1019.8 -2136 987.3 -2107 983.3 -2150.5 918.1 -2107 "/>
    <polyline class="st4" points="995.9 -2207.3 1020.9 -2278.5 1017.5 -2302.9 "/>
    <line class="st4" x1="971.8" y1="-2276.5" x2="970.5" y2="-2264.3"/>
    <polyline class="st4" points="1084.4 -2288.3 1116.4 -2282.1 1109.8 -2301.9 "/>
    <polyline class="st4" points="54.9 -2188.3 78.3 -2107 109.7 -2192.3 54.9 -2188.3 14.7 -2142.6 41.7 -2234.1 91.4 -2286.6 109.7 -2192.3 41.7 -2234.1 -8.6 -2328.5 51.9 -2349.5 91.4 -2328.5 91.4 -2286.6 122.8 -2283.6 133 -2250.1 136.4 -2269.4 168.5 -2262.3 200 -2294.8 243.6 -2301.6 286.2 -2259.8 304.4 -2301.6 356.2 -2301.6 396.9 -2276.5 451.5 -2301.6 503.2 -2290.7 514.4 -2264.3 544.8 -2269.4 553.5 -2243.5 568.7 -2259.3 586.4 -2259.3 586.4 -2286.6 630 -2300.8 683.8 -2302.9 710.2 -2264.3 729.4 -2284.6 752.8 -2264.3 822.7 -2306.9 857.2 -2269.4 901.9 -2304.9 941.6 -2304.9 971.8 -2276.5 1017.5 -2302.9 1064.1 -2276.5 1064.1 -2301.9 1109.8 -2301.9 1135.1 -2359.7 1199 -2328.5 1156.4 -2329.2 1199 -2292 1172.2 -2223 1116.4 -2282.1 1156.4 -2329.2 1135.1 -2359.7 "/>
    <polyline class="st4" points="1199 -2292 1160.5 -2270.4 1116.4 -2282.1 1071.6 -2254.9 1064.1 -2278.5 "/>
    <polyline class="st4" points="1156.4 -2329.2 1160.5 -2270.4 1172.2 -2223 1206.4 -2243 "/>
    <polyline class="st4" points="1116.4 -2282.1 1111.8 -2255.1 1134.6 -2188.3 1172.4 -2131.7 1203.6 -2107 "/>
    <polyline class="st4" points="1111.8 -2255.1 1097.4 -2211.6 1134.6 -2188.3 1097.4 -2150.5 1124.1 -2107 "/>
    <polyline class="st4" points="1019.8 -2136 1046.6 -2173 1097.4 -2150.5 1097.4 -2211.6 1071.6 -2254.9 1047.4 -2209 995.9 -2206.2 1046.6 -2173 1047.4 -2209 "/>
    <polyline class="st4" points="1097.4 -2211.6 1047.4 -2209 1097.4 -2150.5 1092.5 -2104.6 1046.6 -2173 1039 -2107 1019.8 -2136 995.9 -2206.2 1071.6 -2254.9 1111.8 -2255.1 1172.2 -2223 1199 -2197.9 1172.4 -2131.7 1172.2 -2223 1134.6 -2188.3 1124 -2106.5 1172.4 -2131.7 "/>
  </g>
  <line class="st5" x1="147.1" y1="-2171" x2="1207.8" y2="-2171"/>
  <circle class="st5" cx="147.1" cy="-2171" r="10.1"/>
  <circle cx="147.1" cy="-2171" r="5.7"/>
  <polygon points="300.2 -2162.5 295.5 -2171 300.2 -2179.6 304.9 -2171 "/>
  <polygon points="452.7 -2162.5 448 -2171 452.7 -2179.6 457.5 -2171 "/>
  <polygon points="616.2 -2162.5 611.5 -2171 616.2 -2179.6 620.9 -2171 "/>
  <polygon points="779.6 -2162.5 774.9 -2171 779.6 -2179.6 784.3 -2171 "/>
  <polygon points="943 -2162.5 938.3 -2171 943 -2179.6 947.8 -2171 "/>
  <polygon points="1106.5 -2162.5 1101.8 -2171 1106.5 -2179.6 1111.2 -2171 "/>
  <rect x="404.6" y="-2150.9" width="95.9" height="18" fill="none"/>
  <text transform="matrix(1 0 0 1 418.3132 -2141.6279)" style="font-family:'MyriadPro-Regular';font-size:13.07">
    LUMINOSITÉ
  </text>
  <rect x="252" y="-2150.9" width="95.9" height="18" fill="none"/>
  <text transform="matrix(1 0 0 1 259.8186 -2141.6279)" style="font-family:'MyriadPro-Regular';font-size:13.07">
    TEMPÉRATURE
  </text>
  <rect x="1058.3" y="-2150.9" width="95.9" height="18" fill="none"/>
  <text transform="matrix(1 0 0 1 1072.053 -2141.6279)" style="font-family:'MyriadPro-Regular';font-size:13.07">
    LUMINOSITÉ
  </text>
  <rect x="894.9" y="-2150.9" width="95.9" height="18" fill="none"/>
  <text transform="matrix(1 0 0 1 908.6179 -2141.6279)" style="font-family:'MyriadPro-Regular';font-size:13.07">
    LUMINOSITÉ
  </text>
  <rect x="731.4" y="-2150.9" width="95.9" height="18" fill="none"/>
  <text transform="matrix(1 0 0 1 751.6814 -2141.6279)" style="font-family:'MyriadPro-Regular';font-size:13.07">
    HUMIDITÉ
  </text>
  <rect x="568" y="-2150.9" width="95.9" height="18" fill="none"/>
  <text transform="matrix(1 0 0 1 577.6038 -2141.6279)" style="font-family:'MyriadPro-Regular';font-size:13.07">
    TEMPORALITÉ
  </text>
  <path class="st6" d="M457.6-2200.3c-0.3 6.4-9.6 6.4-10 0 -0.2-2.8 2.4-4.9 5-5C455.4-2205.5 457.4-2202.9 457.6-2200.3c0 0.6 1 0.6 1 0 -0.2-3.4-2.6-5.8-6-6 -3.4-0.2-5.8 2.9-6 6 -0.2 3.4 2.9 5.8 6 6 3.4 0.2 5.8-2.9 6-6C458.6-2201 457.6-2201 457.6-2200.3z"/>
  <path class="st6" d="M452.2-2191.6c0 1.4 0 2.9 0 4.3 0 0.5 0.8 0.5 0.8 0 0-1.4 0-2.9 0-4.3C453-2192 452.2-2192 452.2-2191.6L452.2-2191.6z"/>
  <path class="st6" d="M452.2-2213.3c0 1.4 0 2.9 0 4.3 0 0.5 0.8 0.5 0.8 0 0-1.4 0-2.9 0-4.3C453-2213.8 452.2-2213.8 452.2-2213.3L452.2-2213.3z"/>
  <path class="st6" d="M443.9-2200.6c-1.4 0-2.9 0-4.3 0 -0.5 0-0.5 0.8 0 0.8 1.4 0 2.9 0 4.3 0C444.4-2199.9 444.4-2200.6 443.9-2200.6L443.9-2200.6z"/>
  <path class="st6" d="M465.6-2200.6c-1.4 0-2.9 0-4.3 0 -0.5 0-0.5 0.8 0 0.8 1.4 0 2.9 0 4.3 0C466.1-2199.9 466.1-2200.6 465.6-2200.6L465.6-2200.6z"/>
  <path class="st6" d="M446.7-2206.7c-1-1-2-2-3.1-3.1 -0.3-0.3-0.9 0.2-0.5 0.5 1 1 2 2 3.1 3.1C446.5-2205.8 447-2206.3 446.7-2206.7L446.7-2206.7z"/>
  <path class="st6" d="M462.1-2191.3c-1-1-2-2-3.1-3.1 -0.3-0.3-0.9 0.2-0.5 0.5 1 1 2 2 3.1 3.1C461.9-2190.4 462.4-2191 462.1-2191.3L462.1-2191.3z"/>
  <path class="st6" d="M446.2-2194.4c-1 1-2 2-3.1 3.1 -0.3 0.3 0.2 0.9 0.5 0.5 1-1 2-2 3.1-3.1C447-2194.2 446.5-2194.7 446.2-2194.4L446.2-2194.4z"/>
  <path class="st6" d="M461.5-2209.7c-1 1-2 2-3.1 3.1 -0.3 0.3 0.2 0.9 0.5 0.5 1-1 2-2 3.1-3.1C462.4-2209.5 461.9-2210.1 461.5-2209.7L461.5-2209.7z"/>
  <path class="st7" d="M296.4-2196.7c-1.4 0.9-2.4 2.4-2.4 4.2 0 2.7 2.2 5 5 5 2.7 0 5-2.2 5-5 0-1.8-1-3.4-2.4-4.2v-13.9c0-1.4-1.2-2.6-2.6-2.6 -1.4 0-2.6 1.2-2.6 2.6V-2196.7z"/>
  <circle class="st8" cx="298.9" cy="-2192.6" r="3.1"/>
  <rect x="297.9" y="-2198.4" class="st8" width="2" height="4.3"/>
  <line class="st7" x1="293.2" y1="-2206.7" x2="288.1" y2="-2206.7"/>
  <line class="st7" x1="293.2" y1="-2203.3" x2="289.8" y2="-2203.3"/>
  <line class="st7" x1="293.2" y1="-2199.9" x2="288.1" y2="-2199.9"/>
  <path class="st6" d="M1110.6-2200.3c-0.3 6.4-9.6 6.4-10 0 -0.2-2.8 2.4-4.9 5-5C1108.4-2205.5 1110.4-2202.9 1110.6-2200.3c0 0.6 1 0.6 1 0 -0.2-3.4-2.6-5.8-6-6 -3.4-0.2-5.8 2.9-6 6 -0.2 3.4 2.9 5.8 6 6 3.4 0.2 5.8-2.9 6-6C1111.6-2201 1110.6-2201 1110.6-2200.3z"/>
  <path class="st6" d="M1105.2-2191.6c0 1.4 0 2.9 0 4.3 0 0.5 0.8 0.5 0.8 0 0-1.4 0-2.9 0-4.3C1106-2192 1105.2-2192 1105.2-2191.6L1105.2-2191.6z"/>
  <path class="st6" d="M1105.2-2213.3c0 1.4 0 2.9 0 4.3 0 0.5 0.8 0.5 0.8 0 0-1.4 0-2.9 0-4.3C1106-2213.8 1105.2-2213.8 1105.2-2213.3L1105.2-2213.3z"/>
  <path class="st6" d="M1096.9-2200.6c-1.4 0-2.9 0-4.3 0 -0.5 0-0.5 0.8 0 0.8 1.4 0 2.9 0 4.3 0C1097.4-2199.9 1097.4-2200.6 1096.9-2200.6L1096.9-2200.6z"/>
  <path class="st6" d="M1118.6-2200.6c-1.4 0-2.9 0-4.3 0 -0.5 0-0.5 0.8 0 0.8 1.4 0 2.9 0 4.3 0C1119.1-2199.9 1119.1-2200.6 1118.6-2200.6L1118.6-2200.6z"/>
  <path class="st6" d="M1099.7-2206.7c-1-1-2-2-3.1-3.1 -0.3-0.3-0.9 0.2-0.5 0.5 1 1 2 2 3.1 3.1C1099.5-2205.8 1100-2206.3 1099.7-2206.7L1099.7-2206.7z"/>
  <path class="st6" d="M1115.1-2191.3c-1-1-2-2-3.1-3.1 -0.3-0.3-0.9 0.2-0.5 0.5 1 1 2 2 3.1 3.1C1114.9-2190.4 1115.4-2191 1115.1-2191.3L1115.1-2191.3z"/>
  <path class="st6" d="M1099.2-2194.4c-1 1-2 2-3.1 3.1 -0.3 0.3 0.2 0.9 0.5 0.5 1-1 2-2 3.1-3.1C1100-2194.2 1099.5-2194.7 1099.2-2194.4L1099.2-2194.4z"/>
  <path class="st6" d="M1114.5-2209.7c-1 1-2 2-3.1 3.1 -0.3 0.3 0.2 0.9 0.5 0.5 1-1 2-2 3.1-3.1C1115.4-2209.5 1114.9-2210.1 1114.5-2209.7L1114.5-2209.7z"/>
  <path class="st7" d="M939.4-2196.7c-1.4 0.9-2.4 2.4-2.4 4.2 0 2.7 2.2 5 5 5 2.7 0 5-2.2 5-5 0-1.8-1-3.4-2.4-4.2v-13.9c0-1.4-1.2-2.6-2.6-2.6 -1.4 0-2.6 1.2-2.6 2.6V-2196.7z"/>
  <circle class="st8" cx="941.9" cy="-2192.6" r="3.1"/>
  <rect x="940.9" y="-2198.4" class="st8" width="2" height="4.3"/>
  <line class="st7" x1="936.2" y1="-2206.7" x2="931.1" y2="-2206.7"/>
  <line class="st7" x1="936.2" y1="-2203.3" x2="932.8" y2="-2203.3"/>
  <line class="st7" x1="936.2" y1="-2199.9" x2="931.1" y2="-2199.9"/>
  <path class="st7" d="M621.9-2204.6c3.5 3.1 3.8 8.5 0.7 12s-8.5 3.8-12 0.7c-3.5-3.1-3.8-8.5-0.7-12"/>
  <polyline class="st7" points="616.3 -2203.7 616.3 -2197.2 612.1 -2192.8 "/>
  <line class="st7" x1="616.3" y1="-2192.8" x2="616.3" y2="-2190.8"/>
  <line class="st7" x1="621.3" y1="-2197.2" x2="623.4" y2="-2197.2"/>
  <line class="st7" x1="609.2" y1="-2197.2" x2="611.2" y2="-2197.2"/>
  <line class="st7" x1="619.6" y1="-2193.8" x2="621.1" y2="-2192.4"/>
  <line class="st7" x1="620.3" y1="-2201.2" x2="621.8" y2="-2202.7"/>
  <path class="st8" d="M606.6-2203.4c1.2-0.2 2.4-0.3 3.6-0.5 -0.1-0.1-0.2-0.2-0.4-0.4 0.1 1.3 0.2 2.6 0.2 3.9 0 0.5 0.8 0.5 0.8 0 -0.1-1.3-0.2-2.6-0.2-3.9 0-0.2-0.2-0.4-0.4-0.4 -1.2 0.2-2.4 0.3-3.6 0.5C606.1-2204.1 606.1-2203.4 606.6-2203.4L606.6-2203.4z"/>
  <path class="st7" d="M781.1-2195.1c0.1 0.6 0 1.2-0.1 1.7 -0.3 1.1-1.1 2.1-2.1 2.7 -1.8 1-4.1 0.7-5.5-0.7 -1.4-1.4-1.7-3.7-0.7-5.4 0 0 0 0 0 0l3.6-6.3c0.1-0.1 0.3-0.2 0.4-0.2 0 0 0 0 0 0 0.1 0 0.1 0.1 0.1 0.1l3.6 6.3C780.8-2196.2 781-2195.7 781.1-2195.1z"/>
  <path class="st7" d="M782.7-2198.4c-1.8-0.9-2.4-3.3-1.3-5l2.6-4.6c0.1-0.2 0.5-0.2 0.6 0l2.6 4.6c0.4 0.5 0.5 1.2 0.5 1.9 0 0.6-0.2 1.2-0.5 1.7C786.5-2198.1 784.4-2197.5 782.7-2198.4z"/>
  <path class="st7" d="M774.8-2195.7c0 0-1 2.5 1.2 3.3"/>
  <path class="st7" d="M782.9-2202.4c0 0-0.8 2.1 1 2.7"/>
  <circle class="st9" cx="150.2" cy="-2592.2" r="28.3"/>
  <line class="st10" x1="150.2" y1="-2648.2" x2="150.2" y2="-2536.3"/>
  <line class="st10" x1="94.2" y1="-2592.3" x2="206.2" y2="-2592.3"/>
  <line class="st10" x1="110.6" y1="-2631.8" x2="189.8" y2="-2552.7"/>
  <line class="st10" x1="110.6" y1="-2552.7" x2="189.8" y2="-2631.8"/>
  <linearGradient id="SVGID_2_" gradientUnits="userSpaceOnUse" x1="1504.05" y1="836.67" x2="2104.05" y2="836.67" gradientTransform="matrix(4.489700e-11 -1 1 4.489700e-11 -196.6709 1477.2209)">
    <stop offset="0" stop-color="#C8C7C6"/>
    <stop offset="0.33" stop-color="#DBD8C4"/>
    <stop offset="0.73" stop-color="#EDE8C2"/>
    <stop offset="1" stop-color="#F3EEC1"/>
  </linearGradient>
  <rect x="0" y="-615.1" class="st11" width="1280" height="600"/>
  <linearGradient id="SVGID_3_" gradientUnits="userSpaceOnUse" x1="877.22" y1="836.67" x2="1477.22" y2="836.67" gradientTransform="matrix(4.489700e-11 -1 1 4.489700e-11 -196.6709 1477.2209)">
    <stop offset="0" stop-color="#E2D0CA"/>
    <stop offset="1" stop-color="#98D3DD"/>
  </linearGradient>
  <rect x="0" y="0" class="st12" width="1280" height="600"/>
  <linearGradient id="SVGID_4_" gradientUnits="userSpaceOnUse" x1="265.57" y1="836.67" x2="865.57" y2="836.67" gradientTransform="matrix(4.489700e-11 -1 1 4.489700e-11 -196.6709 1477.2209)">
    <stop offset="0" stop-color="#F4B59C"/>
    <stop offset="0.14" stop-color="#D6B8A7"/>
    <stop offset="0.34" stop-color="#ADB7B2"/>
    <stop offset="0.54" stop-color="#87B3BA"/>
    <stop offset="0.72" stop-color="#65AEBE"/>
    <stop offset="0.87" stop-color="#49AAC0"/>
    <stop offset="1" stop-color="#3DA9C0"/>
  </linearGradient>
  <rect y="618.1" class="st13" width="1280" height="600"/>
  <linearGradient id="SVGID_5_" gradientUnits="userSpaceOnUse" x1="265.57" y1="836.67" x2="865.57" y2="836.67" gradientTransform="matrix(4.489700e-11 -1 1 4.489700e-11 -196.6709 1477.2209)">
    <stop offset="0" stop-color="#869498"/>
    <stop offset="0.08" stop-color="#6B99A3"/>
    <stop offset="0.2" stop-color="#489CAE"/>
    <stop offset="0.32" stop-color="#179CB5"/>
    <stop offset="0.47" stop-color="#009CB9"/>
    <stop offset="0.65" stop-color="#009CBB"/>
    <stop offset="1" stop-color="#009BBC"/>
  </linearGradient>
  <rect x="0" y="618.1" class="st14" width="1280" height="600"/>
  <linearGradient id="SVGID_6_" gradientUnits="userSpaceOnUse" x1="-358.49" y1="836.67" x2="241.51" y2="836.67" gradientTransform="matrix(4.489700e-11 -1 1 4.489700e-11 -196.6709 1477.2209)">
    <stop offset="0" stop-color="#F4B59C"/>
    <stop offset="0.14" stop-color="#D6B8A7"/>
    <stop offset="0.34" stop-color="#ADB7B2"/>
    <stop offset="0.54" stop-color="#87B3BA"/>
    <stop offset="0.72" stop-color="#65AEBE"/>
    <stop offset="0.87" stop-color="#49AAC0"/>
    <stop offset="1" stop-color="#3DA9C0"/>
  </linearGradient>
  <rect y="1242.1" class="st15" width="1280" height="600"/>
  <linearGradient id="SVGID_7_" gradientUnits="userSpaceOnUse" x1="-358.49" y1="836.67" x2="241.51" y2="836.67" gradientTransform="matrix(4.489700e-11 -1 1 4.489700e-11 -196.6709 1477.2209)">
    <stop offset="0" stop-color="#F7AE81"/>
    <stop offset="0.24" stop-color="#D9907D"/>
    <stop offset="0.53" stop-color="#BE7576"/>
    <stop offset="0.79" stop-color="#AF6672"/>
    <stop offset="1" stop-color="#A96170"/>
  </linearGradient>
  <rect x="0" y="1242.1" class="st16" width="1280" height="600"/>
  <linearGradient id="SVGID_8_" gradientUnits="userSpaceOnUse" x1="-358.49" y1="836.67" x2="241.51" y2="836.67" gradientTransform="matrix(4.489700e-11 -1 1 4.489700e-11 -196.6709 1477.2209)">
    <stop offset="0" stop-color="#F7AE81"/>
    <stop offset="0.24" stop-color="#D9907D"/>
    <stop offset="0.53" stop-color="#BE7576"/>
    <stop offset="0.79" stop-color="#AF6672"/>
    <stop offset="1" stop-color="#A96170"/>
  </linearGradient>
  <rect x="0" y="1242.1" class="st17" width="1280" height="600"/>
  <linearGradient id="SVGID_9_" gradientUnits="userSpaceOnUse" x1="-970.55" y1="836.67" x2="-370.55" y2="836.67" gradientTransform="matrix(4.489700e-11 -1 1 4.489700e-11 -196.6709 1477.2209)">
    <stop offset="0" stop-color="#F4B59C"/>
    <stop offset="0.14" stop-color="#D6B8A7"/>
    <stop offset="0.34" stop-color="#ADB7B2"/>
    <stop offset="0.54" stop-color="#87B3BA"/>
    <stop offset="0.72" stop-color="#65AEBE"/>
    <stop offset="0.87" stop-color="#49AAC0"/>
    <stop offset="1" stop-color="#3DA9C0"/>
  </linearGradient>
  <rect y="1854.2" class="st18" width="1280" height="600"/>
  <linearGradient id="SVGID_10_" gradientUnits="userSpaceOnUse" x1="-970.42" y1="836.67" x2="-358.36" y2="836.67" gradientTransform="matrix(4.489700e-11 -1 1 4.489700e-11 -196.6709 1477.2209)">
    <stop offset="0" stop-color="#E1AEA8"/>
    <stop offset="0.05" stop-color="#D6A5A3"/>
    <stop offset="0.28" stop-color="#AC858F"/>
    <stop offset="0.49" stop-color="#8C6E80"/>
    <stop offset="0.69" stop-color="#756077"/>
    <stop offset="0.86" stop-color="#675872"/>
    <stop offset="1" stop-color="#625570"/>
  </linearGradient>
  <rect x="0" y="1842.1" class="st19" width="1280" height="612.1"/>
  <linearGradient id="SVGID_11_" gradientUnits="userSpaceOnUse" x1="-1591.61" y1="836.67" x2="-991.61" y2="836.67" gradientTransform="matrix(4.489700e-11 -1 1 4.489700e-11 -196.6709 1477.2209)">
    <stop offset="0" stop-color="#553D69"/>
    <stop offset="0.14" stop-color="#47305B"/>
    <stop offset="0.39" stop-color="#322047"/>
    <stop offset="0.63" stop-color="#25183B"/>
    <stop offset="0.84" stop-color="#1D1535"/>
    <stop offset="1" stop-color="#1A1333"/>
  </linearGradient>
  <rect x="0" y="2475.2" class="st20" width="1280" height="600"/>
  <linearGradient id="SVGID_12_" gradientUnits="userSpaceOnUse" x1="-2212.67" y1="836.67" x2="-1612.67" y2="836.67" gradientTransform="matrix(4.489700e-11 -1 1 4.489700e-11 -196.6709 1477.2209)">
    <stop offset="0" stop-color="#2F3668"/>
    <stop offset="0.1" stop-color="#2C2F5E"/>
    <stop offset="0.36" stop-color="#242149"/>
    <stop offset="0.61" stop-color="#1F193C"/>
    <stop offset="0.83" stop-color="#1C1535"/>
    <stop offset="1" stop-color="#1A1333"/>
  </linearGradient>
  <rect x="0" y="3096.3" class="st21" width="1280" height="600"/>
</svg>
