<svg xmlns="http://www.w3.org/2000/svg" xmlns:xlink="http://www.w3.org/1999/xlink" version="1.1" id="Calque_1" x="0" y="0" width="1280" height="600" viewBox="0 0 1280 600" xml:space="preserve" enable-background="new 0 0 1280 600">
  <style type="text/css">
    
	.st0{fill:url(#SVGID_1_);}
	.st1{opacity:0.3;}
	.st2{fill:#FFFFFF;}
	.st3{opacity:0.7;}
	.st4{fill:none;stroke:#FFFFFF;stroke-miterlimit:10;}
	.st5{fill:none;stroke:#000000;stroke-miterlimit:10;}
	.st6{fill:#14130B;}
	.st7{fill:none;stroke:#13130A;stroke-width:0.75;stroke-miterlimit:10;}
	.st8{fill:#13130A;}
	.st9{fill:#FFF0BC;}
	.st10{fill:none;stroke:#FFF0BC;stroke-width:2;stroke-miterlimit:10;}
	.st11{fill:url(#SVGID_2_);}
	.st12{fill:url(#SVGID_3_);}
	.st13{opacity:0.3;fill:url(#SVGID_4_);}
	.st14{opacity:0.3;fill:url(#SVGID_5_);}
	.st15{opacity:0.3;fill:url(#SVGID_6_);}
	.st16{opacity:0.4;fill:url(#SVGID_7_);}
	.st17{opacity:0.4;fill:url(#SVGID_8_);}
	.st18{opacity:0.3;fill:url(#SVGID_9_);}
	.st19{opacity:0.73;fill:url(#SVGID_10_);}
	.st20{opacity:0.85;fill:url(#SVGID_11_);}
	.st21{opacity:0.98;fill:url(#SVGID_12_);}

  </style>
  <linearGradient id="SVGID_1_" gradientUnits="userSpaceOnUse" x1="3599.1" y1="173.88" x2="4440.99" y2="173.88" gradientTransform="matrix(4.489700e-11 -1 1 4.489700e-11 421.3909 859.1591)">
    <stop offset="0" stop-color="#C8C7C6"/>
    <stop offset="0.33" stop-color="#DBD8C4"/>
    <stop offset="0.73" stop-color="#EDE8C2"/>
    <stop offset="1" stop-color="#F3EEC1"/>
  </linearGradient>
  <rect x="0" y="-3565.3" class="st0" width="1190.5" height="841.9"/>
  <g class="st1">
    <path class="st2" d="M21.8-2839.2c0 0 0.4-0.8 1.1-2.3H11.1C17.3-2840.8 21.8-2839.2 21.8-2839.2z"/>
    <path class="st2" d="M130-2840.3c0.2-0.4 0.5-0.8 0.7-1.2h-1.2C129.7-2841 129.8-2840.6 130-2840.3z"/>
    <path class="st2" d="M932-2787.4h-2.2c0.4 0.5 0.8 1.1 1.2 1.6C931.3-2786.4 931.6-2786.9 932-2787.4z"/>
    <path class="st2" d="M0-2841.4v0.1c0.3 0 0.6-0.1 0.9-0.1H0z"/>
    <path class="st2" d="M295.4-2713.9l202.5 0.5 0-0.5h80.4 70l0 0.5 137.1-0.5h65.4 31.6 105.5 39.5l0 0h163.1v-199.5c-6.4-4.2-14.5-7.4-24.5-8.4 -43.9-4.6-62.3 36.7-62.3 36.7s-26.2-9.5-41.9 8.3c-3.3 3.8-5.8 7.7-7.6 11.7 -7.2-6.3-17-11.4-30.2-12.8 -33.5-3.5-52.1 19.7-59.1 30.9 -2.8-11.3-13.4-41.2-48.9-44.9 -36.2-3.8-55 23.6-60.5 33.3 -7.2-10.7-19.4-21.2-39.5-23.3 -43.9-4.6-62.3 36.7-62.3 36.7s1.2-0.3-0.1-0.7c-1.8-3.7-6.1-7.5-9.2-11 -15.7-17.9-41.9-8.3-41.9-8.3s-18.4-41.3-62.3-36.7c-43.9 4.6-49.8 49.2-49.8 49.2s-21.3-8.3-30.1 9.2c-0.4 0.9-1.3 1.3-1.9 2 -1.7-3.5-4-7-6.9-10.3 -15.7-17.9-41.9-8.3-41.9-8.3s-18.4-41.3-62.3-36.7c-24.6 2.6-41.3 18.7-47.7 31.6l-0.1 0.1c0 0-18.4-41.3-62.3-36.7 -43.9 4.6-50.8 49.2-50.8 49.2s0.6-0.1-0.2-0.2c-4.6-13.4-16.8-35.8-47.2-39 -43.9-4.6-62.3 36.7-62.3 36.7s-26.2-9.5-41.9 8.3c-1.5 1.7-2.8 3.4-4 5.2 0.3-2 2.5-20.2-9.9-31.9 -13.1-12.5-30.1-9.2-30.1-9.2s-5.9-44.6-49.8-49.2c-17.6-1.8-31.2 3.7-41 11v79.4h0.9c-0.3 0-0.6 0.1-0.9 0.1v127.4h147.9 0 140l7.5 0.5M21.8-2839.2c0 0-4.4-1.6-10.7-2.3h11.8C22.1-2840 21.8-2839.2 21.8-2839.2zM130-2840.3c-0.2-0.4-0.3-0.8-0.5-1.2h1.2C130.5-2841 130.2-2840.6 130-2840.3z"/>
  </g>
  <g class="st3">
    <polyline class="st4" points="51.9 -2967.6 41.7 -2852.1 91.4 -2946.5 "/>
    <polyline class="st4" points="-8.6 -2788.6 14.7 -2760.7 -8.6 -2725.1 "/>
    <polyline class="st4" points="136.4 -2887.5 168.5 -2816.5 140.1 -2800.2 109.7 -2810.4 133 -2868.2 140.1 -2800.2 182.1 -2772.8 201.5 -2816.5 168.5 -2880.4 "/>
    <polyline class="st4" points="200 -2912.8 201.5 -2816.5 168.5 -2816.5 "/>
    <polyline class="st4" points="219.2 -2726.6 201.5 -2816.5 243.6 -2919.6 254.8 -2816.5 219.2 -2726.6 182.1 -2772.8 140.1 -2749.5 140.1 -2800.2 78.3 -2725.1 14.7 -2760.7 "/>
    <polyline class="st4" points="182.1 -2772.8 185 -2725.1 140.1 -2749.5 78.3 -2725.1 "/>
    <polyline class="st4" points="254.8 -2816.5 292.8 -2836.6 338.9 -2836.6 "/>
    <polyline class="st4" points="286.2 -2877.9 292.8 -2836.6 309 -2772.8 338.9 -2836.6 286.2 -2877.9 254.8 -2816.5 278.1 -2726.6 309 -2772.8 254.8 -2816.5 227.4 -2807.8 201.5 -2816.5 "/>
    <polyline class="st4" points="304.4 -2919.6 338.9 -2836.6 356.2 -2919.6 "/>
    <polyline class="st4" points="309 -2772.8 338.9 -2726.6 382 -2742.8 396.9 -2792.6 338.9 -2836.6 396.9 -2894.6 396.9 -2792.6 346 -2764.7 307.8 -2771 "/>
    <path class="st4" d="M396.9-2894.6"/>
    <line class="st4" x1="346" y1="-2764.7" x2="338.9" y2="-2836.6"/>
    <polyline class="st4" points="-8.6 -2834.2 41.7 -2852.1 54.9 -2806.4 "/>
    <polyline class="st4" points="421.8 -2764.7 382 -2742.8 390.7 -2725.1 "/>
    <path class="st4" d="M417-2856.4"/>
    <polyline class="st4" points="451.5 -2919.6 451.5 -2891.9 424.1 -2867.8 396.9 -2894.6 "/>
    <polyline class="st4" points="553.5 -2861.5 535 -2822.4 502.9 -2807 479.2 -2844.2 "/>
    <polyline class="st4" points="503.2 -2908.8 489.4 -2878.1 451.5 -2891.9 479.2 -2844.2 449.5 -2767.8 502.9 -2807 558.4 -2776.9 535 -2822.4 544.8 -2887.5 479.2 -2844.2 489.4 -2878.1 514.4 -2882.4 "/>
    <polyline class="st4" points="338.9 -2726.6 346 -2764.7 382 -2742.8 428.9 -2725.1 449.5 -2767.8 421.8 -2764.7 396.9 -2792.6 412.3 -2807 424.1 -2867.8 479.2 -2844.2 412.3 -2807 421.8 -2764.7 "/>
    <polyline class="st4" points="568.7 -2877.3 568.7 -2838.3 535 -2822.4 "/>
    <polyline class="st4" points="502.9 -2764.7 449.5 -2767.8 412.3 -2807 "/>
    <polyline class="st4" points="449.5 -2767.8 472.5 -2725.1 503.9 -2764.7 "/>
    <polygon class="st4" points="503.9 -2764.7 543.5 -2739.8 524.2 -2725.1 "/>
    <polyline class="st4" points="568.7 -2838.3 595.2 -2805.6 558.4 -2776.9 503.9 -2764.7 502.9 -2807 "/>
    <polygon class="st4" points="543.5 -2739.8 558.4 -2776.9 562.8 -2725.1 "/>
    <path class="st2" d="M595.2-2805.6"/>
    <polyline class="st4" points="636.1 -2877.3 678.7 -2867.8 710.2 -2873.3 710.2 -2882.4 "/>
    <polyline class="st4" points="683.8 -2920.9 678.7 -2867.8 672.3 -2796.5 699 -2756.3 772 -2725.1 728.8 -2807 752.8 -2882.4 787.2 -2849.8 822.7 -2925 844.4 -2842.8 "/>
    <polyline class="st4" points="586.4 -2904.7 636.1 -2877.3 630 -2918.9 "/>
    <polyline class="st4" points="710.2 -2872.2 728.8 -2807 678.7 -2867.8 "/>
    <line class="st4" x1="636.1" y1="-2877.3" x2="602" y2="-2767.8"/>
    <polyline class="st4" points="616.7 -2815.2 672.3 -2796.5 637.6 -2877 "/>
    <polyline class="st4" points="672.3 -2796.5 670.3 -2725.1 699 -2756.3 728.8 -2807 672.3 -2796.5 602 -2767.8 595.2 -2805.6 586.4 -2877.3 616.7 -2815.2 "/>
    <polyline class="st4" points="602 -2767.8 621.6 -2734 670.3 -2725.1 "/>
    <polyline class="st4" points="670.3 -2795.6 621.6 -2734 562.8 -2725.1 602 -2767.8 558.4 -2776.9 "/>
    <polyline class="st4" points="787.2 -2849.8 819.7 -2796.5 844.4 -2842.8 900.2 -2809.7 859.3 -2862.4 857.2 -2887.5 910.7 -2867.8 941.1 -2888.5 970.5 -2882.4 1020.9 -2896.6 1071.6 -2872.9 1084.4 -2906.4 1064.1 -2919.9 "/>
    <polyline class="st4" points="819.7 -2796.5 788.7 -2805.2 728.8 -2807 787.2 -2849.8 844.4 -2842.8 859.3 -2862.4 910.7 -2867.8 901.9 -2923 "/>
    <path class="st2" d="M819.7-2796.5"/>
    <polyline class="st4" points="802.8 -2744.4 819.7 -2796.5 846.4 -2725.1 861.6 -2786.5 918.1 -2725.1 900.2 -2808.3 862.3 -2786.4 819.7 -2796.5 772 -2725.1 788.7 -2805.2 787.2 -2849.8 "/>
    <line class="st4" x1="878.5" y1="-2746.5" x2="862.3" y2="-2786.4"/>
    <line class="st4" x1="941.6" y1="-2923" x2="941.1" y2="-2888.5"/>
    <polyline class="st4" points="951.3 -2796.6 983.3 -2768.5 995.9 -2824.2 951.3 -2796.6 900.2 -2808.3 910.7 -2867.8 946.7 -2855.5 970.5 -2882.4 995.9 -2824.2 946.7 -2855.5 951.3 -2796.6 918.1 -2725.1 878.5 -2746.5 846.4 -2725.1 802.8 -2744.4 772 -2725.1 "/>
    <polyline class="st4" points="983.3 -2768.5 1019.8 -2754.1 987.3 -2725.1 983.3 -2768.5 918.1 -2725.1 "/>
    <polyline class="st4" points="995.9 -2825.3 1020.9 -2896.6 1017.5 -2920.9 "/>
    <line class="st4" x1="971.8" y1="-2894.6" x2="970.5" y2="-2882.4"/>
    <polyline class="st4" points="1084.4 -2906.4 1116.4 -2900.1 1109.8 -2919.9 "/>
    <polyline class="st4" points="54.9 -2806.4 78.3 -2725.1 109.7 -2810.4 54.9 -2806.4 14.7 -2760.7 41.7 -2852.1 91.4 -2904.7 109.7 -2810.4 41.7 -2852.1 -8.6 -2946.5 51.9 -2967.6 91.4 -2946.5 91.4 -2904.7 122.8 -2901.7 133 -2868.2 136.4 -2887.5 168.5 -2880.4 200 -2912.8 243.6 -2919.6 286.2 -2877.9 304.4 -2919.6 356.2 -2919.6 396.9 -2894.6 451.5 -2919.6 503.2 -2908.8 514.4 -2882.4 544.8 -2887.5 553.5 -2861.5 568.7 -2877.3 586.4 -2877.3 586.4 -2904.7 630 -2918.9 683.8 -2920.9 710.2 -2882.4 729.4 -2902.7 752.8 -2882.4 822.7 -2925 857.2 -2887.5 901.9 -2923 941.6 -2923 971.8 -2894.6 1017.5 -2920.9 1064.1 -2894.6 1064.1 -2919.9 1109.8 -2919.9 1135.1 -2977.7 1199 -2946.5 1156.4 -2947.3 1199 -2910 1172.2 -2841.1 1116.4 -2900.1 1156.4 -2947.3 1135.1 -2977.7 "/>
    <polyline class="st4" points="1199 -2910 1160.5 -2888.5 1116.4 -2900.1 1071.6 -2872.9 1064.1 -2896.6 "/>
    <polyline class="st4" points="1156.4 -2947.3 1160.5 -2888.5 1172.2 -2841.1 1206.4 -2861.1 "/>
    <polyline class="st4" points="1116.4 -2900.1 1111.8 -2873.1 1134.6 -2806.3 1172.4 -2749.8 1203.6 -2725.1 "/>
    <polyline class="st4" points="1111.8 -2873.1 1097.4 -2829.6 1134.6 -2806.3 1097.4 -2768.5 1124.1 -2725.1 "/>
    <polyline class="st4" points="1019.8 -2754.1 1046.6 -2791.1 1097.4 -2768.5 1097.4 -2829.6 1071.6 -2872.9 1047.4 -2827.1 995.9 -2824.2 1046.6 -2791.1 1047.4 -2827.1 "/>
    <polyline class="st4" points="1097.4 -2829.6 1047.4 -2827.1 1097.4 -2768.5 1092.5 -2722.6 1046.6 -2791.1 1039 -2725.1 1019.8 -2754.1 995.9 -2824.2 1071.6 -2872.9 1111.8 -2873.1 1172.2 -2841.1 1199 -2815.9 1172.4 -2749.8 1172.2 -2841.1 1134.6 -2806.3 1124 -2724.6 1172.4 -2749.8 "/>
  </g>
  <line class="st5" x1="147.1" y1="-2789.1" x2="1207.8" y2="-2789.1"/>
  <circle class="st5" cx="147.1" cy="-2789.1" r="10.1"/>
  <circle cx="147.1" cy="-2789.1" r="5.7"/>
  <polygon points="300.2 -2780.6 295.5 -2789.1 300.2 -2797.6 304.9 -2789.1 "/>
  <polygon points="452.7 -2780.6 448 -2789.1 452.7 -2797.6 457.5 -2789.1 "/>
  <polygon points="616.2 -2780.6 611.5 -2789.1 616.2 -2797.6 620.9 -2789.1 "/>
  <polygon points="779.6 -2780.6 774.9 -2789.1 779.6 -2797.6 784.3 -2789.1 "/>
  <polygon points="943 -2780.6 938.3 -2789.1 943 -2797.6 947.8 -2789.1 "/>
  <polygon points="1106.5 -2780.6 1101.8 -2789.1 1106.5 -2797.6 1111.2 -2789.1 "/>
  <rect x="404.6" y="-2769" width="95.9" height="18" fill="none"/>
  <text transform="matrix(1 0 0 1 418.3132 -2759.6897)" style="font-family:'MyriadPro-Regular';font-size:13.07">
    LUMINOSITÉ
  </text>
  <rect x="252" y="-2769" width="95.9" height="18" fill="none"/>
  <text transform="matrix(1 0 0 1 259.8186 -2759.6897)" style="font-family:'MyriadPro-Regular';font-size:13.07">
    TEMPÉRATURE
  </text>
  <rect x="1058.3" y="-2769" width="95.9" height="18" fill="none"/>
  <text transform="matrix(1 0 0 1 1072.053 -2759.6897)" style="font-family:'MyriadPro-Regular';font-size:13.07">
    LUMINOSITÉ
  </text>
  <rect x="894.9" y="-2769" width="95.9" height="18" fill="none"/>
  <text transform="matrix(1 0 0 1 908.6179 -2759.6897)" style="font-family:'MyriadPro-Regular';font-size:13.07">
    LUMINOSITÉ
  </text>
  <rect x="731.4" y="-2769" width="95.9" height="18" fill="none"/>
  <text transform="matrix(1 0 0 1 751.6814 -2759.6897)" style="font-family:'MyriadPro-Regular';font-size:13.07">
    HUMIDITÉ
  </text>
  <rect x="568" y="-2769" width="95.9" height="18" fill="none"/>
  <text transform="matrix(1 0 0 1 577.6038 -2759.6897)" style="font-family:'MyriadPro-Regular';font-size:13.07">
    TEMPORALITÉ
  </text>
  <path class="st6" d="M457.6-2818.4c-0.3 6.4-9.6 6.4-10 0 -0.2-2.8 2.4-4.9 5-5C455.4-2823.5 457.4-2821 457.6-2818.4c0 0.6 1 0.6 1 0 -0.2-3.4-2.6-5.8-6-6 -3.4-0.2-5.8 2.9-6 6 -0.2 3.4 2.9 5.8 6 6 3.4 0.2 5.8-2.9 6-6C458.6-2819 457.6-2819 457.6-2818.4z"/>
  <path class="st6" d="M452.2-2809.6c0 1.4 0 2.9 0 4.3 0 0.5 0.8 0.5 0.8 0 0-1.4 0-2.9 0-4.3C453-2810.1 452.2-2810.1 452.2-2809.6L452.2-2809.6z"/>
  <path class="st6" d="M452.2-2831.3c0 1.4 0 2.9 0 4.3 0 0.5 0.8 0.5 0.8 0 0-1.4 0-2.9 0-4.3C453-2831.8 452.2-2831.8 452.2-2831.3L452.2-2831.3z"/>
  <path class="st6" d="M443.9-2818.7c-1.4 0-2.9 0-4.3 0 -0.5 0-0.5 0.8 0 0.8 1.4 0 2.9 0 4.3 0C444.4-2817.9 444.4-2818.7 443.9-2818.7L443.9-2818.7z"/>
  <path class="st6" d="M465.6-2818.7c-1.4 0-2.9 0-4.3 0 -0.5 0-0.5 0.8 0 0.8 1.4 0 2.9 0 4.3 0C466.1-2817.9 466.1-2818.7 465.6-2818.7L465.6-2818.7z"/>
  <path class="st6" d="M446.7-2824.7c-1-1-2-2-3.1-3.1 -0.3-0.3-0.9 0.2-0.5 0.5 1 1 2 2 3.1 3.1C446.5-2823.8 447-2824.4 446.7-2824.7L446.7-2824.7z"/>
  <path class="st6" d="M462.1-2809.4c-1-1-2-2-3.1-3.1 -0.3-0.3-0.9 0.2-0.5 0.5 1 1 2 2 3.1 3.1C461.9-2808.5 462.4-2809 462.1-2809.4L462.1-2809.4z"/>
  <path class="st6" d="M446.2-2812.4c-1 1-2 2-3.1 3.1 -0.3 0.3 0.2 0.9 0.5 0.5 1-1 2-2 3.1-3.1C447-2812.2 446.5-2812.8 446.2-2812.4L446.2-2812.4z"/>
  <path class="st6" d="M461.5-2827.8c-1 1-2 2-3.1 3.1 -0.3 0.3 0.2 0.9 0.5 0.5 1-1 2-2 3.1-3.1C462.4-2827.6 461.9-2828.1 461.5-2827.8L461.5-2827.8z"/>
  <path class="st7" d="M296.4-2814.8c-1.4 0.9-2.4 2.4-2.4 4.2 0 2.7 2.2 5 5 5 2.7 0 5-2.2 5-5 0-1.8-1-3.4-2.4-4.2v-13.9c0-1.4-1.2-2.6-2.6-2.6 -1.4 0-2.6 1.2-2.6 2.6V-2814.8z"/>
  <circle class="st8" cx="298.9" cy="-2810.6" r="3.1"/>
  <rect x="297.9" y="-2816.4" class="st8" width="2" height="4.3"/>
  <line class="st7" x1="293.2" y1="-2824.8" x2="288.1" y2="-2824.8"/>
  <line class="st7" x1="293.2" y1="-2821.4" x2="289.8" y2="-2821.4"/>
  <line class="st7" x1="293.2" y1="-2818" x2="288.1" y2="-2818"/>
  <path class="st6" d="M1110.6-2818.4c-0.3 6.4-9.6 6.4-10 0 -0.2-2.8 2.4-4.9 5-5C1108.4-2823.5 1110.4-2821 1110.6-2818.4c0 0.6 1 0.6 1 0 -0.2-3.4-2.6-5.8-6-6 -3.4-0.2-5.8 2.9-6 6 -0.2 3.4 2.9 5.8 6 6 3.4 0.2 5.8-2.9 6-6C1111.6-2819 1110.6-2819 1110.6-2818.4z"/>
  <path class="st6" d="M1105.2-2809.6c0 1.4 0 2.9 0 4.3 0 0.5 0.8 0.5 0.8 0 0-1.4 0-2.9 0-4.3C1106-2810.1 1105.2-2810.1 1105.2-2809.6L1105.2-2809.6z"/>
  <path class="st6" d="M1105.2-2831.3c0 1.4 0 2.9 0 4.3 0 0.5 0.8 0.5 0.8 0 0-1.4 0-2.9 0-4.3C1106-2831.8 1105.2-2831.8 1105.2-2831.3L1105.2-2831.3z"/>
  <path class="st6" d="M1096.9-2818.7c-1.4 0-2.9 0-4.3 0 -0.5 0-0.5 0.8 0 0.8 1.4 0 2.9 0 4.3 0C1097.4-2817.9 1097.4-2818.7 1096.9-2818.7L1096.9-2818.7z"/>
  <path class="st6" d="M1118.6-2818.7c-1.4 0-2.9 0-4.3 0 -0.5 0-0.5 0.8 0 0.8 1.4 0 2.9 0 4.3 0C1119.1-2817.9 1119.1-2818.7 1118.6-2818.7L1118.6-2818.7z"/>
  <path class="st6" d="M1099.7-2824.7c-1-1-2-2-3.1-3.1 -0.3-0.3-0.9 0.2-0.5 0.5 1 1 2 2 3.1 3.1C1099.5-2823.8 1100-2824.4 1099.7-2824.7L1099.7-2824.7z"/>
  <path class="st6" d="M1115.1-2809.4c-1-1-2-2-3.1-3.1 -0.3-0.3-0.9 0.2-0.5 0.5 1 1 2 2 3.1 3.1C1114.9-2808.5 1115.4-2809 1115.1-2809.4L1115.1-2809.4z"/>
  <path class="st6" d="M1099.2-2812.4c-1 1-2 2-3.1 3.1 -0.3 0.3 0.2 0.9 0.5 0.5 1-1 2-2 3.1-3.1C1100-2812.2 1099.5-2812.8 1099.2-2812.4L1099.2-2812.4z"/>
  <path class="st6" d="M1114.5-2827.8c-1 1-2 2-3.1 3.1 -0.3 0.3 0.2 0.9 0.5 0.5 1-1 2-2 3.1-3.1C1115.4-2827.6 1114.9-2828.1 1114.5-2827.8L1114.5-2827.8z"/>
  <path class="st7" d="M939.4-2814.8c-1.4 0.9-2.4 2.4-2.4 4.2 0 2.7 2.2 5 5 5 2.7 0 5-2.2 5-5 0-1.8-1-3.4-2.4-4.2v-13.9c0-1.4-1.2-2.6-2.6-2.6 -1.4 0-2.6 1.2-2.6 2.6V-2814.8z"/>
  <circle class="st8" cx="941.9" cy="-2810.6" r="3.1"/>
  <rect x="940.9" y="-2816.4" class="st8" width="2" height="4.3"/>
  <line class="st7" x1="936.2" y1="-2824.8" x2="931.1" y2="-2824.8"/>
  <line class="st7" x1="936.2" y1="-2821.4" x2="932.8" y2="-2821.4"/>
  <line class="st7" x1="936.2" y1="-2818" x2="931.1" y2="-2818"/>
  <path class="st7" d="M621.9-2822.7c3.5 3.1 3.8 8.5 0.7 12s-8.5 3.8-12 0.7c-3.5-3.1-3.8-8.5-0.7-12"/>
  <polyline class="st7" points="616.3 -2821.8 616.3 -2815.2 612.1 -2810.9 "/>
  <line class="st7" x1="616.3" y1="-2810.9" x2="616.3" y2="-2808.8"/>
  <line class="st7" x1="621.3" y1="-2815.2" x2="623.4" y2="-2815.2"/>
  <line class="st7" x1="609.2" y1="-2815.2" x2="611.2" y2="-2815.2"/>
  <line class="st7" x1="619.6" y1="-2811.9" x2="621.1" y2="-2810.4"/>
  <line class="st7" x1="620.3" y1="-2819.3" x2="621.8" y2="-2820.8"/>
  <path class="st8" d="M606.6-2821.5c1.2-0.2 2.4-0.3 3.6-0.5 -0.1-0.1-0.2-0.2-0.4-0.4 0.1 1.3 0.2 2.6 0.2 3.9 0 0.5 0.8 0.5 0.8 0 -0.1-1.3-0.2-2.6-0.2-3.9 0-0.2-0.2-0.4-0.4-0.4 -1.2 0.2-2.4 0.3-3.6 0.5C606.1-2822.2 606.1-2821.4 606.6-2821.5L606.6-2821.5z"/>
  <path class="st7" d="M781.1-2813.1c0.1 0.6 0 1.2-0.1 1.7 -0.3 1.1-1.1 2.1-2.1 2.7 -1.8 1-4.1 0.7-5.5-0.7 -1.4-1.4-1.7-3.7-0.7-5.4 0 0 0 0 0 0l3.6-6.3c0.1-0.1 0.3-0.2 0.4-0.2 0 0 0 0 0 0 0.1 0 0.1 0.1 0.1 0.1l3.6 6.3C780.8-2814.3 781-2813.7 781.1-2813.1z"/>
  <path class="st7" d="M782.7-2816.4c-1.8-0.9-2.4-3.3-1.3-5l2.6-4.6c0.1-0.2 0.5-0.2 0.6 0l2.6 4.6c0.4 0.5 0.5 1.2 0.5 1.9 0 0.6-0.2 1.2-0.5 1.7C786.5-2816.2 784.4-2815.6 782.7-2816.4z"/>
  <path class="st7" d="M774.8-2813.7c0 0-1 2.5 1.2 3.3"/>
  <path class="st7" d="M782.9-2820.5c0 0-0.8 2.1 1 2.7"/>
  <circle class="st9" cx="150.2" cy="-3210.3" r="28.3"/>
  <line class="st10" x1="150.2" y1="-3266.3" x2="150.2" y2="-3154.4"/>
  <line class="st10" x1="94.2" y1="-3210.3" x2="206.2" y2="-3210.3"/>
  <line class="st10" x1="110.6" y1="-3249.9" x2="189.8" y2="-3170.7"/>
  <line class="st10" x1="110.6" y1="-3170.7" x2="189.8" y2="-3249.9"/>
  <linearGradient id="SVGID_2_" gradientUnits="userSpaceOnUse" x1="1504.05" y1="218.61" x2="2104.05" y2="218.61" gradientTransform="matrix(4.489700e-11 -1 1 4.489700e-11 421.3909 859.1591)">
    <stop offset="0" stop-color="#C8C7C6"/>
    <stop offset="0.33" stop-color="#DBD8C4"/>
    <stop offset="0.73" stop-color="#EDE8C2"/>
    <stop offset="1" stop-color="#F3EEC1"/>
  </linearGradient>
  <rect x="0" y="-1233.1" class="st11" width="1280" height="600"/>
  <linearGradient id="SVGID_3_" gradientUnits="userSpaceOnUse" x1="877.22" y1="218.61" x2="1477.22" y2="218.61" gradientTransform="matrix(4.489700e-11 -1 1 4.489700e-11 421.3909 859.1591)">
    <stop offset="0" stop-color="#E2D0CA"/>
    <stop offset="1" stop-color="#98D3DD"/>
  </linearGradient>
  <rect x="0" y="-618.1" class="st12" width="1280" height="600"/>
  <linearGradient id="SVGID_4_" gradientUnits="userSpaceOnUse" x1="265.57" y1="218.61" x2="865.57" y2="218.61" gradientTransform="matrix(4.489700e-11 -1 1 4.489700e-11 421.3909 859.1591)">
    <stop offset="0" stop-color="#F4B59C"/>
    <stop offset="0.14" stop-color="#D6B8A7"/>
    <stop offset="0.34" stop-color="#ADB7B2"/>
    <stop offset="0.54" stop-color="#87B3BA"/>
    <stop offset="0.72" stop-color="#65AEBE"/>
    <stop offset="0.87" stop-color="#49AAC0"/>
    <stop offset="1" stop-color="#3DA9C0"/>
  </linearGradient>
  <rect y="0" class="st13" width="1280" height="600"/>
  <linearGradient id="SVGID_5_" gradientUnits="userSpaceOnUse" x1="265.57" y1="218.61" x2="865.57" y2="218.61" gradientTransform="matrix(4.489700e-11 -1 1 4.489700e-11 421.3909 859.1591)">
    <stop offset="0" stop-color="#869498"/>
    <stop offset="0.08" stop-color="#6B99A3"/>
    <stop offset="0.2" stop-color="#489CAE"/>
    <stop offset="0.32" stop-color="#179CB5"/>
    <stop offset="0.47" stop-color="#009CB9"/>
    <stop offset="0.65" stop-color="#009CBB"/>
    <stop offset="1" stop-color="#009BBC"/>
  </linearGradient>
  <rect x="0" y="0" class="st14" width="1280" height="600"/>
  <linearGradient id="SVGID_6_" gradientUnits="userSpaceOnUse" x1="-358.49" y1="218.61" x2="241.51" y2="218.61" gradientTransform="matrix(4.489700e-11 -1 1 4.489700e-11 421.3909 859.1591)">
    <stop offset="0" stop-color="#F4B59C"/>
    <stop offset="0.14" stop-color="#D6B8A7"/>
    <stop offset="0.34" stop-color="#ADB7B2"/>
    <stop offset="0.54" stop-color="#87B3BA"/>
    <stop offset="0.72" stop-color="#65AEBE"/>
    <stop offset="0.87" stop-color="#49AAC0"/>
    <stop offset="1" stop-color="#3DA9C0"/>
  </linearGradient>
  <rect y="624.1" class="st15" width="1280" height="600"/>
  <linearGradient id="SVGID_7_" gradientUnits="userSpaceOnUse" x1="-358.49" y1="218.61" x2="241.51" y2="218.61" gradientTransform="matrix(4.489700e-11 -1 1 4.489700e-11 421.3909 859.1591)">
    <stop offset="0" stop-color="#F7AE81"/>
    <stop offset="0.24" stop-color="#D9907D"/>
    <stop offset="0.53" stop-color="#BE7576"/>
    <stop offset="0.79" stop-color="#AF6672"/>
    <stop offset="1" stop-color="#A96170"/>
  </linearGradient>
  <rect x="0" y="624.1" class="st16" width="1280" height="600"/>
  <linearGradient id="SVGID_8_" gradientUnits="userSpaceOnUse" x1="-358.49" y1="218.61" x2="241.51" y2="218.61" gradientTransform="matrix(4.489700e-11 -1 1 4.489700e-11 421.3909 859.1591)">
    <stop offset="0" stop-color="#F7AE81"/>
    <stop offset="0.24" stop-color="#D9907D"/>
    <stop offset="0.53" stop-color="#BE7576"/>
    <stop offset="0.79" stop-color="#AF6672"/>
    <stop offset="1" stop-color="#A96170"/>
  </linearGradient>
  <rect x="0" y="624.1" class="st17" width="1280" height="600"/>
  <linearGradient id="SVGID_9_" gradientUnits="userSpaceOnUse" x1="-970.55" y1="218.61" x2="-370.55" y2="218.61" gradientTransform="matrix(4.489700e-11 -1 1 4.489700e-11 421.3909 859.1591)">
    <stop offset="0" stop-color="#F4B59C"/>
    <stop offset="0.14" stop-color="#D6B8A7"/>
    <stop offset="0.34" stop-color="#ADB7B2"/>
    <stop offset="0.54" stop-color="#87B3BA"/>
    <stop offset="0.72" stop-color="#65AEBE"/>
    <stop offset="0.87" stop-color="#49AAC0"/>
    <stop offset="1" stop-color="#3DA9C0"/>
  </linearGradient>
  <rect y="1236.1" class="st18" width="1280" height="600"/>
  <linearGradient id="SVGID_10_" gradientUnits="userSpaceOnUse" x1="-970.42" y1="218.61" x2="-358.36" y2="218.61" gradientTransform="matrix(4.489700e-11 -1 1 4.489700e-11 421.3909 859.1591)">
    <stop offset="0" stop-color="#E1AEA8"/>
    <stop offset="0.05" stop-color="#D6A5A3"/>
    <stop offset="0.28" stop-color="#AC858F"/>
    <stop offset="0.49" stop-color="#8C6E80"/>
    <stop offset="0.69" stop-color="#756077"/>
    <stop offset="0.86" stop-color="#675872"/>
    <stop offset="1" stop-color="#625570"/>
  </linearGradient>
  <rect x="0" y="1224.1" class="st19" width="1280" height="612.1"/>
  <linearGradient id="SVGID_11_" gradientUnits="userSpaceOnUse" x1="-1591.61" y1="218.61" x2="-991.61" y2="218.61" gradientTransform="matrix(4.489700e-11 -1 1 4.489700e-11 421.3909 859.1591)">
    <stop offset="0" stop-color="#553D69"/>
    <stop offset="0.14" stop-color="#47305B"/>
    <stop offset="0.39" stop-color="#322047"/>
    <stop offset="0.63" stop-color="#25183B"/>
    <stop offset="0.84" stop-color="#1D1535"/>
    <stop offset="1" stop-color="#1A1333"/>
  </linearGradient>
  <rect x="0" y="1857.2" class="st20" width="1280" height="600"/>
  <linearGradient id="SVGID_12_" gradientUnits="userSpaceOnUse" x1="-2212.67" y1="218.61" x2="-1612.67" y2="218.61" gradientTransform="matrix(4.489700e-11 -1 1 4.489700e-11 421.3909 859.1591)">
    <stop offset="0" stop-color="#2F3668"/>
    <stop offset="0.1" stop-color="#2C2F5E"/>
    <stop offset="0.36" stop-color="#242149"/>
    <stop offset="0.61" stop-color="#1F193C"/>
    <stop offset="0.83" stop-color="#1C1535"/>
    <stop offset="1" stop-color="#1A1333"/>
  </linearGradient>
  <rect x="0" y="2478.2" class="st21" width="1280" height="600"/>
</svg>
