<svg xmlns="http://www.w3.org/2000/svg" xmlns:xlink="http://www.w3.org/1999/xlink" version="1.1" id="Calque_1" x="0" y="0" width="1280" height="600" viewBox="0 0 1280 600" xml:space="preserve" enable-background="new 0 0 1280 600">
  <style type="text/css">
    
	.st0{fill:url(#SVGID_1_);}
	.st1{opacity:0.3;}
	.st2{fill:#FFFFFF;}
	.st3{opacity:0.7;}
	.st4{fill:none;stroke:#FFFFFF;stroke-miterlimit:10;}
	.st5{fill:none;stroke:#000000;stroke-miterlimit:10;}
	.st6{fill:#14130B;}
	.st7{fill:none;stroke:#13130A;stroke-width:0.75;stroke-miterlimit:10;}
	.st8{fill:#13130A;}
	.st9{fill:#FFF0BC;}
	.st10{fill:none;stroke:#FFF0BC;stroke-width:2;stroke-miterlimit:10;}
	.st11{fill:url(#SVGID_2_);}
	.st12{fill:url(#SVGID_3_);}
	.st13{opacity:0.3;fill:url(#SVGID_4_);}
	.st14{opacity:0.3;fill:url(#SVGID_5_);}
	.st15{opacity:0.3;fill:url(#SVGID_6_);}
	.st16{opacity:0.4;fill:url(#SVGID_7_);}
	.st17{opacity:0.4;fill:url(#SVGID_8_);}
	.st18{opacity:0.3;fill:url(#SVGID_9_);}
	.st19{opacity:0.73;fill:url(#SVGID_10_);}
	.st20{opacity:0.85;fill:url(#SVGID_11_);}
	.st21{opacity:0.98;fill:url(#SVGID_12_);}

  </style>
  <linearGradient id="SVGID_1_" gradientUnits="userSpaceOnUse" x1="3599.1" y1="-450.18" x2="4440.99" y2="-450.18" gradientTransform="matrix(4.489700e-11 -1 1 4.489700e-11 1045.4534 235.0967)">
    <stop offset="0" stop-color="#C8C7C6"/>
    <stop offset="0.33" stop-color="#DBD8C4"/>
    <stop offset="0.73" stop-color="#EDE8C2"/>
    <stop offset="1" stop-color="#F3EEC1"/>
  </linearGradient>
  <rect x="0" y="-4189.4" class="st0" width="1190.5" height="841.9"/>
  <g class="st1">
    <path class="st2" d="M21.8-3463.2c0 0 0.4-0.8 1.1-2.3H11.1C17.3-3464.8 21.8-3463.2 21.8-3463.2z"/>
    <path class="st2" d="M130-3464.3c0.2-0.4 0.5-0.8 0.7-1.2h-1.2C129.7-3465.1 129.8-3464.7 130-3464.3z"/>
    <path class="st2" d="M932-3411.5h-2.2c0.4 0.5 0.8 1.1 1.2 1.6C931.3-3410.4 931.6-3411 932-3411.5z"/>
    <path class="st2" d="M0-3465.5v0.1c0.3 0 0.6-0.1 0.9-0.1H0z"/>
    <path class="st2" d="M295.4-3338l202.5 0.5 0-0.5h80.4 70l0 0.5 137.1-0.5h65.4 31.6 105.5 39.5l0 0h163.1v-199.5c-6.4-4.2-14.5-7.4-24.5-8.4 -43.9-4.6-62.3 36.7-62.3 36.7s-26.2-9.5-41.9 8.3c-3.3 3.8-5.8 7.7-7.6 11.7 -7.2-6.3-17-11.4-30.2-12.8 -33.5-3.5-52.1 19.7-59.1 30.9 -2.8-11.3-13.4-41.2-48.9-44.9 -36.2-3.8-55 23.6-60.5 33.3 -7.2-10.7-19.4-21.2-39.5-23.3 -43.9-4.6-62.3 36.7-62.3 36.7s1.2-0.3-0.1-0.7c-1.8-3.7-6.1-7.5-9.2-11 -15.7-17.9-41.9-8.3-41.9-8.3s-18.4-41.3-62.3-36.7c-43.9 4.6-49.8 49.2-49.8 49.2s-21.3-8.3-30.1 9.2c-0.4 0.9-1.3 1.3-1.9 2 -1.7-3.5-4-7-6.9-10.3 -15.7-17.9-41.9-8.3-41.9-8.3s-18.4-41.3-62.3-36.7c-24.6 2.6-41.3 18.7-47.7 31.6l-0.1 0.1c0 0-18.4-41.3-62.3-36.7 -43.9 4.6-50.8 49.2-50.8 49.2s0.6-0.1-0.2-0.2c-4.6-13.4-16.8-35.8-47.2-39 -43.9-4.6-62.3 36.7-62.3 36.7s-26.2-9.5-41.9 8.3c-1.5 1.7-2.8 3.4-4 5.2 0.3-2 2.5-20.2-9.9-31.9 -13.1-12.5-30.1-9.2-30.1-9.2s-5.9-44.6-49.8-49.2c-17.6-1.8-31.2 3.7-41 11v79.4h0.9c-0.3 0-0.6 0.1-0.9 0.1v127.4h147.9 0 140l7.5 0.5M21.8-3463.2c0 0-4.4-1.6-10.7-2.3h11.8C22.1-3464.1 21.8-3463.2 21.8-3463.2zM130-3464.3c-0.2-0.4-0.3-0.8-0.5-1.2h1.2C130.5-3465.1 130.2-3464.7 130-3464.3z"/>
  </g>
  <g class="st3">
    <polyline class="st4" points="51.9 -3591.6 41.7 -3476.2 91.4 -3570.6 "/>
    <polyline class="st4" points="-8.6 -3412.7 14.7 -3384.7 -8.6 -3349.2 "/>
    <polyline class="st4" points="136.4 -3511.5 168.5 -3440.5 140.1 -3424.3 109.7 -3434.4 133 -3492.2 140.1 -3424.3 182.1 -3396.9 201.5 -3440.5 168.5 -3504.4 "/>
    <polyline class="st4" points="200 -3536.9 201.5 -3440.5 168.5 -3440.5 "/>
    <polyline class="st4" points="219.2 -3350.7 201.5 -3440.5 243.6 -3543.7 254.8 -3440.5 219.2 -3350.7 182.1 -3396.9 140.1 -3373.6 140.1 -3424.3 78.3 -3349.2 14.7 -3384.7 "/>
    <polyline class="st4" points="182.1 -3396.9 185 -3349.2 140.1 -3373.6 78.3 -3349.2 "/>
    <polyline class="st4" points="254.8 -3440.5 292.8 -3460.6 338.9 -3460.6 "/>
    <polyline class="st4" points="286.2 -3502 292.8 -3460.6 309 -3396.9 338.9 -3460.6 286.2 -3502 254.8 -3440.5 278.1 -3350.7 309 -3396.9 254.8 -3440.5 227.4 -3431.9 201.5 -3440.5 "/>
    <polyline class="st4" points="304.4 -3543.7 338.9 -3460.6 356.2 -3543.7 "/>
    <polyline class="st4" points="309 -3396.9 338.9 -3350.7 382 -3366.9 396.9 -3416.7 338.9 -3460.6 396.9 -3518.6 396.9 -3416.7 346 -3388.8 307.8 -3395 "/>
    <path class="st4" d="M396.9-3518.6"/>
    <line class="st4" x1="346" y1="-3388.8" x2="338.9" y2="-3460.6"/>
    <polyline class="st4" points="-8.6 -3458.3 41.7 -3476.2 54.9 -3430.5 "/>
    <polyline class="st4" points="421.8 -3388.8 382 -3366.9 390.7 -3349.2 "/>
    <path class="st4" d="M417-3480.4"/>
    <polyline class="st4" points="451.5 -3543.7 451.5 -3515.9 424.1 -3491.9 396.9 -3518.6 "/>
    <polyline class="st4" points="553.5 -3485.6 535 -3446.4 502.9 -3431.1 479.2 -3468.2 "/>
    <polyline class="st4" points="503.2 -3532.8 489.4 -3502.2 451.5 -3515.9 479.2 -3468.2 449.5 -3391.8 502.9 -3431.1 558.4 -3401 535 -3446.4 544.8 -3511.5 479.2 -3468.2 489.4 -3502.2 514.4 -3506.4 "/>
    <polyline class="st4" points="338.9 -3350.7 346 -3388.8 382 -3366.9 428.9 -3349.2 449.5 -3391.8 421.8 -3388.8 396.9 -3416.7 412.3 -3431.1 424.1 -3491.9 479.2 -3468.2 412.3 -3431.1 421.8 -3388.8 "/>
    <polyline class="st4" points="568.7 -3501.4 568.7 -3462.3 535 -3446.4 "/>
    <polyline class="st4" points="502.9 -3388.8 449.5 -3391.8 412.3 -3431.1 "/>
    <polyline class="st4" points="449.5 -3391.8 472.5 -3349.2 503.9 -3388.8 "/>
    <polygon class="st4" points="503.9 -3388.8 543.5 -3363.9 524.2 -3349.2 "/>
    <polyline class="st4" points="568.7 -3462.3 595.2 -3429.7 558.4 -3401 503.9 -3388.8 502.9 -3431.1 "/>
    <polygon class="st4" points="543.5 -3363.9 558.4 -3401 562.8 -3349.2 "/>
    <path class="st2" d="M595.2-3429.7"/>
    <polyline class="st4" points="636.1 -3501.4 678.7 -3491.9 710.2 -3497.3 710.2 -3506.4 "/>
    <polyline class="st4" points="683.8 -3545 678.7 -3491.9 672.3 -3420.5 699 -3380.3 772 -3349.2 728.8 -3431.1 752.8 -3506.4 787.2 -3473.9 822.7 -3549 844.4 -3466.9 "/>
    <polyline class="st4" points="586.4 -3528.8 636.1 -3501.4 630 -3543 "/>
    <polyline class="st4" points="710.2 -3496.3 728.8 -3431.1 678.7 -3491.9 "/>
    <line class="st4" x1="636.1" y1="-3501.4" x2="602" y2="-3391.8"/>
    <polyline class="st4" points="616.7 -3439.2 672.3 -3420.5 637.6 -3501.1 "/>
    <polyline class="st4" points="672.3 -3420.5 670.3 -3349.2 699 -3380.3 728.8 -3431.1 672.3 -3420.5 602 -3391.8 595.2 -3429.7 586.4 -3501.4 616.7 -3439.2 "/>
    <polyline class="st4" points="602 -3391.8 621.6 -3358 670.3 -3349.2 "/>
    <polyline class="st4" points="670.3 -3419.7 621.6 -3358 562.8 -3349.2 602 -3391.8 558.4 -3401 "/>
    <polyline class="st4" points="787.2 -3473.9 819.7 -3420.5 844.4 -3466.9 900.2 -3433.8 859.3 -3486.5 857.2 -3511.5 910.7 -3491.9 941.1 -3512.5 970.5 -3506.4 1020.9 -3520.6 1071.6 -3497 1084.4 -3530.5 1064.1 -3544 "/>
    <polyline class="st4" points="819.7 -3420.5 788.7 -3429.2 728.8 -3431.1 787.2 -3473.9 844.4 -3466.9 859.3 -3486.5 910.7 -3491.9 901.9 -3547 "/>
    <path class="st2" d="M819.7-3420.5"/>
    <polyline class="st4" points="802.8 -3368.5 819.7 -3420.5 846.4 -3349.2 861.6 -3410.6 918.1 -3349.2 900.2 -3432.4 862.3 -3410.4 819.7 -3420.5 772 -3349.2 788.7 -3429.2 787.2 -3473.9 "/>
    <line class="st4" x1="878.5" y1="-3370.5" x2="862.3" y2="-3410.4"/>
    <line class="st4" x1="941.6" y1="-3547" x2="941.1" y2="-3512.5"/>
    <polyline class="st4" points="951.3 -3420.6 983.3 -3392.6 995.9 -3448.3 951.3 -3420.6 900.2 -3432.4 910.7 -3491.9 946.7 -3479.6 970.5 -3506.4 995.9 -3448.3 946.7 -3479.6 951.3 -3420.6 918.1 -3349.2 878.5 -3370.5 846.4 -3349.2 802.8 -3368.5 772 -3349.2 "/>
    <polyline class="st4" points="983.3 -3392.6 1019.8 -3378.1 987.3 -3349.2 983.3 -3392.6 918.1 -3349.2 "/>
    <polyline class="st4" points="995.9 -3449.4 1020.9 -3520.6 1017.5 -3545 "/>
    <line class="st4" x1="971.8" y1="-3518.6" x2="970.5" y2="-3506.4"/>
    <polyline class="st4" points="1084.4 -3530.5 1116.4 -3524.2 1109.8 -3544 "/>
    <polyline class="st4" points="54.9 -3430.5 78.3 -3349.2 109.7 -3434.4 54.9 -3430.5 14.7 -3384.7 41.7 -3476.2 91.4 -3528.8 109.7 -3434.4 41.7 -3476.2 -8.6 -3570.6 51.9 -3591.6 91.4 -3570.6 91.4 -3528.8 122.8 -3525.7 133 -3492.2 136.4 -3511.5 168.5 -3504.4 200 -3536.9 243.6 -3543.7 286.2 -3502 304.4 -3543.7 356.2 -3543.7 396.9 -3518.6 451.5 -3543.7 503.2 -3532.8 514.4 -3506.4 544.8 -3511.5 553.5 -3485.6 568.7 -3501.4 586.4 -3501.4 586.4 -3528.8 630 -3543 683.8 -3545 710.2 -3506.4 729.4 -3526.7 752.8 -3506.4 822.7 -3549 857.2 -3511.5 901.9 -3547 941.6 -3547 971.8 -3518.6 1017.5 -3545 1064.1 -3518.6 1064.1 -3544 1109.8 -3544 1135.1 -3601.8 1199 -3570.6 1156.4 -3571.4 1199 -3534.1 1172.2 -3465.1 1116.4 -3524.2 1156.4 -3571.4 1135.1 -3601.8 "/>
    <polyline class="st4" points="1199 -3534.1 1160.5 -3512.5 1116.4 -3524.2 1071.6 -3497 1064.1 -3520.6 "/>
    <polyline class="st4" points="1156.4 -3571.4 1160.5 -3512.5 1172.2 -3465.1 1206.4 -3485.1 "/>
    <polyline class="st4" points="1116.4 -3524.2 1111.8 -3497.2 1134.6 -3430.4 1172.4 -3373.8 1203.6 -3349.2 "/>
    <polyline class="st4" points="1111.8 -3497.2 1097.4 -3453.7 1134.6 -3430.4 1097.4 -3392.6 1124.1 -3349.2 "/>
    <polyline class="st4" points="1019.8 -3378.1 1046.6 -3415.2 1097.4 -3392.6 1097.4 -3453.7 1071.6 -3497 1047.4 -3451.2 995.9 -3448.3 1046.6 -3415.2 1047.4 -3451.2 "/>
    <polyline class="st4" points="1097.4 -3453.7 1047.4 -3451.2 1097.4 -3392.6 1092.5 -3346.7 1046.6 -3415.2 1039 -3349.2 1019.8 -3378.1 995.9 -3448.3 1071.6 -3497 1111.8 -3497.2 1172.2 -3465.1 1199 -3440 1172.4 -3373.8 1172.2 -3465.1 1134.6 -3430.4 1124 -3348.7 1172.4 -3373.8 "/>
  </g>
  <line class="st5" x1="147.1" y1="-3413.2" x2="1207.8" y2="-3413.2"/>
  <circle class="st5" cx="147.1" cy="-3413.2" r="10.1"/>
  <circle cx="147.1" cy="-3413.2" r="5.7"/>
  <polygon points="300.2 -3404.6 295.5 -3413.2 300.2 -3421.7 304.9 -3413.2 "/>
  <polygon points="452.7 -3404.6 448 -3413.2 452.7 -3421.7 457.5 -3413.2 "/>
  <polygon points="616.2 -3404.6 611.5 -3413.2 616.2 -3421.7 620.9 -3413.2 "/>
  <polygon points="779.6 -3404.6 774.9 -3413.2 779.6 -3421.7 784.3 -3413.2 "/>
  <polygon points="943 -3404.6 938.3 -3413.2 943 -3421.7 947.8 -3413.2 "/>
  <polygon points="1106.5 -3404.6 1101.8 -3413.2 1106.5 -3421.7 1111.2 -3413.2 "/>
  <rect x="404.6" y="-3393" width="95.9" height="18" fill="none"/>
  <text transform="matrix(1 0 0 1 418.3132 -3383.7522)" style="font-family:'MyriadPro-Regular';font-size:13.07">
    LUMINOSITÉ
  </text>
  <rect x="252" y="-3393" width="95.9" height="18" fill="none"/>
  <text transform="matrix(1 0 0 1 259.8186 -3383.7522)" style="font-family:'MyriadPro-Regular';font-size:13.07">
    TEMPÉRATURE
  </text>
  <rect x="1058.3" y="-3393" width="95.9" height="18" fill="none"/>
  <text transform="matrix(1 0 0 1 1072.053 -3383.7522)" style="font-family:'MyriadPro-Regular';font-size:13.07">
    LUMINOSITÉ
  </text>
  <rect x="894.9" y="-3393" width="95.9" height="18" fill="none"/>
  <text transform="matrix(1 0 0 1 908.6179 -3383.7522)" style="font-family:'MyriadPro-Regular';font-size:13.07">
    LUMINOSITÉ
  </text>
  <rect x="731.4" y="-3393" width="95.9" height="18" fill="none"/>
  <text transform="matrix(1 0 0 1 751.6814 -3383.7522)" style="font-family:'MyriadPro-Regular';font-size:13.07">
    HUMIDITÉ
  </text>
  <rect x="568" y="-3393" width="95.9" height="18" fill="none"/>
  <text transform="matrix(1 0 0 1 577.6038 -3383.7522)" style="font-family:'MyriadPro-Regular';font-size:13.07">
    TEMPORALITÉ
  </text>
  <path class="st6" d="M457.6-3442.4c-0.3 6.4-9.6 6.4-10 0 -0.2-2.8 2.4-4.9 5-5C455.4-3447.6 457.4-3445.1 457.6-3442.4c0 0.6 1 0.6 1 0 -0.2-3.4-2.6-5.8-6-6 -3.4-0.2-5.8 2.9-6 6 -0.2 3.4 2.9 5.8 6 6 3.4 0.2 5.8-2.9 6-6C458.6-3443.1 457.6-3443.1 457.6-3442.4z"/>
  <path class="st6" d="M452.2-3433.7c0 1.4 0 2.9 0 4.3 0 0.5 0.8 0.5 0.8 0 0-1.4 0-2.9 0-4.3C453-3434.2 452.2-3434.2 452.2-3433.7L452.2-3433.7z"/>
  <path class="st6" d="M452.2-3455.4c0 1.4 0 2.9 0 4.3 0 0.5 0.8 0.5 0.8 0 0-1.4 0-2.9 0-4.3C453-3455.9 452.2-3455.9 452.2-3455.4L452.2-3455.4z"/>
  <path class="st6" d="M443.9-3442.7c-1.4 0-2.9 0-4.3 0 -0.5 0-0.5 0.8 0 0.8 1.4 0 2.9 0 4.3 0C444.4-3442 444.4-3442.7 443.9-3442.7L443.9-3442.7z"/>
  <path class="st6" d="M465.6-3442.7c-1.4 0-2.9 0-4.3 0 -0.5 0-0.5 0.8 0 0.8 1.4 0 2.9 0 4.3 0C466.1-3442 466.1-3442.7 465.6-3442.7L465.6-3442.7z"/>
  <path class="st6" d="M446.7-3448.8c-1-1-2-2-3.1-3.1 -0.3-0.3-0.9 0.2-0.5 0.5 1 1 2 2 3.1 3.1C446.5-3447.9 447-3448.4 446.7-3448.8L446.7-3448.8z"/>
  <path class="st6" d="M462.1-3433.4c-1-1-2-2-3.1-3.1 -0.3-0.3-0.9 0.2-0.5 0.5 1 1 2 2 3.1 3.1C461.9-3432.6 462.4-3433.1 462.1-3433.4L462.1-3433.4z"/>
  <path class="st6" d="M446.2-3436.5c-1 1-2 2-3.1 3.1 -0.3 0.3 0.2 0.9 0.5 0.5 1-1 2-2 3.1-3.1C447-3436.3 446.5-3436.8 446.2-3436.5L446.2-3436.5z"/>
  <path class="st6" d="M461.5-3451.8c-1 1-2 2-3.1 3.1 -0.3 0.3 0.2 0.9 0.5 0.5 1-1 2-2 3.1-3.1C462.4-3451.7 461.9-3452.2 461.5-3451.8L461.5-3451.8z"/>
  <path class="st7" d="M296.4-3438.8c-1.4 0.9-2.4 2.4-2.4 4.2 0 2.7 2.2 5 5 5 2.7 0 5-2.2 5-5 0-1.8-1-3.4-2.4-4.2v-13.9c0-1.4-1.2-2.6-2.6-2.6 -1.4 0-2.6 1.2-2.6 2.6V-3438.8z"/>
  <circle class="st8" cx="298.9" cy="-3434.7" r="3.1"/>
  <rect x="297.9" y="-3440.5" class="st8" width="2" height="4.3"/>
  <line class="st7" x1="293.2" y1="-3448.8" x2="288.1" y2="-3448.8"/>
  <line class="st7" x1="293.2" y1="-3445.4" x2="289.8" y2="-3445.4"/>
  <line class="st7" x1="293.2" y1="-3442" x2="288.1" y2="-3442"/>
  <path class="st6" d="M1110.6-3442.4c-0.3 6.4-9.6 6.4-10 0 -0.2-2.8 2.4-4.9 5-5C1108.4-3447.6 1110.4-3445.1 1110.6-3442.4c0 0.6 1 0.6 1 0 -0.2-3.4-2.6-5.8-6-6 -3.4-0.2-5.8 2.9-6 6 -0.2 3.4 2.9 5.8 6 6 3.4 0.2 5.8-2.9 6-6C1111.6-3443.1 1110.6-3443.1 1110.6-3442.4z"/>
  <path class="st6" d="M1105.2-3433.7c0 1.4 0 2.9 0 4.3 0 0.5 0.8 0.5 0.8 0 0-1.4 0-2.9 0-4.3C1106-3434.2 1105.2-3434.2 1105.2-3433.7L1105.2-3433.7z"/>
  <path class="st6" d="M1105.2-3455.4c0 1.4 0 2.9 0 4.3 0 0.5 0.8 0.5 0.8 0 0-1.4 0-2.9 0-4.3C1106-3455.9 1105.2-3455.9 1105.2-3455.4L1105.2-3455.4z"/>
  <path class="st6" d="M1096.9-3442.7c-1.4 0-2.9 0-4.3 0 -0.5 0-0.5 0.8 0 0.8 1.4 0 2.9 0 4.3 0C1097.4-3442 1097.4-3442.7 1096.9-3442.7L1096.9-3442.7z"/>
  <path class="st6" d="M1118.6-3442.7c-1.4 0-2.9 0-4.3 0 -0.5 0-0.5 0.8 0 0.8 1.4 0 2.9 0 4.3 0C1119.1-3442 1119.1-3442.7 1118.6-3442.7L1118.6-3442.7z"/>
  <path class="st6" d="M1099.7-3448.8c-1-1-2-2-3.1-3.1 -0.3-0.3-0.9 0.2-0.5 0.5 1 1 2 2 3.1 3.1C1099.5-3447.9 1100-3448.4 1099.7-3448.8L1099.7-3448.8z"/>
  <path class="st6" d="M1115.1-3433.4c-1-1-2-2-3.1-3.1 -0.3-0.3-0.9 0.2-0.5 0.5 1 1 2 2 3.1 3.1C1114.9-3432.6 1115.4-3433.1 1115.1-3433.4L1115.1-3433.4z"/>
  <path class="st6" d="M1099.2-3436.5c-1 1-2 2-3.1 3.1 -0.3 0.3 0.2 0.9 0.5 0.5 1-1 2-2 3.1-3.1C1100-3436.3 1099.5-3436.8 1099.2-3436.5L1099.2-3436.5z"/>
  <path class="st6" d="M1114.5-3451.8c-1 1-2 2-3.1 3.1 -0.3 0.3 0.2 0.9 0.5 0.5 1-1 2-2 3.1-3.1C1115.4-3451.7 1114.9-3452.2 1114.5-3451.8L1114.5-3451.8z"/>
  <path class="st7" d="M939.4-3438.8c-1.4 0.9-2.4 2.4-2.4 4.2 0 2.7 2.2 5 5 5 2.7 0 5-2.2 5-5 0-1.8-1-3.4-2.4-4.2v-13.9c0-1.4-1.2-2.6-2.6-2.6 -1.4 0-2.6 1.2-2.6 2.6V-3438.8z"/>
  <circle class="st8" cx="941.9" cy="-3434.7" r="3.1"/>
  <rect x="940.9" y="-3440.5" class="st8" width="2" height="4.3"/>
  <line class="st7" x1="936.2" y1="-3448.8" x2="931.1" y2="-3448.8"/>
  <line class="st7" x1="936.2" y1="-3445.4" x2="932.8" y2="-3445.4"/>
  <line class="st7" x1="936.2" y1="-3442" x2="931.1" y2="-3442"/>
  <path class="st7" d="M621.9-3446.7c3.5 3.1 3.8 8.5 0.7 12s-8.5 3.8-12 0.7c-3.5-3.1-3.8-8.5-0.7-12"/>
  <polyline class="st7" points="616.3 -3445.9 616.3 -3439.3 612.1 -3435 "/>
  <line class="st7" x1="616.3" y1="-3435" x2="616.3" y2="-3432.9"/>
  <line class="st7" x1="621.3" y1="-3439.3" x2="623.4" y2="-3439.3"/>
  <line class="st7" x1="609.2" y1="-3439.3" x2="611.2" y2="-3439.3"/>
  <line class="st7" x1="619.6" y1="-3435.9" x2="621.1" y2="-3434.5"/>
  <line class="st7" x1="620.3" y1="-3443.4" x2="621.8" y2="-3444.8"/>
  <path class="st8" d="M606.6-3445.5c1.2-0.2 2.4-0.3 3.6-0.5 -0.1-0.1-0.2-0.2-0.4-0.4 0.1 1.3 0.2 2.6 0.2 3.9 0 0.5 0.8 0.5 0.8 0 -0.1-1.3-0.2-2.6-0.2-3.9 0-0.2-0.2-0.4-0.4-0.4 -1.2 0.2-2.4 0.3-3.6 0.5C606.1-3446.2 606.1-3445.5 606.6-3445.5L606.6-3445.5z"/>
  <path class="st7" d="M781.1-3437.2c0.1 0.6 0 1.2-0.1 1.7 -0.3 1.1-1.1 2.1-2.1 2.7 -1.8 1-4.1 0.7-5.5-0.7 -1.4-1.4-1.7-3.7-0.7-5.4 0 0 0 0 0 0l3.6-6.3c0.1-0.1 0.3-0.2 0.4-0.2 0 0 0 0 0 0 0.1 0 0.1 0.1 0.1 0.1l3.6 6.3C780.8-3438.3 781-3437.8 781.1-3437.2z"/>
  <path class="st7" d="M782.7-3440.5c-1.8-0.9-2.4-3.3-1.3-5l2.6-4.6c0.1-0.2 0.5-0.2 0.6 0l2.6 4.6c0.4 0.5 0.5 1.2 0.5 1.9 0 0.6-0.2 1.2-0.5 1.7C786.5-3440.3 784.4-3439.6 782.7-3440.5z"/>
  <path class="st7" d="M774.8-3437.8c0 0-1 2.5 1.2 3.3"/>
  <path class="st7" d="M782.9-3444.6c0 0-0.8 2.1 1 2.7"/>
  <circle class="st9" cx="150.2" cy="-3834.4" r="28.3"/>
  <line class="st10" x1="150.2" y1="-3890.4" x2="150.2" y2="-3778.4"/>
  <line class="st10" x1="94.2" y1="-3834.4" x2="206.2" y2="-3834.4"/>
  <line class="st10" x1="110.6" y1="-3874" x2="189.8" y2="-3794.8"/>
  <line class="st10" x1="110.6" y1="-3794.8" x2="189.8" y2="-3874"/>
  <linearGradient id="SVGID_2_" gradientUnits="userSpaceOnUse" x1="1504.05" y1="-405.45" x2="2104.05" y2="-405.45" gradientTransform="matrix(4.489700e-11 -1 1 4.489700e-11 1045.4534 235.0967)">
    <stop offset="0" stop-color="#C8C7C6"/>
    <stop offset="0.33" stop-color="#DBD8C4"/>
    <stop offset="0.73" stop-color="#EDE8C2"/>
    <stop offset="1" stop-color="#F3EEC1"/>
  </linearGradient>
  <rect x="0" y="-1857.2" class="st11" width="1280" height="600"/>
  <linearGradient id="SVGID_3_" gradientUnits="userSpaceOnUse" x1="877.22" y1="-405.45" x2="1477.22" y2="-405.45" gradientTransform="matrix(4.489700e-11 -1 1 4.489700e-11 1045.4534 235.0967)">
    <stop offset="0" stop-color="#E2D0CA"/>
    <stop offset="1" stop-color="#98D3DD"/>
  </linearGradient>
  <rect x="0" y="-1242.1" class="st12" width="1280" height="600"/>
  <linearGradient id="SVGID_4_" gradientUnits="userSpaceOnUse" x1="265.57" y1="-405.45" x2="865.57" y2="-405.45" gradientTransform="matrix(4.489700e-11 -1 1 4.489700e-11 1045.4534 235.0967)">
    <stop offset="0" stop-color="#F4B59C"/>
    <stop offset="0.14" stop-color="#D6B8A7"/>
    <stop offset="0.34" stop-color="#ADB7B2"/>
    <stop offset="0.54" stop-color="#87B3BA"/>
    <stop offset="0.72" stop-color="#65AEBE"/>
    <stop offset="0.87" stop-color="#49AAC0"/>
    <stop offset="1" stop-color="#3DA9C0"/>
  </linearGradient>
  <rect y="-624.1" class="st13" width="1280" height="600"/>
  <linearGradient id="SVGID_5_" gradientUnits="userSpaceOnUse" x1="265.57" y1="-405.45" x2="865.57" y2="-405.45" gradientTransform="matrix(4.489700e-11 -1 1 4.489700e-11 1045.4534 235.0967)">
    <stop offset="0" stop-color="#869498"/>
    <stop offset="0.08" stop-color="#6B99A3"/>
    <stop offset="0.2" stop-color="#489CAE"/>
    <stop offset="0.32" stop-color="#179CB5"/>
    <stop offset="0.47" stop-color="#009CB9"/>
    <stop offset="0.65" stop-color="#009CBB"/>
    <stop offset="1" stop-color="#009BBC"/>
  </linearGradient>
  <rect x="0" y="-624.1" class="st14" width="1280" height="600"/>
  <linearGradient id="SVGID_6_" gradientUnits="userSpaceOnUse" x1="-358.49" y1="-405.45" x2="241.51" y2="-405.45" gradientTransform="matrix(4.489700e-11 -1 1 4.489700e-11 1045.4534 235.0967)">
    <stop offset="0" stop-color="#F4B59C"/>
    <stop offset="0.14" stop-color="#D6B8A7"/>
    <stop offset="0.34" stop-color="#ADB7B2"/>
    <stop offset="0.54" stop-color="#87B3BA"/>
    <stop offset="0.72" stop-color="#65AEBE"/>
    <stop offset="0.87" stop-color="#49AAC0"/>
    <stop offset="1" stop-color="#3DA9C0"/>
  </linearGradient>
  <rect y="0" class="st15" width="1280" height="600"/>
  <linearGradient id="SVGID_7_" gradientUnits="userSpaceOnUse" x1="-358.49" y1="-405.45" x2="241.51" y2="-405.45" gradientTransform="matrix(4.489700e-11 -1 1 4.489700e-11 1045.4534 235.0967)">
    <stop offset="0" stop-color="#F7AE81"/>
    <stop offset="0.24" stop-color="#D9907D"/>
    <stop offset="0.53" stop-color="#BE7576"/>
    <stop offset="0.79" stop-color="#AF6672"/>
    <stop offset="1" stop-color="#A96170"/>
  </linearGradient>
  <rect x="0" y="0" class="st16" width="1280" height="600"/>
  <linearGradient id="SVGID_8_" gradientUnits="userSpaceOnUse" x1="-358.49" y1="-405.45" x2="241.51" y2="-405.45" gradientTransform="matrix(4.489700e-11 -1 1 4.489700e-11 1045.4534 235.0967)">
    <stop offset="0" stop-color="#F7AE81"/>
    <stop offset="0.24" stop-color="#D9907D"/>
    <stop offset="0.53" stop-color="#BE7576"/>
    <stop offset="0.79" stop-color="#AF6672"/>
    <stop offset="1" stop-color="#A96170"/>
  </linearGradient>
  <rect x="0" y="0" class="st17" width="1280" height="600"/>
  <linearGradient id="SVGID_9_" gradientUnits="userSpaceOnUse" x1="-970.55" y1="-405.45" x2="-370.55" y2="-405.45" gradientTransform="matrix(4.489700e-11 -1 1 4.489700e-11 1045.4534 235.0967)">
    <stop offset="0" stop-color="#F4B59C"/>
    <stop offset="0.14" stop-color="#D6B8A7"/>
    <stop offset="0.34" stop-color="#ADB7B2"/>
    <stop offset="0.54" stop-color="#87B3BA"/>
    <stop offset="0.72" stop-color="#65AEBE"/>
    <stop offset="0.87" stop-color="#49AAC0"/>
    <stop offset="1" stop-color="#3DA9C0"/>
  </linearGradient>
  <rect y="612.1" class="st18" width="1280" height="600"/>
  <linearGradient id="SVGID_10_" gradientUnits="userSpaceOnUse" x1="-970.42" y1="-405.45" x2="-358.36" y2="-405.45" gradientTransform="matrix(4.489700e-11 -1 1 4.489700e-11 1045.4534 235.0967)">
    <stop offset="0" stop-color="#E1AEA8"/>
    <stop offset="0.05" stop-color="#D6A5A3"/>
    <stop offset="0.28" stop-color="#AC858F"/>
    <stop offset="0.49" stop-color="#8C6E80"/>
    <stop offset="0.69" stop-color="#756077"/>
    <stop offset="0.86" stop-color="#675872"/>
    <stop offset="1" stop-color="#625570"/>
  </linearGradient>
  <rect x="0" y="600" class="st19" width="1280" height="612.1"/>
  <linearGradient id="SVGID_11_" gradientUnits="userSpaceOnUse" x1="-1591.61" y1="-405.45" x2="-991.61" y2="-405.45" gradientTransform="matrix(4.489700e-11 -1 1 4.489700e-11 1045.4534 235.0967)">
    <stop offset="0" stop-color="#553D69"/>
    <stop offset="0.14" stop-color="#47305B"/>
    <stop offset="0.39" stop-color="#322047"/>
    <stop offset="0.63" stop-color="#25183B"/>
    <stop offset="0.84" stop-color="#1D1535"/>
    <stop offset="1" stop-color="#1A1333"/>
  </linearGradient>
  <rect x="0" y="1233.1" class="st20" width="1280" height="600"/>
  <linearGradient id="SVGID_12_" gradientUnits="userSpaceOnUse" x1="-2212.67" y1="-405.45" x2="-1612.67" y2="-405.45" gradientTransform="matrix(4.489700e-11 -1 1 4.489700e-11 1045.4534 235.0967)">
    <stop offset="0" stop-color="#2F3668"/>
    <stop offset="0.1" stop-color="#2C2F5E"/>
    <stop offset="0.36" stop-color="#242149"/>
    <stop offset="0.61" stop-color="#1F193C"/>
    <stop offset="0.83" stop-color="#1C1535"/>
    <stop offset="1" stop-color="#1A1333"/>
  </linearGradient>
  <rect x="0" y="1854.2" class="st21" width="1280" height="600"/>
</svg>
