<?xml version="1.0" encoding="utf-8"?>
<!-- Generator: Adobe Illustrator 17.0.0, SVG Export Plug-In . SVG Version: 6.00 Build 0)  -->
<!DOCTYPE svg PUBLIC "-//W3C//DTD SVG 1.1//EN" "http://www.w3.org/Graphics/SVG/1.1/DTD/svg11.dtd">
<svg version="1.1" id="Calque_1" xmlns="http://www.w3.org/2000/svg" xmlns:xlink="http://www.w3.org/1999/xlink" x="0px" y="0px"
	 width="1280px" height="600px" viewBox="0 0 1280 600" style="enable-background:new 0 0 1280 600;" xml:space="preserve">
<style type="text/css">
	.st0{fill:#FFFFFF;}
</style>
<path class="st0" d="M1116.4,160.7h-114.1c0,0-1.5-10.2,5.8-17.1c7.3-6.9,17.1-6.6,17.1-6.6s2.9-24.4,28.1-27
	c25.2-2.6,34.3,21.2,34.3,21.2s12.8-6,22.6,4.1C1120,145.4,1116.4,160.7,1116.4,160.7z"/>
<path class="st0" d="M75.6,372.5h85.8c0,0,1.1-7.7-4.4-12.9c-5.5-5.2-12.9-4.9-12.9-4.9s-2.2-18.4-21.1-20.3s-25.8,15.9-25.8,15.9
	s-9.6-4.5-17,3.1C72.9,360.9,75.6,372.5,75.6,372.5z"/>
</svg>
