<?xml version="1.0" encoding="utf-8"?>
<!-- Generator: Adobe Illustrator 17.0.0, SVG Export Plug-In . SVG Version: 6.00 Build 0)  -->
<!DOCTYPE svg PUBLIC "-//W3C//DTD SVG 1.1//EN" "http://www.w3.org/Graphics/SVG/1.1/DTD/svg11.dtd">
<svg version="1.1" id="Calque_1" xmlns="http://www.w3.org/2000/svg" xmlns:xlink="http://www.w3.org/1999/xlink" x="0px" y="0px"
	 width="1280px" height="600px" viewBox="0 0 1280 600" style="enable-background:new 0 0 1280 600;" xml:space="preserve">
<style type="text/css">
	.st0{fill:url(#SVGID_1_);}
	.st1{opacity:0.3;}
	.st2{fill:#FFFFFF;}
	.st3{opacity:0.7;}
	.st4{fill:none;stroke:#FFFFFF;stroke-miterlimit:10;}
	.st5{fill:none;stroke:#000000;stroke-miterlimit:10;}
	.st6{fill:#14130B;}
	.st7{fill:none;stroke:#13130A;stroke-width:0.75;stroke-miterlimit:10;}
	.st8{fill:#13130A;}
	.st9{fill:#FFF0BC;}
	.st10{fill:none;stroke:#FFF0BC;stroke-width:2;stroke-miterlimit:10;}
	.st11{fill:url(#SVGID_2_);}
	.st12{fill:url(#SVGID_3_);}
	.st13{opacity:0.3;fill:url(#SVGID_4_);}
	.st14{opacity:0.3;fill:url(#SVGID_5_);}
	.st15{opacity:0.3;fill:url(#SVGID_6_);}
	.st16{opacity:0.4;fill:url(#SVGID_7_);}
	.st17{opacity:0.4;fill:url(#SVGID_8_);}
	.st18{opacity:0.3;fill:url(#SVGID_9_);}
	.st19{opacity:0.73;fill:url(#SVGID_10_);}
	.st20{opacity:0.85;fill:url(#SVGID_11_);}
	.st21{opacity:0.98;fill:url(#SVGID_12_);}
</style>
<linearGradient id="SVGID_1_" gradientUnits="userSpaceOnUse" x1="3599.0979" y1="1407.0073" x2="4440.9878" y2="1407.0073" gradientTransform="matrix(4.489700e-11 -1 1 4.489700e-11 -811.7324 2092.2825)">
	<stop  offset="0" style="stop-color:#C8C7C6"/>
	<stop  offset="0.3296" style="stop-color:#DBD8C4"/>
	<stop  offset="0.7286" style="stop-color:#EDE8C2"/>
	<stop  offset="1" style="stop-color:#F3EEC1"/>
</linearGradient>
<rect x="0" y="-2332.2" class="st0" width="1190.5" height="841.9"/>
<g class="st1">
	<path class="st2" d="M21.8-1606c0,0,0.4-0.8,1.1-2.3H11.1C17.3-1607.7,21.8-1606,21.8-1606z"/>
	<path class="st2" d="M130-1607.1c0.2-0.4,0.5-0.8,0.7-1.2h-1.2C129.7-1607.9,129.8-1607.5,130-1607.1z"/>
	<path class="st2" d="M932-1554.3h-2.2c0.4,0.5,0.8,1.1,1.2,1.6C931.3-1553.2,931.6-1553.8,932-1554.3z"/>
	<path class="st2" d="M0-1608.3v0.1c0.3,0,0.6-0.1,0.9-0.1H0z"/>
	<path class="st2" d="M295.4-1480.8l202.5,0.5l0-0.5h80.4h70l0,0.5l137.1-0.5h65.4h31.6h105.5h39.5l0,0h163.1v-199.5
		c-6.4-4.2-14.5-7.4-24.5-8.4c-43.9-4.6-62.3,36.7-62.3,36.7s-26.2-9.5-41.9,8.3c-3.3,3.8-5.8,7.7-7.6,11.7
		c-7.2-6.3-17-11.4-30.2-12.8c-33.5-3.5-52.1,19.7-59.1,30.9c-2.8-11.3-13.4-41.2-48.9-44.9c-36.2-3.8-55,23.6-60.5,33.3
		c-7.2-10.7-19.4-21.2-39.5-23.3c-43.9-4.6-62.3,36.7-62.3,36.7s1.2-0.3-0.1-0.7c-1.8-3.7-6.1-7.5-9.2-11
		c-15.7-17.9-41.9-8.3-41.9-8.3s-18.4-41.3-62.3-36.7c-43.9,4.6-49.8,49.2-49.8,49.2s-21.3-8.3-30.1,9.2c-0.4,0.9-1.3,1.3-1.9,2
		c-1.7-3.5-4-7-6.9-10.3c-15.7-17.9-41.9-8.3-41.9-8.3s-18.4-41.3-62.3-36.7c-24.6,2.6-41.3,18.7-47.7,31.6l-0.1,0.1
		c0,0-18.4-41.3-62.3-36.7c-43.9,4.6-50.8,49.2-50.8,49.2s0.6-0.1-0.2-0.2c-4.6-13.4-16.8-35.8-47.2-39
		c-43.9-4.6-62.3,36.7-62.3,36.7s-26.2-9.5-41.9,8.3c-1.5,1.7-2.8,3.4-4,5.2c0.3-2,2.5-20.2-9.9-31.9c-13.1-12.5-30.1-9.2-30.1-9.2
		s-5.9-44.6-49.8-49.2c-17.6-1.8-31.2,3.7-41,11v79.4h0.9c-0.3,0-0.6,0.1-0.9,0.1v127.4h147.9h0h140l7.5,0.5 M21.8-1606
		c0,0-4.4-1.6-10.7-2.3h11.8C22.1-1606.9,21.8-1606,21.8-1606z M130-1607.1c-0.2-0.4-0.3-0.8-0.5-1.2h1.2
		C130.5-1607.9,130.2-1607.5,130-1607.1z"/>
</g>
<g class="st3">
	<polyline class="st4" points="51.9,-1734.5 41.7,-1619 91.4,-1713.4 	"/>
	<polyline class="st4" points="-8.6,-1555.5 14.7,-1527.5 -8.6,-1492 	"/>
	<polyline class="st4" points="136.4,-1654.3 168.5,-1583.3 140.1,-1567.1 109.7,-1577.2 133,-1635.1 140.1,-1567.1 182.1,-1539.7 
		201.5,-1583.3 168.5,-1647.2 	"/>
	<polyline class="st4" points="200,-1679.7 201.5,-1583.3 168.5,-1583.3 	"/>
	<polyline class="st4" points="219.2,-1493.5 201.5,-1583.3 243.6,-1686.5 254.8,-1583.3 219.2,-1493.5 182.1,-1539.7 
		140.1,-1516.4 140.1,-1567.1 78.3,-1492 14.7,-1527.5 	"/>
	<polyline class="st4" points="182.1,-1539.7 185,-1492 140.1,-1516.4 78.3,-1492 	"/>
	<polyline class="st4" points="254.8,-1583.3 292.8,-1603.4 338.9,-1603.4 	"/>
	<polyline class="st4" points="286.2,-1644.8 292.8,-1603.4 309,-1539.7 338.9,-1603.4 286.2,-1644.8 254.8,-1583.3 278.1,-1493.5 
		309,-1539.7 254.8,-1583.3 227.4,-1574.7 201.5,-1583.3 	"/>
	<polyline class="st4" points="304.4,-1686.5 338.9,-1603.4 356.2,-1686.5 	"/>
	<polyline class="st4" points="309,-1539.7 338.9,-1493.5 382,-1509.7 396.9,-1559.5 338.9,-1603.4 396.9,-1661.4 396.9,-1559.5 
		346,-1531.6 307.8,-1537.8 	"/>
	<path class="st4" d="M396.9-1661.4"/>
	<line class="st4" x1="346" y1="-1531.6" x2="338.9" y2="-1603.4"/>
	<polyline class="st4" points="-8.6,-1601.1 41.7,-1619 54.9,-1573.3 	"/>
	<polyline class="st4" points="421.8,-1531.6 382,-1509.7 390.7,-1492 	"/>
	<path class="st4" d="M417-1623.2"/>
	<polyline class="st4" points="451.5,-1686.5 451.5,-1658.7 424.1,-1634.7 396.9,-1661.4 	"/>
	<polyline class="st4" points="553.5,-1628.4 535,-1589.2 502.9,-1573.9 479.2,-1611.1 	"/>
	<polyline class="st4" points="503.2,-1675.6 489.4,-1645 451.5,-1658.7 479.2,-1611.1 449.5,-1534.6 502.9,-1573.9 558.4,-1543.8 
		535,-1589.2 544.8,-1654.3 479.2,-1611.1 489.4,-1645 514.4,-1649.3 	"/>
	<polyline class="st4" points="338.9,-1493.5 346,-1531.6 382,-1509.7 428.9,-1492 449.5,-1534.6 421.8,-1531.6 396.9,-1559.5 
		412.3,-1573.9 424.1,-1634.7 479.2,-1611.1 412.3,-1573.9 421.8,-1531.6 	"/>
	<polyline class="st4" points="568.7,-1644.2 568.7,-1605.1 535,-1589.2 	"/>
	<polyline class="st4" points="502.9,-1531.6 449.5,-1534.6 412.3,-1573.9 	"/>
	<polyline class="st4" points="449.5,-1534.6 472.5,-1492 503.9,-1531.6 	"/>
	<polygon class="st4" points="503.9,-1531.6 543.5,-1506.7 524.2,-1492 	"/>
	<polyline class="st4" points="568.7,-1605.1 595.2,-1572.5 558.4,-1543.8 503.9,-1531.6 502.9,-1573.9 	"/>
	<polygon class="st4" points="543.5,-1506.7 558.4,-1543.8 562.8,-1492 	"/>
	<path class="st2" d="M595.2-1572.5"/>
	<polyline class="st4" points="636.1,-1644.2 678.7,-1634.7 710.2,-1640.1 710.2,-1649.3 	"/>
	<polyline class="st4" points="683.8,-1687.8 678.7,-1634.7 672.3,-1563.4 699,-1523.2 772,-1492 728.8,-1573.9 752.8,-1649.3 
		787.2,-1616.7 822.7,-1691.9 844.4,-1609.7 	"/>
	<polyline class="st4" points="586.4,-1671.6 636.1,-1644.2 630,-1685.8 	"/>
	<polyline class="st4" points="710.2,-1639.1 728.8,-1573.9 678.7,-1634.7 	"/>
	<line class="st4" x1="636.1" y1="-1644.2" x2="602" y2="-1534.6"/>
	<polyline class="st4" points="616.7,-1582 672.3,-1563.4 637.6,-1643.9 	"/>
	<polyline class="st4" points="672.3,-1563.4 670.3,-1492 699,-1523.2 728.8,-1573.9 672.3,-1563.4 602,-1534.6 595.2,-1572.5 
		586.4,-1644.2 616.7,-1582 	"/>
	<polyline class="st4" points="602,-1534.6 621.6,-1500.9 670.3,-1492 	"/>
	<polyline class="st4" points="670.3,-1562.5 621.6,-1500.9 562.8,-1492 602,-1534.6 558.4,-1543.8 	"/>
	<polyline class="st4" points="787.2,-1616.7 819.7,-1563.4 844.4,-1609.7 900.2,-1576.6 859.3,-1629.3 857.2,-1654.3 
		910.7,-1634.7 941.1,-1655.3 970.5,-1649.3 1020.9,-1663.5 1071.6,-1639.8 1084.4,-1673.3 1064.1,-1686.8 	"/>
	<polyline class="st4" points="819.7,-1563.4 788.7,-1572 728.8,-1573.9 787.2,-1616.7 844.4,-1609.7 859.3,-1629.3 910.7,-1634.7 
		901.9,-1689.8 	"/>
	<path class="st2" d="M819.7-1563.4"/>
	<polyline class="st4" points="802.8,-1511.3 819.7,-1563.4 846.4,-1492 861.6,-1553.4 918.1,-1492 900.2,-1575.2 862.3,-1553.2 
		819.7,-1563.4 772,-1492 788.7,-1572 787.2,-1616.7 	"/>
	<line class="st4" x1="878.5" y1="-1513.3" x2="862.3" y2="-1553.2"/>
	<line class="st4" x1="941.6" y1="-1689.8" x2="941.1" y2="-1655.3"/>
	<polyline class="st4" points="951.3,-1563.4 983.3,-1535.4 995.9,-1591.1 951.3,-1563.4 900.2,-1575.2 910.7,-1634.7 
		946.7,-1622.4 970.5,-1649.3 995.9,-1591.1 946.7,-1622.4 951.3,-1563.4 918.1,-1492 878.5,-1513.3 846.4,-1492 802.8,-1511.3 
		772,-1492 	"/>
	<polyline class="st4" points="983.3,-1535.4 1019.8,-1521 987.3,-1492 983.3,-1535.4 918.1,-1492 	"/>
	<polyline class="st4" points="995.9,-1592.2 1020.9,-1663.5 1017.5,-1687.8 	"/>
	<line class="st4" x1="971.8" y1="-1661.4" x2="970.5" y2="-1649.3"/>
	<polyline class="st4" points="1084.4,-1673.3 1116.4,-1667 1109.8,-1686.8 	"/>
	<polyline class="st4" points="54.9,-1573.3 78.3,-1492 109.7,-1577.2 54.9,-1573.3 14.7,-1527.5 41.7,-1619 91.4,-1671.6 
		109.7,-1577.2 41.7,-1619 -8.6,-1713.4 51.9,-1734.5 91.4,-1713.4 91.4,-1671.6 122.8,-1668.5 133,-1635.1 136.4,-1654.3 
		168.5,-1647.2 200,-1679.7 243.6,-1686.5 286.2,-1644.8 304.4,-1686.5 356.2,-1686.5 396.9,-1661.4 451.5,-1686.5 503.2,-1675.6 
		514.4,-1649.3 544.8,-1654.3 553.5,-1628.4 568.7,-1644.2 586.4,-1644.2 586.4,-1671.6 630,-1685.8 683.8,-1687.8 710.2,-1649.3 
		729.4,-1669.5 752.8,-1649.3 822.7,-1691.9 857.2,-1654.3 901.9,-1689.8 941.6,-1689.8 971.8,-1661.4 1017.5,-1687.8 
		1064.1,-1661.4 1064.1,-1686.8 1109.8,-1686.8 1135.1,-1744.6 1199,-1713.4 1156.4,-1714.2 1199,-1676.9 1172.2,-1607.9 
		1116.4,-1667 1156.4,-1714.2 1135.1,-1744.6 	"/>
	<polyline class="st4" points="1199,-1676.9 1160.5,-1655.3 1116.4,-1667 1071.6,-1639.8 1064.1,-1663.5 	"/>
	<polyline class="st4" points="1156.4,-1714.2 1160.5,-1655.3 1172.2,-1607.9 1206.4,-1628 	"/>
	<polyline class="st4" points="1116.4,-1667 1111.8,-1640 1134.6,-1573.2 1172.4,-1516.6 1203.6,-1492 	"/>
	<polyline class="st4" points="1111.8,-1640 1097.4,-1596.5 1134.6,-1573.2 1097.4,-1535.4 1124.1,-1492 	"/>
	<polyline class="st4" points="1019.8,-1521 1046.6,-1558 1097.4,-1535.4 1097.4,-1596.5 1071.6,-1639.8 1047.4,-1594 
		995.9,-1591.1 1046.6,-1558 1047.4,-1594 	"/>
	<polyline class="st4" points="1097.4,-1596.5 1047.4,-1594 1097.4,-1535.4 1092.5,-1489.5 1046.6,-1558 1039,-1492 1019.8,-1521 
		995.9,-1591.1 1071.6,-1639.8 1111.8,-1640 1172.2,-1607.9 1199,-1582.8 1172.4,-1516.6 1172.2,-1607.9 1134.6,-1573.2 
		1124,-1491.5 1172.4,-1516.6 	"/>
</g>
<g>
	<line class="st5" x1="147.1" y1="-1556" x2="1207.8" y2="-1556"/>
	<circle class="st5" cx="147.1" cy="-1556" r="10.1"/>
	<circle cx="147.1" cy="-1556" r="5.7"/>
	<polygon points="300.2,-1547.4 295.5,-1556 300.2,-1564.5 304.9,-1556 	"/>
	<polygon points="452.7,-1547.4 448,-1556 452.7,-1564.5 457.5,-1556 	"/>
	<polygon points="616.2,-1547.4 611.5,-1556 616.2,-1564.5 620.9,-1556 	"/>
	<polygon points="779.6,-1547.4 774.9,-1556 779.6,-1564.5 784.3,-1556 	"/>
	<polygon points="943,-1547.4 938.3,-1556 943,-1564.5 947.8,-1556 	"/>
	<polygon points="1106.5,-1547.4 1101.8,-1556 1106.5,-1564.5 1111.2,-1556 	"/>
	<rect x="404.6" y="-1535.8" style="fill:none;" width="95.9" height="18"/>
	<text transform="matrix(1 0 0 1 418.3132 -1526.5665)" style="font-family:'MyriadPro-Regular'; font-size:13.0748;">LUMINOSITÉ</text>
	<rect x="252" y="-1535.8" style="fill:none;" width="95.9" height="18"/>
	<text transform="matrix(1 0 0 1 259.8186 -1526.5665)" style="font-family:'MyriadPro-Regular'; font-size:13.0748;">TEMPÉRATURE</text>
	<rect x="1058.3" y="-1535.8" style="fill:none;" width="95.9" height="18"/>
	<text transform="matrix(1 0 0 1 1072.053 -1526.5665)" style="font-family:'MyriadPro-Regular'; font-size:13.0748;">LUMINOSITÉ</text>
	<rect x="894.9" y="-1535.8" style="fill:none;" width="95.9" height="18"/>
	<text transform="matrix(1 0 0 1 908.6179 -1526.5665)" style="font-family:'MyriadPro-Regular'; font-size:13.0748;">LUMINOSITÉ</text>
	<rect x="731.4" y="-1535.8" style="fill:none;" width="95.9" height="18"/>
	<text transform="matrix(1 0 0 1 751.6814 -1526.5665)" style="font-family:'MyriadPro-Regular'; font-size:13.0748;">HUMIDITÉ</text>
	<rect x="568" y="-1535.8" style="fill:none;" width="95.9" height="18"/>
	<text transform="matrix(1 0 0 1 577.6038 -1526.5665)" style="font-family:'MyriadPro-Regular'; font-size:13.0748;">TEMPORALITÉ</text>
	<g>
		<g>
			<g>
				<path class="st6" d="M457.6-1585.3c-0.3,6.4-9.6,6.4-10,0c-0.2-2.8,2.4-4.9,5-5C455.4-1590.4,457.4-1587.9,457.6-1585.3
					c0,0.6,1,0.6,1,0c-0.2-3.4-2.6-5.8-6-6c-3.4-0.2-5.8,2.9-6,6c-0.2,3.4,2.9,5.8,6,6c3.4,0.2,5.8-2.9,6-6
					C458.6-1585.9,457.6-1585.9,457.6-1585.3z"/>
			</g>
		</g>
		<g>
			<g>
				<g>
					<path class="st6" d="M452.2-1576.5c0,1.4,0,2.9,0,4.3c0,0.5,0.8,0.5,0.8,0c0-1.4,0-2.9,0-4.3C453-1577,452.2-1577,452.2-1576.5
						L452.2-1576.5z"/>
				</g>
			</g>
			<g>
				<g>
					<path class="st6" d="M452.2-1598.2c0,1.4,0,2.9,0,4.3c0,0.5,0.8,0.5,0.8,0c0-1.4,0-2.9,0-4.3
						C453-1598.7,452.2-1598.7,452.2-1598.2L452.2-1598.2z"/>
				</g>
			</g>
		</g>
		<g>
			<g>
				<g>
					<path class="st6" d="M443.9-1585.6c-1.4,0-2.9,0-4.3,0c-0.5,0-0.5,0.8,0,0.8c1.4,0,2.9,0,4.3,0
						C444.4-1584.8,444.4-1585.6,443.9-1585.6L443.9-1585.6z"/>
				</g>
			</g>
			<g>
				<g>
					<path class="st6" d="M465.6-1585.6c-1.4,0-2.9,0-4.3,0c-0.5,0-0.5,0.8,0,0.8c1.4,0,2.9,0,4.3,0
						C466.1-1584.8,466.1-1585.6,465.6-1585.6L465.6-1585.6z"/>
				</g>
			</g>
		</g>
		<g>
			<g>
				<g>
					<path class="st6" d="M446.7-1591.6c-1-1-2-2-3.1-3.1c-0.3-0.3-0.9,0.2-0.5,0.5c1,1,2,2,3.1,3.1
						C446.5-1590.7,447-1591.2,446.7-1591.6L446.7-1591.6z"/>
				</g>
			</g>
			<g>
				<g>
					<path class="st6" d="M462.1-1576.2c-1-1-2-2-3.1-3.1c-0.3-0.3-0.9,0.2-0.5,0.5c1,1,2,2,3.1,3.1
						C461.9-1575.4,462.4-1575.9,462.1-1576.2L462.1-1576.2z"/>
				</g>
			</g>
		</g>
		<g>
			<g>
				<g>
					<path class="st6" d="M446.2-1579.3c-1,1-2,2-3.1,3.1c-0.3,0.3,0.2,0.9,0.5,0.5c1-1,2-2,3.1-3.1
						C447-1579.1,446.5-1579.6,446.2-1579.3L446.2-1579.3z"/>
				</g>
			</g>
			<g>
				<g>
					<path class="st6" d="M461.5-1594.7c-1,1-2,2-3.1,3.1c-0.3,0.3,0.2,0.9,0.5,0.5c1-1,2-2,3.1-3.1
						C462.4-1594.5,461.9-1595,461.5-1594.7L461.5-1594.7z"/>
				</g>
			</g>
		</g>
	</g>
	<g>
		<g>
			<path class="st7" d="M296.4-1581.7c-1.4,0.9-2.4,2.4-2.4,4.2c0,2.7,2.2,5,5,5c2.7,0,5-2.2,5-5c0-1.8-1-3.4-2.4-4.2v-13.9
				c0-1.4-1.2-2.6-2.6-2.6c-1.4,0-2.6,1.2-2.6,2.6V-1581.7z"/>
		</g>
		<g>
			<circle class="st8" cx="298.9" cy="-1577.5" r="3.1"/>
			<rect x="297.9" y="-1583.3" class="st8" width="2" height="4.3"/>
		</g>
		<line class="st7" x1="293.2" y1="-1591.7" x2="288.1" y2="-1591.7"/>
		<line class="st7" x1="293.2" y1="-1588.3" x2="289.8" y2="-1588.3"/>
		<line class="st7" x1="293.2" y1="-1584.9" x2="288.1" y2="-1584.9"/>
	</g>
	<g>
		<g>
			<g>
				<path class="st6" d="M1110.6-1585.3c-0.3,6.4-9.6,6.4-10,0c-0.2-2.8,2.4-4.9,5-5C1108.4-1590.4,1110.4-1587.9,1110.6-1585.3
					c0,0.6,1,0.6,1,0c-0.2-3.4-2.6-5.8-6-6c-3.4-0.2-5.8,2.9-6,6c-0.2,3.4,2.9,5.8,6,6c3.4,0.2,5.8-2.9,6-6
					C1111.6-1585.9,1110.6-1585.9,1110.6-1585.3z"/>
			</g>
		</g>
		<g>
			<g>
				<g>
					<path class="st6" d="M1105.2-1576.5c0,1.4,0,2.9,0,4.3c0,0.5,0.8,0.5,0.8,0c0-1.4,0-2.9,0-4.3
						C1106-1577,1105.2-1577,1105.2-1576.5L1105.2-1576.5z"/>
				</g>
			</g>
			<g>
				<g>
					<path class="st6" d="M1105.2-1598.2c0,1.4,0,2.9,0,4.3c0,0.5,0.8,0.5,0.8,0c0-1.4,0-2.9,0-4.3
						C1106-1598.7,1105.2-1598.7,1105.2-1598.2L1105.2-1598.2z"/>
				</g>
			</g>
		</g>
		<g>
			<g>
				<g>
					<path class="st6" d="M1096.9-1585.6c-1.4,0-2.9,0-4.3,0c-0.5,0-0.5,0.8,0,0.8c1.4,0,2.9,0,4.3,0
						C1097.4-1584.8,1097.4-1585.6,1096.9-1585.6L1096.9-1585.6z"/>
				</g>
			</g>
			<g>
				<g>
					<path class="st6" d="M1118.6-1585.6c-1.4,0-2.9,0-4.3,0c-0.5,0-0.5,0.8,0,0.8c1.4,0,2.9,0,4.3,0
						C1119.1-1584.8,1119.1-1585.6,1118.6-1585.6L1118.6-1585.6z"/>
				</g>
			</g>
		</g>
		<g>
			<g>
				<g>
					<path class="st6" d="M1099.7-1591.6c-1-1-2-2-3.1-3.1c-0.3-0.3-0.9,0.2-0.5,0.5c1,1,2,2,3.1,3.1
						C1099.5-1590.7,1100-1591.2,1099.7-1591.6L1099.7-1591.6z"/>
				</g>
			</g>
			<g>
				<g>
					<path class="st6" d="M1115.1-1576.2c-1-1-2-2-3.1-3.1c-0.3-0.3-0.9,0.2-0.5,0.5c1,1,2,2,3.1,3.1
						C1114.9-1575.4,1115.4-1575.9,1115.1-1576.2L1115.1-1576.2z"/>
				</g>
			</g>
		</g>
		<g>
			<g>
				<g>
					<path class="st6" d="M1099.2-1579.3c-1,1-2,2-3.1,3.1c-0.3,0.3,0.2,0.9,0.5,0.5c1-1,2-2,3.1-3.1
						C1100-1579.1,1099.5-1579.6,1099.2-1579.3L1099.2-1579.3z"/>
				</g>
			</g>
			<g>
				<g>
					<path class="st6" d="M1114.5-1594.7c-1,1-2,2-3.1,3.1c-0.3,0.3,0.2,0.9,0.5,0.5c1-1,2-2,3.1-3.1
						C1115.4-1594.5,1114.9-1595,1114.5-1594.7L1114.5-1594.7z"/>
				</g>
			</g>
		</g>
	</g>
	<g>
		<g>
			<path class="st7" d="M939.4-1581.7c-1.4,0.9-2.4,2.4-2.4,4.2c0,2.7,2.2,5,5,5c2.7,0,5-2.2,5-5c0-1.8-1-3.4-2.4-4.2v-13.9
				c0-1.4-1.2-2.6-2.6-2.6c-1.4,0-2.6,1.2-2.6,2.6V-1581.7z"/>
		</g>
		<g>
			<circle class="st8" cx="941.9" cy="-1577.5" r="3.1"/>
			<rect x="940.9" y="-1583.3" class="st8" width="2" height="4.3"/>
		</g>
		<line class="st7" x1="936.2" y1="-1591.7" x2="931.1" y2="-1591.7"/>
		<line class="st7" x1="936.2" y1="-1588.3" x2="932.8" y2="-1588.3"/>
		<line class="st7" x1="936.2" y1="-1584.9" x2="931.1" y2="-1584.9"/>
	</g>
	<g>
		<path class="st7" d="M621.9-1589.5c3.5,3.1,3.8,8.5,0.7,12s-8.5,3.8-12,0.7c-3.5-3.1-3.8-8.5-0.7-12"/>
		<polyline class="st7" points="616.3,-1588.7 616.3,-1582.1 612.1,-1577.8 		"/>
		<line class="st7" x1="616.3" y1="-1577.8" x2="616.3" y2="-1575.7"/>
		<line class="st7" x1="621.3" y1="-1582.1" x2="623.4" y2="-1582.1"/>
		<line class="st7" x1="609.2" y1="-1582.1" x2="611.2" y2="-1582.1"/>
		<line class="st7" x1="619.6" y1="-1578.8" x2="621.1" y2="-1577.3"/>
		<line class="st7" x1="620.3" y1="-1586.2" x2="621.8" y2="-1587.6"/>
		<g>
			<g>
				<path class="st8" d="M606.6-1588.4c1.2-0.2,2.4-0.3,3.6-0.5c-0.1-0.1-0.2-0.2-0.4-0.4c0.1,1.3,0.2,2.6,0.2,3.9
					c0,0.5,0.8,0.5,0.8,0c-0.1-1.3-0.2-2.6-0.2-3.9c0-0.2-0.2-0.4-0.4-0.4c-1.2,0.2-2.4,0.3-3.6,0.5
					C606.1-1589,606.1-1588.3,606.6-1588.4L606.6-1588.4z"/>
			</g>
		</g>
	</g>
	<g>
		<path class="st7" d="M781.1-1580c0.1,0.6,0,1.2-0.1,1.7c-0.3,1.1-1.1,2.1-2.1,2.7c-1.8,1-4.1,0.7-5.5-0.7
			c-1.4-1.4-1.7-3.7-0.7-5.4c0,0,0,0,0,0l3.6-6.3c0.1-0.1,0.3-0.2,0.4-0.2c0,0,0,0,0,0c0.1,0,0.1,0.1,0.1,0.1l3.6,6.3
			C780.8-1581.1,781-1580.6,781.1-1580z"/>
		<path class="st7" d="M782.7-1583.3c-1.8-0.9-2.4-3.3-1.3-5l2.6-4.6c0.1-0.2,0.5-0.2,0.6,0l2.6,4.6c0.4,0.5,0.5,1.2,0.5,1.9
			c0,0.6-0.2,1.2-0.5,1.7C786.5-1583.1,784.4-1582.4,782.7-1583.3z"/>
		<path class="st7" d="M774.8-1580.6c0,0-1,2.5,1.2,3.3"/>
		<path class="st7" d="M782.9-1587.4c0,0-0.8,2.1,1,2.7"/>
	</g>
</g>
<g>
	<circle class="st9" cx="150.2" cy="-1977.2" r="28.3"/>
	<line class="st10" x1="150.2" y1="-2033.2" x2="150.2" y2="-1921.2"/>
	<line class="st10" x1="94.2" y1="-1977.2" x2="206.2" y2="-1977.2"/>
	<line class="st10" x1="110.6" y1="-2016.8" x2="189.8" y2="-1937.6"/>
	<line class="st10" x1="110.6" y1="-1937.6" x2="189.8" y2="-2016.8"/>
</g>
<linearGradient id="SVGID_2_" gradientUnits="userSpaceOnUse" x1="1504.0469" y1="1451.7325" x2="2104.0471" y2="1451.7325" gradientTransform="matrix(4.489700e-11 -1 1 4.489700e-11 -811.7324 2092.2825)">
	<stop  offset="0" style="stop-color:#C8C7C6"/>
	<stop  offset="0.3296" style="stop-color:#DBD8C4"/>
	<stop  offset="0.7286" style="stop-color:#EDE8C2"/>
	<stop  offset="1" style="stop-color:#F3EEC1"/>
</linearGradient>
<rect x="0" y="0" class="st11" width="1280" height="600"/>
<linearGradient id="SVGID_3_" gradientUnits="userSpaceOnUse" x1="877.2209" y1="1451.7325" x2="1477.2211" y2="1451.7325" gradientTransform="matrix(4.489700e-11 -1 1 4.489700e-11 -811.7324 2092.2825)">
	<stop  offset="0" style="stop-color:#E2D0CA"/>
	<stop  offset="1" style="stop-color:#98D3DD"/>
</linearGradient>
<rect x="0" y="615.1" class="st12" width="1280" height="600"/>
<linearGradient id="SVGID_4_" gradientUnits="userSpaceOnUse" x1="265.5739" y1="1451.7325" x2="865.574" y2="1451.7325" gradientTransform="matrix(4.489700e-11 -1 1 4.489700e-11 -811.7324 2092.2825)">
	<stop  offset="0" style="stop-color:#F4B59C"/>
	<stop  offset="0.1437" style="stop-color:#D6B8A7"/>
	<stop  offset="0.3445" style="stop-color:#ADB7B2"/>
	<stop  offset="0.5367" style="stop-color:#87B3BA"/>
	<stop  offset="0.7152" style="stop-color:#65AEBE"/>
	<stop  offset="0.8749" style="stop-color:#49AAC0"/>
	<stop  offset="1" style="stop-color:#3DA9C0"/>
</linearGradient>
<rect y="1233.1" class="st13" width="1280" height="600"/>
<linearGradient id="SVGID_5_" gradientUnits="userSpaceOnUse" x1="265.5739" y1="1451.7323" x2="865.574" y2="1451.7323" gradientTransform="matrix(4.489700e-11 -1 1 4.489700e-11 -811.7324 2092.2825)">
	<stop  offset="0" style="stop-color:#869498"/>
	<stop  offset="8.478856e-02" style="stop-color:#6B99A3"/>
	<stop  offset="0.196" style="stop-color:#489CAE"/>
	<stop  offset="0.3213" style="stop-color:#179CB5"/>
	<stop  offset="0.4667" style="stop-color:#009CB9"/>
	<stop  offset="0.6507" style="stop-color:#009CBB"/>
	<stop  offset="1" style="stop-color:#009BBC"/>
</linearGradient>
<rect x="0" y="1233.1" class="st14" width="1280" height="600"/>
<linearGradient id="SVGID_6_" gradientUnits="userSpaceOnUse" x1="-358.4885" y1="1451.7325" x2="241.5116" y2="1451.7325" gradientTransform="matrix(4.489700e-11 -1 1 4.489700e-11 -811.7324 2092.2825)">
	<stop  offset="0" style="stop-color:#F4B59C"/>
	<stop  offset="0.1437" style="stop-color:#D6B8A7"/>
	<stop  offset="0.3445" style="stop-color:#ADB7B2"/>
	<stop  offset="0.5367" style="stop-color:#87B3BA"/>
	<stop  offset="0.7152" style="stop-color:#65AEBE"/>
	<stop  offset="0.8749" style="stop-color:#49AAC0"/>
	<stop  offset="1" style="stop-color:#3DA9C0"/>
</linearGradient>
<rect y="1857.2" class="st15" width="1280" height="600"/>
<linearGradient id="SVGID_7_" gradientUnits="userSpaceOnUse" x1="-358.4885" y1="1451.7323" x2="241.5118" y2="1451.7323" gradientTransform="matrix(4.489700e-11 -1 1 4.489700e-11 -811.7324 2092.2825)">
	<stop  offset="0" style="stop-color:#F7AE81"/>
	<stop  offset="0.2374" style="stop-color:#D9907D"/>
	<stop  offset="0.5303" style="stop-color:#BE7576"/>
	<stop  offset="0.7936" style="stop-color:#AF6672"/>
	<stop  offset="1" style="stop-color:#A96170"/>
</linearGradient>
<rect x="0" y="1857.2" class="st16" width="1280" height="600"/>
<linearGradient id="SVGID_8_" gradientUnits="userSpaceOnUse" x1="-358.4885" y1="1451.7323" x2="241.5118" y2="1451.7323" gradientTransform="matrix(4.489700e-11 -1 1 4.489700e-11 -811.7324 2092.2825)">
	<stop  offset="0" style="stop-color:#F7AE81"/>
	<stop  offset="0.2374" style="stop-color:#D9907D"/>
	<stop  offset="0.5303" style="stop-color:#BE7576"/>
	<stop  offset="0.7936" style="stop-color:#AF6672"/>
	<stop  offset="1" style="stop-color:#A96170"/>
</linearGradient>
<rect x="0" y="1857.2" class="st17" width="1280" height="600"/>
<linearGradient id="SVGID_9_" gradientUnits="userSpaceOnUse" x1="-970.5497" y1="1451.7325" x2="-370.5496" y2="1451.7325" gradientTransform="matrix(4.489700e-11 -1 1 4.489700e-11 -811.7324 2092.2825)">
	<stop  offset="0" style="stop-color:#F4B59C"/>
	<stop  offset="0.1437" style="stop-color:#D6B8A7"/>
	<stop  offset="0.3445" style="stop-color:#ADB7B2"/>
	<stop  offset="0.5367" style="stop-color:#87B3BA"/>
	<stop  offset="0.7152" style="stop-color:#65AEBE"/>
	<stop  offset="0.8749" style="stop-color:#49AAC0"/>
	<stop  offset="1" style="stop-color:#3DA9C0"/>
</linearGradient>
<rect y="2469.2" class="st18" width="1280" height="600"/>
<linearGradient id="SVGID_10_" gradientUnits="userSpaceOnUse" x1="-970.4208" y1="1451.7323" x2="-358.3594" y2="1451.7323" gradientTransform="matrix(4.489700e-11 -1 1 4.489700e-11 -811.7324 2092.2825)">
	<stop  offset="0" style="stop-color:#E1AEA8"/>
	<stop  offset="5.368674e-02" style="stop-color:#D6A5A3"/>
	<stop  offset="0.2758" style="stop-color:#AC858F"/>
	<stop  offset="0.4881" style="stop-color:#8C6E80"/>
	<stop  offset="0.6853" style="stop-color:#756077"/>
	<stop  offset="0.8617" style="stop-color:#675872"/>
	<stop  offset="1" style="stop-color:#625570"/>
</linearGradient>
<rect x="0" y="2457.2" class="st19" width="1280" height="612.1"/>
<linearGradient id="SVGID_11_" gradientUnits="userSpaceOnUse" x1="-1591.6118" y1="1451.7322" x2="-991.6117" y2="1451.7322" gradientTransform="matrix(4.489700e-11 -1 1 4.489700e-11 -811.7324 2092.2825)">
	<stop  offset="0" style="stop-color:#553D69"/>
	<stop  offset="0.1392" style="stop-color:#47305B"/>
	<stop  offset="0.3902" style="stop-color:#322047"/>
	<stop  offset="0.6251" style="stop-color:#25183B"/>
	<stop  offset="0.8353" style="stop-color:#1D1535"/>
	<stop  offset="1" style="stop-color:#1A1333"/>
</linearGradient>
<rect x="0" y="3090.3" class="st20" width="1280" height="600"/>
<linearGradient id="SVGID_12_" gradientUnits="userSpaceOnUse" x1="-2212.6741" y1="1451.7319" x2="-1612.6738" y2="1451.7319" gradientTransform="matrix(4.489700e-11 -1 1 4.489700e-11 -811.7324 2092.2825)">
	<stop  offset="0" style="stop-color:#2F3668"/>
	<stop  offset="9.947407e-02" style="stop-color:#2C2F5E"/>
	<stop  offset="0.3621" style="stop-color:#242149"/>
	<stop  offset="0.6078" style="stop-color:#1F193C"/>
	<stop  offset="0.8277" style="stop-color:#1C1535"/>
	<stop  offset="1" style="stop-color:#1A1333"/>
</linearGradient>
<rect x="0" y="3711.4" class="st21" width="1280" height="600"/>
</svg>
