<?xml version="1.0" encoding="utf-8"?>
<!-- Generator: Adobe Illustrator 17.0.0, SVG Export Plug-In . SVG Version: 6.00 Build 0)  -->
<!DOCTYPE svg PUBLIC "-//W3C//DTD SVG 1.1//EN" "http://www.w3.org/Graphics/SVG/1.1/DTD/svg11.dtd">
<svg version="1.1" id="Calque_1" xmlns="http://www.w3.org/2000/svg" xmlns:xlink="http://www.w3.org/1999/xlink" x="0px" y="0px"
	 width="1280px" height="600px" viewBox="0 0 1280 600" style="enable-background:new 0 0 1280 600;" xml:space="preserve">
<style type="text/css">
	.st0{fill:url(#SVGID_1_);}
	.st1{opacity:0.3;}
	.st2{fill:#FFFFFF;}
	.st3{opacity:0.7;}
	.st4{fill:none;stroke:#FFFFFF;stroke-miterlimit:10;}
	.st5{fill:none;stroke:#000000;stroke-miterlimit:10;}
	.st6{fill:#14130B;}
	.st7{fill:none;stroke:#13130A;stroke-width:0.75;stroke-miterlimit:10;}
	.st8{fill:#13130A;}
	.st9{fill:#FFF0BC;}
	.st10{fill:none;stroke:#FFF0BC;stroke-width:2;stroke-miterlimit:10;}
	.st11{fill:url(#SVGID_2_);}
	.st12{fill:url(#SVGID_3_);}
	.st13{opacity:0.3;fill:url(#SVGID_4_);}
	.st14{opacity:0.3;fill:url(#SVGID_5_);}
	.st15{opacity:0.3;fill:url(#SVGID_6_);}
	.st16{opacity:0.4;fill:url(#SVGID_7_);}
	.st17{opacity:0.4;fill:url(#SVGID_8_);}
	.st18{opacity:0.3;fill:url(#SVGID_9_);}
	.st19{opacity:0.73;fill:url(#SVGID_10_);}
	.st20{opacity:0.85;fill:url(#SVGID_11_);}
	.st21{opacity:0.98;fill:url(#SVGID_12_);}
</style>
<linearGradient id="SVGID_1_" gradientUnits="userSpaceOnUse" x1="3599.0979" y1="-1062.2396" x2="4440.9878" y2="-1062.2396" gradientTransform="matrix(4.489700e-11 -1 1 4.489700e-11 1657.5145 -376.9645)">
	<stop  offset="0" style="stop-color:#C8C7C6"/>
	<stop  offset="0.3296" style="stop-color:#DBD8C4"/>
	<stop  offset="0.7286" style="stop-color:#EDE8C2"/>
	<stop  offset="1" style="stop-color:#F3EEC1"/>
</linearGradient>
<rect x="0" y="-4801.4" class="st0" width="1190.5" height="841.9"/>
<g class="st1">
	<path class="st2" d="M21.8-4075.3c0,0,0.4-0.8,1.1-2.3H11.1C17.3-4076.9,21.8-4075.3,21.8-4075.3z"/>
	<path class="st2" d="M130-4076.4c0.2-0.4,0.5-0.8,0.7-1.2h-1.2C129.7-4077.2,129.8-4076.8,130-4076.4z"/>
	<path class="st2" d="M932-4023.6h-2.2c0.4,0.5,0.8,1.1,1.2,1.6C931.3-4022.5,931.6-4023,932-4023.6z"/>
	<path class="st2" d="M0-4077.6v0.1c0.3,0,0.6-0.1,0.9-0.1H0z"/>
	<path class="st2" d="M295.4-3950.1l202.5,0.5l0-0.5h80.4h70l0,0.5l137.1-0.5h65.4h31.6h105.5h39.5l0,0h163.1v-199.5
		c-6.4-4.2-14.5-7.4-24.5-8.4c-43.9-4.6-62.3,36.7-62.3,36.7s-26.2-9.5-41.9,8.3c-3.3,3.8-5.8,7.7-7.6,11.7
		c-7.2-6.3-17-11.4-30.2-12.8c-33.5-3.5-52.1,19.7-59.1,30.9c-2.8-11.3-13.4-41.2-48.9-44.9c-36.2-3.8-55,23.6-60.5,33.3
		c-7.2-10.7-19.4-21.2-39.5-23.3c-43.9-4.6-62.3,36.7-62.3,36.7s1.2-0.3-0.1-0.7c-1.8-3.7-6.1-7.5-9.2-11
		c-15.7-17.9-41.9-8.3-41.9-8.3s-18.4-41.3-62.3-36.7c-43.9,4.6-49.8,49.2-49.8,49.2s-21.3-8.3-30.1,9.2c-0.4,0.9-1.3,1.3-1.9,2
		c-1.7-3.5-4-7-6.9-10.3c-15.7-17.9-41.9-8.3-41.9-8.3s-18.4-41.3-62.3-36.7c-24.6,2.6-41.3,18.7-47.7,31.6l-0.1,0.1
		c0,0-18.4-41.3-62.3-36.7c-43.9,4.6-50.8,49.2-50.8,49.2s0.6-0.1-0.2-0.2c-4.6-13.4-16.8-35.8-47.2-39
		c-43.9-4.6-62.3,36.7-62.3,36.7s-26.2-9.5-41.9,8.3c-1.5,1.7-2.8,3.4-4,5.2c0.3-2,2.5-20.2-9.9-31.9c-13.1-12.5-30.1-9.2-30.1-9.2
		s-5.9-44.6-49.8-49.2c-17.6-1.8-31.2,3.7-41,11v79.4h0.9c-0.3,0-0.6,0.1-0.9,0.1v127.4h147.9h0h140l7.5,0.5 M21.8-4075.3
		c0,0-4.4-1.6-10.7-2.3h11.8C22.1-4076.1,21.8-4075.3,21.8-4075.3z M130-4076.4c-0.2-0.4-0.3-0.8-0.5-1.2h1.2
		C130.5-4077.2,130.2-4076.8,130-4076.4z"/>
</g>
<g class="st3">
	<polyline class="st4" points="51.9,-4203.7 41.7,-4088.3 91.4,-4182.6 	"/>
	<polyline class="st4" points="-8.6,-4024.7 14.7,-3996.8 -8.6,-3961.2 	"/>
	<polyline class="st4" points="136.4,-4123.6 168.5,-4052.6 140.1,-4036.4 109.7,-4046.5 133,-4104.3 140.1,-4036.4 182.1,-4009 
		201.5,-4052.6 168.5,-4116.5 	"/>
	<polyline class="st4" points="200,-4148.9 201.5,-4052.6 168.5,-4052.6 	"/>
	<polyline class="st4" points="219.2,-3962.7 201.5,-4052.6 243.6,-4155.8 254.8,-4052.6 219.2,-3962.7 182.1,-4009 140.1,-3985.6 
		140.1,-4036.4 78.3,-3961.2 14.7,-3996.8 	"/>
	<polyline class="st4" points="182.1,-4009 185,-3961.2 140.1,-3985.6 78.3,-3961.2 	"/>
	<polyline class="st4" points="254.8,-4052.6 292.8,-4072.7 338.9,-4072.7 	"/>
	<polyline class="st4" points="286.2,-4114 292.8,-4072.7 309,-4009 338.9,-4072.7 286.2,-4114 254.8,-4052.6 278.1,-3962.7 
		309,-4009 254.8,-4052.6 227.4,-4044 201.5,-4052.6 	"/>
	<polyline class="st4" points="304.4,-4155.8 338.9,-4072.7 356.2,-4155.8 	"/>
	<polyline class="st4" points="309,-4009 338.9,-3962.7 382,-3979 396.9,-4028.7 338.9,-4072.7 396.9,-4130.7 396.9,-4028.7 
		346,-4000.9 307.8,-4007.1 	"/>
	<path class="st4" d="M396.9-4130.7"/>
	<line class="st4" x1="346" y1="-4000.9" x2="338.9" y2="-4072.7"/>
	<polyline class="st4" points="-8.6,-4070.3 41.7,-4088.3 54.9,-4042.5 	"/>
	<polyline class="st4" points="421.8,-4000.9 382,-3979 390.7,-3961.2 	"/>
	<path class="st4" d="M417-4092.5"/>
	<polyline class="st4" points="451.5,-4155.8 451.5,-4128 424.1,-4104 396.9,-4130.7 	"/>
	<polyline class="st4" points="553.5,-4097.7 535,-4058.5 502.9,-4043.1 479.2,-4080.3 	"/>
	<polyline class="st4" points="503.2,-4144.9 489.4,-4114.2 451.5,-4128 479.2,-4080.3 449.5,-4003.9 502.9,-4043.1 558.4,-4013 
		535,-4058.5 544.8,-4123.6 479.2,-4080.3 489.4,-4114.2 514.4,-4118.5 	"/>
	<polyline class="st4" points="338.9,-3962.7 346,-4000.9 382,-3979 428.9,-3961.2 449.5,-4003.9 421.8,-4000.9 396.9,-4028.7 
		412.3,-4043.1 424.1,-4104 479.2,-4080.3 412.3,-4043.1 421.8,-4000.9 	"/>
	<polyline class="st4" points="568.7,-4113.4 568.7,-4074.4 535,-4058.5 	"/>
	<polyline class="st4" points="502.9,-4000.9 449.5,-4003.9 412.3,-4043.1 	"/>
	<polyline class="st4" points="449.5,-4003.9 472.5,-3961.2 503.9,-4000.9 	"/>
	<polygon class="st4" points="503.9,-4000.9 543.5,-3976 524.2,-3961.2 	"/>
	<polyline class="st4" points="568.7,-4074.4 595.2,-4041.8 558.4,-4013 503.9,-4000.9 502.9,-4043.1 	"/>
	<polygon class="st4" points="543.5,-3976 558.4,-4013 562.8,-3961.2 	"/>
	<path class="st2" d="M595.2-4041.8"/>
	<polyline class="st4" points="636.1,-4113.4 678.7,-4104 710.2,-4109.4 710.2,-4118.5 	"/>
	<polyline class="st4" points="683.8,-4157.1 678.7,-4104 672.3,-4032.6 699,-3992.4 772,-3961.2 728.8,-4043.1 752.8,-4118.5 
		787.2,-4086 822.7,-4161.1 844.4,-4079 	"/>
	<polyline class="st4" points="586.4,-4140.8 636.1,-4113.4 630,-4155 	"/>
	<polyline class="st4" points="710.2,-4108.4 728.8,-4043.1 678.7,-4104 	"/>
	<line class="st4" x1="636.1" y1="-4113.4" x2="602" y2="-4003.9"/>
	<polyline class="st4" points="616.7,-4051.3 672.3,-4032.6 637.6,-4113.1 	"/>
	<polyline class="st4" points="672.3,-4032.6 670.3,-3961.2 699,-3992.4 728.8,-4043.1 672.3,-4032.6 602,-4003.9 595.2,-4041.8 
		586.4,-4113.4 616.7,-4051.3 	"/>
	<polyline class="st4" points="602,-4003.9 621.6,-3970.1 670.3,-3961.2 	"/>
	<polyline class="st4" points="670.3,-4031.8 621.6,-3970.1 562.8,-3961.2 602,-4003.9 558.4,-4013 	"/>
	<polyline class="st4" points="787.2,-4086 819.7,-4032.6 844.4,-4079 900.2,-4045.8 859.3,-4098.6 857.2,-4123.6 910.7,-4104 
		941.1,-4124.6 970.5,-4118.5 1020.9,-4132.7 1071.6,-4109 1084.4,-4142.5 1064.1,-4156 	"/>
	<polyline class="st4" points="819.7,-4032.6 788.7,-4041.3 728.8,-4043.1 787.2,-4086 844.4,-4079 859.3,-4098.6 910.7,-4104 
		901.9,-4159.1 	"/>
	<path class="st2" d="M819.7-4032.6"/>
	<polyline class="st4" points="802.8,-3980.6 819.7,-4032.6 846.4,-3961.2 861.6,-4022.7 918.1,-3961.2 900.2,-4044.5 
		862.3,-4022.5 819.7,-4032.6 772,-3961.2 788.7,-4041.3 787.2,-4086 	"/>
	<line class="st4" x1="878.5" y1="-3982.6" x2="862.3" y2="-4022.5"/>
	<line class="st4" x1="941.6" y1="-4159.1" x2="941.1" y2="-4124.6"/>
	<polyline class="st4" points="951.3,-4032.7 983.3,-4004.7 995.9,-4060.4 951.3,-4032.7 900.2,-4044.5 910.7,-4104 946.7,-4091.6 
		970.5,-4118.5 995.9,-4060.4 946.7,-4091.6 951.3,-4032.7 918.1,-3961.2 878.5,-3982.6 846.4,-3961.2 802.8,-3980.6 772,-3961.2 	
		"/>
	<polyline class="st4" points="983.3,-4004.7 1019.8,-3990.2 987.3,-3961.2 983.3,-4004.7 918.1,-3961.2 	"/>
	<polyline class="st4" points="995.9,-4061.5 1020.9,-4132.7 1017.5,-4157.1 	"/>
	<line class="st4" x1="971.8" y1="-4130.7" x2="970.5" y2="-4118.5"/>
	<polyline class="st4" points="1084.4,-4142.5 1116.4,-4136.3 1109.8,-4156 	"/>
	<polyline class="st4" points="54.9,-4042.5 78.3,-3961.2 109.7,-4046.5 54.9,-4042.5 14.7,-3996.8 41.7,-4088.3 91.4,-4140.8 
		109.7,-4046.5 41.7,-4088.3 -8.6,-4182.6 51.9,-4203.7 91.4,-4182.6 91.4,-4140.8 122.8,-4137.8 133,-4104.3 136.4,-4123.6 
		168.5,-4116.5 200,-4148.9 243.6,-4155.8 286.2,-4114 304.4,-4155.8 356.2,-4155.8 396.9,-4130.7 451.5,-4155.8 503.2,-4144.9 
		514.4,-4118.5 544.8,-4123.6 553.5,-4097.7 568.7,-4113.4 586.4,-4113.4 586.4,-4140.8 630,-4155 683.8,-4157.1 710.2,-4118.5 
		729.4,-4138.8 752.8,-4118.5 822.7,-4161.1 857.2,-4123.6 901.9,-4159.1 941.6,-4159.1 971.8,-4130.7 1017.5,-4157.1 
		1064.1,-4130.7 1064.1,-4156 1109.8,-4156 1135.1,-4213.9 1199,-4182.6 1156.4,-4183.4 1199,-4146.1 1172.2,-4077.2 
		1116.4,-4136.3 1156.4,-4183.4 1135.1,-4213.9 	"/>
	<polyline class="st4" points="1199,-4146.1 1160.5,-4124.6 1116.4,-4136.3 1071.6,-4109 1064.1,-4132.7 	"/>
	<polyline class="st4" points="1156.4,-4183.4 1160.5,-4124.6 1172.2,-4077.2 1206.4,-4097.2 	"/>
	<polyline class="st4" points="1116.4,-4136.3 1111.8,-4109.3 1134.6,-4042.4 1172.4,-3985.9 1203.6,-3961.2 	"/>
	<polyline class="st4" points="1111.8,-4109.3 1097.4,-4065.8 1134.6,-4042.4 1097.4,-4004.7 1124.1,-3961.2 	"/>
	<polyline class="st4" points="1019.8,-3990.2 1046.6,-4027.2 1097.4,-4004.7 1097.4,-4065.8 1071.6,-4109 1047.4,-4063.2 
		995.9,-4060.4 1046.6,-4027.2 1047.4,-4063.2 	"/>
	<polyline class="st4" points="1097.4,-4065.8 1047.4,-4063.2 1097.4,-4004.7 1092.5,-3958.8 1046.6,-4027.2 1039,-3961.2 
		1019.8,-3990.2 995.9,-4060.4 1071.6,-4109 1111.8,-4109.3 1172.2,-4077.2 1199,-4052.1 1172.4,-3985.9 1172.2,-4077.2 
		1134.6,-4042.4 1124,-3960.7 1172.4,-3985.9 	"/>
</g>
<g>
	<line class="st5" x1="147.1" y1="-4025.2" x2="1207.8" y2="-4025.2"/>
	<circle class="st5" cx="147.1" cy="-4025.2" r="10.1"/>
	<circle cx="147.1" cy="-4025.2" r="5.7"/>
	<polygon points="300.2,-4016.7 295.5,-4025.2 300.2,-4033.8 304.9,-4025.2 	"/>
	<polygon points="452.7,-4016.7 448,-4025.2 452.7,-4033.8 457.5,-4025.2 	"/>
	<polygon points="616.2,-4016.7 611.5,-4025.2 616.2,-4033.8 620.9,-4025.2 	"/>
	<polygon points="779.6,-4016.7 774.9,-4025.2 779.6,-4033.8 784.3,-4025.2 	"/>
	<polygon points="943,-4016.7 938.3,-4025.2 943,-4033.8 947.8,-4025.2 	"/>
	<polygon points="1106.5,-4016.7 1101.8,-4025.2 1106.5,-4033.8 1111.2,-4025.2 	"/>
	<rect x="404.6" y="-4005.1" style="fill:none;" width="95.9" height="18"/>
	<text transform="matrix(1 0 0 1 418.3132 -3995.8135)" style="font-family:'MyriadPro-Regular'; font-size:13.0748;">LUMINOSITÉ</text>
	<rect x="252" y="-4005.1" style="fill:none;" width="95.9" height="18"/>
	<text transform="matrix(1 0 0 1 259.8186 -3995.8135)" style="font-family:'MyriadPro-Regular'; font-size:13.0748;">TEMPÉRATURE</text>
	<rect x="1058.3" y="-4005.1" style="fill:none;" width="95.9" height="18"/>
	<text transform="matrix(1 0 0 1 1072.053 -3995.8135)" style="font-family:'MyriadPro-Regular'; font-size:13.0748;">LUMINOSITÉ</text>
	<rect x="894.9" y="-4005.1" style="fill:none;" width="95.9" height="18"/>
	<text transform="matrix(1 0 0 1 908.6179 -3995.8135)" style="font-family:'MyriadPro-Regular'; font-size:13.0748;">LUMINOSITÉ</text>
	<rect x="731.4" y="-4005.1" style="fill:none;" width="95.9" height="18"/>
	<text transform="matrix(1 0 0 1 751.6814 -3995.8135)" style="font-family:'MyriadPro-Regular'; font-size:13.0748;">HUMIDITÉ</text>
	<rect x="568" y="-4005.1" style="fill:none;" width="95.9" height="18"/>
	<text transform="matrix(1 0 0 1 577.6038 -3995.8135)" style="font-family:'MyriadPro-Regular'; font-size:13.0748;">TEMPORALITÉ</text>
	<g>
		<g>
			<g>
				<path class="st6" d="M457.6-4054.5c-0.3,6.4-9.6,6.4-10,0c-0.2-2.8,2.4-4.9,5-5C455.4-4059.7,457.4-4057.1,457.6-4054.5
					c0,0.6,1,0.6,1,0c-0.2-3.4-2.6-5.8-6-6c-3.4-0.2-5.8,2.9-6,6c-0.2,3.4,2.9,5.8,6,6c3.4,0.2,5.8-2.9,6-6
					C458.6-4055.2,457.6-4055.2,457.6-4054.5z"/>
			</g>
		</g>
		<g>
			<g>
				<g>
					<path class="st6" d="M452.2-4045.7c0,1.4,0,2.9,0,4.3c0,0.5,0.8,0.5,0.8,0c0-1.4,0-2.9,0-4.3
						C453-4046.2,452.2-4046.2,452.2-4045.7L452.2-4045.7z"/>
				</g>
			</g>
			<g>
				<g>
					<path class="st6" d="M452.2-4067.5c0,1.4,0,2.9,0,4.3c0,0.5,0.8,0.5,0.8,0c0-1.4,0-2.9,0-4.3
						C453-4067.9,452.2-4067.9,452.2-4067.5L452.2-4067.5z"/>
				</g>
			</g>
		</g>
		<g>
			<g>
				<g>
					<path class="st6" d="M443.9-4054.8c-1.4,0-2.9,0-4.3,0c-0.5,0-0.5,0.8,0,0.8c1.4,0,2.9,0,4.3,0
						C444.4-4054.1,444.4-4054.8,443.9-4054.8L443.9-4054.8z"/>
				</g>
			</g>
			<g>
				<g>
					<path class="st6" d="M465.6-4054.8c-1.4,0-2.9,0-4.3,0c-0.5,0-0.5,0.8,0,0.8c1.4,0,2.9,0,4.3,0
						C466.1-4054.1,466.1-4054.8,465.6-4054.8L465.6-4054.8z"/>
				</g>
			</g>
		</g>
		<g>
			<g>
				<g>
					<path class="st6" d="M446.7-4060.8c-1-1-2-2-3.1-3.1c-0.3-0.3-0.9,0.2-0.5,0.5c1,1,2,2,3.1,3.1
						C446.5-4060,447-4060.5,446.7-4060.8L446.7-4060.8z"/>
				</g>
			</g>
			<g>
				<g>
					<path class="st6" d="M462.1-4045.5c-1-1-2-2-3.1-3.1c-0.3-0.3-0.9,0.2-0.5,0.5c1,1,2,2,3.1,3.1
						C461.9-4044.6,462.4-4045.1,462.1-4045.5L462.1-4045.5z"/>
				</g>
			</g>
		</g>
		<g>
			<g>
				<g>
					<path class="st6" d="M446.2-4048.6c-1,1-2,2-3.1,3.1c-0.3,0.3,0.2,0.9,0.5,0.5c1-1,2-2,3.1-3.1
						C447-4048.4,446.5-4048.9,446.2-4048.6L446.2-4048.6z"/>
				</g>
			</g>
			<g>
				<g>
					<path class="st6" d="M461.5-4063.9c-1,1-2,2-3.1,3.1c-0.3,0.3,0.2,0.9,0.5,0.5c1-1,2-2,3.1-3.1
						C462.4-4063.7,461.9-4064.2,461.5-4063.9L461.5-4063.9z"/>
				</g>
			</g>
		</g>
	</g>
	<g>
		<g>
			<path class="st7" d="M296.4-4050.9c-1.4,0.9-2.4,2.4-2.4,4.2c0,2.7,2.2,5,5,5c2.7,0,5-2.2,5-5c0-1.8-1-3.4-2.4-4.2v-13.9
				c0-1.4-1.2-2.6-2.6-2.6c-1.4,0-2.6,1.2-2.6,2.6V-4050.9z"/>
		</g>
		<g>
			<circle class="st8" cx="298.9" cy="-4046.8" r="3.1"/>
			<rect x="297.9" y="-4052.5" class="st8" width="2" height="4.3"/>
		</g>
		<line class="st7" x1="293.2" y1="-4060.9" x2="288.1" y2="-4060.9"/>
		<line class="st7" x1="293.2" y1="-4057.5" x2="289.8" y2="-4057.5"/>
		<line class="st7" x1="293.2" y1="-4054.1" x2="288.1" y2="-4054.1"/>
	</g>
	<g>
		<g>
			<g>
				<path class="st6" d="M1110.6-4054.5c-0.3,6.4-9.6,6.4-10,0c-0.2-2.8,2.4-4.9,5-5C1108.4-4059.7,1110.4-4057.1,1110.6-4054.5
					c0,0.6,1,0.6,1,0c-0.2-3.4-2.6-5.8-6-6c-3.4-0.2-5.8,2.9-6,6c-0.2,3.4,2.9,5.8,6,6c3.4,0.2,5.8-2.9,6-6
					C1111.6-4055.2,1110.6-4055.2,1110.6-4054.5z"/>
			</g>
		</g>
		<g>
			<g>
				<g>
					<path class="st6" d="M1105.2-4045.7c0,1.4,0,2.9,0,4.3c0,0.5,0.8,0.5,0.8,0c0-1.4,0-2.9,0-4.3
						C1106-4046.2,1105.2-4046.2,1105.2-4045.7L1105.2-4045.7z"/>
				</g>
			</g>
			<g>
				<g>
					<path class="st6" d="M1105.2-4067.5c0,1.4,0,2.9,0,4.3c0,0.5,0.8,0.5,0.8,0c0-1.4,0-2.9,0-4.3
						C1106-4067.9,1105.2-4067.9,1105.2-4067.5L1105.2-4067.5z"/>
				</g>
			</g>
		</g>
		<g>
			<g>
				<g>
					<path class="st6" d="M1096.9-4054.8c-1.4,0-2.9,0-4.3,0c-0.5,0-0.5,0.8,0,0.8c1.4,0,2.9,0,4.3,0
						C1097.4-4054.1,1097.4-4054.8,1096.9-4054.8L1096.9-4054.8z"/>
				</g>
			</g>
			<g>
				<g>
					<path class="st6" d="M1118.6-4054.8c-1.4,0-2.9,0-4.3,0c-0.5,0-0.5,0.8,0,0.8c1.4,0,2.9,0,4.3,0
						C1119.1-4054.1,1119.1-4054.8,1118.6-4054.8L1118.6-4054.8z"/>
				</g>
			</g>
		</g>
		<g>
			<g>
				<g>
					<path class="st6" d="M1099.7-4060.8c-1-1-2-2-3.1-3.1c-0.3-0.3-0.9,0.2-0.5,0.5c1,1,2,2,3.1,3.1
						C1099.5-4060,1100-4060.5,1099.7-4060.8L1099.7-4060.8z"/>
				</g>
			</g>
			<g>
				<g>
					<path class="st6" d="M1115.1-4045.5c-1-1-2-2-3.1-3.1c-0.3-0.3-0.9,0.2-0.5,0.5c1,1,2,2,3.1,3.1
						C1114.9-4044.6,1115.4-4045.1,1115.1-4045.5L1115.1-4045.5z"/>
				</g>
			</g>
		</g>
		<g>
			<g>
				<g>
					<path class="st6" d="M1099.2-4048.6c-1,1-2,2-3.1,3.1c-0.3,0.3,0.2,0.9,0.5,0.5c1-1,2-2,3.1-3.1
						C1100-4048.4,1099.5-4048.9,1099.2-4048.6L1099.2-4048.6z"/>
				</g>
			</g>
			<g>
				<g>
					<path class="st6" d="M1114.5-4063.9c-1,1-2,2-3.1,3.1c-0.3,0.3,0.2,0.9,0.5,0.5c1-1,2-2,3.1-3.1
						C1115.4-4063.7,1114.9-4064.2,1114.5-4063.9L1114.5-4063.9z"/>
				</g>
			</g>
		</g>
	</g>
	<g>
		<g>
			<path class="st7" d="M939.4-4050.9c-1.4,0.9-2.4,2.4-2.4,4.2c0,2.7,2.2,5,5,5c2.7,0,5-2.2,5-5c0-1.8-1-3.4-2.4-4.2v-13.9
				c0-1.4-1.2-2.6-2.6-2.6c-1.4,0-2.6,1.2-2.6,2.6V-4050.9z"/>
		</g>
		<g>
			<circle class="st8" cx="941.9" cy="-4046.8" r="3.1"/>
			<rect x="940.9" y="-4052.5" class="st8" width="2" height="4.3"/>
		</g>
		<line class="st7" x1="936.2" y1="-4060.9" x2="931.1" y2="-4060.9"/>
		<line class="st7" x1="936.2" y1="-4057.5" x2="932.8" y2="-4057.5"/>
		<line class="st7" x1="936.2" y1="-4054.1" x2="931.1" y2="-4054.1"/>
	</g>
	<g>
		<path class="st7" d="M621.9-4058.8c3.5,3.1,3.8,8.5,0.7,12c-3.1,3.5-8.5,3.8-12,0.7c-3.5-3.1-3.8-8.5-0.7-12"/>
		<polyline class="st7" points="616.3,-4057.9 616.3,-4051.3 612.1,-4047 		"/>
		<line class="st7" x1="616.3" y1="-4047" x2="616.3" y2="-4045"/>
		<line class="st7" x1="621.3" y1="-4051.3" x2="623.4" y2="-4051.3"/>
		<line class="st7" x1="609.2" y1="-4051.3" x2="611.2" y2="-4051.3"/>
		<line class="st7" x1="619.6" y1="-4048" x2="621.1" y2="-4046.6"/>
		<line class="st7" x1="620.3" y1="-4055.4" x2="621.8" y2="-4056.9"/>
		<g>
			<g>
				<path class="st8" d="M606.6-4057.6c1.2-0.2,2.4-0.3,3.6-0.5c-0.1-0.1-0.2-0.2-0.4-0.4c0.1,1.3,0.2,2.6,0.2,3.9
					c0,0.5,0.8,0.5,0.8,0c-0.1-1.3-0.2-2.6-0.2-3.9c0-0.2-0.2-0.4-0.4-0.4c-1.2,0.2-2.4,0.3-3.6,0.5
					C606.1-4058.3,606.1-4057.5,606.6-4057.6L606.6-4057.6z"/>
			</g>
		</g>
	</g>
	<g>
		<path class="st7" d="M781.1-4049.2c0.1,0.6,0,1.2-0.1,1.7c-0.3,1.1-1.1,2.1-2.1,2.7c-1.8,1-4.1,0.7-5.5-0.7
			c-1.4-1.4-1.7-3.7-0.7-5.4c0,0,0,0,0,0l3.6-6.3c0.1-0.1,0.3-0.2,0.4-0.2c0,0,0,0,0,0c0.1,0,0.1,0.1,0.1,0.1l3.6,6.3
			C780.8-4050.4,781-4049.8,781.1-4049.2z"/>
		<path class="st7" d="M782.7-4052.6c-1.8-0.9-2.4-3.3-1.3-5l2.6-4.6c0.1-0.2,0.5-0.2,0.6,0l2.6,4.6c0.4,0.5,0.5,1.2,0.5,1.9
			c0,0.6-0.2,1.2-0.5,1.7C786.5-4052.3,784.4-4051.7,782.7-4052.6z"/>
		<path class="st7" d="M774.8-4049.8c0,0-1,2.5,1.2,3.3"/>
		<path class="st7" d="M782.9-4056.6c0,0-0.8,2.1,1,2.7"/>
	</g>
</g>
<g>
	<circle class="st9" cx="150.2" cy="-4446.4" r="28.3"/>
	<line class="st10" x1="150.2" y1="-4502.4" x2="150.2" y2="-4390.5"/>
	<line class="st10" x1="94.2" y1="-4446.4" x2="206.2" y2="-4446.4"/>
	<line class="st10" x1="110.6" y1="-4486" x2="189.8" y2="-4406.9"/>
	<line class="st10" x1="110.6" y1="-4406.9" x2="189.8" y2="-4486"/>
</g>
<linearGradient id="SVGID_2_" gradientUnits="userSpaceOnUse" x1="1504.0469" y1="-1017.5144" x2="2104.0471" y2="-1017.5144" gradientTransform="matrix(4.489700e-11 -1 1 4.489700e-11 1657.5145 -376.9645)">
	<stop  offset="0" style="stop-color:#C8C7C6"/>
	<stop  offset="0.3296" style="stop-color:#DBD8C4"/>
	<stop  offset="0.7286" style="stop-color:#EDE8C2"/>
	<stop  offset="1" style="stop-color:#F3EEC1"/>
</linearGradient>
<rect x="0" y="-2469.2" class="st11" width="1280" height="600"/>
<linearGradient id="SVGID_3_" gradientUnits="userSpaceOnUse" x1="877.2209" y1="-1017.5145" x2="1477.2211" y2="-1017.5145" gradientTransform="matrix(4.489700e-11 -1 1 4.489700e-11 1657.5145 -376.9645)">
	<stop  offset="0" style="stop-color:#E2D0CA"/>
	<stop  offset="1" style="stop-color:#98D3DD"/>
</linearGradient>
<rect x="0" y="-1854.2" class="st12" width="1280" height="600"/>
<linearGradient id="SVGID_4_" gradientUnits="userSpaceOnUse" x1="265.5739" y1="-1017.5144" x2="865.574" y2="-1017.5144" gradientTransform="matrix(4.489700e-11 -1 1 4.489700e-11 1657.5145 -376.9645)">
	<stop  offset="0" style="stop-color:#F4B59C"/>
	<stop  offset="0.1437" style="stop-color:#D6B8A7"/>
	<stop  offset="0.3445" style="stop-color:#ADB7B2"/>
	<stop  offset="0.5367" style="stop-color:#87B3BA"/>
	<stop  offset="0.7152" style="stop-color:#65AEBE"/>
	<stop  offset="0.8749" style="stop-color:#49AAC0"/>
	<stop  offset="1" style="stop-color:#3DA9C0"/>
</linearGradient>
<rect y="-1236.1" class="st13" width="1280" height="600"/>
<linearGradient id="SVGID_5_" gradientUnits="userSpaceOnUse" x1="265.5739" y1="-1017.5146" x2="865.574" y2="-1017.5146" gradientTransform="matrix(4.489700e-11 -1 1 4.489700e-11 1657.5145 -376.9645)">
	<stop  offset="0" style="stop-color:#869498"/>
	<stop  offset="8.478856e-02" style="stop-color:#6B99A3"/>
	<stop  offset="0.196" style="stop-color:#489CAE"/>
	<stop  offset="0.3213" style="stop-color:#179CB5"/>
	<stop  offset="0.4667" style="stop-color:#009CB9"/>
	<stop  offset="0.6507" style="stop-color:#009CBB"/>
	<stop  offset="1" style="stop-color:#009BBC"/>
</linearGradient>
<rect x="0" y="-1236.1" class="st14" width="1280" height="600"/>
<linearGradient id="SVGID_6_" gradientUnits="userSpaceOnUse" x1="-358.4885" y1="-1017.5144" x2="241.5116" y2="-1017.5144" gradientTransform="matrix(4.489700e-11 -1 1 4.489700e-11 1657.5145 -376.9645)">
	<stop  offset="0" style="stop-color:#F4B59C"/>
	<stop  offset="0.1437" style="stop-color:#D6B8A7"/>
	<stop  offset="0.3445" style="stop-color:#ADB7B2"/>
	<stop  offset="0.5367" style="stop-color:#87B3BA"/>
	<stop  offset="0.7152" style="stop-color:#65AEBE"/>
	<stop  offset="0.8749" style="stop-color:#49AAC0"/>
	<stop  offset="1" style="stop-color:#3DA9C0"/>
</linearGradient>
<rect y="-612.1" class="st15" width="1280" height="600"/>
<linearGradient id="SVGID_7_" gradientUnits="userSpaceOnUse" x1="-358.4885" y1="-1017.5146" x2="241.5118" y2="-1017.5146" gradientTransform="matrix(4.489700e-11 -1 1 4.489700e-11 1657.5145 -376.9645)">
	<stop  offset="0" style="stop-color:#F7AE81"/>
	<stop  offset="0.2374" style="stop-color:#D9907D"/>
	<stop  offset="0.5303" style="stop-color:#BE7576"/>
	<stop  offset="0.7936" style="stop-color:#AF6672"/>
	<stop  offset="1" style="stop-color:#A96170"/>
</linearGradient>
<rect x="0" y="-612.1" class="st16" width="1280" height="600"/>
<linearGradient id="SVGID_8_" gradientUnits="userSpaceOnUse" x1="-358.4885" y1="-1017.5146" x2="241.5118" y2="-1017.5146" gradientTransform="matrix(4.489700e-11 -1 1 4.489700e-11 1657.5145 -376.9645)">
	<stop  offset="0" style="stop-color:#F7AE81"/>
	<stop  offset="0.2374" style="stop-color:#D9907D"/>
	<stop  offset="0.5303" style="stop-color:#BE7576"/>
	<stop  offset="0.7936" style="stop-color:#AF6672"/>
	<stop  offset="1" style="stop-color:#A96170"/>
</linearGradient>
<rect x="0" y="-612.1" class="st17" width="1280" height="600"/>
<linearGradient id="SVGID_9_" gradientUnits="userSpaceOnUse" x1="-970.5497" y1="-1017.5144" x2="-370.5496" y2="-1017.5144" gradientTransform="matrix(4.489700e-11 -1 1 4.489700e-11 1657.5145 -376.9645)">
	<stop  offset="0" style="stop-color:#F4B59C"/>
	<stop  offset="0.1437" style="stop-color:#D6B8A7"/>
	<stop  offset="0.3445" style="stop-color:#ADB7B2"/>
	<stop  offset="0.5367" style="stop-color:#87B3BA"/>
	<stop  offset="0.7152" style="stop-color:#65AEBE"/>
	<stop  offset="0.8749" style="stop-color:#49AAC0"/>
	<stop  offset="1" style="stop-color:#3DA9C0"/>
</linearGradient>
<rect y="0" class="st18" width="1280" height="600"/>
<linearGradient id="SVGID_10_" gradientUnits="userSpaceOnUse" x1="-970.4208" y1="-1017.5146" x2="-358.3594" y2="-1017.5146" gradientTransform="matrix(4.489700e-11 -1 1 4.489700e-11 1657.5145 -376.9645)">
	<stop  offset="0" style="stop-color:#E1AEA8"/>
	<stop  offset="5.368674e-02" style="stop-color:#D6A5A3"/>
	<stop  offset="0.2758" style="stop-color:#AC858F"/>
	<stop  offset="0.4881" style="stop-color:#8C6E80"/>
	<stop  offset="0.6853" style="stop-color:#756077"/>
	<stop  offset="0.8617" style="stop-color:#675872"/>
	<stop  offset="1" style="stop-color:#625570"/>
</linearGradient>
<rect x="0" y="-12.1" class="st19" width="1280" height="612.1"/>
<linearGradient id="SVGID_11_" gradientUnits="userSpaceOnUse" x1="-1591.6118" y1="-1017.5148" x2="-991.6117" y2="-1017.5148" gradientTransform="matrix(4.489700e-11 -1 1 4.489700e-11 1657.5145 -376.9645)">
	<stop  offset="0" style="stop-color:#553D69"/>
	<stop  offset="0.1392" style="stop-color:#47305B"/>
	<stop  offset="0.3902" style="stop-color:#322047"/>
	<stop  offset="0.6251" style="stop-color:#25183B"/>
	<stop  offset="0.8353" style="stop-color:#1D1535"/>
	<stop  offset="1" style="stop-color:#1A1333"/>
</linearGradient>
<rect x="0" y="621.1" class="st20" width="1280" height="600"/>
<linearGradient id="SVGID_12_" gradientUnits="userSpaceOnUse" x1="-2212.6741" y1="-1017.515" x2="-1612.6738" y2="-1017.515" gradientTransform="matrix(4.489700e-11 -1 1 4.489700e-11 1657.5145 -376.9645)">
	<stop  offset="0" style="stop-color:#2F3668"/>
	<stop  offset="9.947407e-02" style="stop-color:#2C2F5E"/>
	<stop  offset="0.3621" style="stop-color:#242149"/>
	<stop  offset="0.6078" style="stop-color:#1F193C"/>
	<stop  offset="0.8277" style="stop-color:#1C1535"/>
	<stop  offset="1" style="stop-color:#1A1333"/>
</linearGradient>
<rect x="0" y="1242.1" class="st21" width="1280" height="600"/>
</svg>
