<?xml version="1.0" encoding="utf-8"?>
<!-- Generator: Adobe Illustrator 17.0.0, SVG Export Plug-In . SVG Version: 6.00 Build 0)  -->
<!DOCTYPE svg PUBLIC "-//W3C//DTD SVG 1.1//EN" "http://www.w3.org/Graphics/SVG/1.1/DTD/svg11.dtd">
<svg version="1.1" id="Calque_1" xmlns="http://www.w3.org/2000/svg" xmlns:xlink="http://www.w3.org/1999/xlink" x="0px" y="0px"
	 width="1280px" height="600px" viewBox="0 0 1280 600" style="enable-background:new 0 0 1280 600;" xml:space="preserve">
<style type="text/css">
	.st0{fill:url(#SVGID_1_);}
	.st1{opacity:0.3;}
	.st2{fill:#FFFFFF;}
	.st3{opacity:0.7;}
	.st4{fill:none;stroke:#FFFFFF;stroke-miterlimit:10;}
	.st5{fill:none;stroke:#000000;stroke-miterlimit:10;}
	.st6{fill:#14130B;}
	.st7{fill:none;stroke:#13130A;stroke-width:0.75;stroke-miterlimit:10;}
	.st8{fill:#13130A;}
	.st9{fill:#FFF0BC;}
	.st10{fill:none;stroke:#FFF0BC;stroke-width:2;stroke-miterlimit:10;}
	.st11{fill:url(#SVGID_2_);}
	.st12{fill:url(#SVGID_3_);}
	.st13{opacity:0.3;fill:url(#SVGID_4_);}
	.st14{opacity:0.3;fill:url(#SVGID_5_);}
	.st15{opacity:0.3;fill:url(#SVGID_6_);}
	.st16{opacity:0.4;fill:url(#SVGID_7_);}
	.st17{opacity:0.4;fill:url(#SVGID_8_);}
	.st18{opacity:0.3;fill:url(#SVGID_9_);}
	.st19{opacity:0.73;fill:url(#SVGID_10_);}
	.st20{opacity:0.85;fill:url(#SVGID_11_);}
	.st21{opacity:0.98;fill:url(#SVGID_12_);}
	.st22{opacity:0.4;}
</style>
<linearGradient id="SVGID_1_" gradientUnits="userSpaceOnUse" x1="3599.0979" y1="-4196.4282" x2="4440.9878" y2="-4196.4282" gradientTransform="matrix(4.489700e-11 -1 1 4.489700e-11 4791.7031 -3511.1528)">
	<stop  offset="0" style="stop-color:#C8C7C6"/>
	<stop  offset="0.3296" style="stop-color:#DBD8C4"/>
	<stop  offset="0.7286" style="stop-color:#EDE8C2"/>
	<stop  offset="1" style="stop-color:#F3EEC1"/>
</linearGradient>
<rect x="0" y="-7935.6" class="st0" width="1190.5" height="841.9"/>
<g class="st1">
	<path class="st2" d="M21.8-7209.5c0,0,0.4-0.8,1.1-2.3H11.1C17.3-7211.1,21.8-7209.5,21.8-7209.5z"/>
	<path class="st2" d="M130-7210.6c0.2-0.4,0.5-0.8,0.7-1.2h-1.2C129.7-7211.3,129.8-7211,130-7210.6z"/>
	<path class="st2" d="M932-7157.7h-2.2c0.4,0.5,0.8,1.1,1.2,1.6C931.3-7156.7,931.6-7157.2,932-7157.7z"/>
	<path class="st2" d="M0-7211.7v0.1c0.3,0,0.6-0.1,0.9-0.1H0z"/>
	<path class="st2" d="M295.4-7084.3l202.5,0.5l0-0.5h80.4h70l0,0.5l137.1-0.5h65.4h31.6h105.5h39.5l0,0h163.1v-199.5
		c-6.4-4.2-14.5-7.4-24.5-8.4c-43.9-4.6-62.3,36.7-62.3,36.7s-26.2-9.5-41.9,8.3c-3.3,3.8-5.8,7.7-7.6,11.7
		c-7.2-6.3-17-11.4-30.2-12.8c-33.5-3.5-52.1,19.7-59.1,30.9c-2.8-11.3-13.4-41.2-48.9-44.9c-36.2-3.8-55,23.6-60.5,33.3
		c-7.2-10.7-19.4-21.2-39.5-23.3c-43.9-4.6-62.3,36.7-62.3,36.7s1.2-0.3-0.1-0.7c-1.8-3.7-6.1-7.5-9.2-11
		c-15.7-17.9-41.9-8.3-41.9-8.3s-18.4-41.3-62.3-36.7c-43.9,4.6-49.8,49.2-49.8,49.2s-21.3-8.3-30.1,9.2c-0.4,0.9-1.3,1.3-1.9,2
		c-1.7-3.5-4-7-6.9-10.3c-15.7-17.9-41.9-8.3-41.9-8.3s-18.4-41.3-62.3-36.7c-24.6,2.6-41.3,18.7-47.7,31.6l-0.1,0.1
		c0,0-18.4-41.3-62.3-36.7c-43.9,4.6-50.8,49.2-50.8,49.2s0.6-0.1-0.2-0.2c-4.6-13.4-16.8-35.8-47.2-39
		c-43.9-4.6-62.3,36.7-62.3,36.7s-26.2-9.5-41.9,8.3c-1.5,1.7-2.8,3.4-4,5.2c0.3-2,2.5-20.2-9.9-31.9c-13.1-12.5-30.1-9.2-30.1-9.2
		s-5.9-44.6-49.8-49.2c-17.6-1.8-31.2,3.7-41,11v79.4h0.9c-0.3,0-0.6,0.1-0.9,0.1v127.4h147.9h0h140l7.5,0.5 M21.8-7209.5
		c0,0-4.4-1.6-10.7-2.3h11.8C22.1-7210.3,21.8-7209.5,21.8-7209.5z M130-7210.6c-0.2-0.4-0.3-0.8-0.5-1.2h1.2
		C130.5-7211.4,130.2-7211,130-7210.6z"/>
</g>
<g class="st3">
	<polyline class="st4" points="51.9,-7337.9 41.7,-7222.4 91.4,-7316.8 	"/>
	<polyline class="st4" points="-8.6,-7158.9 14.7,-7131 -8.6,-7095.4 	"/>
	<polyline class="st4" points="136.4,-7257.8 168.5,-7186.8 140.1,-7170.5 109.7,-7180.7 133,-7238.5 140.1,-7170.5 182.1,-7143.2 
		201.5,-7186.8 168.5,-7250.7 	"/>
	<polyline class="st4" points="200,-7283.1 201.5,-7186.8 168.5,-7186.8 	"/>
	<polyline class="st4" points="219.2,-7096.9 201.5,-7186.8 243.6,-7289.9 254.8,-7186.8 219.2,-7096.9 182.1,-7143.2 
		140.1,-7119.8 140.1,-7170.5 78.3,-7095.4 14.7,-7131 	"/>
	<polyline class="st4" points="182.1,-7143.2 185,-7095.4 140.1,-7119.8 78.3,-7095.4 	"/>
	<polyline class="st4" points="254.8,-7186.8 292.8,-7206.9 338.9,-7206.9 	"/>
	<polyline class="st4" points="286.2,-7248.2 292.8,-7206.9 309,-7143.2 338.9,-7206.9 286.2,-7248.2 254.8,-7186.8 278.1,-7096.9 
		309,-7143.2 254.8,-7186.8 227.4,-7178.1 201.5,-7186.8 	"/>
	<polyline class="st4" points="304.4,-7289.9 338.9,-7206.9 356.2,-7289.9 	"/>
	<polyline class="st4" points="309,-7143.2 338.9,-7096.9 382,-7113.2 396.9,-7162.9 338.9,-7206.9 396.9,-7264.9 396.9,-7162.9 
		346,-7135 307.8,-7141.3 	"/>
	<path class="st4" d="M396.9-7264.9"/>
	<line class="st4" x1="346" y1="-7135" x2="338.9" y2="-7206.9"/>
	<polyline class="st4" points="-8.6,-7204.5 41.7,-7222.4 54.9,-7176.7 	"/>
	<polyline class="st4" points="421.8,-7135 382,-7113.2 390.7,-7095.4 	"/>
	<path class="st4" d="M417-7226.7"/>
	<polyline class="st4" points="451.5,-7289.9 451.5,-7262.2 424.1,-7238.2 396.9,-7264.9 	"/>
	<polyline class="st4" points="553.5,-7231.8 535,-7192.7 502.9,-7177.3 479.2,-7214.5 	"/>
	<polyline class="st4" points="503.2,-7279.1 489.4,-7248.4 451.5,-7262.2 479.2,-7214.5 449.5,-7138.1 502.9,-7177.3 
		558.4,-7147.2 535,-7192.7 544.8,-7257.8 479.2,-7214.5 489.4,-7248.4 514.4,-7252.7 	"/>
	<polyline class="st4" points="338.9,-7096.9 346,-7135 382,-7113.2 428.9,-7095.4 449.5,-7138.1 421.8,-7135 396.9,-7162.9 
		412.3,-7177.3 424.1,-7238.2 479.2,-7214.5 412.3,-7177.3 421.8,-7135 	"/>
	<polyline class="st4" points="568.7,-7247.6 568.7,-7208.6 535,-7192.7 	"/>
	<polyline class="st4" points="502.9,-7135 449.5,-7138.1 412.3,-7177.3 	"/>
	<polyline class="st4" points="449.5,-7138.1 472.5,-7095.4 503.9,-7135 	"/>
	<polygon class="st4" points="503.9,-7135 543.5,-7110.2 524.2,-7095.4 	"/>
	<polyline class="st4" points="568.7,-7208.6 595.2,-7175.9 558.4,-7147.2 503.9,-7135 502.9,-7177.3 	"/>
	<polygon class="st4" points="543.5,-7110.2 558.4,-7147.2 562.8,-7095.4 	"/>
	<path class="st2" d="M595.2-7175.9"/>
	<polyline class="st4" points="636.1,-7247.6 678.7,-7238.2 710.2,-7243.6 710.2,-7252.7 	"/>
	<polyline class="st4" points="683.8,-7291.2 678.7,-7238.2 672.3,-7166.8 699,-7126.6 772,-7095.4 728.8,-7177.3 752.8,-7252.7 
		787.2,-7220.2 822.7,-7295.3 844.4,-7213.1 	"/>
	<polyline class="st4" points="586.4,-7275 636.1,-7247.6 630,-7289.2 	"/>
	<polyline class="st4" points="710.2,-7242.6 728.8,-7177.3 678.7,-7238.2 	"/>
	<line class="st4" x1="636.1" y1="-7247.6" x2="602" y2="-7138.1"/>
	<polyline class="st4" points="616.7,-7185.5 672.3,-7166.8 637.6,-7247.3 	"/>
	<polyline class="st4" points="672.3,-7166.8 670.3,-7095.4 699,-7126.6 728.8,-7177.3 672.3,-7166.8 602,-7138.1 595.2,-7175.9 
		586.4,-7247.6 616.7,-7185.5 	"/>
	<polyline class="st4" points="602,-7138.1 621.6,-7104.3 670.3,-7095.4 	"/>
	<polyline class="st4" points="670.3,-7166 621.6,-7104.3 562.8,-7095.4 602,-7138.1 558.4,-7147.2 	"/>
	<polyline class="st4" points="787.2,-7220.2 819.7,-7166.8 844.4,-7213.1 900.2,-7180 859.3,-7232.7 857.2,-7257.8 910.7,-7238.2 
		941.1,-7258.8 970.5,-7252.7 1020.9,-7266.9 1071.6,-7243.2 1084.4,-7276.7 1064.1,-7290.2 	"/>
	<polyline class="st4" points="819.7,-7166.8 788.7,-7175.5 728.8,-7177.3 787.2,-7220.2 844.4,-7213.1 859.3,-7232.7 
		910.7,-7238.2 901.9,-7293.3 	"/>
	<path class="st2" d="M819.7-7166.8"/>
	<polyline class="st4" points="802.8,-7114.8 819.7,-7166.8 846.4,-7095.4 861.6,-7156.9 918.1,-7095.4 900.2,-7178.7 
		862.3,-7156.7 819.7,-7166.8 772,-7095.4 788.7,-7175.5 787.2,-7220.2 	"/>
	<line class="st4" x1="878.5" y1="-7116.8" x2="862.3" y2="-7156.7"/>
	<line class="st4" x1="941.6" y1="-7293.3" x2="941.1" y2="-7258.8"/>
	<polyline class="st4" points="951.3,-7166.9 983.3,-7138.8 995.9,-7194.5 951.3,-7166.9 900.2,-7178.7 910.7,-7238.2 
		946.7,-7225.8 970.5,-7252.7 995.9,-7194.5 946.7,-7225.8 951.3,-7166.9 918.1,-7095.4 878.5,-7116.8 846.4,-7095.4 802.8,-7114.8 
		772,-7095.4 	"/>
	<polyline class="st4" points="983.3,-7138.8 1019.8,-7124.4 987.3,-7095.4 983.3,-7138.8 918.1,-7095.4 	"/>
	<polyline class="st4" points="995.9,-7195.6 1020.9,-7266.9 1017.5,-7291.2 	"/>
	<line class="st4" x1="971.8" y1="-7264.9" x2="970.5" y2="-7252.7"/>
	<polyline class="st4" points="1084.4,-7276.7 1116.4,-7270.4 1109.8,-7290.2 	"/>
	<polyline class="st4" points="54.9,-7176.7 78.3,-7095.4 109.7,-7180.7 54.9,-7176.7 14.7,-7131 41.7,-7222.4 91.4,-7275 
		109.7,-7180.7 41.7,-7222.4 -8.6,-7316.8 51.9,-7337.9 91.4,-7316.8 91.4,-7275 122.8,-7272 133,-7238.5 136.4,-7257.8 
		168.5,-7250.7 200,-7283.1 243.6,-7289.9 286.2,-7248.2 304.4,-7289.9 356.2,-7289.9 396.9,-7264.9 451.5,-7289.9 503.2,-7279.1 
		514.4,-7252.7 544.8,-7257.8 553.5,-7231.8 568.7,-7247.6 586.4,-7247.6 586.4,-7275 630,-7289.2 683.8,-7291.2 710.2,-7252.7 
		729.4,-7273 752.8,-7252.7 822.7,-7295.3 857.2,-7257.8 901.9,-7293.3 941.6,-7293.3 971.8,-7264.9 1017.5,-7291.2 1064.1,-7264.9 
		1064.1,-7290.2 1109.8,-7290.2 1135.1,-7348 1199,-7316.8 1156.4,-7317.6 1199,-7280.3 1172.2,-7211.4 1116.4,-7270.4 
		1156.4,-7317.6 1135.1,-7348 	"/>
	<polyline class="st4" points="1199,-7280.3 1160.5,-7258.8 1116.4,-7270.4 1071.6,-7243.2 1064.1,-7266.9 	"/>
	<polyline class="st4" points="1156.4,-7317.6 1160.5,-7258.8 1172.2,-7211.4 1206.4,-7231.4 	"/>
	<polyline class="st4" points="1116.4,-7270.4 1111.8,-7243.4 1134.6,-7176.6 1172.4,-7120.1 1203.6,-7095.4 	"/>
	<polyline class="st4" points="1111.8,-7243.4 1097.4,-7200 1134.6,-7176.6 1097.4,-7138.8 1124.1,-7095.4 	"/>
	<polyline class="st4" points="1019.8,-7124.4 1046.6,-7161.4 1097.4,-7138.8 1097.4,-7200 1071.6,-7243.2 1047.4,-7197.4 
		995.9,-7194.5 1046.6,-7161.4 1047.4,-7197.4 	"/>
	<polyline class="st4" points="1097.4,-7200 1047.4,-7197.4 1097.4,-7138.8 1092.5,-7092.9 1046.6,-7161.4 1039,-7095.4 
		1019.8,-7124.4 995.9,-7194.5 1071.6,-7243.2 1111.8,-7243.4 1172.2,-7211.4 1199,-7186.3 1172.4,-7120.1 1172.2,-7211.4 
		1134.6,-7176.6 1124,-7094.9 1172.4,-7120.1 	"/>
</g>
<g>
	<line class="st5" x1="147.1" y1="-7159.4" x2="1207.8" y2="-7159.4"/>
	<circle class="st5" cx="147.1" cy="-7159.4" r="10.1"/>
	<circle cx="147.1" cy="-7159.4" r="5.7"/>
	<polygon points="300.2,-7150.9 295.5,-7159.4 300.2,-7167.9 304.9,-7159.4 	"/>
	<polygon points="452.7,-7150.9 448,-7159.4 452.7,-7167.9 457.5,-7159.4 	"/>
	<polygon points="616.2,-7150.9 611.5,-7159.4 616.2,-7167.9 620.9,-7159.4 	"/>
	<polygon points="779.6,-7150.9 774.9,-7159.4 779.6,-7167.9 784.3,-7159.4 	"/>
	<polygon points="943,-7150.9 938.3,-7159.4 943,-7167.9 947.8,-7159.4 	"/>
	<polygon points="1106.5,-7150.9 1101.8,-7159.4 1106.5,-7167.9 1111.2,-7159.4 	"/>
	<rect x="404.6" y="-7139.3" style="fill:none;" width="95.9" height="18"/>
	<text transform="matrix(1 0 0 1 418.3132 -7130.002)" style="font-family:'MyriadPro-Regular'; font-size:13.0748;">LUMINOSITÉ</text>
	<rect x="252" y="-7139.3" style="fill:none;" width="95.9" height="18"/>
	<text transform="matrix(1 0 0 1 259.8186 -7130.002)" style="font-family:'MyriadPro-Regular'; font-size:13.0748;">TEMPÉRATURE</text>
	<rect x="1058.3" y="-7139.3" style="fill:none;" width="95.9" height="18"/>
	<text transform="matrix(1 0 0 1 1072.053 -7130.002)" style="font-family:'MyriadPro-Regular'; font-size:13.0748;">LUMINOSITÉ</text>
	<rect x="894.9" y="-7139.3" style="fill:none;" width="95.9" height="18"/>
	<text transform="matrix(1 0 0 1 908.6179 -7130.002)" style="font-family:'MyriadPro-Regular'; font-size:13.0748;">LUMINOSITÉ</text>
	<rect x="731.4" y="-7139.3" style="fill:none;" width="95.9" height="18"/>
	<text transform="matrix(1 0 0 1 751.6814 -7130.002)" style="font-family:'MyriadPro-Regular'; font-size:13.0748;">HUMIDITÉ</text>
	<rect x="568" y="-7139.3" style="fill:none;" width="95.9" height="18"/>
	<text transform="matrix(1 0 0 1 577.6038 -7130.002)" style="font-family:'MyriadPro-Regular'; font-size:13.0748;">TEMPORALITÉ</text>
	<g>
		<g>
			<g>
				<path class="st6" d="M457.6-7188.7c-0.3,6.4-9.6,6.4-10,0c-0.2-2.8,2.4-4.9,5-5C455.4-7193.8,457.4-7191.3,457.6-7188.7
					c0,0.6,1,0.6,1,0c-0.2-3.4-2.6-5.8-6-6c-3.4-0.2-5.8,2.9-6,6c-0.2,3.4,2.9,5.8,6,6c3.4,0.2,5.8-2.9,6-6
					C458.6-7189.3,457.6-7189.3,457.6-7188.7z"/>
			</g>
		</g>
		<g>
			<g>
				<g>
					<path class="st6" d="M452.2-7179.9c0,1.4,0,2.9,0,4.3c0,0.5,0.8,0.5,0.8,0c0-1.4,0-2.9,0-4.3
						C453-7180.4,452.2-7180.4,452.2-7179.9L452.2-7179.9z"/>
				</g>
			</g>
			<g>
				<g>
					<path class="st6" d="M452.2-7201.6c0,1.4,0,2.9,0,4.3c0,0.5,0.8,0.5,0.8,0c0-1.4,0-2.9,0-4.3
						C453-7202.1,452.2-7202.1,452.2-7201.6L452.2-7201.6z"/>
				</g>
			</g>
		</g>
		<g>
			<g>
				<g>
					<path class="st6" d="M443.9-7189c-1.4,0-2.9,0-4.3,0c-0.5,0-0.5,0.8,0,0.8c1.4,0,2.9,0,4.3,0
						C444.4-7188.2,444.4-7189,443.9-7189L443.9-7189z"/>
				</g>
			</g>
			<g>
				<g>
					<path class="st6" d="M465.6-7189c-1.4,0-2.9,0-4.3,0c-0.5,0-0.5,0.8,0,0.8c1.4,0,2.9,0,4.3,0
						C466.1-7188.2,466.1-7189,465.6-7189L465.6-7189z"/>
				</g>
			</g>
		</g>
		<g>
			<g>
				<g>
					<path class="st6" d="M446.7-7195c-1-1-2-2-3.1-3.1c-0.3-0.3-0.9,0.2-0.5,0.5c1,1,2,2,3.1,3.1
						C446.5-7194.2,447-7194.7,446.7-7195L446.7-7195z"/>
				</g>
			</g>
			<g>
				<g>
					<path class="st6" d="M462.1-7179.7c-1-1-2-2-3.1-3.1c-0.3-0.3-0.9,0.2-0.5,0.5c1,1,2,2,3.1,3.1
						C461.9-7178.8,462.4-7179.3,462.1-7179.7L462.1-7179.7z"/>
				</g>
			</g>
		</g>
		<g>
			<g>
				<g>
					<path class="st6" d="M446.2-7182.7c-1,1-2,2-3.1,3.1c-0.3,0.3,0.2,0.9,0.5,0.5c1-1,2-2,3.1-3.1
						C447-7182.6,446.5-7183.1,446.2-7182.7L446.2-7182.7z"/>
				</g>
			</g>
			<g>
				<g>
					<path class="st6" d="M461.5-7198.1c-1,1-2,2-3.1,3.1c-0.3,0.3,0.2,0.9,0.5,0.5c1-1,2-2,3.1-3.1
						C462.4-7197.9,461.9-7198.4,461.5-7198.1L461.5-7198.1z"/>
				</g>
			</g>
		</g>
	</g>
	<g>
		<g>
			<path class="st7" d="M296.4-7185.1c-1.4,0.9-2.4,2.4-2.4,4.2c0,2.7,2.2,5,5,5c2.7,0,5-2.2,5-5c0-1.8-1-3.4-2.4-4.2v-13.9
				c0-1.4-1.2-2.6-2.6-2.6c-1.4,0-2.6,1.2-2.6,2.6V-7185.1z"/>
		</g>
		<g>
			<circle class="st8" cx="298.9" cy="-7180.9" r="3.1"/>
			<rect x="297.9" y="-7186.7" class="st8" width="2" height="4.3"/>
		</g>
		<line class="st7" x1="293.2" y1="-7195.1" x2="288.1" y2="-7195.1"/>
		<line class="st7" x1="293.2" y1="-7191.7" x2="289.8" y2="-7191.7"/>
		<line class="st7" x1="293.2" y1="-7188.3" x2="288.1" y2="-7188.3"/>
	</g>
	<g>
		<g>
			<g>
				<path class="st6" d="M1110.6-7188.7c-0.3,6.4-9.6,6.4-10,0c-0.2-2.8,2.4-4.9,5-5C1108.4-7193.8,1110.4-7191.3,1110.6-7188.7
					c0,0.6,1,0.6,1,0c-0.2-3.4-2.6-5.8-6-6c-3.4-0.2-5.8,2.9-6,6c-0.2,3.4,2.9,5.8,6,6c3.4,0.2,5.8-2.9,6-6
					C1111.6-7189.3,1110.6-7189.3,1110.6-7188.7z"/>
			</g>
		</g>
		<g>
			<g>
				<g>
					<path class="st6" d="M1105.2-7179.9c0,1.4,0,2.9,0,4.3c0,0.5,0.8,0.5,0.8,0c0-1.4,0-2.9,0-4.3
						C1106-7180.4,1105.2-7180.4,1105.2-7179.9L1105.2-7179.9z"/>
				</g>
			</g>
			<g>
				<g>
					<path class="st6" d="M1105.2-7201.6c0,1.4,0,2.9,0,4.3c0,0.5,0.8,0.5,0.8,0c0-1.4,0-2.9,0-4.3
						C1106-7202.1,1105.2-7202.1,1105.2-7201.6L1105.2-7201.6z"/>
				</g>
			</g>
		</g>
		<g>
			<g>
				<g>
					<path class="st6" d="M1096.9-7189c-1.4,0-2.9,0-4.3,0c-0.5,0-0.5,0.8,0,0.8c1.4,0,2.9,0,4.3,0
						C1097.4-7188.2,1097.4-7189,1096.9-7189L1096.9-7189z"/>
				</g>
			</g>
			<g>
				<g>
					<path class="st6" d="M1118.6-7189c-1.4,0-2.9,0-4.3,0c-0.5,0-0.5,0.8,0,0.8c1.4,0,2.9,0,4.3,0
						C1119.1-7188.2,1119.1-7189,1118.6-7189L1118.6-7189z"/>
				</g>
			</g>
		</g>
		<g>
			<g>
				<g>
					<path class="st6" d="M1099.7-7195c-1-1-2-2-3.1-3.1c-0.3-0.3-0.9,0.2-0.5,0.5c1,1,2,2,3.1,3.1
						C1099.5-7194.2,1100-7194.7,1099.7-7195L1099.7-7195z"/>
				</g>
			</g>
			<g>
				<g>
					<path class="st6" d="M1115.1-7179.7c-1-1-2-2-3.1-3.1c-0.3-0.3-0.9,0.2-0.5,0.5c1,1,2,2,3.1,3.1
						C1114.9-7178.8,1115.4-7179.3,1115.1-7179.7L1115.1-7179.7z"/>
				</g>
			</g>
		</g>
		<g>
			<g>
				<g>
					<path class="st6" d="M1099.2-7182.7c-1,1-2,2-3.1,3.1c-0.3,0.3,0.2,0.9,0.5,0.5c1-1,2-2,3.1-3.1
						C1100-7182.6,1099.5-7183.1,1099.2-7182.7L1099.2-7182.7z"/>
				</g>
			</g>
			<g>
				<g>
					<path class="st6" d="M1114.5-7198.1c-1,1-2,2-3.1,3.1c-0.3,0.3,0.2,0.9,0.5,0.5c1-1,2-2,3.1-3.1
						C1115.4-7197.9,1114.9-7198.4,1114.5-7198.1L1114.5-7198.1z"/>
				</g>
			</g>
		</g>
	</g>
	<g>
		<g>
			<path class="st7" d="M939.4-7185.1c-1.4,0.9-2.4,2.4-2.4,4.2c0,2.7,2.2,5,5,5c2.7,0,5-2.2,5-5c0-1.8-1-3.4-2.4-4.2v-13.9
				c0-1.4-1.2-2.6-2.6-2.6c-1.4,0-2.6,1.2-2.6,2.6V-7185.1z"/>
		</g>
		<g>
			<circle class="st8" cx="941.9" cy="-7180.9" r="3.1"/>
			<rect x="940.9" y="-7186.7" class="st8" width="2" height="4.3"/>
		</g>
		<line class="st7" x1="936.2" y1="-7195.1" x2="931.1" y2="-7195.1"/>
		<line class="st7" x1="936.2" y1="-7191.7" x2="932.8" y2="-7191.7"/>
		<line class="st7" x1="936.2" y1="-7188.3" x2="931.1" y2="-7188.3"/>
	</g>
	<g>
		<path class="st7" d="M621.9-7193c3.5,3.1,3.8,8.5,0.7,12s-8.5,3.8-12,0.7c-3.5-3.1-3.8-8.5-0.7-12"/>
		<polyline class="st7" points="616.3,-7192.1 616.3,-7185.5 612.1,-7181.2 		"/>
		<line class="st7" x1="616.3" y1="-7181.2" x2="616.3" y2="-7179.2"/>
		<line class="st7" x1="621.3" y1="-7185.5" x2="623.4" y2="-7185.5"/>
		<line class="st7" x1="609.2" y1="-7185.5" x2="611.2" y2="-7185.5"/>
		<line class="st7" x1="619.6" y1="-7182.2" x2="621.1" y2="-7180.7"/>
		<line class="st7" x1="620.3" y1="-7189.6" x2="621.8" y2="-7191.1"/>
		<g>
			<g>
				<path class="st8" d="M606.6-7191.8c1.2-0.2,2.4-0.3,3.6-0.5c-0.1-0.1-0.2-0.2-0.4-0.4c0.1,1.3,0.2,2.6,0.2,3.9
					c0,0.5,0.8,0.5,0.8,0c-0.1-1.3-0.2-2.6-0.2-3.9c0-0.2-0.2-0.4-0.4-0.4c-1.2,0.2-2.4,0.3-3.6,0.5
					C606.1-7192.5,606.1-7191.7,606.6-7191.8L606.6-7191.8z"/>
			</g>
		</g>
	</g>
	<g>
		<path class="st7" d="M781.1-7183.4c0.1,0.6,0,1.2-0.1,1.7c-0.3,1.1-1.1,2.1-2.1,2.7c-1.8,1-4.1,0.7-5.5-0.7
			c-1.4-1.4-1.7-3.7-0.7-5.4c0,0,0,0,0,0l3.6-6.3c0.1-0.1,0.3-0.2,0.4-0.2c0,0,0,0,0,0c0.1,0,0.1,0.1,0.1,0.1l3.6,6.3
			C780.8-7184.6,781-7184,781.1-7183.4z"/>
		<path class="st7" d="M782.7-7186.7c-1.8-0.9-2.4-3.3-1.3-5l2.6-4.6c0.1-0.2,0.5-0.2,0.6,0l2.6,4.6c0.4,0.5,0.5,1.2,0.5,1.9
			c0,0.6-0.2,1.2-0.5,1.7C786.5-7186.5,784.4-7185.9,782.7-7186.7z"/>
		<path class="st7" d="M774.8-7184c0,0-1,2.5,1.2,3.3"/>
		<path class="st7" d="M782.9-7190.8c0,0-0.8,2.1,1,2.7"/>
	</g>
</g>
<g>
	<circle class="st9" cx="150.2" cy="-7580.6" r="28.3"/>
	<line class="st10" x1="150.2" y1="-7636.6" x2="150.2" y2="-7524.7"/>
	<line class="st10" x1="94.2" y1="-7580.6" x2="206.2" y2="-7580.6"/>
	<line class="st10" x1="110.6" y1="-7620.2" x2="189.8" y2="-7541.1"/>
	<line class="st10" x1="110.6" y1="-7541.1" x2="189.8" y2="-7620.2"/>
</g>
<linearGradient id="SVGID_2_" gradientUnits="userSpaceOnUse" x1="1504.0469" y1="-4151.7026" x2="2104.0471" y2="-4151.7026" gradientTransform="matrix(4.489700e-11 -1 1 4.489700e-11 4791.7031 -3511.1528)">
	<stop  offset="0" style="stop-color:#C8C7C6"/>
	<stop  offset="0.3296" style="stop-color:#DBD8C4"/>
	<stop  offset="0.7286" style="stop-color:#EDE8C2"/>
	<stop  offset="1" style="stop-color:#F3EEC1"/>
</linearGradient>
<rect x="0" y="-5603.4" class="st11" width="1280" height="600"/>
<linearGradient id="SVGID_3_" gradientUnits="userSpaceOnUse" x1="877.2209" y1="-4151.7026" x2="1477.2211" y2="-4151.7026" gradientTransform="matrix(4.489700e-11 -1 1 4.489700e-11 4791.7031 -3511.1528)">
	<stop  offset="0" style="stop-color:#E2D0CA"/>
	<stop  offset="1" style="stop-color:#98D3DD"/>
</linearGradient>
<rect x="0" y="-4988.4" class="st12" width="1280" height="600"/>
<linearGradient id="SVGID_4_" gradientUnits="userSpaceOnUse" x1="265.5739" y1="-4151.7026" x2="865.574" y2="-4151.7026" gradientTransform="matrix(4.489700e-11 -1 1 4.489700e-11 4791.7031 -3511.1528)">
	<stop  offset="0" style="stop-color:#F4B59C"/>
	<stop  offset="0.1437" style="stop-color:#D6B8A7"/>
	<stop  offset="0.3445" style="stop-color:#ADB7B2"/>
	<stop  offset="0.5367" style="stop-color:#87B3BA"/>
	<stop  offset="0.7152" style="stop-color:#65AEBE"/>
	<stop  offset="0.8749" style="stop-color:#49AAC0"/>
	<stop  offset="1" style="stop-color:#3DA9C0"/>
</linearGradient>
<rect y="-4370.3" class="st13" width="1280" height="600"/>
<linearGradient id="SVGID_5_" gradientUnits="userSpaceOnUse" x1="265.5739" y1="-4151.7031" x2="865.574" y2="-4151.7031" gradientTransform="matrix(4.489700e-11 -1 1 4.489700e-11 4791.7031 -3511.1528)">
	<stop  offset="0" style="stop-color:#869498"/>
	<stop  offset="8.478856e-02" style="stop-color:#6B99A3"/>
	<stop  offset="0.196" style="stop-color:#489CAE"/>
	<stop  offset="0.3213" style="stop-color:#179CB5"/>
	<stop  offset="0.4667" style="stop-color:#009CB9"/>
	<stop  offset="0.6507" style="stop-color:#009CBB"/>
	<stop  offset="1" style="stop-color:#009BBC"/>
</linearGradient>
<rect x="0" y="-4370.3" class="st14" width="1280" height="600"/>
<linearGradient id="SVGID_6_" gradientUnits="userSpaceOnUse" x1="-358.4885" y1="-4151.7026" x2="241.5116" y2="-4151.7026" gradientTransform="matrix(4.489700e-11 -1 1 4.489700e-11 4791.7031 -3511.1528)">
	<stop  offset="0" style="stop-color:#F4B59C"/>
	<stop  offset="0.1437" style="stop-color:#D6B8A7"/>
	<stop  offset="0.3445" style="stop-color:#ADB7B2"/>
	<stop  offset="0.5367" style="stop-color:#87B3BA"/>
	<stop  offset="0.7152" style="stop-color:#65AEBE"/>
	<stop  offset="0.8749" style="stop-color:#49AAC0"/>
	<stop  offset="1" style="stop-color:#3DA9C0"/>
</linearGradient>
<rect y="-3746.2" class="st15" width="1280" height="600"/>
<linearGradient id="SVGID_7_" gradientUnits="userSpaceOnUse" x1="-358.4885" y1="-4151.7031" x2="241.5118" y2="-4151.7031" gradientTransform="matrix(4.489700e-11 -1 1 4.489700e-11 4791.7031 -3511.1528)">
	<stop  offset="0" style="stop-color:#F7AE81"/>
	<stop  offset="0.2374" style="stop-color:#D9907D"/>
	<stop  offset="0.5303" style="stop-color:#BE7576"/>
	<stop  offset="0.7936" style="stop-color:#AF6672"/>
	<stop  offset="1" style="stop-color:#A96170"/>
</linearGradient>
<rect x="0" y="-3746.2" class="st16" width="1280" height="600"/>
<linearGradient id="SVGID_8_" gradientUnits="userSpaceOnUse" x1="-358.4885" y1="-4151.7031" x2="241.5118" y2="-4151.7031" gradientTransform="matrix(4.489700e-11 -1 1 4.489700e-11 4791.7031 -3511.1528)">
	<stop  offset="0" style="stop-color:#F7AE81"/>
	<stop  offset="0.2374" style="stop-color:#D9907D"/>
	<stop  offset="0.5303" style="stop-color:#BE7576"/>
	<stop  offset="0.7936" style="stop-color:#AF6672"/>
	<stop  offset="1" style="stop-color:#A96170"/>
</linearGradient>
<rect x="0" y="-3746.2" class="st17" width="1280" height="600"/>
<linearGradient id="SVGID_9_" gradientUnits="userSpaceOnUse" x1="-970.5497" y1="-4151.7026" x2="-370.5496" y2="-4151.7026" gradientTransform="matrix(4.489700e-11 -1 1 4.489700e-11 4791.7031 -3511.1528)">
	<stop  offset="0" style="stop-color:#F4B59C"/>
	<stop  offset="0.1437" style="stop-color:#D6B8A7"/>
	<stop  offset="0.3445" style="stop-color:#ADB7B2"/>
	<stop  offset="0.5367" style="stop-color:#87B3BA"/>
	<stop  offset="0.7152" style="stop-color:#65AEBE"/>
	<stop  offset="0.8749" style="stop-color:#49AAC0"/>
	<stop  offset="1" style="stop-color:#3DA9C0"/>
</linearGradient>
<rect y="-3134.2" class="st18" width="1280" height="600"/>
<linearGradient id="SVGID_10_" gradientUnits="userSpaceOnUse" x1="-970.4208" y1="-4151.7031" x2="-358.3594" y2="-4151.7031" gradientTransform="matrix(4.489700e-11 -1 1 4.489700e-11 4791.7031 -3511.1528)">
	<stop  offset="0" style="stop-color:#E1AEA8"/>
	<stop  offset="5.368674e-02" style="stop-color:#D6A5A3"/>
	<stop  offset="0.2758" style="stop-color:#AC858F"/>
	<stop  offset="0.4881" style="stop-color:#8C6E80"/>
	<stop  offset="0.6853" style="stop-color:#756077"/>
	<stop  offset="0.8617" style="stop-color:#675872"/>
	<stop  offset="1" style="stop-color:#625570"/>
</linearGradient>
<rect x="0" y="-3146.2" class="st19" width="1280" height="612.1"/>
<linearGradient id="SVGID_11_" gradientUnits="userSpaceOnUse" x1="-1591.6118" y1="-4151.7031" x2="-991.6117" y2="-4151.7031" gradientTransform="matrix(4.489700e-11 -1 1 4.489700e-11 4791.7031 -3511.1528)">
	<stop  offset="0" style="stop-color:#553D69"/>
	<stop  offset="0.1392" style="stop-color:#47305B"/>
	<stop  offset="0.3902" style="stop-color:#322047"/>
	<stop  offset="0.6251" style="stop-color:#25183B"/>
	<stop  offset="0.8353" style="stop-color:#1D1535"/>
	<stop  offset="1" style="stop-color:#1A1333"/>
</linearGradient>
<rect x="0" y="-2513.1" class="st20" width="1280" height="600"/>
<linearGradient id="SVGID_12_" gradientUnits="userSpaceOnUse" x1="-2212.6741" y1="-4151.7036" x2="-1612.6738" y2="-4151.7036" gradientTransform="matrix(4.489700e-11 -1 1 4.489700e-11 4791.7031 -3511.1528)">
	<stop  offset="0" style="stop-color:#2F3668"/>
	<stop  offset="9.947407e-02" style="stop-color:#2C2F5E"/>
	<stop  offset="0.3621" style="stop-color:#242149"/>
	<stop  offset="0.6078" style="stop-color:#1F193C"/>
	<stop  offset="0.8277" style="stop-color:#1C1535"/>
	<stop  offset="1" style="stop-color:#1A1333"/>
</linearGradient>
<rect x="0" y="-1892.1" class="st21" width="1280" height="600"/>
<g class="st1">
	
		<image style="overflow:visible;" width="5634" height="2801" xlink:href="950931C86805F1BF.png"  transform="matrix(0.24 0 0 0.24 -36.7778 -1292.3442)">
	</image>
</g>
<g class="st1">
	
		<image style="overflow:visible;" width="5634" height="2801" xlink:href="950931C86805F1BD.png"  transform="matrix(0.24 0 0 0.24 -36.7778 -1292.3442)">
	</image>
</g>
<g class="st22">
	
		<image style="overflow:visible;" width="5629" height="1099" xlink:href="950931C86805F1C3.png"  transform="matrix(0.24 0 0 0.24 -33.961 -871.2391)">
	</image>
</g>
<g>
	
		<image style="overflow:visible;" width="779" height="513" xlink:href="950931C86805F1C5.png"  transform="matrix(0.24 0 0 0.24 548.8047 -461.2548)">
	</image>
</g>
<g>
	
		<image style="overflow:visible;" width="599" height="599" xlink:href="950931C86805F1C7.png"  transform="matrix(0.24 0 0 0.24 577.2639 50.7163)">
	</image>
</g>
</svg>
