<?xml version="1.0" encoding="utf-8"?>
<!-- Generator: Adobe Illustrator 17.0.0, SVG Export Plug-In . SVG Version: 6.00 Build 0)  -->
<!DOCTYPE svg PUBLIC "-//W3C//DTD SVG 1.1//EN" "http://www.w3.org/Graphics/SVG/1.1/DTD/svg11.dtd">
<svg version="1.1" id="Calque_1" xmlns="http://www.w3.org/2000/svg" xmlns:xlink="http://www.w3.org/1999/xlink" x="0px" y="0px"
	 width="1280px" height="599.625px" viewBox="0 0 1280 599.625" enable-background="new 0 0 1280 599.625" xml:space="preserve">
<path d="M642.641,298.586l13.196-13.196c0.391-0.391,0.391-1.023,0-1.414s-1.023-0.391-1.414,0l-13.196,13.196l-13.196-13.196
	c-0.391-0.391-1.023-0.391-1.414,0s-0.391,1.023,0,1.414l13.196,13.196l-13.196,13.196c-0.391,0.391-0.391,1.023,0,1.414
	c0.195,0.195,0.451,0.293,0.707,0.293s0.512-0.098,0.707-0.293L641.227,300l13.196,13.196c0.195,0.195,0.451,0.293,0.707,0.293
	s0.512-0.098,0.707-0.293c0.391-0.391,0.391-1.023,0-1.414L642.641,298.586z"/>
</svg>
