<?xml version="1.0" encoding="utf-8"?>
<!-- Generator: Adobe Illustrator 16.0.0, SVG Export Plug-In . SVG Version: 6.00 Build 0)  -->
<!DOCTYPE svg PUBLIC "-//W3C//DTD SVG 1.1//EN" "http://www.w3.org/Graphics/SVG/1.1/DTD/svg11.dtd">
<svg version="1.1" id="Calque_1" xmlns="http://www.w3.org/2000/svg" xmlns:xlink="http://www.w3.org/1999/xlink" x="0px" y="0px"
	 width="271px" height="86px" viewBox="0 0 271 86" style="enable-background:new 0 0 271 86;" xml:space="preserve">
<style type="text/css">
<![CDATA[
	.st0{clip-path:url(#SVGID_10_);fill:#B8484E;}
	.st1{clip-path:url(#SVGID_12_);fill:#EB5B5C;}
	.st2{clip-path:url(#SVGID_2_);fill:#B8484E;}
	.st3{clip-path:url(#SVGID_4_);fill:#EB5B5C;}
	.st4{fill:none;stroke:#EB5B5C;stroke-miterlimit:10;}
	.st5{fill:#FFFFFF;}
	.st6{fill:#9F3E43;}
	.st7{clip-path:url(#SVGID_6_);fill:#B8484E;}
	.st8{clip-path:url(#SVGID_8_);fill:#EB5B5C;}
]]>
</style>
<path class="st5" d="M165.7,41.7c0,7.4-6,13.3-13.3,13.3C145,55,139,49,139,41.7H165.7z"/>
<g>
	<defs>
		<path id="SVGID_1_" d="M23.6,38.4v3C24.3,54,34.4,64.1,47,64.9h3.3c13.1-0.9,23.4-11.7,23.4-25c0-13.9-11.2-25.1-25.1-25.1
			C35.3,14.8,24.4,25.2,23.6,38.4"/>
	</defs>
	<clipPath id="SVGID_2_">
		<use xlink:href="#SVGID_1_"  style="overflow:visible;"/>
	</clipPath>
	
		<rect x="23.6" y="14.8" transform="matrix(-1.050754e-003 -1 1 -1.050754e-003 8.8363 88.5731)" class="st2" width="50.2" height="50.2"/>
</g>
<g>
	<defs>
		<path id="SVGID_3_" d="M23.5,39.9C23.5,53.8,34.8,65,48.6,65c13.9,0,25.1-11.2,25.1-25.1c0-13.9-11.2-25.1-25.1-25.1
			C34.8,14.8,23.5,26,23.5,39.9"/>
	</defs>
	<clipPath id="SVGID_4_">
		<use xlink:href="#SVGID_3_"  style="overflow:visible;"/>
	</clipPath>
	<rect x="23.6" y="14.8" class="st3" width="25.5" height="50.1"/>
</g>
<circle class="st4" cx="48.7" cy="39.7" r="31.6"/>
<path class="st6" d="M53,30.7L42.8,41.1h2.8v9.7h4.7v-5.3h0c0,0,0,0,0,0c0-1,0.8-1.9,1.9-1.9c1,0,1.9,0.8,1.9,1.9c0,0,0,0,0,0h0v5.3
	h6.8v-9.7h3L53,30.7z"/>
<path class="st5" d="M48,27.7L37.8,38h2.8v9.7h4.7v-5.3h0c0,0,0,0,0,0c0-1,0.8-1.9,1.9-1.9c1,0,1.9,0.8,1.9,1.9c0,0,0,0,0,0h0v5.3
	h6.8V38h3L48,27.7z"/>
<g>
	<defs>
		<path id="SVGID_5_" d="M115.1,38.4v3c0.7,12.6,10.8,22.7,23.4,23.5h3.3c13.1-0.9,23.4-11.7,23.4-25c0-13.9-11.2-25.1-25.1-25.1
			C126.8,14.8,115.9,25.2,115.1,38.4"/>
	</defs>
	<clipPath id="SVGID_6_">
		<use xlink:href="#SVGID_5_"  style="overflow:visible;"/>
	</clipPath>
	
		<rect x="115.1" y="14.8" transform="matrix(-1.050754e-003 -1 1 -1.050754e-003 100.4324 180.0731)" class="st7" width="50.2" height="50.2"/>
</g>
<g>
	<defs>
		<path id="SVGID_7_" d="M115,39.9c0,13.9,11.2,25.1,25.1,25.1c13.9,0,25.1-11.2,25.1-25.1c0-13.9-11.2-25.1-25.1-25.1
			C126.3,14.8,115,26,115,39.9"/>
	</defs>
	<clipPath id="SVGID_8_">
		<use xlink:href="#SVGID_7_"  style="overflow:visible;"/>
	</clipPath>
	<rect x="115.1" y="14.8" class="st8" width="25.5" height="50.1"/>
</g>
<circle class="st4" cx="140.2" cy="39.7" r="36.1"/>
<path class="st6" d="M144.5,30.7l-10.2,10.3h2.8v9.7h4.7v-5.3h0c0,0,0,0,0,0c0-1,0.8-1.9,1.9-1.9c1,0,1.9,0.8,1.9,1.9c0,0,0,0,0,0h0
	v5.3h6.8v-9.7h3L144.5,30.7z"/>
<path class="st5" d="M139.5,27.7L129.3,38h2.8v9.7h4.7v-5.3h0c0,0,0,0,0,0c0-1,0.8-1.9,1.9-1.9c1,0,1.9,0.8,1.9,1.9c0,0,0,0,0,0h0
	v5.3h6.8V38h3L139.5,27.7z"/>
<g>
	<g>
		<defs>
			<path id="SVGID_9_" d="M205.9,38.4v3c0.7,12.6,10.8,22.7,23.4,23.5h3.3c13.1-0.9,23.4-11.7,23.4-25c0-13.9-11.2-25.1-25.1-25.1
				C217.6,14.8,206.7,25.2,205.9,38.4"/>
		</defs>
		<clipPath id="SVGID_10_">
			<use xlink:href="#SVGID_9_"  style="overflow:visible;"/>
		</clipPath>
		
			<rect x="205.9" y="14.8" transform="matrix(-1.050754e-003 -1 1 -1.050754e-003 191.3619 270.907)" class="st0" width="50.2" height="50.2"/>
	</g>
	<g>
		<defs>
			<path id="SVGID_11_" d="M205.9,39.9c0,13.9,11.2,25.1,25.1,25.1c13.9,0,25.1-11.2,25.1-25.1c0-13.9-11.2-25.1-25.1-25.1
				C217.1,14.8,205.9,26,205.9,39.9"/>
		</defs>
		<clipPath id="SVGID_12_">
			<use xlink:href="#SVGID_11_"  style="overflow:visible;"/>
		</clipPath>
		<rect x="205.9" y="14.8" class="st1" width="25.5" height="50.1"/>
	</g>
	<path class="st6" d="M235.3,30.7l-10.2,10.3h2.8v9.7h4.7v-5.3h0c0,0,0,0,0,0c0-1,0.8-1.9,1.9-1.9c1,0,1.9,0.8,1.9,1.9c0,0,0,0,0,0
		h0v5.3h6.8v-9.7h3L235.3,30.7z"/>
	<path class="st5" d="M230.3,27.7L220.1,38h2.8v9.7h4.7v-5.3h0c0,0,0,0,0,0c0-1,0.8-1.9,1.9-1.9c1,0,1.9,0.8,1.9,1.9c0,0,0,0,0,0h0
		v5.3h6.8V38h3L230.3,27.7z"/>
</g>
</svg>
