<?xml version="1.0" encoding="utf-8"?>
<!-- Generator: Adobe Illustrator 17.0.0, SVG Export Plug-In . SVG Version: 6.00 Build 0)  -->
<!DOCTYPE svg PUBLIC "-//W3C//DTD SVG 1.1//EN" "http://www.w3.org/Graphics/SVG/1.1/DTD/svg11.dtd">
<svg version="1.1" id="Calque_1" xmlns="http://www.w3.org/2000/svg" xmlns:xlink="http://www.w3.org/1999/xlink" x="0px" y="0px"
	 width="1280px" height="599.625px" viewBox="0 0 1280 599.625" enable-background="new 0 0 1280 599.625" xml:space="preserve">
<g>
	<defs>
		<rect id="SVGID_1_" x="609.74" y="214.605" width="63.688" height="58.228"/>
	</defs>
	<clipPath id="SVGID_2_">
		<use xlink:href="#SVGID_1_"  overflow="visible"/>
	</clipPath>
	<g clip-path="url(#SVGID_2_)">
		<g>
			<g id="XMLID_13_">
				<g>
					<path fill="#E5595F" d="M630.449,322.977h33.658v-50.145h-11.528h-2.983l-4.676,9.916l-5.119-9.916h-13.584h-8.667
						c0,0-6.288,1.975-5.925,6.611c-0.242,6.329-0.121,32.046-0.04,43.534l0,0H630.449z"/>
					<path fill="#F6D9BE" d="M611.585,322.977L611.585,322.977c0,3.426,0.04,5.603,0.04,5.603s0.242,5.442,5.2,7.296
						c1.008,0.403,2.257,0.645,3.708,0.645c8.586,0,9.916-7.901,9.916-7.901v-5.603h-18.865V322.977z"/>
					<path fill="#4E7EA1" d="M616.341,372.678v10.037h15.277c3.91,0,7.054,0.322,7.054-5.442c0-1.693-1.008-3.184-2.58-4.192v0.443
						L616.341,372.678z"/>
					<path fill="#4E7EA1" d="M616.341,371.791v0.887l19.751,0.806v-0.443c-1.209-0.766-2.781-1.25-4.474-1.25H616.341z"/>
					<path fill="#F6D9BE" d="M639.801,272.832l5.079,9.916l4.676-9.916h2.983c10.561-1.008,11.528-10.883,11.528-10.883v-14.511
						c0,0-25.395,0-29.023-9.553c-1.653,5.925-1.33,8.908-2.62,14.511c0,0-5.925-8.263-9.916-4.958
						c-0.846,0.726-1.491,0.605-1.935,0l0,0c-7.417,10.883,5.643,15.519,5.643,15.519v9.876H639.801z M640.648,255.177
						c0-0.766,0.322-1.491,0.806-1.975c0.524-0.524,1.209-0.806,1.975-0.806s1.491,0.322,1.975,0.806
						c0.524,0.524,0.806,1.209,0.806,1.975c0,0.766-0.322,1.491-0.806,1.975c-0.524,0.524-1.209,0.806-1.975,0.806
						C641.897,257.999,640.648,256.749,640.648,255.177z M654.514,255.177c0-0.766,0.322-1.491,0.806-1.975
						c0.524-0.524,1.209-0.806,1.975-0.806s1.491,0.322,1.975,0.806c0.484,0.524,0.806,1.209,0.806,1.975
						c0,0.766-0.322,1.491-0.806,1.975c-0.524,0.524-1.209,0.806-1.975,0.806C655.764,257.999,654.514,256.749,654.514,255.177z"/>
					<path fill="#42213A" d="M620.574,247.438c0.443,0.605,1.088,0.726,1.935,0c3.95-3.305,9.916,4.958,9.916,4.958
						c1.33-5.603,1.008-8.586,2.62-14.511c3.628,9.553,29.023,9.553,29.023,9.553s3.628,1.33,3.628-0.322
						c0-16.567-7.256-28.378-19.792-28.378c-28.378-1.653-28.378,17.817-28.378,17.817S618.921,245.221,620.574,247.438
						L620.574,247.438z"/>
					<path fill="#959E9F" d="M658.303,371.509h2.096c1.33,0,2.62,0.282,3.668,0.806v-39.06v-10.239h-33.618v5.603
						c0,0-1.33,7.901-9.916,7.901c-1.491,0-2.701-0.242-3.708-0.645l-0.242,0.645l-0.322,36.157h0.081v-0.887h15.277
						c1.693,0,3.265,0.484,4.474,1.25v-36.843h9.07v15.801v19.51L658.303,371.509L658.303,371.509z"/>
					<path fill="#010202" d="M641.494,253.202c-0.524,0.524-0.806,1.209-0.806,1.975c0,1.532,1.25,2.822,2.822,2.822
						c0.766,0,1.491-0.322,1.975-0.806c0.524-0.524,0.806-1.209,0.806-1.975s-0.322-1.491-0.806-1.975
						c-0.524-0.524-1.209-0.806-1.975-0.806C642.703,252.396,641.978,252.678,641.494,253.202z"/>
					<path fill="#4E7EA1" d="M645.122,372.678v9.715h15.277c3.91,0,7.054,0.322,7.054-5.442c0-1.975-1.37-3.708-3.386-4.636v0.403
						h-18.945V372.678z"/>
					<path fill="#4E7EA1" d="M645.122,371.509v1.169h18.945v-0.403c-1.088-0.484-2.338-0.806-3.668-0.806h-2.096h-13.181V371.509z"
						/>
					<path fill="#010202" d="M655.32,253.202c-0.484,0.524-0.806,1.209-0.806,1.975c0,1.532,1.25,2.822,2.781,2.822
						c0.766,0,1.491-0.322,1.975-0.806c0.484-0.524,0.806-1.209,0.806-1.975s-0.322-1.491-0.806-1.975
						c-0.524-0.524-1.209-0.806-1.975-0.806C656.529,252.396,655.844,252.678,655.32,253.202z"/>
					<path fill="#7A3939" d="M664.067,322.977v10.238c3.95,0,3.628-5.603,3.628-5.603s-0.323-36.278,0-45.549
						c0.322-9.231-3.628-9.231-3.628-9.231V322.977z"/>
				</g>
				<g>
				</g>
			</g>
		</g>
		<path fill="#EF8171" d="M646.976,288.553c0,1.129-0.887,2.015-2.015,2.015l0,0c-1.129,0-2.015-0.887-2.015-2.015l0,0
			c0-1.129,0.887-2.015,2.015-2.015l0,0C646.049,286.537,646.976,287.424,646.976,288.553L646.976,288.553z"/>
		<path fill="#EF8171" d="M646.976,298.227c0,1.129-0.887,2.015-2.015,2.015l0,0c-1.129,0-2.015-0.887-2.015-2.015l0,0
			c0-1.129,0.887-2.015,2.015-2.015l0,0C646.049,296.212,646.976,297.098,646.976,298.227L646.976,298.227z"/>
		<path fill="#EF8171" d="M646.976,308.506c0,1.129-0.887,2.015-2.015,2.015l0,0c-1.129,0-2.015-0.887-2.015-2.015l0,0
			c0-1.129,0.887-2.015,2.015-2.015l0,0C646.049,306.49,646.976,307.377,646.976,308.506L646.976,308.506z"/>
		<path fill="#FFFFFF" d="M656.126,263.037c0,2.983-2.419,5.361-5.361,5.361c-2.983,0-5.361-2.419-5.361-5.361H656.126z"/>
	</g>
</g>
</svg>
