<?xml version="1.0" encoding="utf-8"?>
<!-- Generator: Adobe Illustrator 16.0.3, SVG Export Plug-In . SVG Version: 6.00 Build 0)  -->
<!DOCTYPE svg PUBLIC "-//W3C//DTD SVG 1.1//EN" "http://www.w3.org/Graphics/SVG/1.1/DTD/svg11.dtd">
<svg version="1.1" id="Calque_1" xmlns="http://www.w3.org/2000/svg" xmlns:xlink="http://www.w3.org/1999/xlink" x="0px" y="0px"
	 width="1920px" height="1080px" viewBox="0 0 1920 1080" style="enable-background:new 0 0 1920 1080;" xml:space="preserve">
<style type="text/css">
<![CDATA[
	.st0{display:inline;clip-path:url(#SVGID_2_);fill:#A6A6A5;}
	.st1{opacity:0.4;clip-path:url(#SVGID_6_);}
	.st2{clip-path:url(#SVGID_4_);}
	.st3{clip-path:url(#SVGID_8_);}
	.st4{opacity:0.7;}
	.st5{display:inline;}
	.st6{clip-path:url(#SVGID_10_);fill:url(#SVGID_11_);}
	.st7{display:inline;clip-path:url(#SVGID_2_);fill:#FFFFFF;}
	.st8{display:none;}
]]>
</style>
<g class="st8">
	<defs>
		<rect id="SVGID_1_" x="-8.2" y="-24.5" width="1521.2" height="1087.1"/>
	</defs>
	<clipPath id="SVGID_2_" class="st5">
		<use xlink:href="#SVGID_1_"  style="overflow:visible;"/>
	</clipPath>
	<path class="st7" d="M398.3,286.7c0,25,20.3,45.3,45.3,45.3c25,0,45.3-20.3,45.3-45.3c0-25-20.3-45.3-45.3-45.3
		C418.5,241.4,398.3,261.6,398.3,286.7"/>
	<path class="st7" d="M384.7,286.7c0-32.5,26.4-58.9,58.9-58.9c32.5,0,58.9,26.4,58.9,58.9c0,32.5-26.4,58.9-58.9,58.9
		C411.1,345.6,384.7,319.1,384.7,286.7 M387.2,286.7c0,31.1,25.3,56.4,56.4,56.4c31.1,0,56.4-25.3,56.4-56.4
		c0-31.1-25.3-56.4-56.4-56.4C412.5,230.3,387.2,255.6,387.2,286.7"/>
	<path class="st0" d="M425.8,287.1c0-0.1,0-0.1,0-0.2c0-0.1,0-0.1,0-0.2c0-0.1,0.1-0.1,0.1-0.2c0-0.1,0.1-0.1,0.1-0.2c0,0,0,0,0,0
		l21.6-21.3c0.4-0.4,1.3-0.5,1.9-0.2c0.6,0.3,0.7,0.9,0.3,1.3l-21.1,20.7l21.1,20.2c0.4,0.4,0.3,1-0.3,1.3c-0.2,0.1-0.5,0.2-0.8,0.2
		c-0.4,0-0.8-0.1-1.1-0.4l-21.7-20.8c0,0,0,0,0,0c-0.1-0.1-0.1-0.1-0.1-0.2C425.9,287.2,425.9,287.2,425.8,287.1"/>
</g>
<g>
	<defs>
		<rect id="SVGID_3_" x="4.5" y="-1.5" width="1919.5" height="1080.9"/>
	</defs>
	<clipPath id="SVGID_4_">
		<use xlink:href="#SVGID_3_"  style="overflow:visible;"/>
	</clipPath>
	<g class="st2">
		<defs>
			<rect id="SVGID_5_" x="4.5" y="-1.5" width="1919.5" height="1080.9"/>
		</defs>
		<clipPath id="SVGID_6_">
			<use xlink:href="#SVGID_5_"  style="overflow:visible;"/>
		</clipPath>
		<g class="st1">
			<g>
				<defs>
					<rect id="SVGID_7_" x="4.5" y="-1.5" width="1919.5" height="1080.9"/>
				</defs>
				<clipPath id="SVGID_8_">
					<use xlink:href="#SVGID_7_"  style="overflow:visible;"/>
				</clipPath>
				<g class="st3">
					<defs>
						<rect id="SVGID_9_" x="4.5" y="-1.5" width="1919.5" height="1080.9"/>
					</defs>
					<clipPath id="SVGID_10_">
						<use xlink:href="#SVGID_9_"  style="overflow:visible;"/>
					</clipPath>
					
						<linearGradient id="SVGID_11_" gradientUnits="userSpaceOnUse" x1="365.8623" y1="960.9971" x2="367.1465" y2="960.9971" gradientTransform="matrix(0 -841.8901 -841.8901 0 810018 309084)">
						<stop  offset="0" style="stop-color:#F9C5B1"/>
						<stop  offset="0.142" style="stop-color:#DAC4B7"/>
						<stop  offset="0.3434" style="stop-color:#AFBEBD"/>
						<stop  offset="0.536" style="stop-color:#87B6BF"/>
						<stop  offset="0.7149" style="stop-color:#65AFC0"/>
						<stop  offset="0.8749" style="stop-color:#49ABC0"/>
						<stop  offset="1" style="stop-color:#3DA9C0"/>
					</linearGradient>
					<rect x="4.5" y="-1.5" class="st6" width="1919.5" height="1080.9"/>
				</g>
			</g>
		</g>
	</g>
</g>
<g>
	
		<image style="overflow:visible;" width="8313" height="1987" xlink:href="81DD0C3F.png"  transform="matrix(0.24 0 0 0.24 -39.0903 639.2002)">
	</image>
</g>
<g class="st4">
	
		<image style="overflow:visible;" width="2132" height="1004" xlink:href="81DD0C3D.png"  transform="matrix(0.24 0 0 0.24 1339.9355 82.8525)">
	</image>
</g>
<g class="st4">
	
		<image style="overflow:visible;" width="1199" height="646" xlink:href="81DD0C43.png"  transform="matrix(0.24 0 0 0.24 512.7773 278.8833)">
	</image>
</g>
</svg>
