<?xml version="1.0" encoding="utf-8"?>
<!-- Generator: Adobe Illustrator 16.0.0, SVG Export Plug-In . SVG Version: 6.00 Build 0)  -->
<!DOCTYPE svg PUBLIC "-//W3C//DTD SVG 1.1//EN" "http://www.w3.org/Graphics/SVG/1.1/DTD/svg11.dtd">
<svg version="1.1" id="Calque_1" xmlns="http://www.w3.org/2000/svg" xmlns:xlink="http://www.w3.org/1999/xlink" x="0px" y="0px"
	 width="334px" height="999.1px" viewBox="0 0 334 999.1" style="enable-background:new 0 0 334 999.1;" xml:space="preserve">
<style type="text/css">
<![CDATA[
	.st0{fill:#E4585E;}
	.st1{fill:#E5575D;}
	.st2{fill:#EE8170;}
	.st3{fill:#F6D9BE;}
	.st4{fill:#949D9F;}
	.st5{fill:#793838;}
	.st6{fill:#412039;}
]]>
</style>
<g>
	<polygon class="st4" points="0,999.1 80.7,999.1 80.7,940.9 153.2,940.9 153.2,998.5 304.8,998.5 304.8,835.3 0.2,835.3 	"/>
	<path class="st3" d="M304.8,230.5v112.2c0,0-1.6,85.6-88.3,91.1c-23.3,14.2-65,89.5-65,89.5L0.2,433.9l0-298.8l250.5-4.3
		L304.8,230.5z"/>
	<polygon class="st0" points="0.2,433.9 110.6,433.9 151.2,513.1 188.6,433.9 304.8,433.9 304.8,835.3 0.2,835.3 	"/>
	<path class="st6" d="M0.2,226.3c0,0,29.7,14.4,51.1,43.8c6.6-35,15.9-110.3,21.1-116.2c3.5,7.5,33.6,87.8,261.4,73.9
		C333,200.6,342.2,0,137.7,0C122.5,0,42.5,2.5,0.2,42.9C0.2,95.4,0.2,226.3,0.2,226.3z"/>
	<circle cx="139.7" cy="292.6" r="22.4"/>
	<circle cx="250.7" cy="292.6" r="22.4"/>
	<path class="st1" d="M238.2,357.5c0,23.7-19.3,43-43,43c-23.7,0-43-19.3-43-43H238.2z"/>
	<circle class="st2" cx="151.5" cy="548.1" r="16.1"/>
	<circle class="st2" cx="151.5" cy="625.5" r="16.1"/>
	<circle class="st2" cx="151.5" cy="703" r="16.1"/>
	<path class="st5" d="M304.8,433.9c0,0,29.1-4.5,29.1,71.9s0,365,0,365s2.5,46.4-29.1,46.4C304.8,898.1,304.8,433.9,304.8,433.9z"/>
	<path class="st3" d="M35.5,835.3v42.1c0,0-4.9,42.1-35.3,54.7c0.5-17.4,0-96.9,0-96.9H35.5z"/>
</g>
</svg>
