<?xml version="1.0" encoding="UTF-8" standalone="no"?>
<svg
   xmlns:dc="http://purl.org/dc/elements/1.1/"
   xmlns:cc="http://creativecommons.org/ns#"
   xmlns:rdf="http://www.w3.org/1999/02/22-rdf-syntax-ns#"
   xmlns:svg="http://www.w3.org/2000/svg"
   xmlns="http://www.w3.org/2000/svg"
   xmlns:sodipodi="http://sodipodi.sourceforge.net/DTD/sodipodi-0.dtd"
   xmlns:inkscape="http://www.inkscape.org/namespaces/inkscape"
   version="1.1"
   id="svg3364"
   viewBox="0 0 1992.6134 678.3825"
   height="191.45462mm"
   width="562.3598mm"
   inkscape:version="0.91 r13725"
   sodipodi:docname="logo expressif - 19.svg">
  <sodipodi:namedview
     pagecolor="#ffffff"
     bordercolor="#666666"
     borderopacity="1"
     objecttolerance="10"
     gridtolerance="10"
     guidetolerance="10"
     inkscape:pageopacity="0"
     inkscape:pageshadow="2"
     inkscape:window-width="1920"
     inkscape:window-height="1138"
     id="namedview36"
     showgrid="false"
     inkscape:zoom="0.48"
     inkscape:cx="928.09983"
     inkscape:cy="314.17254"
     inkscape:window-x="-8"
     inkscape:window-y="-8"
     inkscape:window-maximized="1"
     inkscape:current-layer="svg3364"
     fit-margin-top="0"
     fit-margin-left="0"
     fit-margin-right="0"
     fit-margin-bottom="0" />
  <defs
     id="defs3366" />
  <metadata
     id="metadata3369">
    <rdf:RDF>
      <cc:Work
         rdf:about="">
        <dc:format>image/svg+xml</dc:format>
        <dc:type
           rdf:resource="http://purl.org/dc/dcmitype/StillImage" />
        <dc:title></dc:title>
      </cc:Work>
    </rdf:RDF>
  </metadata>
  <g
     transform="translate(-270.55852,67.470791)"
     id="layer1">
    <g
       style="fill:#ff6600"
       transform="matrix(-1.8042948,0,0,1.3549222,1142.4205,-373.80995)"
       id="g4201">
      <g
         style="fill:#bf0012;fill-opacity:1"
         id="g4482"
         transform="matrix(0.83333333,0,0,0.83333333,11.548882,121.06822)">
        <path
           id="path4214-8-9"
           d="m 400.05727,385.57043 c 5.20417,-13.01327 -6.32203,-21.15397 36.83856,-60.99777 37.99928,-35.07911 75.60416,-64.06026 94.47037,-98.1438 12.13937,-21.93095 19.66384,-38.87025 29.73746,-65.30444 8.74106,106.78336 -122.35254,196.41201 -161.04639,224.44601 z"
           style="fill:#bf0012;fill-opacity:1;fill-rule:evenodd;stroke:none;stroke-width:2.68011093px;stroke-linecap:butt;stroke-linejoin:miter;stroke-opacity:1"
           inkscape:connector-curvature="0" />
        <path
           id="path4214-8-0-1"
           d="m 400.12256,353.24917 c 2.49347,-12.20146 -9.19431,-16.35612 22.84085,-60.12087 28.20428,-38.53122 57.07219,-71.82586 68.29526,-105.01522 7.2214,-21.35555 11.13947,-37.41467 15.75842,-62.08272 25.645,88.01677 -76.89266,194.46685 -106.89453,227.21881 z"
           style="fill:#bf0012;fill-opacity:1;fill-rule:evenodd;stroke:none;stroke-width:2.33358121px;stroke-linecap:butt;stroke-linejoin:miter;stroke-opacity:1"
           inkscape:connector-curvature="0" />
        <path
           id="path4214-8-0-7-6"
           d="m 429.53287,418.27334 c 4.87362,-6.17983 -2.94473,-10.71491 31.99343,-28.4036 30.76011,-15.57341 60.73933,-28.15843 77.35321,-44.10721 10.69013,-10.26219 17.58563,-18.27247 27.11961,-30.84821 -2.17067,53.03888 -105.76268,91.29022 -136.46625,103.35902 z"
           style="fill:#bf0012;fill-opacity:1;fill-rule:evenodd;stroke:none;stroke-width:1.62158227px;stroke-linecap:butt;stroke-linejoin:miter;stroke-opacity:1"
           inkscape:connector-curvature="0" />
        <path
           id="path4214-8-0-9-3"
           d="m 430.07396,431.83354 c 5.13669,-3.58792 1.48475,-8.30036 29.85731,-14.74011 24.97968,-5.66967 48.50173,-9.31675 64.38712,-17.83987 10.22141,-5.48418 17.25623,-10.02932 27.45932,-17.40068 -18.25697,38.03076 -97.87385,46.83979 -121.70375,49.98066 z"
           style="fill:#bf0012;fill-opacity:1;fill-rule:evenodd;stroke:none;stroke-width:1.18033147px;stroke-linecap:butt;stroke-linejoin:miter;stroke-opacity:1"
           inkscape:connector-curvature="0" />
        <path
           id="path4214-8-9-2"
           d="m 422.19036,404.10272 c 4.79296,-9.66472 -3.52243,-16.62795 31.99129,-44.52966 31.26685,-24.56511 61.85237,-44.47452 78.41315,-69.46283 10.65595,-16.07866 17.46912,-28.61261 26.82421,-48.2757 0.0455,82.4985 -105.86858,143.1533 -137.22865,162.26819 z"
           style="fill:#bf0012;fill-opacity:1;fill-rule:evenodd;stroke:none;stroke-width:2.68011093px;stroke-linecap:butt;stroke-linejoin:miter;stroke-opacity:1"
           inkscape:connector-curvature="0" />
      </g>
      <g
         style="fill:#bf0012;fill-opacity:1"
         id="g4194">
        <path
           id="path4214-8-9-4"
           d="m 182.29432,255.33905 c -4.87891,59.6022 42.50949,112.76212 84.03321,148.40984 -0.11875,-0.6054 -0.18395,-1.44131 -0.17253,-2.5879 -0.57816,-9.36836 -1.77501,-19.0797 -1.40462,-28.5905 C 240.894,351.29534 219.27174,331.79488 207.0746,309.75963 196.95846,291.48384 190.68901,277.36754 182.29432,255.33905 Z m 97.18099,130.42644 c -5.10511,2.8446 -6.0184,10.16073 -8.99414,14.99349 -1.00957,1.87413 -2.0742,3.56866 -2.89551,4.06901 10.72435,9.14226 20.96769,17.06113 29.81609,23.64745 0.36901,-0.64518 0.75,-1.2981 1.11491,-1.94173 2.67318,-4.42883 5.11917,-8.98454 7.3356,-13.63932 -4.23802,-5.64914 -10.54044,-12.56859 -20.05208,-21.34928 -2.11177,-1.9495 -4.22054,-3.87257 -6.32487,-5.77962 z"
           style="fill:#bf0012;fill-opacity:1;fill-rule:evenodd;stroke:none;stroke-width:2.68011093px;stroke-linecap:butt;stroke-linejoin:miter;stroke-opacity:1"
           inkscape:connector-curvature="0" />
        <path
           id="path4214-8-0-1-5"
           d="m 227.36594,226.09426 c -12.68702,43.54338 12.26687,92.47863 39.87467,130.77963 0.51942,-1.6743 1.12781,-3.33244 1.85059,-4.96908 1.97025,-5.00503 5.22907,-8.90045 9.17317,-12.0931 -16.43362,-21.7861 -30.98386,-41.92325 -37.76692,-61.98242 -6.01784,-17.7963 -9.28239,-31.17832 -13.13151,-51.73503 z m 61.17512,129.40104 c -4.91149,5.83878 -7.56003,13.68349 -5.58267,20.9847 5.98225,-4.88821 7.30104,-13.51258 5.58267,-20.9847 z m 15.90659,19.95931 c -5.0487,3.63161 -11.02986,6.06824 -17.19076,7.13704 7.95518,9.54608 15.27882,17.67506 21.30371,24.25782 1.99744,-4.72239 3.75746,-9.53422 5.22949,-14.42871 -1.79718,-4.40558 -4.69633,-9.88321 -9.34244,-16.96615 z"
           style="fill:#bf0012;fill-opacity:1;fill-rule:evenodd;stroke:none;stroke-width:2.33358121px;stroke-linecap:butt;stroke-linejoin:miter;stroke-opacity:1"
           inkscape:connector-curvature="0" />
        <path
           id="path4214-8-0-7-6-1"
           d="m 178.21392,383.4966 c 1.56426,38.22177 66.27037,67.19603 100.30599,80.84636 1.15042,-2.82507 2.40677,-5.61863 3.74349,-8.38217 -3.57934,-2.66604 -8.90843,-5.91058 -16.98894,-10.00162 -25.63342,-12.97784 -50.61635,-23.46553 -64.46125,-36.75618 -8.90845,-8.55183 -14.6543,-15.2266 -22.59929,-25.70639 z"
           style="fill:#bf0012;fill-opacity:1;fill-rule:evenodd;stroke:none;stroke-width:1.62158227px;stroke-linecap:butt;stroke-linejoin:miter;stroke-opacity:1"
           inkscape:connector-curvature="0" />
        <path
           id="path4214-8-0-9-3-6"
           d="m 190.06613,439.27949 c 12.05104,25.10329 56.11778,34.90475 83.81673,39.20572 0.59911,-2.48406 1.31732,-4.93876 2.12565,-7.36817 -2.56097,-0.78945 -5.60827,-1.60911 -9.40429,-2.4707 -20.8164,-4.72472 -40.41777,-7.76393 -53.6556,-14.86653 -8.51784,-4.57015 -14.37991,-8.35752 -22.88249,-14.50032 z"
           style="fill:#bf0012;fill-opacity:1;fill-rule:evenodd;stroke:none;stroke-width:1.18033147px;stroke-linecap:butt;stroke-linejoin:miter;stroke-opacity:1"
           inkscape:connector-curvature="0" />
        <path
           id="path4214-8-9-2-0"
           d="m 183.69731,322.59654 c -0.0331,59.95037 67.06807,106.05076 101.57553,127.43327 1.86029,-3.5395 3.81325,-7.02617 5.78939,-10.48991 -3.4455,-4.70556 -9.31862,-10.69834 -19.66634,-18.82812 -26.05571,-20.47093 -51.54441,-37.06215 -65.34506,-57.88574 -8.87996,-13.3989 -14.5576,-23.8436 -22.35352,-40.2295 z"
           style="fill:#bf0012;fill-opacity:1;fill-rule:evenodd;stroke:none;stroke-width:2.68011093px;stroke-linecap:butt;stroke-linejoin:miter;stroke-opacity:1"
           inkscape:connector-curvature="0" />
      </g>
      <g
         style="fill:#bf0012;fill-opacity:1"
         id="g4253"
         transform="matrix(0.83333333,0,0,0.83333333,11.548882,121.06822)">
        <path
           id="path4174"
           d="m 395.98622,194.50379 c -6.25576,58.05155 -64.00804,54.97939 -78.92364,76.5765 -13.88348,20.10265 -8.04173,41.78123 -8.19487,59.32198 5.57285,-14.36771 10.44308,-18.48794 14.97791,-17.71654 -9.85468,-21.05481 6.65988,-39.46834 22.16005,-45.92238 20.98562,-8.73809 49.56125,-9.83297 55.19118,-38.3188 -5.24959,7.45892 -10.55926,11.90194 -15.9502,12.26574 17.5273,-24.08886 8.16821,-31.43244 10.73957,-46.2065 z"
           style="fill:#bf0012;fill-opacity:1;fill-rule:evenodd;stroke:none;stroke-width:1px;stroke-linecap:butt;stroke-linejoin:miter;stroke-opacity:1"
           inkscape:connector-curvature="0" />
        <path
           id="path4179"
           d="m 365.96687,266.26863 c -1.39281,26.17199 -14.95079,40.94387 -38.5198,43.7725 11.64286,-9.41357 10.63531,-20.50145 8.31678,-31.07847 8.63984,-8.03888 18.08529,-13.92949 30.20302,-12.69403 z"
           style="fill:#bf0012;fill-opacity:1;fill-rule:evenodd;stroke:none;stroke-width:1px;stroke-linecap:butt;stroke-linejoin:miter;stroke-opacity:1"
           inkscape:connector-curvature="0" />
      </g>
      <g
         style="fill:none;fill-opacity:1;stroke:#bf0012;stroke-opacity:1"
         id="g4187"
         transform="matrix(0.99568529,-0.09279443,0.09279443,0.99568529,-49.461922,40.387185)">
        <path
           id="path4529"
           d="m 335.33568,630.85534 c -0.001,-2e-5 -0.001,0.002 -0.002,0.002 5.9e-4,0.007 0.0102,0.008 0.015,0.007 0.0295,-0.005 0.0343,-0.0449 0.029,-0.0675 -0.0242,-0.10358 -0.16469,-0.11652 -0.2477,-0.0913 -0.31344,0.0954 -0.34348,0.51266 -0.2485,0.76824 0.30855,0.83096 1.4257,0.8903 2.12459,0.59354 2.01679,-0.85634 2.11891,-3.55462 1.29878,-5.26407 -2.14738,-4.47597 -8.52231,-5.08068 -12.12984,-2.5978 -7.6115,5.23861 -7.8132,14.72179 -4.90519,22.31669 7.1755,18.74041 37.50581,20.49288 52.42981,8.65758 31.49989,-24.98061 26.1531,-69.29569 6.41362,-100.205 -2.04339,-3.19967 -4.2795,-6.27696 -6.68495,-9.21665"
           style="fill:none;fill-opacity:1;fill-rule:evenodd;stroke:#bf0012;stroke-width:10;stroke-linecap:round;stroke-linejoin:round;stroke-miterlimit:4;stroke-dasharray:none;stroke-opacity:1"
           inkscape:connector-curvature="0" />
        <path
           id="path4533"
           d="m 448.95698,504.35326 c 0.001,0.004 -0.004,0.006 -0.006,0.007 -0.0223,0.006 -0.0371,-0.0246 -0.0396,-0.0414 -0.0155,-0.1 0.11174,-0.15614 0.19076,-0.16128 0.3537,-0.023 0.53056,0.40746 0.52805,0.69595 -0.009,1.0504 -1.26182,1.53115 -2.14287,1.46939 -2.74494,-0.19242 -3.91632,-3.42088 -3.62973,-5.76324 0.79025,-6.45898 8.30898,-8.50514 13.98909,-8.12781 16.24439,1.0791 23.91041,20.85536 20.28047,33.80538 -7.83057,27.93609 -34.55356,30.1158 -61.88786,9.18928 -11.11202,-8.5071 -36.73312,-11.1814 -42.61817,5.38163"
           style="fill:none;fill-opacity:1;fill-rule:evenodd;stroke:#bf0012;stroke-width:10;stroke-linecap:round;stroke-linejoin:round;stroke-miterlimit:4;stroke-dasharray:none;stroke-opacity:1"
           inkscape:connector-curvature="0" />
        <path
           transform="matrix(-0.43440193,-0.36510034,-0.34495147,0.45977567,410.59228,246.53398)"
           style="fill:none;fill-opacity:1;fill-rule:evenodd;stroke:#bf0012;stroke-width:17.52312469;stroke-linecap:round;stroke-linejoin:round;stroke-miterlimit:4;stroke-dasharray:none;stroke-opacity:1"
           d="m -129.50925,558.8017 0,0 c -2e-5,-2e-5 3e-5,-6e-5 3e-5,-7e-5 4.2e-4,-3.6e-4 0.001,4.4e-4 0.001,7e-4 0.003,0.004 -0.004,0.01 -0.007,0.0112 -0.0278,0.0131 -0.0543,-0.023 -0.0618,-0.0445 -0.0434,-0.12455 0.10512,-0.2269 0.20544,-0.25242 0.442,-0.11247 0.76863,0.38864 0.83444,0.75534 0.2376,1.32389 -1.21861,2.22822 -2.34165,2.3611 -3.48446,0.41228 -5.72585,-3.35307 -5.92887,-6.36097 -0.55909,-8.28306 8.30356,-13.36618 15.55575,-13.5445 18.13406,-0.44591 28.850779,18.86189 28.656068,34.92666 -0.44958,37.093 -39.875588,58.34982 -73.062998,56.89342 -71.66646,-3.14501 -126.82222,-80.12402 -110.80641,-143.33376 4.45341,-17.57631 17.21645,-36.96798 18.26715,-58.24502"
           id="path4535"
           inkscape:connector-curvature="0" />
        <path
           transform="matrix(0.58716025,0.05637328,0.05664871,-0.58430545,-14.462435,968.16612)"
           d="m 667.50983,632.34273 c -2.2e-4,0.01 -0.017,0.0108 -0.0232,0.01 -0.0653,-0.0104 -0.0662,-0.10918 -0.0535,-0.15511 0.0817,-0.29567 0.50784,-0.28596 0.72953,-0.2019 1.04545,0.39644 0.97117,1.87571 0.58669,2.69425 -1.4546,3.09677 -5.83159,2.77471 -8.33508,1.39774 -8.03266,-4.41814 -6.96113,-15.86703 -2.82199,-22.52425 11.68315,-18.79068 38.82806,-15.78238 54.71478,-4.88073 40.46593,27.7682 32.99669,87.16762 7.10727,121.94407 -30.2588,40.64571 -82.49728,58.72968 -131.89487,56.05447"
           id="path4537"
           style="fill:none;fill-opacity:1;fill-rule:evenodd;stroke:#bf0012;stroke-width:16.99377251;stroke-linecap:round;stroke-linejoin:round;stroke-miterlimit:4;stroke-dasharray:none;stroke-opacity:1"
           inkscape:connector-curvature="0" />
      </g>
      <path
         style="fill:#bf0012;fill-opacity:1;fill-rule:evenodd;stroke:none;stroke-width:4.74155903;stroke-linecap:round;stroke-linejoin:round;stroke-miterlimit:4;stroke-dasharray:none;stroke-opacity:1"
         d="m 323.78032,345.83547 c 5.73525,82.22801 -57.88322,104.39816 -45.26204,166.20117 5.7376,28.0956 33.56977,51.91118 55.34017,47.31771 63.9871,-13.50099 18.88688,-86.95597 26.30046,-120.59733 -11.28597,6.45852 -13.27922,13.52961 -14.60612,21.83757 -14.98307,-13.09383 9.91247,-85.79193 -21.77247,-114.75912 z m 7.38608,55.0472 c 5.93371,19.886 -5.22094,48.90046 11.20767,77.27214 16.42862,28.37168 20.31836,38.48531 13.28289,56.3916 -4.54805,11.57543 -12.91182,19.72662 -30.61361,19.60937 -17.70179,-0.11724 -42.61934,-30.11274 -28.07454,-68.09244 -5.01926,11.42185 20.98765,15.35761 30.23925,58.26171 5.67963,-16.92417 -28.86718,-54.40979 -23.89485,-77.86946 0.4216,-14.46875 29.6345,-35.43939 27.85319,-65.57292 z"
         id="path4189"
         inkscape:connector-curvature="0" />
    </g>
    <text
       id="text3450"
       y="529.13678"
       x="667.99048"
       style="font-style:normal;font-weight:normal;font-size:40px;line-height:125%;font-family:sans-serif;letter-spacing:0px;word-spacing:0px;fill:#aca39d;fill-opacity:1;stroke:none;stroke-width:8.19999981;stroke-linecap:butt;stroke-linejoin:miter;stroke-miterlimit:4;stroke-dasharray:none;stroke-opacity:1"
       xml:space="preserve"
       sodipodi:linespacing="125%"><tspan
         style="font-style:normal;font-variant:normal;font-weight:normal;font-stretch:normal;font-size:362.5px;font-family:'MV Boli';-inkscape-font-specification:'MV Boli';opacity:1;fill:#aca39d;fill-opacity:1;stroke-width:8.19999981;stroke-miterlimit:4;stroke-dasharray:none"
         y="529.13678"
         x="667.99048"
         id="tspan3452"><tspan
           style="fill:#aca39d;fill-opacity:1"
           id="tspan4185"><tspan
             style="fill:#aca39d;fill-opacity:1"
             id="tspan4187">Express </tspan></tspan></tspan></text>
  </g>
  <flowRoot
     xml:space="preserve"
     id="flowRoot4163"
     style="font-style:normal;font-weight:normal;font-size:40px;line-height:125%;font-family:sans-serif;letter-spacing:0px;word-spacing:0px;fill:#000000;fill-opacity:1;stroke:none;stroke-width:1px;stroke-linecap:butt;stroke-linejoin:miter;stroke-opacity:1"
     transform="translate(-4.8152039e-6,-3.0472518e-5)"><flowRegion
       id="flowRegion4165"><rect
         id="rect4167"
         width="1142.2462"
         height="111.58189"
         x="669.49139"
         y="484.24875" /></flowRegion><flowPara
       id="flowPara4169" /></flowRoot>  <flowRoot
     xml:space="preserve"
     id="flowRoot4171"
     style="font-style:normal;font-weight:normal;font-size:40px;line-height:125%;font-family:sans-serif;letter-spacing:0px;word-spacing:0px;fill:#000000;fill-opacity:1;stroke:none;stroke-width:1px;stroke-linecap:butt;stroke-linejoin:miter;stroke-opacity:1"
     transform="translate(-4.8152039e-6,-3.0472518e-5)"><flowRegion
       id="flowRegion4173"><rect
         id="rect4175"
         width="1442.3528"
         height="314.26578"
         x="376.02899"
         y="321.15601" /></flowRegion><flowPara
       id="flowPara4177" /></flowRoot>  <flowRoot
     xml:space="preserve"
     id="flowRoot4179"
     style="font-style:normal;font-weight:normal;font-size:40px;line-height:125%;font-family:sans-serif;letter-spacing:0px;word-spacing:0px;fill:#000000;fill-opacity:1;stroke:none;stroke-width:1px;stroke-linecap:butt;stroke-linejoin:miter;stroke-opacity:1"
     transform="translate(-4.8152039e-6,-3.0472518e-5)"><flowRegion
       id="flowRegion4181"><rect
         id="rect4183"
         width="214.35469"
         height="287.0173"
         x="1638.5417"
         y="446.49902" /></flowRegion><flowPara
       id="flowPara4185" /></flowRoot>  <flowRoot
     xml:space="preserve"
     id="flowRoot4187"
     style="font-style:normal;font-weight:normal;font-size:40px;line-height:125%;font-family:sans-serif;letter-spacing:0px;word-spacing:0px;fill:#000000;fill-opacity:1;stroke:none;stroke-width:1px;stroke-linecap:butt;stroke-linejoin:miter;stroke-opacity:1"
     transform="translate(-4.8152039e-6,-3.0472518e-5)"><flowRegion
       id="flowRegion4189"><rect
         id="rect4191"
         width="1549.5302"
         height="323.3486"
         x="276.11792"
         y="281.19159" /></flowRegion><flowPara
       id="flowPara4193" /></flowRoot>  <text
     xml:space="preserve"
     style="font-style:normal;font-weight:normal;font-size:40px;line-height:125%;font-family:sans-serif;letter-spacing:0px;word-spacing:0px;fill:#bf0012;fill-opacity:1;stroke:none;stroke-width:11;stroke-linecap:butt;stroke-linejoin:miter;stroke-miterlimit:4;stroke-dasharray:none;stroke-opacity:1"
     x="1628.3435"
     y="595.73224"
     id="text4332"
     sodipodi:linespacing="125%"><tspan
       sodipodi:role="line"
       id="tspan4334"
       x="1628.3435"
       y="595.73224"
       style="font-style:normal;font-variant:normal;font-weight:normal;font-stretch:normal;font-size:362.5px;font-family:'Segoe Print';-inkscape-font-specification:'Segoe Print';fill:#bf0012;fill-opacity:1;stroke:none;stroke-width:11;stroke-miterlimit:4;stroke-dasharray:none;stroke-opacity:1"><tspan
         style="fill:#bf0012;fill-opacity:1"
         id="tspan4177"><tspan
           style="font-style:normal;font-variant:normal;font-weight:normal;font-stretch:normal;font-family:'MV Boli';-inkscape-font-specification:'MV Boli';fill:#bf0012;fill-opacity:1"
           id="tspan4179">I</tspan><tspan
           style="font-style:normal;font-variant:normal;font-weight:normal;font-stretch:normal;font-family:'MV Boli';-inkscape-font-specification:'MV Boli'"
           id="tspan4197">F </tspan></tspan></tspan></text>
</svg>
