<?xml version="1.0" encoding="utf-8"?>
<!-- Generator: Adobe Illustrator 16.0.1, SVG Export Plug-In . SVG Version: 6.00 Build 0)  -->
<!DOCTYPE svg PUBLIC "-//W3C//DTD SVG 1.1//EN" "http://www.w3.org/Graphics/SVG/1.1/DTD/svg11.dtd">
<svg version="1.1" id="Calque_1" xmlns="http://www.w3.org/2000/svg" xmlns:xlink="http://www.w3.org/1999/xlink" x="0px" y="0px"
	 width="90px" height="50px" viewBox="0 0 90 50" style="enable-background:new 0 0 90 50;" xml:space="preserve">
<style type="text/css">
<![CDATA[
	.st0{fill:#4B4B4A;}
	.st1{fill:#50504F;}
	.st2{fill:none;stroke:#4B4B4A;stroke-miterlimit:10;}
	.st3{fill:#676766;}
	.st4{fill:#373636;}
	.st5{fill:#434342;}
]]>
</style>
<g>
	<path class="st4" d="M72,17.8c0,2-6.5,3.2-15,3.2s-15-1.5-15-3.5c0-2,6.5-3.8,15-3.8C65.5,13.6,72,15.7,72,17.8z"/>
	<path class="st0" d="M41.6,17.1v15.7h30.8V18c0,0-4.2,3-15.4,3S41.6,17.1,41.6,17.1z"/>
	<ellipse class="st0" cx="57" cy="33.1" rx="15.4" ry="3.7"/>
	<path class="st2" d="M72,17.8c0,2-6.5,3.2-15,3.2s-15-1.5-15-3.5c0-2,6.5-3.8,15-3.8C65.5,13.6,72,15.7,72,17.8z"/>
	<polygon class="st3" points="46.4,26.7 46.4,26.7 43,26 43,26 43,20.1 43,20.1 46.4,20.9 46.4,20.9 	"/>
	<path class="st5" d="M44.6,24.6c0,0-7.8-3.6-12.8-3.8s-7.6,0.9-10,0c-2.4-0.9-2-4.4,3.5-4.6s13.1,2.9,19.6,6.3
		C44.9,22.7,44.6,24.6,44.6,24.6z"/>
	<ellipse class="st1" cx="45.7" cy="21.5" rx="0.4" ry="0.5"/>
	<ellipse class="st1" cx="43.7" cy="20.9" rx="0.4" ry="0.5"/>
	<ellipse class="st1" cx="45.7" cy="25.8" rx="0.4" ry="0.5"/>
	<ellipse class="st1" cx="43.7" cy="25.5" rx="0.4" ry="0.5"/>
</g>
</svg>
