<?xml version="1.0" encoding="utf-8"?>
<!-- Generator: Adobe Illustrator 17.0.0, SVG Export Plug-In . SVG Version: 6.00 Build 0)  -->
<!DOCTYPE svg PUBLIC "-//W3C//DTD SVG 1.1//EN" "http://www.w3.org/Graphics/SVG/1.1/DTD/svg11.dtd">
<svg version="1.1" id="Calque_1" xmlns="http://www.w3.org/2000/svg" xmlns:xlink="http://www.w3.org/1999/xlink" x="0px" y="0px"
	 width="1280px" height="599.625px" viewBox="0 0 1280 599.625" enable-background="new 0 0 1280 599.625" xml:space="preserve">
<g>
	<path fill="#373636" d="M667.011,291.76c0,2.038-6.505,3.219-15.004,3.219c-8.499,0-14.997-1.496-14.997-3.534
		c0-2.038,6.497-3.847,14.997-3.847C660.505,287.597,667.011,289.722,667.011,291.76z"/>
	<path fill="#4A4A49" d="M636.617,291.138v15.652h30.778v-14.805c0,0-4.18,2.993-15.389,2.993S636.617,291.138,636.617,291.138z"/>
	<ellipse fill="#4A4A49" cx="652.006" cy="307.094" rx="15.389" ry="3.691"/>
	<path fill="none" stroke="#4A4A49" stroke-miterlimit="10" d="M667.011,291.76c0,2.038-6.505,3.219-15.004,3.219
		c-8.499,0-14.997-1.496-14.997-3.534c0-2.038,6.497-3.847,14.997-3.847C660.505,287.597,667.011,289.722,667.011,291.76z"/>
	<polygon fill="#666665" points="641.373,300.666 641.373,300.666 638.048,299.994 638.048,299.994 638.048,294.119 
		638.048,294.119 641.373,294.872 641.373,294.872 	"/>
	<path fill="#424241" d="M639.633,298.64c0,0-7.81-3.569-12.76-3.762s-7.578,0.868-9.976,0s-2.011-4.437,3.48-4.63
		s13.146,2.893,19.565,6.269C639.943,296.711,639.633,298.64,639.633,298.64z"/>
	<ellipse fill="#504F4E" cx="640.687" cy="295.482" rx="0.435" ry="0.543"/>
	<ellipse fill="#504F4E" cx="638.657" cy="294.939" rx="0.435" ry="0.543"/>
	<ellipse fill="#504F4E" cx="640.687" cy="299.843" rx="0.435" ry="0.543"/>
	<ellipse fill="#504F4E" cx="638.657" cy="299.46" rx="0.435" ry="0.543"/>
</g>
</svg>
