<?xml version="1.0" encoding="utf-8"?>
<!-- Generator: Adobe Illustrator 16.0.0, SVG Export Plug-In . SVG Version: 6.00 Build 0)  -->
<!DOCTYPE svg PUBLIC "-//W3C//DTD SVG 1.1//EN" "http://www.w3.org/Graphics/SVG/1.1/DTD/svg11.dtd">
<svg version="1.1" id="Calque_1" xmlns="http://www.w3.org/2000/svg" xmlns:xlink="http://www.w3.org/1999/xlink" x="0px" y="0px"
	 width="1339.8px" height="841.9px" viewBox="0 0 1339.8 841.9" style="enable-background:new 0 0 1339.8 841.9;"
	 xml:space="preserve">
<style type="text/css">
<![CDATA[
	.st0{opacity:0.25;fill:url(#SVGID_1_);}
]]>
</style>
<linearGradient id="SVGID_1_" gradientUnits="userSpaceOnUse" x1="34.9165" y1="420.0195" x2="1313.7207" y2="420.0195">
	<stop  offset="0" style="stop-color:#F4E935"/>
	<stop  offset="5.699537e-02" style="stop-color:#F3DC2C"/>
	<stop  offset="0.1286" style="stop-color:#F2CF24"/>
	<stop  offset="0.2023" style="stop-color:#F1C81F"/>
	<stop  offset="0.2809" style="stop-color:#F1C51E"/>
	<stop  offset="0.58" style="stop-color:#E79032"/>
	<stop  offset="0.7665" style="stop-color:#DD6430"/>
	<stop  offset="1" style="stop-color:#DE6169"/>
</linearGradient>
<path class="st0" d="M34.9,582.8h39v10.8h-1.4v7.1h2.1v8.3h4.7v-8.3h115.2v8.3h4.7v-8.3h4.2v-1.1h6.6v-5h-1v-11.8h41.7v38.7
	c0,0-29.6,1.1-31.6,9.7c0.1,8.8,0.1,8.8,0.1,8.8s1.2,7,7.4,8.4c6.3,1.5,21.9,4.4,46.5,1.6c0,1.3,0,35.6,0,35.6s-0.2,9.6,11.7,9.2
	c10.4-0.2,9.7-8.7,9.7-8.7l0-106c0,0,92.6,6.6,121.1,5.8c0,12,0,140.1,0,140.1s-0.6,9.2,10.1,9.8c10.6-0.5,11.3-11.4,11.3-11.4
	v-58.2c0,0,12.4,4,16.5-5.1c0-3.2,0-75,0-75s112.5-3,120.4-4.6c0.2,4.6,0,29.7,0,29.7s-53.1-5.2-67,2.4c-0.7,1.1-1.3,1.7,0,3.7
	s22.3,4.2,31.5,4.2c0.3,4.3-0.2,47.8-0.2,47.8s-2.4,1.9-4.5,5.2s-33.8,55-33.8,55s-0.9,8,8,4.6c9.6-14.8,30.1-47.8,30.1-47.8
	l-0.1,35c0,0,1.9,4.5,5.6,4s4.2-4.2,4.2-4.2l0.4-38.8l31.4,50.2c0,0,1.9,4.9,7.1,1.9s0.9-7.4,0.9-7.4L553,670.8c0,0-3.4-1.8-4.2-1.1
	c0-2.6,0-48,0-48s22.3-2.4,25.3-1.9c0.1,1.1,0.2,66.5,0.2,66.5s0.2,7.6,10.2,7.6s11.3-8,11.3-8v-69.9l142.6-0.2c0,0,4.3-0.9,4.3-7.2
	s0-25.8,0-25.8h62.8v19.7l17,11.9l258.2,0.1l92,63.2h117.1l22.9,11.5l1-495.6L1180.6,104H34.9V582.8z"/>
</svg>
