<?xml version="1.0" encoding="utf-8"?>
<!-- Generator: Adobe Illustrator 16.0.0, SVG Export Plug-In . SVG Version: 6.00 Build 0)  -->
<!DOCTYPE svg PUBLIC "-//W3C//DTD SVG 1.1//EN" "http://www.w3.org/Graphics/SVG/1.1/DTD/svg11.dtd">
<svg version="1.1" id="Calque_1" xmlns="http://www.w3.org/2000/svg" xmlns:xlink="http://www.w3.org/1999/xlink" x="0px" y="0px"
	 width="613.5px" height="82px" viewBox="0 0 613.5 82" style="enable-background:new 0 0 613.5 82;" xml:space="preserve">
<style type="text/css">
<![CDATA[
	.st0{fill:#EB5B5C;}
	.st1{fill:#FFFFFF;}
]]>
</style>
<g>
	<rect x="231.9" y="18.2" class="st0" width="152.2" height="47.3"/>
</g>
<g>
	<path class="st0" d="M71,33.2c-1.8,0-2.7,0.9-2.8,2.9L68.1,42c0,2,0.9,2.9,2.8,2.9c2.3,0,2.5-1.4,2.6-2.3c0-0.3,0.2-0.5,0.6-0.5
		c0.4,0,0.6,0.2,0.6,0.8c0,1.7-1.5,3.2-4,3.2c-2.1,0-3.9-1.2-3.9-4.1l0.1-5.9c0-2.9,1.9-4,4-4c2.5,0,3.9,1.5,3.9,3.2
		c0,0.6-0.2,0.8-0.6,0.8s-0.6-0.2-0.6-0.5C73.6,34.8,73.2,33.3,71,33.2z"/>
	<path class="st0" d="M83.7,39.5l-5.5-0.1l-0.1,6.2c0,0.3-0.3,0.5-0.6,0.5c-0.3,0-0.6-0.2-0.6-0.5l0.2-12.9c0-0.3,0.3-0.5,0.6-0.4
		c0.3,0,0.6,0.1,0.6,0.5l-0.1,5.7l5.5,0.1l0.1-5.7c0-0.3,0.3-0.5,0.6-0.4c0.3,0,0.6,0.1,0.6,0.5l-0.2,12.9c0,0.3-0.3,0.5-0.6,0.5
		c-0.3,0-0.6-0.2-0.6-0.5L83.7,39.5z"/>
	<path class="st0" d="M87.7,42.2l0.1-5.9c0-2.9,1.8-4,4-4c2.2,0,3.9,1.2,3.9,4.1l-0.1,5.9c0,3-1.8,4-4,4
		C89.4,46.3,87.7,45.2,87.7,42.2z M94.4,36.4c0-2-1-2.9-2.7-2.9c-1.7,0-2.7,0.9-2.7,2.9l-0.1,5.9c0,2,1,2.9,2.7,2.9
		c1.7,0,2.7-0.9,2.7-2.9L94.4,36.4z"/>
	<path class="st0" d="M98.2,42.4l0.1-5.9c0-2.9,1.8-4,4-4c2.2,0,3.9,1.2,3.9,4.1l-0.1,5.9c0,3-1.8,4-4,4
		C99.9,46.5,98.1,45.3,98.2,42.4z M104.9,36.6c0-2-1-2.9-2.7-2.9c-1.7,0-2.7,0.9-2.7,2.9l-0.1,5.9c0,2,1,2.9,2.7,2.9
		c1.7,0,2.7-0.9,2.7-2.9L104.9,36.6z"/>
	<path class="st0" d="M114.7,42.9c0.1-4.2-6.3-2.3-6.2-6.9c0-2.8,2.3-3.4,4.1-3.4c1.4,0,3.2,0.5,3.2,1.2c0,0.2-0.2,0.7-0.6,0.7
		c-0.4,0-1-0.7-2.6-0.8c-1.4,0-2.8,0.5-2.8,2.2c0,3.5,6.3,1.6,6.2,6.9c0,2.7-1.7,3.9-4.1,3.9c-2.4,0-3.9-1.4-3.9-2.1
		c0-0.3,0.3-0.7,0.6-0.7c0.5,0,0.9,1.6,3.2,1.6C113.6,45.5,114.7,44.6,114.7,42.9z"/>
	<path class="st0" d="M119.5,39.1l3,0c0.3,0,0.5,0.3,0.5,0.6c0,0.2-0.1,0.5-0.5,0.5l-3,0l-0.1,5.3l6.1,0.1c0.3,0,0.5,0.3,0.5,0.6
		c0,0.3-0.1,0.6-0.5,0.6l-6.8-0.1c-0.3,0-0.6-0.2-0.6-0.5l0.2-12.9c0-0.3,0.3-0.5,0.6-0.5l6.8,0.1c0.3,0,0.5,0.3,0.5,0.6
		c0,0.3-0.2,0.6-0.5,0.6l-6.1-0.1L119.5,39.1z"/>
</g>
<g>
	<g>
		<path class="st0" d="M180,72.6c-49.8,0-99.7,0-149.5,0c-6.2,0-12.3,0-18.5,0c0.8,0,0.7,1.3,0.7,0.2c0-0.6,0-1.2,0-1.8
			c0-2.6,0-5.1,0-7.7c0-7.7,0-15.3,0-23c0-7.4,0-14.8,0-22.1c0-2.1,0-4.2,0-6.3c0-2.1,0-0.8-0.6-0.8c6.8,0,13.5,0,20.3,0
			c30.7,0,61.3,0,92,0c13.4,0,26.8,0,40.2,0c3.9,0,7.8,0,11.7,0c0.9,0,1.9,0,2.8,0c1.4,0,0-0.6,0-0.4c0,20.9,0,41.8,0,62.7
			c0,1,1.5,1,1.5,0c0-21,0-42,0-63c0-0.4-0.3-0.8-0.8-0.8c-49.8,0-99.7,0-149.5,0c-6.2,0-12.3,0-18.5,0c-0.4,0-0.8,0.3-0.8,0.8
			c0,21,0,42,0,63c0,0.4,0.3,0.8,0.8,0.8c49.8,0,99.7,0,149.5,0c6.2,0,12.3,0,18.5,0C181,74.1,181,72.6,180,72.6z"/>
	</g>
</g>
<g>
	<path class="st1" d="M281.7,32.6c-1.9,0-2.9,0.9-2.9,3l-0.1,6.2c0,2.1,1,3.1,2.9,3.1c2.4,0,2.6-1.5,2.8-2.4c0-0.3,0.2-0.5,0.7-0.5
		c0.5,0,0.7,0.2,0.6,0.8c0,1.8-1.6,3.4-4.2,3.3c-2.3,0-4.1-1.2-4.1-4.3l0.1-6.2c0-3.1,2-4.2,4.3-4.2c2.6,0,4.1,1.6,4.1,3.4
		c0,0.7-0.2,0.8-0.7,0.8s-0.6-0.2-0.7-0.5C284.4,34.2,284,32.6,281.7,32.6z"/>
	<path class="st1" d="M295.1,39.1l-5.8-0.1l-0.1,6.5c0,0.3-0.3,0.5-0.7,0.5c-0.3,0-0.7-0.2-0.7-0.5l0.2-13.6c0-0.3,0.3-0.5,0.7-0.5
		c0.3,0,0.7,0.1,0.7,0.5l-0.1,6l5.8,0.1l0.1-6c0-0.3,0.3-0.5,0.7-0.5c0.3,0,0.7,0.1,0.7,0.5l-0.2,13.6c0,0.3-0.3,0.5-0.7,0.5
		c-0.3,0-0.7-0.2-0.7-0.5L295.1,39.1z"/>
	<path class="st1" d="M299.3,42l0.1-6.2c0-3.1,1.9-4.2,4.2-4.2c2.3,0,4.1,1.2,4.1,4.3l-0.1,6.2c0,3.1-1.9,4.3-4.2,4.2
		C301,46.3,299.2,45.2,299.3,42z M306.3,35.9c0-2.1-1-3.1-2.8-3.1s-2.9,0.9-2.9,3l-0.1,6.2c0,2.1,1,3.1,2.8,3.1s2.9-0.9,2.9-3
		L306.3,35.9z"/>
	<path class="st1" d="M310.3,42.2l0.1-6.2c0-3.1,1.9-4.2,4.2-4.2s4.1,1.2,4.1,4.3l-0.1,6.2c0,3.1-1.9,4.3-4.2,4.2
		S310.3,45.3,310.3,42.2z M317.4,36.1c0-2.1-1-3.1-2.8-3.1s-2.9,0.9-2.9,3l-0.1,6.2c0,2.1,1,3.1,2.8,3.1s2.9-0.9,2.9-3L317.4,36.1z"
		/>
	<path class="st1" d="M327.7,42.7c0.1-4.4-6.6-2.4-6.5-7.3c0-2.9,2.4-3.6,4.3-3.6c1.5,0,3.4,0.5,3.3,1.3c0,0.3-0.2,0.7-0.6,0.7
		c-0.4,0-1-0.8-2.8-0.8c-1.5,0-2.9,0.5-2.9,2.3c0,3.7,6.6,1.7,6.5,7.3c0,2.8-1.8,4.1-4.3,4.1c-2.6,0-4.1-1.5-4.1-2.2
		c0-0.3,0.3-0.7,0.6-0.7c0.5,0,0.9,1.7,3.4,1.7C326.5,45.5,327.7,44.5,327.7,42.7z"/>
	<path class="st1" d="M332.7,38.7l3.1,0c0.3,0,0.5,0.3,0.5,0.6c0,0.3-0.1,0.5-0.5,0.5l-3.1,0l-0.1,5.5l6.4,0.1
		c0.3,0,0.5,0.3,0.5,0.6c0,0.3-0.1,0.6-0.5,0.6l-7.1-0.1c-0.3,0-0.6-0.2-0.6-0.5l0.2-13.6c0-0.3,0.3-0.5,0.6-0.5l7.1,0.1
		c0.4,0,0.5,0.3,0.5,0.6c0,0.3-0.2,0.6-0.5,0.6l-6.4-0.1L332.7,38.7z"/>
</g>
<g>
	<g>
		<path class="st0" d="M392,72.6c-49.8,0-99.7,0-149.5,0c-6.2,0-12.3,0-18.5,0c0.8,0,0.7,1.3,0.7,0.2c0-0.6,0-1.2,0-1.8
			c0-2.6,0-5.1,0-7.7c0-7.7,0-15.3,0-23c0-7.4,0-14.8,0-22.1c0-2.1,0-4.2,0-6.3c0-2.1,0-0.8-0.6-0.8c6.8,0,13.5,0,20.3,0
			c30.7,0,61.3,0,92,0c13.4,0,26.8,0,40.2,0c3.9,0,7.8,0,11.7,0c0.9,0,1.9,0,2.8,0c1.4,0,0-0.6,0-0.4c0,20.9,0,41.8,0,62.7
			c0,1,1.5,1,1.5,0c0-21,0-42,0-63c0-0.4-0.3-0.8-0.8-0.8c-49.8,0-99.7,0-149.5,0c-6.2,0-12.3,0-18.5,0c-0.4,0-0.8,0.3-0.8,0.8
			c0,21,0,42,0,63c0,0.4,0.3,0.8,0.8,0.8c49.8,0,99.7,0,149.5,0c6.2,0,12.3,0,18.5,0C393,74.1,393,72.6,392,72.6z"/>
	</g>
</g>
<g>
	<rect x="443.8" y="18.2" class="st0" width="152.2" height="47.3"/>
</g>
<g>
	<path class="st1" d="M493.8,33.5c-1.6,0-2.5,0.8-2.6,2.7l-0.1,5.7c0,1.8,0.9,2.7,2.5,2.7c2.1,0,2.3-1.3,2.4-2.2
		c0-0.4,0.3-0.5,0.8-0.5c0.5,0,0.8,0.2,0.8,0.9c0,1.9-1.6,3.3-4.2,3.3c-2.2,0-4.1-1.2-4-4.2l0.1-5.7c0-3,1.9-4.1,4.1-4.1
		c2.5,0,4.1,1.5,4.1,3.4c0,0.7-0.3,0.9-0.8,0.9c-0.5,0-0.8-0.2-0.8-0.6C496.2,35,495.9,33.6,493.8,33.5z"/>
	<path class="st1" d="M506.5,39.6l-5.1-0.1l-0.1,6c0,0.4-0.4,0.6-0.8,0.6c-0.4,0-0.8-0.2-0.8-0.6l0.2-12.8c0-0.4,0.4-0.5,0.8-0.5
		c0.4,0,0.8,0.2,0.8,0.6l-0.1,5.5l5.1,0.1l0.1-5.5c0-0.4,0.4-0.5,0.8-0.5c0.4,0,0.8,0.2,0.8,0.6l-0.2,12.8c0,0.4-0.4,0.6-0.8,0.6
		c-0.4,0-0.8-0.2-0.8-0.6L506.5,39.6z"/>
	<path class="st1" d="M510.7,42.2l0.1-5.7c0-3,1.8-4.1,4.1-4.1c2.3,0,4.1,1.2,4,4.2l-0.1,5.7c0,3-1.9,4.1-4.2,4.1
		C512.4,46.3,510.6,45.2,510.7,42.2z M517.3,36.5c0-1.8-0.9-2.7-2.5-2.7c-1.6,0-2.5,0.8-2.5,2.7l-0.1,5.7c0,1.8,0.9,2.7,2.5,2.7
		c1.6,0,2.5-0.8,2.5-2.7L517.3,36.5z"/>
	<path class="st1" d="M521.3,42.3l0.1-5.7c0-3,1.8-4.1,4.1-4.1c2.3,0,4.1,1.2,4,4.2l-0.1,5.7c0,3-1.9,4.1-4.2,4.1
		C523,46.5,521.2,45.3,521.3,42.3z M528,36.7c0-1.8-0.9-2.7-2.5-2.7c-1.6,0-2.5,0.8-2.5,2.7l-0.1,5.7c0,1.8,0.9,2.7,2.5,2.7
		c1.6,0,2.5-0.8,2.5-2.7L528,36.7z"/>
	<path class="st1" d="M537.9,42.9c0.1-3.8-6.2-2.2-6.2-6.8c0-2.8,2.3-3.5,4.2-3.5c1.3,0,3.3,0.4,3.3,1.3c0,0.3-0.3,0.9-0.7,0.9
		c-0.4,0-1-0.7-2.6-0.8c-1.4,0-2.6,0.5-2.6,1.9c0,3.2,6.2,1.6,6.2,6.8c0,2.7-1.8,4-4.2,3.9c-2.5,0-4-1.4-4-2.2
		c0-0.4,0.4-0.9,0.7-0.9c0.6,0,1,1.6,3.2,1.6C536.8,45.2,537.9,44.4,537.9,42.9z"/>
	<path class="st1" d="M543.2,39l3,0c0.3,0,0.5,0.3,0.5,0.7c0,0.3-0.2,0.6-0.6,0.6l-3,0l-0.1,4.8l5.9,0.1c0.3,0,0.5,0.3,0.5,0.7
		c0,0.3-0.2,0.7-0.6,0.7l-6.8-0.1c-0.4,0-0.7-0.2-0.7-0.6l0.2-12.7c0-0.4,0.4-0.6,0.7-0.6l6.8,0.1c0.4,0,0.5,0.4,0.5,0.7
		c0,0.4-0.2,0.7-0.6,0.7l-5.9-0.1L543.2,39z"/>
</g>
<g>
	<g>
		<path class="st0" d="M603.9,72.6c-49.8,0-99.7,0-149.5,0c-6.2,0-12.3,0-18.5,0c0.8,0,0.7,1.3,0.7,0.2c0-0.6,0-1.2,0-1.8
			c0-2.6,0-5.1,0-7.7c0-7.7,0-15.3,0-23c0-7.4,0-14.8,0-22.1c0-2.1,0-4.2,0-6.3c0-2.1,0-0.8-0.6-0.8c6.8,0,13.5,0,20.3,0
			c30.7,0,61.3,0,92,0c13.4,0,26.8,0,40.2,0c3.9,0,7.8,0,11.7,0c0.9,0,1.9,0,2.8,0c1.4,0,0-0.6,0-0.4c0,20.9,0,41.8,0,62.7
			c0,1,1.5,1,1.5,0c0-21,0-42,0-63c0-0.4-0.3-0.8-0.8-0.8c-49.8,0-99.7,0-149.5,0c-6.2,0-12.3,0-18.5,0c-0.4,0-0.8,0.3-0.8,0.8
			c0,21,0,42,0,63c0,0.4,0.3,0.8,0.8,0.8c49.8,0,99.7,0,149.5,0c6.2,0,12.3,0,18.5,0C604.8,74.1,604.8,72.6,603.9,72.6z"/>
	</g>
</g>
</svg>
