<svg xmlns="http://www.w3.org/2000/svg" xmlns:xlink="http://www.w3.org/1999/xlink" version="1.1" id="Calque_1" x="0" y="0" width="1334.9" height="645.9" viewBox="0 0 1334.9 645.9" xml:space="preserve" enable-background="new 0 0 1334.9 645.9">
  <style type="text/css">
    
	.st0{fill:none;}
	.st1{fill:none;stroke:#231815;stroke-width:2.4;}
	.st2{fill:#679EA4;}
	.st3{fill:#467B7E;}
	.st4{fill:#CDE2D9;}
	.st5{fill:url(#SVGID_1_);}
	.st6{fill:#FFFFFF;}
	.st7{fill:#1A8A9F;}
	.st8{fill:#181A0B;}
	.st9{fill:#9B7347;}
	.st10{fill:#391739;}
	.st11{fill:#88AC80;}
	.st12{fill:#381638;}
	.st13{fill:#221613;}
	.st14{fill:#42495E;}
	.st15{fill:#EAE3C2;}
	.st16{fill:#E7B3BB;}
	.st17{fill:#EAE9E9;}
	.st18{fill:#435956;}
	.st19{fill:#818FA2;}
	.st20{fill:#1F8CA0;}
	.st21{fill:#B5B4B5;}
	.st22{fill:#0E1B15;}
	.st23{fill:#285972;}
	.st24{fill:#FFFFFF;stroke:#FDFEFE;stroke-miterlimit:10;}
	.st25{fill:#B9B8B9;}
	.st26{fill:#535D66;}
	.st27{fill:#394E54;}
	.st28{fill:#50717C;}
	.st29{fill:#5E5D5E;}
	.st30{fill:#C0BCBC;}
	.st31{fill:#DB4E4C;}
	.st32{fill:#292B2B;}
	.st33{fill:#64411D;}
	.st34{fill:#E1DF80;}
	.st35{fill:#67AF4B;}
	.st36{fill:#714848;}
	.st37{fill:#6D692B;}
	.st38{fill:#070001;}
	.st39{fill:#756967;}
	.st40{opacity:0.8;fill:#486D89;enable-background:new    ;}
	.st41{fill:#314724;}
	.st42{fill:#EAE6BB;}

  </style>
  <pattern x="370" y="743.5" width="72" height="72" patternUnits="userSpaceOnUse" id="SVGID_2_" viewBox="24 -72 72 72" overflow="visible">
    <polygon class="st0" points="24 0 96 0 96 -72 24 -72 "/>
    <polygon class="st0" points="24 -72 96 -72 96 0 24 0 "/>
    <polygon class="st0" points="24 0 96 0 96 -72 24 -72 "/>
    <polygon class="st0" points="24 -72 24 0 96 0 96 -72 "/>
    <line class="st1" x1="23.8" y1="-66" x2="96.2" y2="-66"/>
    <line class="st1" x1="23.8" y1="-42" x2="96.2" y2="-42"/>
    <line class="st1" x1="23.8" y1="-18" x2="96.2" y2="-18"/>
    <line class="st1" x1="0" y1="-18" x2="16.5" y2="-18"/>
    <line class="st1" x1="23.8" y1="-54" x2="96.2" y2="-54"/>
    <line class="st1" x1="23.8" y1="-30" x2="96.2" y2="-30"/>
    <line class="st1" x1="23.8" y1="-6" x2="96.2" y2="-6"/>
    <line class="st1" x1="0" y1="-6" x2="16.5" y2="-6"/>
  </pattern>
  <g id="XMLID_2_">
    <path class="st2" d="M1178.3 28.4v478.8H26.7V28.4H1178.3zM510.3 495.4V67.1h-285v428.3H510.3z"/>
  </g>
  <polygon class="st3" points="1172.4 26.3 1305.5 117.8 1305.5 614.1 1172.4 534.4 "/>
  <polygon class="st4" points="1126.8 627 679.8 627 731.6 559.7 1045.7 559.7 "/>
  <pattern id="SVGID_1_" xlink:href="#SVGID_2_" patternTransform="matrix(1 0 0 -1 420.7508 -33743.0586)"/>
  <polygon class="st5" points="1126.8 627 679.8 627 731.6 559.7 1045.7 559.7 "/>
  <rect x="412.3" y="171.3" class="st6" width="89" height="9"/>
  <g id="XMLID_1_">
    <rect x="820" y="69.2" class="st7" width="257.7" height="134.4"/>
  </g>
  <path class="st8" d="M1055.3 140.1c0 2.1-1.7 3.8-3.8 3.8l0 0c-2.1 0-3.8-1.7-3.8-3.8v-21c0-2.1 1.7-3.8 3.8-3.8l0 0c2.1 0 3.8 1.7 3.8 3.8V140.1z"/>
  <path class="st8" d="M944.3 140.1c0 2.1-1.7 3.8-3.8 3.8l0 0c-2.1 0-3.8-1.7-3.8-3.8v-21c0-2.1 1.7-3.8 3.8-3.8l0 0c2.1 0 3.8 1.7 3.8 3.8V140.1z"/>
  <polygon class="st9" points="820.3 68.8 820.3 203.8 803.3 191.3 803.3 79.5 "/>
  <rect x="955.7" y="69.2" class="st10" width="2" height="134.4"/>
  <path class="st11" d="M573 540.4h155.4c3.3 0 6-2.7 6-6V321.3v-24.6 -6h-6H573h-6v6 24.6 213.1C567 537.7 569.7 540.4 573 540.4z"/>
  <path class="st6" d="M728.5 232.7H573c-3.3 0-6 2.7-6 6v213.1 24.6 6h6 155.4 6v-6 -24.6V238.7C734.5 235.4 731.8 232.7 728.5 232.7z"/>
  <path class="st12" d="M701.1 513.3c0 1.2-1 2.2-2.2 2.2h-80.2c-1.2 0-2.2-1-2.2-2.2l0 0c0-1.2 1-2.2 2.2-2.2h80.2C700.1 511.1 701.1 512.1 701.1 513.3L701.1 513.3z"/>
  <path class="st13" d="M713.6 384.6c0 1.8-0.9 3.2-2 3.2h-9.2c-1.1 0-2-1.4-2-3.2v-52.8c0-1.8 0.9-3.2 2-3.2h9.2c1.1 0 2 1.4 2 3.2V384.6z"/>
  <polygon class="st14" points="797.2 353.7 814.3 365.4 1072.3 365.4 1053.6 353.8 "/>
  <rect x="933.1" y="428.9" class="st15" width="139.4" height="109.9"/>
  <rect x="814.3" y="369" class="st16" width="118.7" height="59.7"/>
  <rect x="814.3" y="428.6" class="st17" width="118.7" height="110.1"/>
  <polygon class="st18" points="814.3 369 797.3 357.5 797.3 420.8 814.3 428.6 "/>
  <polygon class="st19" points="814.3 428.6 797.3 420.8 797.3 526.8 814.3 538.7 "/>
  <rect x="933.1" y="369" class="st20" width="139.4" height="59.9"/>
  <rect x="1001.6" y="428.9" class="st21" width="3" height="109.4"/>
  <ellipse class="st22" cx="1024.3" cy="484.1" rx="6.8" ry="6.7"/>
  <ellipse class="st22" cx="983.8" cy="484.1" rx="6.8" ry="6.7"/>
  <rect x="814.3" y="365.4" class="st14" width="258" height="3.5"/>
  <polygon class="st23" points="814.3 365.4 797.2 353.7 797.2 357.5 814.3 368.9 "/>
  <path class="st24" d="M890.6 316.7c0-10.3-8-16.6-17.1-16.6 -9.5 0-17.2 7.7-17.2 17.1v14.4V349l9.9-0.4v-17.1 -14.4c0-4 3.3-7.3 7.3-7.3 3.7 0 7 2.5 7.2 6.7L890.6 316.7z"/>
  <polygon class="st25" points="918.5 355.4 812.8 355.4 824.6 364.6 917.6 366.5 918.4 364.4 "/>
  <polygon class="st26" points="918.5 355.4 918.5 366.6 931.4 366.3 931.2 364.4 "/>
  <rect x="851.4" y="348.1" class="st27" width="19.5" height="4.7"/>
  <path class="st27" d="M893.7 320.6c0 2.3-1.3 4.1-2.9 4.1h-10.3c-1.6 0-2.9-1.8-2.9-4.1l0 0c0-2.3 1.3-4.1 2.9-4.1h10.3C892.4 316.5 893.7 318.3 893.7 320.6L893.7 320.6z"/>
  <path class="st6" d="M885.1 330.7c-0.5 0.7-4.8 7-3.2 10.2 0.6 1.2 1.9 1.8 3.7 1.8 1.9 0 3.1-0.6 3.7-1.8 1.7-3.2-2.6-9.5-3.1-10.2l-0.6-0.8L885.1 330.7z"/>
  <path class="st27" d="M915.8 485.6c0-10.7 0-21.3 0-32 0-3.2-5-3.2-5 0 0 10.7 0 21.3 0 32C910.8 488.9 915.8 488.9 915.8 485.6L915.8 485.6z"/>
  <path class="st28" d="M894.4 383.2c-14.8 0-29.6 0-44.3 0 -3.2 0-3.2 5 0 5 14.8 0 29.6 0 44.3 0C897.6 388.2 897.6 383.2 894.4 383.2L894.4 383.2z"/>
  <path class="st28" d="M1026.6 381.6c-14.8 0-29.6 0-44.3 0 -3.2 0-3.2 5 0 5 14.8 0 29.6 0 44.3 0C1029.8 386.6 1029.8 381.6 1026.6 381.6L1026.6 381.6z"/>
  <path class="st6" d="M78.8 512.8c0 1.6-1.5 2.8-3.4 2.8s-3.4-1.3-3.4-2.8v-54.6c0-1.6 1.5-2.8 3.4-2.8s3.4 1.3 3.4 2.8V512.8z"/>
  <path class="st6" d="M186.8 512.8c0 1.6-1.5 2.8-3.4 2.8s-3.4-1.3-3.4-2.8v-54.6c0-1.6 1.5-2.8 3.4-2.8s3.4 1.3 3.4 2.8V512.8z"/>
  <path class="st6" d="M173.3 512.8c0 1.6-1.5 2.8-3.4 2.8s-3.4-1.3-3.4-2.8v-54.6c0-1.6 1.5-2.8 3.4-2.8s3.4 1.3 3.4 2.8V512.8z"/>
  <path class="st6" d="M159.8 512.8c0 1.6-1.5 2.8-3.4 2.8s-3.4-1.3-3.4-2.8v-54.6c0-1.6 1.5-2.8 3.4-2.8s3.4 1.3 3.4 2.8V512.8z"/>
  <path class="st6" d="M146.3 512.8c0 1.6-1.5 2.8-3.4 2.8s-3.4-1.3-3.4-2.8v-54.6c0-1.6 1.5-2.8 3.4-2.8s3.4 1.3 3.4 2.8V512.8z"/>
  <path class="st6" d="M132.8 512.8c0 1.6-1.5 2.8-3.4 2.8 -1.9 0-3.4-1.3-3.4-2.8v-54.6c0-1.6 1.5-2.8 3.4-2.8 1.9 0 3.4 1.3 3.4 2.8V512.8z"/>
  <path class="st6" d="M119.3 512.8c0 1.6-1.5 2.8-3.4 2.8s-3.4-1.3-3.4-2.8v-54.6c0-1.6 1.5-2.8 3.4-2.8s3.4 1.3 3.4 2.8V512.8z"/>
  <path class="st6" d="M105.8 512.8c0 1.6-1.5 2.8-3.4 2.8s-3.4-1.3-3.4-2.8v-54.6c0-1.6 1.5-2.8 3.4-2.8s3.4 1.3 3.4 2.8V512.8z"/>
  <path class="st6" d="M92.3 512.8c0 1.6-1.5 2.8-3.4 2.8s-3.4-1.3-3.4-2.8v-54.6c0-1.6 1.5-2.8 3.4-2.8s3.4 1.3 3.4 2.8V512.8z"/>
  <path class="st0" d="M194.8 451.2h-0.3v2.3h-1.1v64.4h1.9v1h2.4v-64.8C197.7 452.5 196.4 451.2 194.8 451.2z"/>
  <path class="st29" d="M74.6 457c-0.7 0-1.2 0.5-1.2 1v54.6c0 0.6 0.5 1 1.2 1s1.2-0.5 1.2-1V458C75.8 457.5 75.3 457 74.6 457z"/>
  <path class="st29" d="M88.1 457c-0.7 0-1.2 0.5-1.2 1v54.6c0 0.6 0.5 1 1.2 1s1.2-0.5 1.2-1V458C89.3 457.5 88.8 457 88.1 457z"/>
  <path class="st29" d="M101.6 457c-0.7 0-1.2 0.5-1.2 1v54.6c0 0.6 0.5 1 1.2 1s1.2-0.5 1.2-1V458C102.8 457.5 102.3 457 101.6 457z"/>
  <path class="st29" d="M115.1 457c-0.7 0-1.2 0.5-1.2 1v54.6c0 0.6 0.5 1 1.2 1s1.2-0.5 1.2-1V458C116.3 457.5 115.8 457 115.1 457z"/>
  <path class="st29" d="M128.6 457c-0.7 0-1.2 0.5-1.2 1v54.6c0 0.6 0.5 1 1.2 1s1.2-0.5 1.2-1V458C129.8 457.5 129.3 457 128.6 457z"/>
  <path class="st29" d="M142.1 457c-0.7 0-1.2 0.5-1.2 1v54.6c0 0.6 0.5 1 1.2 1s1.2-0.5 1.2-1V458C143.3 457.5 142.8 457 142.1 457z"/>
  <path class="st29" d="M155.6 457c-0.7 0-1.2 0.5-1.2 1v54.6c0 0.6 0.5 1 1.2 1s1.2-0.5 1.2-1V458C156.8 457.5 156.3 457 155.6 457z"/>
  <path class="st29" d="M169.1 457c-0.7 0-1.2 0.5-1.2 1v54.6c0 0.6 0.5 1 1.2 1s1.2-0.5 1.2-1V458C170.4 457.5 169.8 457 169.1 457z"/>
  <path class="st29" d="M182.6 457c-0.7 0-1.2 0.5-1.2 1v54.6c0 0.6 0.5 1 1.2 1s1.2-0.5 1.2-1V458C183.8 457.5 183.3 457 182.6 457z"/>
  <path class="st0" d="M129.4 455.3c-1.9 0-3.4 1.3-3.4 2.8v54.6c0 1.6 1.5 2.8 3.4 2.8 1.9 0 3.4-1.3 3.4-2.8v-54.6C132.8 456.6 131.3 455.3 129.4 455.3z"/>
  <path class="st0" d="M142.9 455.3c-1.9 0-3.4 1.3-3.4 2.8v54.6c0 1.6 1.5 2.8 3.4 2.8s3.4-1.3 3.4-2.8v-54.6C146.3 456.6 144.8 455.3 142.9 455.3z"/>
  <path class="st0" d="M156.4 455.3c-1.9 0-3.4 1.3-3.4 2.8v54.6c0 1.6 1.5 2.8 3.4 2.8s3.4-1.3 3.4-2.8v-54.6C159.8 456.6 158.3 455.3 156.4 455.3z"/>
  <path class="st0" d="M115.9 455.3c-1.9 0-3.4 1.3-3.4 2.8v54.6c0 1.6 1.5 2.8 3.4 2.8s3.4-1.3 3.4-2.8v-54.6C119.3 456.6 117.8 455.3 115.9 455.3z"/>
  <path class="st0" d="M88.9 455.3c-1.9 0-3.4 1.3-3.4 2.8v54.6c0 1.6 1.5 2.8 3.4 2.8s3.4-1.3 3.4-2.8v-54.6C92.3 456.6 90.8 455.3 88.9 455.3z"/>
  <path class="st0" d="M102.4 455.3c-1.9 0-3.4 1.3-3.4 2.8v54.6c0 1.6 1.5 2.8 3.4 2.8s3.4-1.3 3.4-2.8v-54.6C105.8 456.6 104.3 455.3 102.4 455.3z"/>
  <path class="st0" d="M169.9 455.3c-1.9 0-3.4 1.3-3.4 2.8v54.6c0 1.6 1.5 2.8 3.4 2.8s3.4-1.3 3.4-2.8v-54.6C173.3 456.6 171.8 455.3 169.9 455.3z"/>
  <path class="st0" d="M75.4 455.3c-1.9 0-3.4 1.3-3.4 2.8v54.6c0 1.6 1.5 2.8 3.4 2.8s3.4-1.3 3.4-2.8v-54.6C78.8 456.6 77.3 455.3 75.4 455.3z"/>
  <path class="st0" d="M183.4 455.3c-1.9 0-3.4 1.3-3.4 2.8v54.6c0 1.6 1.5 2.8 3.4 2.8s3.4-1.3 3.4-2.8v-54.6C186.8 456.6 185.3 455.3 183.4 455.3z"/>
  <path class="st0" d="M194.8 451.2h-0.3v2.3h-1.1v64.4h1.9v1h2.4v-64.8C197.7 452.5 196.4 451.2 194.8 451.2z"/>
  <path class="st30" d="M200.8 455.9v-1.7c0-3.3-2.7-6-6-6h-0.3v-1.6H64.3v7.1h1.4v64.4h-1.4v7.1h2.1v8.3h4.7V525h115.2v8.3h4.7V525h4.3v-1h6.5v-5h-1v-60.4h0.9v-2.7H200.8zM78.8 512.8c0 1.6-1.5 2.8-3.4 2.8s-3.4-1.3-3.4-2.8v-54.6c0-1.6 1.5-2.8 3.4-2.8s3.4 1.3 3.4 2.8V512.8zM92.3 512.8c0 1.6-1.5 2.8-3.4 2.8s-3.4-1.3-3.4-2.8v-54.6c0-1.6 1.5-2.8 3.4-2.8s3.4 1.3 3.4 2.8V512.8zM105.8 512.8c0 1.6-1.5 2.8-3.4 2.8s-3.4-1.3-3.4-2.8v-54.6c0-1.6 1.5-2.8 3.4-2.8s3.4 1.3 3.4 2.8V512.8zM119.3 512.8c0 1.6-1.5 2.8-3.4 2.8s-3.4-1.3-3.4-2.8v-54.6c0-1.6 1.5-2.8 3.4-2.8s3.4 1.3 3.4 2.8V512.8zM132.8 512.8c0 1.6-1.5 2.8-3.4 2.8 -1.9 0-3.4-1.3-3.4-2.8v-54.6c0-1.6 1.5-2.8 3.4-2.8 1.9 0 3.4 1.3 3.4 2.8V512.8zM146.3 512.8c0 1.6-1.5 2.8-3.4 2.8s-3.4-1.3-3.4-2.8v-54.6c0-1.6 1.5-2.8 3.4-2.8s3.4 1.3 3.4 2.8V512.8zM159.8 512.8c0 1.6-1.5 2.8-3.4 2.8s-3.4-1.3-3.4-2.8v-54.6c0-1.6 1.5-2.8 3.4-2.8s3.4 1.3 3.4 2.8V512.8zM173.3 512.8c0 1.6-1.5 2.8-3.4 2.8s-3.4-1.3-3.4-2.8v-54.6c0-1.6 1.5-2.8 3.4-2.8s3.4 1.3 3.4 2.8V512.8zM186.8 512.8c0 1.6-1.5 2.8-3.4 2.8s-3.4-1.3-3.4-2.8v-54.6c0-1.6 1.5-2.8 3.4-2.8s3.4 1.3 3.4 2.8V512.8zM197.7 519h-2.4v-1h-1.9v-64.4h1.1v-2.3h0.3c1.6 0 2.9 1.3 2.9 2.9L197.7 519 197.7 519z"/>
  <path class="st31" d="M210.5 454.1h-6.7c-0.9 0-1.7 0.7-2.1 1.8v2.7c0.4 1 1.1 1.8 2.1 1.8h6.7c1.3 0 2.3-1.4 2.3-3.1C212.7 455.5 211.7 454.1 210.5 454.1z"/>
  <rect x="64.3" y="446.4" class="st29" width="130.2" height="7.1"/>
  <rect x="64.3" y="517.9" class="st29" width="130.9" height="7.1"/>
  <rect x="66.4" y="525" class="st32" width="4.7" height="8.3"/>
  <rect x="186.3" y="525" class="st32" width="4.7" height="8.3"/>
  <g id="XMLID_5_">
    <path class="st33" d="M1013.2 313.3c0-3.9 3.2-7.1 7.1-7.1v2.7c-2.4 0-4.4 2-4.4 4.4v0.1L1013.2 313.3 1013.2 313.3z"/>
    <path class="st34" d="M1013.2 313.4L1013.2 313.4 1013.2 313.4h2.8c3.9 0.6 6.8 3.8 6.8 7.7 0 5.5 5 13.8 5.7 18.4 0.2 0.9 0.3 1.9 0.3 3 0 7.5-6.4 13.5-14.2 13.5 -7.9 0-14.2-6.1-14.2-13.5 0-1 0.1-2 0.3-3 0.7-4.6 5.7-12.9 5.7-18.4C1006.4 317.3 1009.3 314 1013.2 313.4z"/>
    <path class="st35" d="M1013.2 313.4c-0.3 0-4.7 0.1-7.4-2.6s-2.5-7.4-2.5-7.4 4.6-0.2 7.4 2.6c2.4 2.4 2.6 6.4 2.6 7.2L1013.2 313.4 1013.2 313.4 1013.2 313.4z"/>
  </g>
  <polygon class="st36" points="1074.2 367.6 1074.2 375.6 1119.9 406.9 1119.9 398.9 "/>
  <polygon class="st14" points="1053.8 353.8 1119.9 398.9 1236.6 398.9 1170.8 353.6 "/>
  <polygon class="st37" points="1236.6 398.9 1119.5 398.9 1119.5 571 1236.6 571 "/>
  <polygon class="st38" points="1099.6 385.1 1164.5 429.9 1281.6 429.9 1216 384.6 "/>
  <polygon class="st39" points="1164.5 429.9 1117.7 397.5 1117.7 397.7 1072.7 366.5 1072.7 539.3 1119.5 571 1119.5 570.9 1164.5 602 "/>
  <polygon class="st15" points="1281.6 429.9 1164.5 429.9 1164.5 602 1281.6 602 "/>
  <polygon class="st40" points="820.3 68.8 820.3 203.8 803.3 191.3 803.3 79.5 "/>
  <g id="Layer_2_1_">
    <g id="XMLID_10_">
      <path class="st41" d="M1057.4 344v8.9c0 0 0.5 3.4-3.2 3.9 0 0-3.2 0.8-7.3 0.7v-13.6h8.5L1057.4 344 1057.4 344z"/>
      <polygon class="st42" points="1055.2 313.2 1055.2 344 1046.8 344 1046.6 344 1038.1 344 1038.1 313.2 1046.6 313.2 1046.8 313.2 "/>
      <path class="st41" d="M1057.5 298l-0.1 45.9h-2.2v-30.8h-8.5v-49.8h3c0 0 1 0 1.1 0.8v0.6c0 0 0.2 0 0.2 0.8 0 0.7 0 1.4 0 1.4s0 0.4-0.3 0.6l0.3 17c0 0-0.1 4.9 1.6 6.2C1052.7 290.8 1057.3 294 1057.5 298z"/>
      <polygon class="st41" points="1046.8 263.4 1046.8 313.2 1046.6 313.2 1046.5 263.4 "/>
      <path class="st41" d="M1046.8 344v13.6c-0.1 0-0.2 0-0.3 0V344H1046.8z"/>
      <path class="st41" d="M1046.6 344v13.6c-4.1 0-7.4-0.7-7.4-0.7 -3.7-0.5-3.2-3.9-3.2-3.9v-8.9h2.1 8.5V344z"/>
      <path class="st41" d="M1038.1 313.2V344h-2.1l-0.1-45.9c0.2-4 4.8-7.2 4.8-7.2 1.7-1.3 1.6-6.2 1.6-6.2l0.3-17c-0.3-0.2-0.3-0.6-0.3-0.6s0-0.6 0-1.4 0.2-0.8 0.2-0.8v-0.6c0.1-0.8 1-0.8 1.1-0.8h3v49.8L1038.1 313.2 1038.1 313.2z"/>
    </g>
  </g>
</svg>
