<?xml version="1.0" encoding="utf-8"?>
<!-- Generator: Adobe Illustrator 16.0.0, SVG Export Plug-In . SVG Version: 6.00 Build 0)  -->
<!DOCTYPE svg PUBLIC "-//W3C//DTD SVG 1.1//EN" "http://www.w3.org/Graphics/SVG/1.1/DTD/svg11.dtd">
<svg version="1.1" id="Calque_1" xmlns="http://www.w3.org/2000/svg" xmlns:xlink="http://www.w3.org/1999/xlink" x="0px" y="0px"
	 width="330.1px" height="465.1px" viewBox="0 0 330.1 465.1" style="enable-background:new 0 0 330.1 465.1;" xml:space="preserve"
	>
<style type="text/css">
<![CDATA[
	.st0{fill:#B4B4B5;}
	.st1{fill:#8B9495;}
	.st2{opacity:0.4;fill:#B98B54;}
	.st3{fill:#F8F8FA;}
	.st4{fill:#FFFFFF;}
	.st5{fill:none;}
	.st6{fill:none;stroke:#444A61;stroke-miterlimit:10;}
]]>
</style>
<polygon class="st2" points="308.2,26.4 308.2,121.6 309.5,128 32.7,404.7 33.2,261.7 270.5,24.5 "/>
<polygon class="st2" points="31.8,424.8 307.8,148.8 308,171 39.2,439.7 "/>
<rect x="38.9" y="33" class="st5" width="263.9" height="386.7"/>
<rect x="36.5" y="33" class="st6" width="267" height="400.5"/>
<rect x="214.5" y="123" class="st4" width="89" height="9"/>
<polygon class="st1" points="27.5,18.8 37,33.3 303.5,33.3 312.5,18.8 276.2,18.8 "/>
<polygon class="st0" points="27.5,447.7 37,433.2 303.5,433.2 312.5,447.7 "/>
<polygon class="st3" points="27.5,18.8 37,33.3 37,433.2 27.5,447.7 "/>
<polygon class="st3" points="313,18.8 303.5,33.3 303.5,433.2 313,447.7 313,166 313,143.6 313,124.5 "/>
<rect x="209.5" y="32" class="st1" width="8" height="402"/>
</svg>
