<?xml version="1.0" encoding="utf-8"?>
<!-- Generator: Adobe Illustrator 16.0.0, SVG Export Plug-In . SVG Version: 6.00 Build 0)  -->
<!DOCTYPE svg PUBLIC "-//W3C//DTD SVG 1.1//EN" "http://www.w3.org/Graphics/SVG/1.1/DTD/svg11.dtd">
<svg version="1.1" id="Calque_1" xmlns="http://www.w3.org/2000/svg" xmlns:xlink="http://www.w3.org/1999/xlink" x="0px" y="0px"
	 width="613.5px" height="82px" viewBox="0 0 613.5 82" style="enable-background:new 0 0 613.5 82;" xml:space="preserve">
<style type="text/css">
<![CDATA[
	.st0{fill:#EB5B5C;}
	.st1{fill:#FFFFFF;}
]]>
</style>
<g>
	<rect x="231.9" y="18.2" class="st0" width="152.2" height="47.3"/>
</g>
<g>
	<path class="st0" d="M91,33.5c-1.7,0-2.7,0.9-2.7,2.9l-0.1,5.9c0,2,1,2.9,2.7,2.9s2.7-0.9,2.7-2.9l0-2.3L91,40
		c-0.3,0-0.5-0.3-0.4-0.6c0-0.3,0.2-0.5,0.5-0.5l3.3,0c0.3,0,0.5,0.2,0.4,0.5l0,2.8c0,3-1.8,4-4,4c-2.2,0-3.9-1.2-3.9-4.1l0.1-5.9
		c0-2.9,1.8-4,4-4c2.4,0,4,1.4,3.9,3.3c0,0.5-0.3,0.6-0.6,0.6c-0.3,0-0.6-0.1-0.6-0.5C93.5,34.4,92.6,33.5,91,33.5z"/>
	<path class="st0" d="M97.2,42.4l0.1-5.9c0-2.9,1.8-4,4-4s3.9,1.2,3.9,4.1l-0.1,5.9c0,3-1.8,4-4,4S97.1,45.3,97.2,42.4z M103.9,36.6
		c0-2-1-2.9-2.7-2.9s-2.7,0.9-2.7,2.9l-0.1,5.9c0,2,1,2.9,2.7,2.9s2.7-0.9,2.7-2.9L103.9,36.6z"/>
</g>
<g>
	<g>
		<path class="st0" d="M180,72.6c-49.8,0-99.7,0-149.5,0c-6.2,0-12.3,0-18.5,0c0.8,0,0.7,1.3,0.7,0.2c0-0.6,0-1.2,0-1.8
			c0-2.6,0-5.1,0-7.7c0-7.7,0-15.3,0-23c0-7.4,0-14.8,0-22.1c0-2.1,0-4.2,0-6.3c0-2.1,0-0.8-0.6-0.8c6.8,0,13.5,0,20.3,0
			c30.7,0,61.3,0,92,0c13.4,0,26.8,0,40.2,0c3.9,0,7.8,0,11.7,0c0.9,0,1.9,0,2.8,0c1.4,0,0-0.6,0-0.4c0,20.9,0,41.8,0,62.7
			c0,1,1.5,1,1.5,0c0-21,0-42,0-63c0-0.4-0.3-0.8-0.8-0.8c-49.8,0-99.7,0-149.5,0c-6.2,0-12.3,0-18.5,0c-0.4,0-0.8,0.3-0.8,0.8
			c0,21,0,42,0,63c0,0.4,0.3,0.8,0.8,0.8c49.8,0,99.7,0,149.5,0c6.2,0,12.3,0,18.5,0C181,74.1,181,72.6,180,72.6z"/>
	</g>
</g>
<g>
	<path class="st1" d="M303.5,32.8c-1.8,0-2.9,0.9-2.9,3l-0.1,6.2c0,2.1,1,3.1,2.8,3.1s2.9-0.9,2.9-3l0-2.4l-2.7,0
		c-0.3,0-0.5-0.3-0.5-0.6c0-0.3,0.2-0.6,0.5-0.6l3.5,0c0.3,0,0.5,0.2,0.5,0.5l0,3c0,3.1-1.9,4.3-4.2,4.2s-4.1-1.2-4.1-4.3l0.1-6.2
		c0-3.1,1.9-4.2,4.2-4.2c2.6,0,4.2,1.5,4.1,3.5c0,0.5-0.3,0.7-0.7,0.7c-0.3,0-0.6-0.1-0.7-0.5C306.2,33.8,305.3,32.9,303.5,32.8z"/>
	<path class="st1" d="M317.2,40.6l0,2.2c0,2-1.8,3.8-3.9,3.7c-2,0-3.8-1.8-3.7-3.8l0-2.2c0-2,1.7-3.7,3.8-3.7
		C315.5,36.8,317.3,38.5,317.2,40.6z M315.9,40.6c0-1.3-1.1-2.6-2.5-2.6c-1.4,0-2.5,1.2-2.5,2.5l0,2.2c0,1.3,1.1,2.6,2.4,2.6
		c1.4,0,2.5-1.2,2.6-2.6L315.9,40.6z"/>
</g>
<g>
	<g>
		<path class="st0" d="M392,72.6c-49.8,0-99.7,0-149.5,0c-6.2,0-12.3,0-18.5,0c0.8,0,0.7,1.3,0.7,0.2c0-0.6,0-1.2,0-1.8
			c0-2.6,0-5.1,0-7.7c0-7.7,0-15.3,0-23c0-7.4,0-14.8,0-22.1c0-2.1,0-4.2,0-6.3c0-2.1,0-0.8-0.6-0.8c6.8,0,13.5,0,20.3,0
			c30.7,0,61.3,0,92,0c13.4,0,26.8,0,40.2,0c3.9,0,7.8,0,11.7,0c0.9,0,1.9,0,2.8,0c1.4,0,0-0.6,0-0.4c0,20.9,0,41.8,0,62.7
			c0,1,1.5,1,1.5,0c0-21,0-42,0-63c0-0.4-0.3-0.8-0.8-0.8c-49.8,0-99.7,0-149.5,0c-6.2,0-12.3,0-18.5,0c-0.4,0-0.8,0.3-0.8,0.8
			c0,21,0,42,0,63c0,0.4,0.3,0.8,0.8,0.8c49.8,0,99.7,0,149.5,0c6.2,0,12.3,0,18.5,0C393,74.1,393,72.6,392,72.6z"/>
	</g>
</g>
<g>
	<rect x="443.8" y="18.2" class="st0" width="152.2" height="47.3"/>
</g>
<g>
	<path class="st1" d="M514.8,33.8c-1.6,0-2.5,0.8-2.5,2.7l-0.1,5.7c0,1.8,0.9,2.7,2.5,2.7c1.6,0,2.5-0.8,2.5-2.7l0-1.9l-2.3,0
		c-0.4,0-0.5-0.3-0.5-0.7c0-0.3,0.2-0.7,0.6-0.7l3.3,0c0.4,0,0.5,0.3,0.5,0.6l0,2.7c0,3-1.9,4.1-4.2,4.1c-2.3,0-4.1-1.2-4-4.2
		l0.1-5.7c0-3,1.9-4.1,4.1-4.1c2.5,0,4.1,1.4,4.1,3.5c0,0.6-0.3,0.8-0.8,0.8c-0.4,0-0.8-0.2-0.8-0.6
		C517.2,34.7,516.5,33.8,514.8,33.8z"/>
	<path class="st1" d="M528.1,41l0,1.9c0,1.9-1.8,3.7-3.8,3.6s-3.7-1.8-3.7-3.7l0-1.9c0-1.9,1.7-3.6,3.8-3.6
		C526.4,37.3,528.2,39,528.1,41z M526.6,40.9c0-1.1-0.9-2.2-2.2-2.3c-1.2,0-2.2,1.1-2.2,2.2l0,1.9c0,1.2,0.9,2.3,2.1,2.3
		s2.2-1.1,2.2-2.2L526.6,40.9z"/>
</g>
<g>
	<g>
		<path class="st0" d="M603.9,72.6c-49.8,0-99.7,0-149.5,0c-6.2,0-12.3,0-18.5,0c0.8,0,0.7,1.3,0.7,0.2c0-0.6,0-1.2,0-1.8
			c0-2.6,0-5.1,0-7.7c0-7.7,0-15.3,0-23c0-7.4,0-14.8,0-22.1c0-2.1,0-4.2,0-6.3c0-2.1,0-0.8-0.6-0.8c6.8,0,13.5,0,20.3,0
			c30.7,0,61.3,0,92,0c13.4,0,26.8,0,40.2,0c3.9,0,7.8,0,11.7,0c0.9,0,1.9,0,2.8,0c1.4,0,0-0.6,0-0.4c0,20.9,0,41.8,0,62.7
			c0,1,1.5,1,1.5,0c0-21,0-42,0-63c0-0.4-0.3-0.8-0.8-0.8c-49.8,0-99.7,0-149.5,0c-6.2,0-12.3,0-18.5,0c-0.4,0-0.8,0.3-0.8,0.8
			c0,21,0,42,0,63c0,0.4,0.3,0.8,0.8,0.8c49.8,0,99.7,0,149.5,0c6.2,0,12.3,0,18.5,0C604.8,74.1,604.8,72.6,603.9,72.6z"/>
	</g>
</g>
</svg>
