<?xml version="1.0" encoding="utf-8"?>
<!-- Generator: Adobe Illustrator 16.0.0, SVG Export Plug-In . SVG Version: 6.00 Build 0)  -->
<!DOCTYPE svg PUBLIC "-//W3C//DTD SVG 1.1//EN" "http://www.w3.org/Graphics/SVG/1.1/DTD/svg11.dtd">
<svg version="1.1" id="Calque_1" xmlns="http://www.w3.org/2000/svg" xmlns:xlink="http://www.w3.org/1999/xlink" x="0px" y="0px"
	 width="178.3px" height="174.7px" viewBox="0 0 178.3 174.7" style="enable-background:new 0 0 178.3 174.7;" xml:space="preserve"
	>
<style type="text/css">
<![CDATA[
	.st0{fill:#8D9597;}
	.st1{fill:#231815;}
	.st2{fill:#5C6273;}
	.st3{fill:#323745;}
	.st4{fill:#34373C;}
	.st5{fill:#060001;}
	.st6{fill:#070001;}
	.st7{fill:#D7D7D8;}
	.st8{fill:#444A60;}
]]>
</style>
<polyline class="st1" points="8.1,119.3 14.1,123.2 17.1,118.8 8.1,119.3 "/>
<g>
	<g id="XMLID_8_">
		<g>
			<rect x="71.9" y="28.1" class="st2" width="60.3" height="51"/>
		</g>
		<g>
		</g>
	</g>
	<polygon class="st0" points="71.9,28.1 132.2,28.1 101.4,15.2 53,15.2 	"/>
	<polygon class="st8" points="53,15.2 53,66.6 71.9,79.1 71.9,28.1 	"/>
	<polygon class="st3" points="53,65.6 10.9,127.9 48.9,154.3 71.9,78.1 	"/>
</g>
<polygon class="st2" points="132.4,78.1 102.5,78.1 101.9,78.1 71.9,78.1 48.9,153.9 101.9,153.9 102.5,153.9 155.5,153.9 "/>
<rect x="48.9" y="146.6" class="st4" width="111.8" height="12"/>
<polygon class="st6" points="151.8,141.8 153.2,146.6 160.7,146.6 "/>
<polygon class="st5" points="48.9,145.6 8.1,119.3 8.1,132.4 48.9,158.6 "/>
<path class="st7" d="M88,73.3c0,0.4-0.9,0.8-2.1,0.8l0,0c-1.1,0-2.1-0.3-2.1-0.8V57.1c0-0.4,0.9-0.8,2.1-0.8l0,0
	c1.1,0,2.1,0.3,2.1,0.8V73.3z"/>
<path class="st7" d="M99.6,73.3c0,0.4-0.9,0.8-2.1,0.8l0,0c-1.1,0-2.1-0.3-2.1-0.8V57.1c0-0.4,0.9-0.8,2.1-0.8l0,0
	c1.1,0,2.1,0.3,2.1,0.8V73.3z"/>
<path class="st7" d="M111.1,73.3c0,0.4-0.9,0.8-2.1,0.8l0,0c-1.1,0-2.1-0.3-2.1-0.8V57.1c0-0.4,0.9-0.8,2.1-0.8l0,0
	c1.1,0,2.1,0.3,2.1,0.8V73.3z"/>
<path class="st7" d="M122.6,73.3c0,0.4-0.9,0.8-2.1,0.8l0,0c-1.1,0-2.1-0.3-2.1-0.8V57.1c0-0.4,0.9-0.8,2.1-0.8l0,0
	c1.1,0,2.1,0.3,2.1,0.8V73.3z"/>
</svg>
