<?xml version="1.0" encoding="utf-8"?>
<!-- Generator: Adobe Illustrator 16.0.0, SVG Export Plug-In . SVG Version: 6.00 Build 0)  -->
<!DOCTYPE svg PUBLIC "-//W3C//DTD SVG 1.1//EN" "http://www.w3.org/Graphics/SVG/1.1/DTD/svg11.dtd">
<svg version="1.1" id="Calque_1" xmlns="http://www.w3.org/2000/svg" xmlns:xlink="http://www.w3.org/1999/xlink" x="0px" y="0px"
	 width="63px" height="60px" viewBox="0 0 63 60" style="enable-background:new 0 0 63 60;" xml:space="preserve">
<style type="text/css">
<![CDATA[
	.st0{fill:#FFFFFF;}
]]>
</style>
<g>
	<path class="st0" d="M23.2,28.9c4,12-6.3,15.2-6.3,15.2l0,0.1c0.1-0.2,2.5-4.4-0.4-13c-4-12,6.3-15.2,6.3-15.2l0-0.1
		C22.7,16,20.3,20.2,23.2,28.9z"/>
	<path class="st0" d="M35.6,28.9c4,12-6.3,15.2-6.3,15.2l0,0.1c0.1-0.2,2.5-4.4-0.4-13c-4-12,6.3-15.2,6.3-15.2l0-0.1
		C35.1,16,32.7,20.2,35.6,28.9z"/>
	<path class="st0" d="M48,28.9c4,12-6.3,15.2-6.3,15.2l0,0.1c0.1-0.2,2.5-4.4-0.4-13c-4-12,6.3-15.2,6.3-15.2l0-0.1
		C47.5,16,45.1,20.2,48,28.9z"/>
</g>
</svg>
