<?xml version="1.0" encoding="utf-8"?>
<!-- Generator: Adobe Illustrator 17.0.0, SVG Export Plug-In . SVG Version: 6.00 Build 0)  -->
<!DOCTYPE svg PUBLIC "-//W3C//DTD SVG 1.1//EN" "http://www.w3.org/Graphics/SVG/1.1/DTD/svg11.dtd">
<svg version="1.1" id="Calque_1" xmlns="http://www.w3.org/2000/svg" xmlns:xlink="http://www.w3.org/1999/xlink" x="0px" y="0px"
	 width="595.3px" height="841.9px" viewBox="0 0 595.3 841.9" style="enable-background:new 0 0 595.3 841.9;" xml:space="preserve"
	>
<style type="text/css">
	.st0{opacity:0.6;fill:#FFFFFF;}
</style>
<path class="st0" d="M141.2,431.2c0.3-11.3,3.3-26.2,14.7-37.9c21.2-21.8,48.6-8.8,48.6-8.8s19.6-50.9,73.7-45.5
	c54.1,5.5,60.3,58,60.3,58s21.2-0.8,36.8,14.1c5.3,5.1,8.5,11,10.3,16.5c6.2-5.9,14.6-9.5,23.8-9.5c19.2,0,34.8,15.6,34.8,34.8
	c0,0.7,0,1.3-0.1,2c4.2-2.4,9.1-3.8,14.3-3.8c15.9,0,28.9,12.9,28.9,28.9s-12.9,28.9-28.9,28.9c-1.3,0-2.6-0.1-3.9-0.3l1.1,1.4
	H148.1c-21.9,0-39.7-17.8-39.7-39.7C108.4,450.7,122.6,434.4,141.2,431.2z"/>
</svg>
