<?xml version="1.0" encoding="utf-8"?>
<!-- Generator: Adobe Illustrator 17.0.0, SVG Export Plug-In . SVG Version: 6.00 Build 0)  -->
<!DOCTYPE svg PUBLIC "-//W3C//DTD SVG 1.1//EN" "http://www.w3.org/Graphics/SVG/1.1/DTD/svg11.dtd">
<svg version="1.1" id="Calque_1" xmlns="http://www.w3.org/2000/svg" xmlns:xlink="http://www.w3.org/1999/xlink" x="0px" y="0px"
	 width="595.3px" height="841.9px" viewBox="0 0 595.3 841.9" style="enable-background:new 0 0 595.3 841.9;" xml:space="preserve"
	>
<style type="text/css">
	.st0{opacity:0.6;fill:#FFFFFF;}
</style>
<path class="st0" d="M500.7,433.7c-0.4-14.6-4.3-33.8-19-48.9c-27.3-28.1-62.8-11.4-62.8-11.4s-25.3-65.8-95.2-58.7
	c-69.9,7.1-78,74.9-78,74.9s-27.3-1-47.6,18.2c-6.9,6.6-11,14.2-13.4,21.4c-8-7.6-18.9-12.2-30.8-12.2c-24.8,0-44.9,20.1-44.9,44.9
	c0,0.9,0,1.7,0.1,2.5c-5.4-3.1-11.7-4.9-18.4-4.9c-20.6,0-37.3,16.7-37.3,37.3c0,20.6,16.7,37.3,37.3,37.3c1.7,0,3.4-0.1,5.1-0.4
	l-1.4,1.8h397.4c28.4,0,51.3-23,51.3-51.3C543.1,459,524.8,438,500.7,433.7z"/>
</svg>
