<?xml version="1.0" encoding="utf-8"?>
<!-- Generator: Adobe Illustrator 16.0.0, SVG Export Plug-In . SVG Version: 6.00 Build 0)  -->
<!DOCTYPE svg PUBLIC "-//W3C//DTD SVG 1.1//EN" "http://www.w3.org/Graphics/SVG/1.1/DTD/svg11.dtd">
<svg version="1.1" id="Calque_1" xmlns="http://www.w3.org/2000/svg" xmlns:xlink="http://www.w3.org/1999/xlink" x="0px" y="0px"
	 width="149px" height="60px" viewBox="0 0 149 60" style="enable-background:new 0 0 149 60;" xml:space="preserve">
<style type="text/css">
<![CDATA[
	.st0{fill:#BC3D41;}
]]>
</style>
<g>
	<path class="st0" d="M108,30.8c4,12-6.3,15.2-6.3,15.2l0,0.1c0.1-0.2,2.5-4.4-0.4-13c-4-12,6.3-15.2,6.3-15.2l0-0.1
		C107.5,18,105.1,22.2,108,30.8z"/>
	<path class="st0" d="M120.4,30.8c4,12-6.3,15.2-6.3,15.2l0,0.1c0.1-0.2,2.5-4.4-0.4-13c-4-12,6.3-15.2,6.3-15.2l0-0.1
		C119.9,18,117.5,22.2,120.4,30.8z"/>
	<path class="st0" d="M132.8,30.8c4,12-6.3,15.2-6.3,15.2l0,0.1c0.1-0.2,2.5-4.4-0.4-13c-4-12,6.3-15.2,6.3-15.2l0-0.1
		C132.3,18,130,22.2,132.8,30.8z"/>
</g>
<path class="st0" d="M67.7,30.8c4,12-6.3,15.2-6.3,15.2l0,0.1c0.1-0.2,2.5-4.4-0.4-13c-4-12,6.3-15.2,6.3-15.2l0-0.1
	C67.2,18,64.8,22.2,67.7,30.8z"/>
<path class="st0" d="M80.1,30.8c4,12-6.3,15.2-6.3,15.2l0,0.1c0.1-0.2,2.5-4.4-0.4-13c-4-12,6.3-15.2,6.3-15.2l0-0.1
	C79.6,18,77.2,22.2,80.1,30.8z"/>
<path class="st0" d="M92.5,30.8c4,12-6.3,15.2-6.3,15.2l0,0.1c0.1-0.2,2.5-4.4-0.4-13c-4-12,6.3-15.2,6.3-15.2l0-0.1
	C92,18,89.6,22.2,92.5,30.8z"/>
<path class="st0" d="M40.7,30.8c4,12-6.3,15.2-6.3,15.2l0,0.1c0.1-0.2,2.5-4.4-0.4-13c-4-12,6.3-15.2,6.3-15.2l0-0.1
	C40.2,18,37.8,22.2,40.7,30.8z"/>
<path class="st0" d="M53.1,30.8c4,12-6.3,15.2-6.3,15.2l0,0.1c0.1-0.2,2.5-4.4-0.4-13c-4-12,6.3-15.2,6.3-15.2l0-0.1
	C52.6,18,50.2,22.2,53.1,30.8z"/>
<path class="st0" d="M27.7,30.8c4,12-6.3,15.2-6.3,15.2l0,0.1c0.1-0.2,2.5-4.4-0.4-13c-4-12,6.3-15.2,6.3-15.2l0-0.1
	C27.2,18,24.8,22.2,27.7,30.8z"/>
</svg>
