<?xml version="1.0" encoding="utf-8"?>
<!-- Generator: Adobe Illustrator 17.0.0, SVG Export Plug-In . SVG Version: 6.00 Build 0)  -->
<!DOCTYPE svg PUBLIC "-//W3C//DTD SVG 1.1//EN" "http://www.w3.org/Graphics/SVG/1.1/DTD/svg11.dtd">
<svg version="1.1" id="Calque_1" xmlns="http://www.w3.org/2000/svg" xmlns:xlink="http://www.w3.org/1999/xlink" x="0px" y="0px"
	 width="178.3px" height="424.1px" viewBox="0 0 178.3 424.1" style="enable-background:new 0 0 178.3 424.1;" xml:space="preserve"
	>
<style type="text/css">
	.st0{fill:#EDB6BF;}
	.st1{fill:#D16037;}
	.st2{fill:#FFFFFF;}
	.st3{fill:#E1DF80;}
	.st4{fill:#D8C370;}
	.st5{fill:#444A60;}
</style>
<g>
	<g id="XMLID_9_">
		<g>
			<path class="st0" d="M98.9,120.6L98.9,120.6l-14.7,0.1l0,0h-0.1c-33.3-0.7-49.3-7.6-49.3-7.6c-3-1-4.8-4.4-4.2-7.6l17.9-82.6
				h17.8h20.5h5.7h22.4h14.9l17.9,82.6c0.7,3.1-1.2,6.5-4.2,7.6C143.5,113.1,129,119.4,98.9,120.6z"/>
			<path class="st1" d="M92.5,363.5c16.8,0.4,30.2,4.3,31.4,9.3c-0.9,4.7-15.9,8.5-34.3,8.5c-18.2,0-33.2-3.7-34.3-8.4
				c1.1-5,14.5-9,31.5-9.4v-0.1c0.9,0,1.9,0,2.8,0c1,0,1.9,0,2.9,0C92.5,363.4,92.5,363.5,92.5,363.5z"/>
			<path class="st2" d="M98.5,120.6c-0.1,0-0.2,0-0.3,0l0,0C98.3,120.6,98.4,120.6,98.5,120.6z"/>
			<path class="st2" d="M98.2,120.6L98.2,120.6c-0.4,0-1,0-1.6,0c-4.2,0.1-11.7,0.1-12.5,0.1l14.6-0.1c-0.1,0-0.1,0-0.2,0
				S98.3,120.6,98.2,120.6z"/>
			<path class="st3" d="M96.3,120.8C96.3,120.7,96.3,120.7,96.3,120.8L96.3,120.8c0.1-0.1,0.2-0.1,0.3-0.1c0.6,0,1.2,0,1.6,0
				c0,0.1,0,0.1,0,0.2v22.8c0,0.6-0.4,1.1-1,1.1c-0.5,0-1-0.5-1-1.1L96.3,120.8L96.3,120.8z"/>
			<path class="st4" d="M92.5,18.2V23h-5.7v-4.8c0-1.6,1.3-2.9,2.9-2.9C91.2,15.3,92.5,16.6,92.5,18.2z"/>
			<path class="st1" d="M91.6,120.8v51.1c-0.3-0.2-0.6-0.3-1-0.3h-1.9c-0.4,0-0.7,0.1-1,0.3v-51.1c-1.2,0-2.4,0-3.6,0
				c0.7,0,8,0,12.2-0.1l0,0C94.8,120.7,93.2,120.8,91.6,120.8z"/>
			<path class="st1" d="M90.6,171.6c0.4,0,0.7,0.1,1,0.3v4h-3.8v-4c0.3-0.2,0.6-0.3,1-0.3H90.6z"/>
			<path class="st5" d="M89.6,381.3c18.4,0,33.4-3.8,34.3-8.5c0,0.1,0.1,0.2,0.1,0.3l0,0v7.7c0,4.3-3.3,8.5-7.3,9.5
				c0,0-7.8,3-27.1,3s-27-2.9-27-2.9c-4.2-1-7.5-5.3-7.5-9.5v-7.7l0,0c0-0.1,0-0.1,0-0.2C56.5,377.6,71.4,381.3,89.6,381.3z"/>
			<path class="st1" d="M92.5,173.5v189.9c-1,0-1.9,0-2.9,0s-1.9,0-2.8,0V173.5c0-0.7,0.4-1.3,1-1.6v4h3.8v-4
				C92.1,172.2,92.5,172.8,92.5,173.5z"/>
		</g>
	</g>
</g>
</svg>
