<svg xmlns="http://www.w3.org/2000/svg" xmlns:xlink="http://www.w3.org/1999/xlink" version="1.1" id="Calque_1" x="0" y="0" width="595.3" height="524.7" viewBox="0 0 595.3 524.7" xml:space="preserve" enable-background="new 0 0 595.3 524.7">
  <style type="text/css">
    
	.st0{fill:url(#SVGID_1_);}
	.st1{fill:url(#SVGID_2_);}
	.st2{fill:url(#SVGID_3_);}
	.st3{opacity:0.5;fill:url(#SVGID_4_);}
	.st4{opacity:0.5;fill:url(#SVGID_5_);}
	.st5{opacity:0.5;fill:url(#SVGID_6_);}
	.st6{opacity:0.4;fill:url(#SVGID_7_);}
	.st7{fill:url(#SVGID_8_);}
	.st8{fill:url(#SVGID_9_);}
	.st9{fill:url(#SVGID_10_);}
	.st10{fill:url(#SVGID_11_);}
	.st11{fill:url(#SVGID_12_);}
	.st12{opacity:0.5;fill:url(#SVGID_13_);}
	.st13{opacity:0.7;fill:url(#SVGID_14_);}
	.st14{opacity:0.9;fill:url(#SVGID_15_);}

  </style>
  <radialGradient id="SVGID_1_" cx="-564.47" cy="-476.55" r="46.07" gradientUnits="userSpaceOnUse">
    <stop offset="0" stop-color="#FFFDF3"/>
    <stop offset="0.13" style="stop-color:#FFFEF7;stop-opacity:0.87"/>
    <stop offset="0.5" style="stop-color:#FFFFFD;stop-opacity:0.5"/>
    <stop offset="1" style="stop-color:#FFFFFF;stop-opacity:0"/>
  </radialGradient>
  <circle class="st0" cx="-564.5" cy="-475.6" r="46.1"/>
  <radialGradient id="SVGID_2_" cx="-485.47" cy="-475.55" r="46.07" gradientUnits="userSpaceOnUse">
    <stop offset="0" stop-color="#FFFDF3"/>
    <stop offset="0.11" style="stop-color:#FFFEF6;stop-opacity:0.89"/>
    <stop offset="0.52" style="stop-color:#FFFFFD;stop-opacity:0.48"/>
    <stop offset="1" style="stop-color:#FFFFFF;stop-opacity:0"/>
  </radialGradient>
  <circle class="st1" cx="-485.5" cy="-475.6" r="46.1"/>
  <radialGradient id="SVGID_3_" cx="-405.47" cy="-475.55" r="46.07" gradientUnits="userSpaceOnUse">
    <stop offset="0" stop-color="#FFFDF3"/>
    <stop offset="0.13" style="stop-color:#FFFEF7;stop-opacity:0.87"/>
    <stop offset="0.5" style="stop-color:#FFFFFD;stop-opacity:0.5"/>
    <stop offset="1" style="stop-color:#FFFFFF;stop-opacity:0"/>
  </radialGradient>
  <circle class="st2" cx="-405.5" cy="-475.6" r="46.1"/>
  <radialGradient id="SVGID_4_" cx="-575.52" cy="-463.9" r="70.78" gradientUnits="userSpaceOnUse">
    <stop offset="0" stop-color="#FFFDF3"/>
    <stop offset="0.5" style="stop-color:#FFFFFB;stop-opacity:0.5"/>
    <stop offset="1" style="stop-color:#FFFFFF;stop-opacity:0"/>
  </radialGradient>
  <circle class="st3" cx="-575.5" cy="-463.9" r="70.8"/>
  <radialGradient id="SVGID_5_" cx="-488.26" cy="-464.21" r="70.78" gradientUnits="userSpaceOnUse">
    <stop offset="0" stop-color="#FFFDF3"/>
    <stop offset="0.5" style="stop-color:#FFFFFB;stop-opacity:0.5"/>
    <stop offset="1" style="stop-color:#FFFFFF;stop-opacity:0"/>
  </radialGradient>
  <circle class="st4" cx="-488.3" cy="-464.2" r="70.8"/>
  <radialGradient id="SVGID_6_" cx="-402.42" cy="-463.78" r="70.78" gradientUnits="userSpaceOnUse">
    <stop offset="0" stop-color="#FFFDF3"/>
    <stop offset="0.5" style="stop-color:#FFFFFB;stop-opacity:0.5"/>
    <stop offset="1" style="stop-color:#FFFFFF;stop-opacity:0"/>
  </radialGradient>
  <circle class="st5" cx="-402.4" cy="-463.8" r="70.8"/>
  <radialGradient id="SVGID_7_" cx="313.27" cy="234.76" r="68.24" gradientTransform="matrix(1.1781 0 0 1.1012 -71.4246 3.8309)" gradientUnits="userSpaceOnUse">
    <stop offset="0" stop-color="#FFFDF3"/>
    <stop offset="0.5" style="stop-color:#FFFFFB;stop-opacity:0.5"/>
    <stop offset="1" style="stop-color:#FFFFFF;stop-opacity:0"/>
  </radialGradient>
  <ellipse class="st6" cx="297.6" cy="262.4" rx="80.4" ry="75.1"/>
  <radialGradient id="SVGID_8_" cx="297.16" cy="290.75" r="40.34" gradientUnits="userSpaceOnUse">
    <stop offset="0" stop-color="#FFFDF3"/>
    <stop offset="0.5" style="stop-color:#FFFFFB;stop-opacity:0.5"/>
    <stop offset="1" style="stop-color:#FFFFFF;stop-opacity:0"/>
  </radialGradient>
  <path class="st7" d="M324.6 291.2c-13 17.6-5.2 39.5-27.1 39.5 -21.9 0-15.1-22.3-27.5-39.5 -34.6-47.9 5.6-39.9 27.5-39.9C319.4 251.3 358.5 245.3 324.6 291.2z"/>
  <radialGradient id="SVGID_9_" cx="-1427.55" cy="127.27" r="60.03" gradientUnits="userSpaceOnUse">
    <stop offset="0" stop-color="#FFFDF3"/>
    <stop offset="0.5" style="stop-color:#FFFFFB;stop-opacity:0.5"/>
    <stop offset="1" style="stop-color:#FFFFFF;stop-opacity:0"/>
  </radialGradient>
  <path class="st8" d="M-1386.8 127.9c-19.4 26.2-7.7 58.8-40.3 58.8 -32.6 0-22.5-33.3-40.9-58.8 -51.5-71.3 8.3-59.3 40.9-59.3C-1394.5 68.6-1336.2 59.7-1386.8 127.9z"/>
  <radialGradient id="SVGID_10_" cx="-1429.89" cy="234.07" r="81.37" gradientUnits="userSpaceOnUse">
    <stop offset="0" stop-color="#FFFDF3"/>
    <stop offset="0.07" style="stop-color:#FFFEF5;stop-opacity:0.93"/>
    <stop offset="0.53" style="stop-color:#FFFFFD;stop-opacity:0.47"/>
    <stop offset="1" style="stop-color:#FFFFFF;stop-opacity:0"/>
  </radialGradient>
  <path class="st9" d="M-1368.9 210.5c46.6 156.8 13.3 127.9-59.4 127.8 -70.7-0.1-110.9 34.2-57.8-126.5 15.7-47.7 0.2-81.8 59.1-81.8C-1368.6 130.1-1383 162.9-1368.9 210.5z"/>
  <radialGradient id="SVGID_11_" cx="-1417.55" cy="127.27" r="60.03" gradientUnits="userSpaceOnUse">
    <stop offset="0" stop-color="#FFFDF3"/>
    <stop offset="0.5" style="stop-color:#FFFFFB;stop-opacity:0.5"/>
    <stop offset="1" style="stop-color:#FFFFFF;stop-opacity:0"/>
  </radialGradient>
  <path class="st10" d="M-1376.8 127.9c-19.4 26.2-7.7 58.8-40.3 58.8 -32.6 0-22.5-33.3-40.9-58.8 -51.5-71.3 8.3-59.3 40.9-59.3C-1384.5 68.6-1326.2 59.7-1376.8 127.9z"/>
  <radialGradient id="SVGID_12_" cx="-1419.89" cy="234.07" r="81.37" gradientUnits="userSpaceOnUse">
    <stop offset="0" stop-color="#FFFDF3"/>
    <stop offset="0.07" style="stop-color:#FFFEF5;stop-opacity:0.93"/>
    <stop offset="0.53" style="stop-color:#FFFFFD;stop-opacity:0.47"/>
    <stop offset="1" style="stop-color:#FFFFFF;stop-opacity:0"/>
  </radialGradient>
  <path class="st11" d="M-1358.9 210.5c46.6 156.8 13.3 127.9-59.4 127.8 -70.7-0.1-110.9 34.2-57.8-126.5 15.7-47.7 0.2-81.8 59.1-81.8C-1358.6 130.1-1373 162.9-1358.9 210.5z"/>
  <radialGradient id="SVGID_13_" cx="-1148.53" cy="159.35" r="166.2" gradientTransform="matrix(1.1781 0 0 1.1571 -71.4246 -0.3911)" gradientUnits="userSpaceOnUse">
    <stop offset="0" stop-color="#FFFDF3"/>
    <stop offset="0.5" style="stop-color:#FFFFFB;stop-opacity:0.5"/>
    <stop offset="1" style="stop-color:#FFFFFF;stop-opacity:0"/>
  </radialGradient>
  <ellipse class="st12" cx="-1424.5" cy="184" rx="195.8" ry="192.3"/>
  <radialGradient id="SVGID_14_" cx="461.68" cy="-243.85" r="129.99" gradientTransform="matrix(1.4788 0 0 1.3599 -456.8426 -30.4579)" gradientUnits="userSpaceOnUse">
    <stop offset="0" stop-color="#FFFDF3"/>
    <stop offset="0.13" style="stop-color:#FFFEF7;stop-opacity:0.87"/>
    <stop offset="0.5" style="stop-color:#FFFFFD;stop-opacity:0.5"/>
    <stop offset="1" style="stop-color:#FFFFFF;stop-opacity:0"/>
  </radialGradient>
  <ellipse class="st13" cx="225.9" cy="-358.2" rx="192.2" ry="176.8"/>
  <radialGradient id="SVGID_15_" cx="230.28" cy="-405.6" r="119.74" gradientUnits="userSpaceOnUse">
    <stop offset="0" stop-color="#FFFDF3"/>
    <stop offset="0.5" style="stop-color:#FFFFFB;stop-opacity:0.5"/>
    <stop offset="1" style="stop-color:#FFFFFF;stop-opacity:0"/>
  </radialGradient>
  <path class="st14" d="M315.8-417.5C420-221.1 227.6-296.6 188.5-296.6c-39.1 0-130.9-40.8-25.2-147 26.8-26.9 45.4-85.3 84.5-85.3C286.9-528.9 297-452.8 315.8-417.5z"/>
</svg>
