<svg xmlns="http://www.w3.org/2000/svg" xmlns:xlink="http://www.w3.org/1999/xlink" version="1.1" id="Calque_1" x="0" y="0" width="118.1" height="247" viewBox="0 0 118.1 247" xml:space="preserve" enable-background="new 0 0 118.1 247">
  <style type="text/css">
    
	.st0{fill:#467A9A;}
	.st1{fill:#8F9B9B;}
	.st2{fill:#231815;}
	.st3{fill:#F2D7BA;}
	.st4{fill:#C4583B;}
	.st5{fill:none;stroke:#231815;stroke-width:2;stroke-miterlimit:10;}
	.st6{fill:#391739;}
	.st7{fill:#763637;}

  </style>
  <g id="XMLID_22_">
    <path class="st4" d="M49.2 151.7h45.2V84.4H78.9h-4l-6.3 13.3 -6.8-13.3H43.5 31.9c0 0-8.4 2.7-8 8.9 -0.3 8.5-0.2 43-0.1 58.4h0H49.2z"/>
    <path class="st3" d="M23.9 151.7L23.9 151.7c0 4.6 0 7.5 0 7.5s0.3 7.3 7 9.8c1.4 0.5 3 0.8 5 0.8 11.5 0 13.3-10.6 13.3-10.6v-7.5H23.9z"/>
    <path class="st1" d="M30.6 169.9l-0.4 20.8h1.3 20.4 7.1v-21.2h10v21.2h17.7 7.7v-25.2 -13.7H49.2v7.5c0 0-1.8 10.6-13.3 10.6 -2 0-3.6-0.3-5-0.8L30.6 169.9z"/>
    <rect x="31.5" y="190.6" class="st3" width="20.4" height="26.2"/>
    <path class="st3" d="M74.9 84.4h4C93 83.1 94.4 69.8 94.4 69.8V50.4c0 0-34.1 0-39-12.8 -2.2 8-1.8 12-3.5 19.5 0 0-8-11.1-13.3-6.6 -1.2 1-2 0.8-2.6 0h0C26 65 43.5 71.2 43.5 71.2v13.3h18.2l6.8 13.3L74.9 84.4zM62.9 60.8c0-1 0.4-2 1.1-2.7 0.7-0.7 1.6-1.1 2.7-1.1 1 0 2 0.4 2.7 1.1 0.7 0.7 1.1 1.6 1.1 2.7 0 1-0.4 2-1.1 2.7 -0.7 0.7-1.6 1.1-2.7 1.1C64.6 64.5 62.9 62.8 62.9 60.8zM81.5 60.8c0-1 0.4-2 1.1-2.7 0.7-0.7 1.6-1.1 2.7-1.1 1 0 2 0.4 2.7 1.1 0.7 0.7 1.1 1.6 1.1 2.7 0 1-0.4 2-1.1 2.7 -0.7 0.7-1.6 1.1-2.7 1.1C83.2 64.5 81.5 62.8 81.5 60.8z"/>
    <path class="st6" d="M36 50.4c0.6 0.8 1.5 1 2.6 0 5.3-4.4 13.3 6.6 13.3 6.6 1.8-7.5 1.3-11.5 3.5-19.5 4.9 12.8 39 12.8 39 12.8s4.9 1.8 4.9-0.4c0-22.2-9.7-38.1-26.6-38.1C34.6 9.6 34.6 35.7 34.6 35.7S33.8 47.4 36 50.4C36 50.4 36 50.4 36 50.4z"/>
    <path class="st0" d="M52 216.8h-0.1H31.5v14.6H52c5.2 0 9.5 0.4 9.5-7.3C61.4 220.1 57.2 216.8 52 216.8z"/>
    <path class="st2" d="M64 58.1c-0.7 0.7-1.1 1.6-1.1 2.7 0 2.1 1.7 3.8 3.8 3.8 1 0 2-0.4 2.7-1.1 0.7-0.7 1.1-1.6 1.1-2.7 0-1-0.4-2-1.1-2.7 -0.7-0.7-1.6-1.1-2.7-1.1C65.6 57 64.7 57.4 64 58.1z"/>
    <path class="st0" d="M68.9 216.8v14.6h20.5c5.2 0 9.5 0.4 9.5-7.3 0-4-4.2-7.3-9.5-7.3h-2.8H68.9z"/>
    <rect x="68.9" y="190.6" class="st3" width="17.7" height="26.2"/>
    <path class="st2" d="M82.6 58.1c-0.7 0.7-1.1 1.6-1.1 2.7 0 2.1 1.7 3.8 3.8 3.8 1 0 2-0.4 2.7-1.1 0.7-0.7 1.1-1.6 1.1-2.7 0-1-0.4-2-1.1-2.7 -0.7-0.7-1.6-1.1-2.7-1.1C84.2 57 83.3 57.4 82.6 58.1z"/>
    <path class="st7" d="M94.4 151.7v13.7c5.3 0 4.9-7.5 4.9-7.5s-0.4-48.7 0-61.1c0.4-12.4-4.9-12.4-4.9-12.4V151.7z"/>
    <line class="st5" x1="81.5" y1="72" x2="70.4" y2="72"/>
  </g>
</svg>
