<?xml version="1.0" encoding="utf-8"?>
<!-- Generator: Adobe Illustrator 17.0.0, SVG Export Plug-In . SVG Version: 6.00 Build 0)  -->
<!DOCTYPE svg PUBLIC "-//W3C//DTD SVG 1.1//EN" "http://www.w3.org/Graphics/SVG/1.1/DTD/svg11.dtd">
<svg version="1.1" id="Calque_1" xmlns="http://www.w3.org/2000/svg" xmlns:xlink="http://www.w3.org/1999/xlink" x="0px" y="0px"
	 width="595.3px" height="177px" viewBox="0 0 595.3 177" style="enable-background:new 0 0 595.3 177;" xml:space="preserve">
<style type="text/css">
	.st0{fill:#1390A7;}
	.st1{fill:#191B12;}
	.st2{fill:#3B183A;}
	.st3{opacity:0.8;fill:#4A718E;}
</style>
<g id="XMLID_1_">
	<g>
		<rect x="177.2" y="20.3" class="st0" width="257.7" height="134.4"/>
	</g>
	<g>
	</g>
</g>
<path class="st1" d="M412.5,91.3c0,2.1-1.7,3.8-3.8,3.8l0,0c-2.1,0-3.8-1.7-3.8-3.8v-21c0-2.1,1.7-3.8,3.8-3.8l0,0
	c2.1,0,3.8,1.7,3.8,3.8V91.3z"/>
<path class="st1" d="M301.5,91.3c0,2.1-1.7,3.8-3.8,3.8l0,0c-2.1,0-3.8-1.7-3.8-3.8v-21c0-2.1,1.7-3.8,3.8-3.8l0,0
	c2.1,0,3.8,1.7,3.8,3.8V91.3z"/>
<rect x="312.9" y="20.3" class="st2" width="2" height="134.4"/>
<polygon class="st3" points="177.5,20 177.5,155 160.5,142.5 160.5,30.7 "/>
</svg>
