<svg xmlns="http://www.w3.org/2000/svg" xmlns:xlink="http://www.w3.org/1999/xlink" version="1.1" id="Calque_1" x="0" y="0" width="498" height="248" viewBox="0 0 498 248" xml:space="preserve" enable-background="new 0 0 498 248">
  <style type="text/css">
    
	.st0{fill:#EAE3C2;}
	.st1{fill:#5B3D39;}
	.st2{fill:#CC5F42;}
	.st3{fill:#756967;}
	.st4{fill:#763637;}

  </style>
  <path class="st3" d="M245.4 66.4c0 29.9 0 59.7 0 89.6 0 12.9 20 12.9 20 0 0-29.9 0-59.7 0-89.6C265.4 53.5 245.4 53.5 245.4 66.4L245.4 66.4z"/>
  <path class="st0" d="M255.5 65.2l-0.1 100.4c0 0 11.3 0.2 11.3-7 0-7.2 0-92.3 0-92.3L255.5 65.2z"/>
  <path class="st3" d="M228.9 84.2c0 46.4 0 92.7 0 139.1 0 0.3 0 0.6 0 0.9 0 12.9 20 12.9 20 0 0-46.4 0-92.7 0-139.1 0-0.3 0-0.6 0-0.9C248.9 71.3 228.9 71.3 228.9 84.2L228.9 84.2z"/>
  <path class="st0" d="M239 82.4l-0.1 150.8c0 0 11.3 0.3 11.3-10.6s0-138.7 0-138.7L239 82.4z"/>
  <path class="st3" d="M86 54.6c0 42.7 0 85.4 0 128.1 0 12.9 20 12.9 20 0 0-42.7 0-85.4 0-128.1C106 41.7 86 41.7 86 54.6L86 54.6z"/>
  <path class="st0" d="M96.4 55l-0.1 138c0 0 11.3 0.3 11.3-9.7s0-127 0-127L96.4 55z"/>
  <path class="st3" d="M387.1 54.6c0 42.7 0 85.4 0 128.1 0 12.9 20 12.9 20 0 0-42.7 0-85.4 0-128.1C407.1 41.7 387.1 41.7 387.1 54.6L387.1 54.6z"/>
  <path class="st0" d="M397.5 55l-0.1 138c0 0 11.3 0.3 11.3-9.7s0-127 0-127L397.5 55z"/>
  <path class="st3" d="M480 59.9c0 13.5-100.7 24.4-225 24.4 -124.3 0-225-10.9-225-24.4 0-2.3 0-10.4 0.4-10.4 28.9 0 121.7-14 224.6-14 104.2 0 201.7-1.2 224.9 13.5C479.9 49 480 57.7 480 59.9z"/>
  <ellipse class="st0" cx="255" cy="49.9" rx="225" ry="24.4"/>
  <path class="st1" d="M148.9 150.7c-0.1 22-0.3 44-0.4 66.1 0 6.5 10 6.4 10 0 0.1-22 0.3-44 0.4-66.1C159 144.2 149 144.2 148.9 150.7L148.9 150.7z"/>
  <path class="st2" d="M149.1 117.4c0 16.5 0 32.9 0 49.4 0 6.4 10 6.4 10 0 0-16.5 0-32.9 0-49.4C159.1 111 149.1 111 149.1 117.4L149.1 117.4z"/>
  <path class="st4" d="M191.1 113.5c-0.6 2.3-16.5 4.3-36.9 4.3 -20.4 0-36.4-2-36.9-4.3 0 0-1.8-2.6 0.1-4 3.7-2.9 19.9-0.3 36.8-0.3 17.1 0 34.1-3.3 36.8 0.3C192 110.7 191.3 113 191.1 113.5z"/>
  <ellipse class="st2" cx="154.3" cy="109.8" rx="36.9" ry="4.3"/>
  <path class="st2" d="M145.9 168.1c-11.6 18.7-23.3 37.4-34.9 56.1 -3.4 5.5 5.2 10.5 8.6 5 11.6-18.7 23.3-37.4 34.9-56.1C157.9 167.7 149.3 162.7 145.9 168.1L145.9 168.1z"/>
  <path class="st2" d="M155.6 173.1c11.5 18.8 23.1 37.5 34.6 56.3 3.4 5.5 12 0.5 8.6-5 -11.5-18.8-23.1-37.5-34.6-56.3C160.9 162.6 152.2 167.6 155.6 173.1L155.6 173.1z"/>
  <path class="st1" d="M351.5 152.7c-0.1 22-0.3 44-0.4 66.1 0 6.5 10 6.4 10 0 0.1-22 0.3-44 0.4-66.1C361.5 146.2 351.5 146.2 351.5 152.7L351.5 152.7z"/>
  <path class="st2" d="M351.6 119.4c0 16.5 0 32.9 0 49.4 0 6.4 10 6.4 10 0 0-16.5 0-32.9 0-49.4C361.6 113 351.6 113 351.6 119.4L351.6 119.4z"/>
  <path class="st4" d="M393.7 115.5c-0.6 2.3-16.5 4.3-36.9 4.3 -20.4 0-36.4-2-36.9-4.3 0 0-1.8-2.6 0.1-4 3.7-2.9 19.9-0.3 36.8-0.3 17.1 0 34.1-3.3 36.8 0.3C394.5 112.7 393.8 115 393.7 115.5z"/>
  <ellipse class="st2" cx="356.8" cy="111.8" rx="36.9" ry="4.3"/>
  <path class="st2" d="M348.4 170.1c-11.6 18.7-23.3 37.4-34.9 56.1 -3.4 5.5 5.2 10.5 8.6 5 11.6-18.7 23.3-37.4 34.9-56.1C360.4 169.7 351.8 164.7 348.4 170.1L348.4 170.1z"/>
  <path class="st2" d="M358.1 175.1c11.5 18.8 23.1 37.5 34.6 56.3 3.4 5.5 12 0.5 8.6-5 -11.5-18.8-23.1-37.5-34.6-56.3C363.4 164.6 354.8 169.6 358.1 175.1L358.1 175.1z"/>
</svg>
