<?xml version="1.0" encoding="utf-8"?>
<!-- Generator: Adobe Illustrator 17.0.0, SVG Export Plug-In . SVG Version: 6.00 Build 0)  -->
<!DOCTYPE svg PUBLIC "-//W3C//DTD SVG 1.1//EN" "http://www.w3.org/Graphics/SVG/1.1/DTD/svg11.dtd">
<svg version="1.1" id="Calque_1" xmlns="http://www.w3.org/2000/svg" xmlns:xlink="http://www.w3.org/1999/xlink" x="0px" y="0px"
	 width="1280px" height="599.625px" viewBox="0 0 1280 599.625" enable-background="new 0 0 1280 599.625" xml:space="preserve">
<g>
	<path fill="#B91918" d="M647.639,308.269v-35.298c0-3.624-2.938-6.562-6.563-6.562c-3.624,0-6.562,2.938-6.562,6.562v35.297
		c-3.629,2.217-6.06,6.203-6.06,10.768c0,6.97,5.652,12.622,12.622,12.622c6.972,0,12.622-5.652,12.622-12.622
		C653.698,314.473,651.268,310.486,647.639,308.269z"/>
	<path fill="#FFFFFF" d="M647.639,308.269v-35.298c0-3.624-2.938-6.562-6.563-6.562c-3.624,0-6.562,2.938-6.562,6.562v35.297
		c-3.629,2.217-6.06,6.203-6.06,10.768c0,6.97,5.652,12.622,12.622,12.622c6.972,0,12.622-5.652,12.622-12.622
		C653.698,314.473,651.268,310.486,647.639,308.269z M640.874,326.554c-4.277,0-7.745-3.468-7.745-7.745
		c0-3.366,2.151-6.223,5.15-7.291v-39.404h5.189v39.404c3,1.068,5.151,3.925,5.151,7.291
		C648.62,323.086,645.152,326.554,640.874,326.554z"/>
</g>
</svg>
