<?xml version="1.0" encoding="utf-8"?>
<!-- Generator: Adobe Illustrator 16.0.0, SVG Export Plug-In . SVG Version: 6.00 Build 0)  -->
<!DOCTYPE svg PUBLIC "-//W3C//DTD SVG 1.1//EN" "http://www.w3.org/Graphics/SVG/1.1/DTD/svg11.dtd">
<svg version="1.1" id="Calque_1" xmlns="http://www.w3.org/2000/svg" xmlns:xlink="http://www.w3.org/1999/xlink" x="0px" y="0px"
	 width="240px" height="516px" viewBox="0 0 240 516" style="enable-background:new 0 0 240 516;" xml:space="preserve">
<style type="text/css">
<![CDATA[
	.st0{fill:#E4585E;}
	.st1{fill:#4D7EA1;}
	.st2{fill:#EE8170;}
	.st3{fill:#F6D9BE;}
	.st4{fill:#949D9F;}
	.st5{fill:#FFFFFF;}
	.st6{fill:#793838;}
	.st7{fill:#412039;}
]]>
</style>
<g>
	<g id="XMLID_12_">
		<g>
			<path class="st0" d="M89,320.4h83.5V196h-28.6h-7.4l-11.6,24.6L112.2,196H78.5H57c0,0-15.6,4.9-14.7,16.4
				c-0.6,15.7-0.3,79.5-0.1,108h0H89z"/>
			<path class="st3" d="M42.2,320.4L42.2,320.4c0,8.5,0.1,13.9,0.1,13.9s0.6,13.5,12.9,18.1c2.5,1,5.6,1.6,9.2,1.6
				c21.3,0,24.6-19.6,24.6-19.6v-13.9H42.2z"/>
			<path class="st1" d="M54,443.7v24.9h37.9c9.7,0,17.5,0.8,17.5-13.5c0-4.2-2.5-7.9-6.4-10.4v1.1L54,443.7z"/>
			<path class="st1" d="M54,441.5v2.2l49,2v-1.1c-3-1.9-6.9-3.1-11.1-3.1H54z"/>
			<path class="st3" d="M112.2,196l12.6,24.6l11.6-24.6h7.4c26.2-2.5,28.6-27,28.6-27v-36c0,0-63,0-72-23.7
				c-4.1,14.7-3.3,22.1-6.5,36c0,0-14.7-20.5-24.6-12.3c-2.1,1.8-3.7,1.5-4.8,0h0c-18.4,27,14,38.5,14,38.5V196H112.2z M114.3,152.2
				c0-1.9,0.8-3.7,2-4.9c1.3-1.3,3-2,4.9-2c1.9,0,3.7,0.8,4.9,2c1.3,1.3,2,3,2,4.9c0,1.9-0.8,3.7-2,4.9c-1.3,1.3-3,2-4.9,2
				C117.4,159.2,114.3,156.1,114.3,152.2z M148.7,152.2c0-1.9,0.8-3.7,2-4.9c1.3-1.3,3-2,4.9-2c1.9,0,3.7,0.8,4.9,2
				c1.2,1.3,2,3,2,4.9c0,1.9-0.8,3.7-2,4.9c-1.3,1.3-3,2-4.9,2C151.8,159.2,148.7,156.1,148.7,152.2z"/>
			<path class="st7" d="M64.5,133c1.1,1.5,2.7,1.8,4.8,0c9.8-8.2,24.6,12.3,24.6,12.3c3.3-13.9,2.5-21.3,6.5-36
				c9,23.7,72,23.7,72,23.7s9,3.3,9-0.8c0-41.1-18-70.4-49.1-70.4C61.9,57.7,61.9,106,61.9,106S60.4,127.5,64.5,133
				C64.5,133,64.5,133,64.5,133z"/>
			<path class="st4" d="M158.1,440.8h5.2c3.3,0,6.5,0.7,9.1,2v-96.9v-25.4H89v13.9c0,0-3.3,19.6-24.6,19.6c-3.7,0-6.7-0.6-9.2-1.6
				l-0.6,1.6l-0.8,89.7H54v-2.2h37.9c4.2,0,8.1,1.2,11.1,3.1v-91.4h22.5v39.2v48.4H158.1z"/>
			<path d="M116.4,147.3c-1.3,1.3-2,3-2,4.9c0,3.8,3.1,7,7,7c1.9,0,3.7-0.8,4.9-2c1.3-1.3,2-3,2-4.9c0-1.9-0.8-3.7-2-4.9
				c-1.3-1.3-3-2-4.9-2C119.4,145.3,117.6,146,116.4,147.3z"/>
			<path class="st1" d="M125.4,443.7v24.1h37.9c9.7,0,17.5,0.8,17.5-13.5c0-4.9-3.4-9.2-8.4-11.5v1H125.4z"/>
			<path class="st1" d="M125.4,440.8v2.9h47v-1c-2.7-1.2-5.8-2-9.1-2h-5.2H125.4z"/>
			<path d="M150.7,147.3c-1.2,1.3-2,3-2,4.9c0,3.8,3.1,7,6.9,7c1.9,0,3.7-0.8,4.9-2c1.2-1.3,2-3,2-4.9c0-1.9-0.8-3.7-2-4.9
				c-1.3-1.3-3-2-4.9-2C153.7,145.3,152,146,150.7,147.3z"/>
			<path class="st6" d="M172.4,320.4v25.4c9.8,0,9-13.9,9-13.9s-0.8-90,0-113c0.8-22.9-9-22.9-9-22.9V320.4z"/>
		</g>
		<g>
		</g>
	</g>
</g>
<path class="st2" d="M130,235c0,2.8-2.2,5-5,5l0,0c-2.8,0-5-2.2-5-5l0,0c0-2.8,2.2-5,5-5l0,0C127.7,230,130,232.2,130,235L130,235z"
	/>
<path class="st2" d="M130,259c0,2.8-2.2,5-5,5l0,0c-2.8,0-5-2.2-5-5l0,0c0-2.8,2.2-5,5-5l0,0C127.7,254,130,256.2,130,259L130,259z"
	/>
<path class="st2" d="M130,284.5c0,2.8-2.2,5-5,5l0,0c-2.8,0-5-2.2-5-5l0,0c0-2.8,2.2-5,5-5l0,0C127.7,279.5,130,281.7,130,284.5
	L130,284.5z"/>
<path class="st5" d="M152.7,171.7c0,7.4-6,13.3-13.3,13.3c-7.4,0-13.3-6-13.3-13.3H152.7z"/>
</svg>
